<svg width="383" height="364" viewBox="0 0 383 364" fill="none" xmlns="http://www.w3.org/2000/svg">
<g clip-path="url(#clip0_896_15979)">
<path d="M45.65 316.3C45.65 316.3 88.73 364.85 157.47 363C226.21 361.15 285.13 314.85 333.85 278.61C382.57 242.37 395.99 185.61 368.08 141.08C340.17 96.55 295.19 114.9 238.24 85.7C181.29 56.5 170.55 40.09 106.85 46.7C43.15 53.31 -5.83 124.48 0.880001 200.8C7.59 277.12 45.65 316.3 45.65 316.3Z" fill="#62F0FE"/>
<path opacity="0.7" d="M45.65 316.3C45.65 316.3 88.73 364.85 157.47 363C226.21 361.15 285.13 314.85 333.85 278.61C382.57 242.37 395.99 185.61 368.08 141.08C340.17 96.55 295.19 114.9 238.24 85.7C181.29 56.5 170.55 40.09 106.85 46.7C43.15 53.31 -5.83 124.48 0.880001 200.8C7.59 277.12 45.65 316.3 45.65 316.3Z" fill="#FAFEFE"/>
<path opacity="0.2" d="M264.01 247.12V109.82C264.01 106.788 261.552 104.33 258.52 104.33H199.46C196.428 104.33 193.97 106.788 193.97 109.82V247.12C193.97 250.152 196.428 252.61 199.46 252.61H258.52C261.552 252.61 264.01 250.152 264.01 247.12Z" fill="#010F14"/>
<path d="M261.07 245.37V108.07C261.07 105.038 258.612 102.58 255.58 102.58H196.52C193.488 102.58 191.03 105.038 191.03 108.07V245.37C191.03 248.402 193.488 250.86 196.52 250.86H255.58C258.612 250.86 261.07 248.402 261.07 245.37Z" fill="#B5B5B5" stroke="#063646" stroke-linecap="round" stroke-linejoin="round"/>
<path d="M255.58 102.57H196.51C195.79 102.57 195.076 102.712 194.411 102.988C193.745 103.264 193.141 103.669 192.632 104.179C192.123 104.689 191.719 105.294 191.444 105.96C191.169 106.626 191.029 107.34 191.03 108.06V111.4H261.03V108.06C261.033 106.61 260.461 105.218 259.439 104.189C258.418 103.16 257.03 102.578 255.58 102.57Z" fill="#C1FD93" stroke="#063646" stroke-linecap="round" stroke-linejoin="round"/>
<path d="M239.93 118.66H195.13V191.85H239.93V118.66Z" fill="#063646" stroke="#063646" stroke-linecap="round" stroke-linejoin="round"/>
<path d="M191 243V245.4C190.999 246.12 191.139 246.834 191.414 247.5C191.689 248.166 192.093 248.771 192.602 249.281C193.111 249.791 193.715 250.196 194.381 250.472C195.046 250.748 195.76 250.89 196.48 250.89H255.55C256.27 250.89 256.984 250.748 257.649 250.472C258.315 250.196 258.919 249.791 259.428 249.281C259.937 248.771 260.341 248.166 260.616 247.5C260.891 246.834 261.031 246.12 261.03 245.4V243H191Z" fill="#C1FD93" stroke="#063646" stroke-linecap="round" stroke-linejoin="round"/>
<path d="M235.82 227.82H221.94V242.96H235.82V227.82Z" stroke="#063646" stroke-linecap="round" stroke-linejoin="round"/>
<path d="M232.67 227.82C232.67 227.009 232.43 226.217 231.979 225.542C231.529 224.868 230.888 224.343 230.139 224.032C229.39 223.722 228.565 223.641 227.77 223.799C226.975 223.957 226.244 224.348 225.671 224.921C225.097 225.494 224.707 226.225 224.549 227.02C224.391 227.816 224.472 228.64 224.782 229.389C225.092 230.138 225.618 230.779 226.292 231.229C226.966 231.68 227.759 231.92 228.57 231.92C229.108 231.92 229.642 231.814 230.139 231.608C230.636 231.402 231.088 231.1 231.469 230.719C231.85 230.339 232.152 229.887 232.358 229.389C232.564 228.892 232.67 228.359 232.67 227.82Z" stroke="#063646" stroke-linecap="round" stroke-linejoin="round"/>
<path d="M227.31 223.72V191.85" stroke="#063646" stroke-linecap="round" stroke-linejoin="round"/>
<path d="M208.06 201.32H195.13V217.73H208.06V201.32Z" stroke="#063646" stroke-linecap="round" stroke-linejoin="round"/>
<path d="M241.5 242.96H228.88V250.85H241.5V242.96Z" fill="#063646" stroke="#063646" stroke-linecap="round" stroke-linejoin="round"/>
<path d="M225.9 134.89H219.19L211.33 153.06H217L210.33 170.89L225.67 148.39H219.67L225.9 134.89Z" fill="#C1FD93"/>
<path opacity="0.2" d="M100.55 261.34H110.84V331.34H100.55C99.8304 331.34 99.1178 331.198 98.4529 330.923C97.788 330.648 97.1839 330.244 96.675 329.735C96.1662 329.226 95.7625 328.622 95.4871 327.957C95.2117 327.292 95.07 326.58 95.07 325.86V266.83C95.0687 266.11 95.2095 265.396 95.4843 264.73C95.7591 264.064 96.1625 263.459 96.6715 262.949C97.1805 262.439 97.7851 262.034 98.4506 261.758C99.1161 261.482 99.8295 261.34 100.55 261.34Z" fill="#010F14"/>
<path d="M98.71 259.81H109V329.81H98.71C97.9895 329.81 97.2761 329.668 96.6106 329.392C95.9451 329.116 95.3405 328.711 94.8315 328.201C94.3225 327.692 93.9191 327.086 93.6443 326.42C93.3695 325.754 93.2287 325.041 93.23 324.32V265.29C93.23 263.837 93.8073 262.443 94.835 261.415C95.8627 260.387 97.2566 259.81 98.71 259.81Z" fill="#C1FD93" stroke="#063646" stroke-linecap="round" stroke-linejoin="round"/>
<path opacity="0.2" d="M300.86 261.57H290.57V291.71C291.467 291.068 292.523 290.686 293.623 290.606C294.723 290.526 295.824 290.75 296.804 291.254C297.785 291.758 298.608 292.523 299.182 293.465C299.757 294.406 300.061 295.487 300.061 296.59C300.061 297.693 299.757 298.774 299.182 299.716C298.608 300.657 297.785 301.422 296.804 301.926C295.824 302.43 294.723 302.655 293.623 302.574C292.523 302.494 291.467 302.112 290.57 301.47V331.61H300.86C302.316 331.61 303.712 331.032 304.742 330.002C305.772 328.973 306.35 327.576 306.35 326.12V267.06C306.35 265.604 305.772 264.208 304.742 263.178C303.712 262.148 302.316 261.57 300.86 261.57Z" fill="#010F14"/>
<path d="M299.1 259.81H288.81V290C289.707 289.358 290.763 288.976 291.863 288.896C292.963 288.816 294.064 289.04 295.044 289.544C296.025 290.048 296.848 290.813 297.422 291.755C297.997 292.696 298.301 293.777 298.301 294.88C298.301 295.983 297.997 297.064 297.422 298.006C296.848 298.947 296.025 299.712 295.044 300.216C294.064 300.72 292.963 300.945 291.863 300.864C290.763 300.784 289.707 300.402 288.81 299.76V329.9H299.1C299.82 329.9 300.534 329.758 301.199 329.482C301.865 329.206 302.469 328.801 302.978 328.291C303.487 327.782 303.891 327.176 304.166 326.51C304.441 325.844 304.581 325.131 304.58 324.41V265.29C304.58 263.837 304.003 262.443 302.975 261.415C301.947 260.387 300.553 259.81 299.1 259.81Z" fill="#C1FD93" stroke="#063646" stroke-linecap="round" stroke-linejoin="round"/>
<path opacity="0.2" d="M270.14 262.16H132.84C129.808 262.16 127.35 264.618 127.35 267.65V326.71C127.35 329.742 129.808 332.2 132.84 332.2H270.14C273.172 332.2 275.63 329.742 275.63 326.71V267.65C275.63 264.618 273.172 262.16 270.14 262.16Z" fill="#010F14"/>
<path d="M266.62 259.81H129.32C126.288 259.81 123.83 262.268 123.83 265.3V324.36C123.83 327.392 126.288 329.85 129.32 329.85H266.62C269.652 329.85 272.11 327.392 272.11 324.36V265.3C272.11 262.268 269.652 259.81 266.62 259.81Z" fill="#063646" stroke="#063646" stroke-linecap="round" stroke-linejoin="round"/>
<path d="M264.91 261.38H131.03C127.998 261.38 125.54 263.838 125.54 266.87V322.79C125.54 325.822 127.998 328.28 131.03 328.28H264.91C267.942 328.28 270.4 325.822 270.4 322.79V266.87C270.4 263.838 267.942 261.38 264.91 261.38Z" fill="#C1FD93" stroke="#063646" stroke-linecap="round" stroke-linejoin="round"/>
<path d="M136 263.91H234.83V326.38H136C134.433 326.38 132.929 325.757 131.821 324.649C130.713 323.541 130.09 322.037 130.09 320.47V269.82C130.09 268.253 130.713 266.749 131.821 265.641C132.929 264.533 134.433 263.91 136 263.91Z" fill="#B5B5B5" stroke="#063646" stroke-linecap="round" stroke-linejoin="round"/>
<path d="M262.96 298.61C265.224 298.61 267.06 296.774 267.06 294.51C267.06 292.246 265.224 290.41 262.96 290.41C260.696 290.41 258.86 292.246 258.86 294.51C258.86 296.774 260.696 298.61 262.96 298.61Z" fill="#063646" stroke="#063646" stroke-linecap="round" stroke-linejoin="round"/>
<path d="M240.87 314.39H238.03V326.38H240.87V314.39Z" stroke="#063646" stroke-linecap="round" stroke-linejoin="round"/>
<path d="M240.87 296.09H238.03V308.08H240.87V296.09Z" stroke="#063646" stroke-linecap="round" stroke-linejoin="round"/>
<path d="M160.63 200.32H132.63V198.79C132.63 198.392 132.472 198.011 132.191 197.729C131.909 197.448 131.528 197.29 131.13 197.29C130.732 197.29 130.351 197.448 130.069 197.729C129.788 198.011 129.63 198.392 129.63 198.79V222.79C129.63 223.188 129.788 223.569 130.069 223.851C130.351 224.132 130.732 224.29 131.13 224.29C131.528 224.29 131.909 224.132 132.191 223.851C132.472 223.569 132.63 223.188 132.63 222.79V220.64H160.63C161.594 220.637 162.517 220.253 163.197 219.57C163.878 218.888 164.26 217.964 164.26 217V204C164.265 203.52 164.175 203.043 163.995 202.597C163.815 202.151 163.549 201.746 163.212 201.404C162.874 201.062 162.472 200.79 162.029 200.604C161.586 200.418 161.111 200.321 160.63 200.32ZM132.63 202.32H151.63V218.62H132.63V202.32ZM162.26 217C162.26 217.433 162.089 217.849 161.783 218.156C161.478 218.463 161.063 218.637 160.63 218.64H153.54V202.34H160.63C161.062 202.34 161.477 202.512 161.783 202.817C162.088 203.123 162.26 203.538 162.26 203.97V217Z" fill="#063646"/>
<path d="M144.08 167.56H132.35V192.49H152.85V175.61L144.08 167.56Z" fill="#C1FD93" stroke="#063646" stroke-linecap="round" stroke-linejoin="round"/>
<path d="M145.44 174.91H138C136.614 174.91 135.49 176.034 135.49 177.42V186.34C135.49 187.726 136.614 188.85 138 188.85H145.44C146.826 188.85 147.95 187.726 147.95 186.34V177.42C147.95 176.034 146.826 174.91 145.44 174.91Z" fill="#FAFEFE" stroke="#063646" stroke-linecap="round" stroke-linejoin="round"/>
<path d="M141.6 175.16V188.86" stroke="#063646" stroke-linecap="round" stroke-linejoin="round"/>
<path d="M135.49 182.14H147.82" stroke="#063646" stroke-linecap="round" stroke-linejoin="round"/>
<path d="M138.48 188.74V185.63C138.48 184.803 138.809 184.009 139.394 183.424C139.979 182.839 140.773 182.51 141.6 182.51H141.71C142.538 182.51 143.333 182.838 143.92 183.423C144.506 184.008 144.837 184.802 144.84 185.63V188.85" stroke="#063646" stroke-linecap="round" stroke-linejoin="round"/>
<path d="M144.84 175.63V178.74C144.837 179.568 144.506 180.362 143.92 180.947C143.333 181.532 142.538 181.86 141.71 181.86H141.6C141.19 181.86 140.785 181.779 140.406 181.623C140.027 181.466 139.684 181.236 139.394 180.946C139.104 180.656 138.874 180.313 138.717 179.934C138.561 179.555 138.48 179.15 138.48 178.74V175.52" stroke="#063646" stroke-linecap="round" stroke-linejoin="round"/>
<path opacity="0.2" d="M340.36 151.73C340.36 151.597 340.307 151.47 340.214 151.376C340.12 151.283 339.993 151.23 339.86 151.23H320C319.868 151.233 319.743 151.286 319.649 151.379C319.556 151.472 319.503 151.598 319.5 151.73V166.4C319.503 166.532 319.557 166.657 319.65 166.75L323.78 217.36C323.775 217.383 323.775 217.407 323.78 217.43V269.75C323.779 269.823 323.795 269.895 323.826 269.961C323.857 270.027 323.903 270.084 323.96 270.13L326.73 287.25C326.749 287.367 326.808 287.473 326.898 287.55C326.988 287.627 327.102 287.669 327.22 287.67H328L328.67 325.92C328.698 326.236 328.844 326.53 329.078 326.744C329.312 326.959 329.618 327.077 329.935 327.077C330.252 327.077 330.558 326.959 330.792 326.744C331.026 326.53 331.172 326.236 331.2 325.92L331.86 287.66H332.63C332.749 287.66 332.865 287.617 332.956 287.541C333.047 287.464 333.109 287.357 333.13 287.24L335.89 270.12C335.948 270.075 335.995 270.017 336.028 269.952C336.061 269.886 336.079 269.814 336.08 269.74V217.43C336.075 217.407 336.075 217.383 336.08 217.36L340.21 166.75C340.301 166.656 340.351 166.53 340.35 166.4L340.36 151.73Z" fill="#010F14"/>
<path d="M327.39 326.67C327.191 326.668 327.001 326.588 326.859 326.448C326.717 326.308 326.635 326.119 326.63 325.92L325.89 283.67H328.89L328.16 325.92C328.155 326.121 328.071 326.312 327.928 326.452C327.784 326.592 327.591 326.67 327.39 326.67Z" fill="#FAFEFE" stroke="#063646" stroke-miterlimit="10"/>
<path d="M337.2 166.44H317.61L321.77 217.32H321.78V269.75H333.04V217.32H333.05L337.2 166.44Z" fill="#063646" stroke="#063646" stroke-linecap="round" stroke-linejoin="round"/>
<path d="M337.32 151.73H317.49V166.39H337.32V151.73Z" fill="#C1FD93" stroke="#063646" stroke-linecap="round" stroke-linejoin="round"/>
<path d="M330.1 287.17H324.72L321.92 269.83H332.89L330.1 287.17Z" fill="#C1FD93" stroke="#063646" stroke-linecap="round" stroke-linejoin="round"/>
<path opacity="0.2" d="M73.82 167C73.8103 166.876 73.7572 166.759 73.67 166.67C73.5533 166.525 73.3936 166.421 73.2139 166.372C73.0342 166.324 72.8438 166.333 72.67 166.4C71.23 167 71.09 173.02 71.07 188.8C71.07 198.32 71.07 209.12 70.3 216.22C68.0446 235.024 64.3674 253.631 59.3 271.88C58.2198 275.522 57.4109 279.239 56.88 283C56.3296 279.249 55.5075 275.542 54.42 271.91C49.348 253.662 45.6707 235.055 43.42 216.25C42.67 209.15 42.66 198.35 42.65 188.83C42.65 173.05 42.5 167.03 41.06 166.43C40.8858 166.366 40.6963 166.358 40.5173 166.407C40.3383 166.455 40.1786 166.557 40.06 166.7C39.9716 166.787 39.9212 166.906 39.92 167.03C39.92 167.54 37.71 218.33 41.42 239.64C43.08 249.14 44.94 258.72 46.74 267.98C49 279.61 50.95 289.66 51.92 296.62C53.3 306.5 53.28 319.01 53.2 323.93C53.1987 324.24 53.2584 324.547 53.3758 324.834C53.4932 325.121 53.6659 325.382 53.8841 325.602C54.1024 325.822 54.3618 325.997 54.6476 326.116C54.9335 326.236 55.2401 326.299 55.55 326.3H58.17C58.4798 326.3 58.7866 326.238 59.0725 326.119C59.3583 326 59.6176 325.824 59.8353 325.604C60.053 325.384 60.2247 325.122 60.3406 324.835C60.4564 324.547 60.514 324.24 60.51 323.93C60.44 319.01 60.41 306.51 61.79 296.62C62.79 289.62 64.72 279.62 66.98 267.98C68.77 258.72 70.63 249.14 72.29 239.64C76 218.3 73.84 167.51 73.82 167ZM56.88 291.75C56.9066 291.868 56.94 291.985 56.98 292.1L56.88 292.19L56.78 292.1C56.81 292 56.84 291.89 56.88 291.75Z" fill="#010F14"/>
<path d="M71.13 167.28C68.13 164.28 70.38 200.03 68.63 216.53C66.3872 235.366 62.7098 254.003 57.63 272.28C53.13 287.78 55.38 292.53 55.38 292.53L54.69 293.09C54.3 292.76 54 292.53 54 292.53C54 292.53 56.25 287.78 51.75 272.28C46.6702 254.003 42.9928 235.366 40.75 216.53C39 200.03 41.25 164.28 38.25 167.28C38.25 167.28 36 218.28 39.75 239.78C43.5 261.28 48.5 284.28 50.25 296.78C51.65 306.78 51.61 319.46 51.54 324.16C51.536 324.404 51.5807 324.647 51.6714 324.873C51.762 325.1 51.8969 325.306 52.0682 325.48C52.2395 325.654 52.4436 325.793 52.6689 325.887C52.8941 325.981 53.1358 326.03 53.38 326.03H56C56.2442 326.03 56.4859 325.981 56.7111 325.887C56.9364 325.793 57.1405 325.654 57.3118 325.48C57.4831 325.306 57.618 325.1 57.7086 324.873C57.7993 324.647 57.844 324.404 57.84 324.16C57.77 319.46 57.74 306.76 59.13 296.78C60.88 284.28 65.88 261.28 69.63 239.78C73.38 218.28 71.13 167.28 71.13 167.28Z" fill="#063646" stroke="#063646" stroke-linecap="round" stroke-linejoin="round"/>
<path opacity="0.2" d="M322.34 59.3201C327.404 41.3069 333.375 23.5609 340.23 6.15006L299.38 4.56006C299.38 4.56006 287.52 35.2701 282.79 43.7901C278.06 52.3101 272.06 54.7901 265.12 57.6701C258.18 60.5501 238.62 72.8101 236.72 77.5501C234.82 82.2901 232.62 96.4801 230.72 101.21C228.82 105.94 225.04 108.46 219.36 110.04C218.25 110.35 217.12 110.64 216.04 110.92H215.96L214.89 111.2L214.32 111.35L213.95 111.45L213.44 111.6L213.08 111.71L212.57 111.87L212.27 111.96L211.54 112.22L211.4 112.28C211.21 112.35 211.03 112.42 210.86 112.5L210.63 112.6L210.24 112.8L210.03 112.91L209.68 113.12L209.53 113.23C209.385 113.333 209.248 113.447 209.12 113.57C209.021 113.673 208.931 113.783 208.85 113.9C208.823 113.941 208.799 113.985 208.78 114.03C208.732 114.116 208.692 114.207 208.66 114.3C208.639 114.348 208.622 114.399 208.61 114.45C208.599 114.55 208.599 114.65 208.61 114.75C208.605 114.797 208.605 114.844 208.61 114.89C208.617 115.047 208.647 115.202 208.7 115.35C209.64 118.19 218.79 120.09 227.94 118.83C237.09 117.57 240.56 115.04 243.4 111.25C246.24 107.46 250.97 99.2501 252.86 98.3201L254.76 97.3201C254.76 97.3201 254.44 131.08 255.07 135.18C255.7 139.28 252.23 153.48 245.29 170.52C242.974 175.945 241.777 181.781 241.77 187.68V187.76C241.787 189.099 241.89 190.435 242.08 191.76C242.243 192.903 242.477 194.036 242.78 195.15C242.87 195.47 242.97 195.79 243.06 196.09V196.14C243.26 196.76 243.47 197.33 243.68 197.84C243.78 198.07 243.87 198.29 243.97 198.49L244.03 198.62C244.123 198.813 244.213 198.993 244.3 199.16C244.302 199.187 244.302 199.213 244.3 199.24C244.4 199.43 244.5 199.61 244.61 199.78V199.83C244.7 199.97 244.78 200.11 244.87 200.23L244.95 200.35L245.15 200.62L245.23 200.71L245.49 201C247.7 203.21 252.11 203.21 253.06 202.26C254.01 201.31 253.38 188.69 255.27 180.49C257.16 172.29 268.2 150.49 271.36 146.1C273.77 142.56 275.98 138.887 277.98 135.1C276.501 145.367 273.857 155.432 270.1 165.1C263.79 181.51 257.16 192.23 255.9 196.97C254.64 201.71 259.37 204.54 262.21 203.28C265.05 202.02 271.04 189.39 273.21 184.98C275.38 180.57 281.84 170 281.84 170C283.565 170.207 285.314 169.966 286.918 169.3C288.522 168.635 289.928 167.567 291 166.2C291.46 165.62 291.95 164.97 292.46 164.28C294.309 164.507 296.186 164.299 297.94 163.67C302.67 162.1 302.36 157.36 304.25 152.67C305.05 150.797 306.121 149.051 307.43 147.49C308.846 146.558 310.024 145.308 310.87 143.84C311.81 141.51 313.26 124.19 314.71 110.98C315.128 93.5125 317.69 76.1625 322.34 59.3201Z" fill="#010F14"/>
<mask id="mask0_896_15979" style="mask-type:luminance" maskUnits="userSpaceOnUse" x="285" y="139" width="21" height="22">
<path d="M305.86 139.8C305.86 139.8 301.13 143.9 299.24 148.63C297.35 153.36 297.66 158.1 292.93 159.63C288.2 161.16 285.36 159.63 285.36 159.63C285.36 159.63 289.14 150.17 291.36 147.01C293.58 143.85 305.86 139.8 305.86 139.8Z" fill="white"/>
</mask>
<g mask="url(#mask0_896_15979)">
<path d="M305.86 139.8C305.86 139.8 301.13 143.9 299.24 148.63C297.35 153.36 297.66 158.1 292.93 159.63C288.2 161.16 285.36 159.63 285.36 159.63C285.36 159.63 289.14 150.17 291.36 147.01C293.58 143.85 305.86 139.8 305.86 139.8Z" fill="#00C1DB"/>
<path opacity="0.5" d="M305.86 139.8C305.86 139.8 301.13 143.9 299.24 148.63C297.35 153.36 297.66 158.1 292.93 159.63C288.2 161.16 285.36 159.63 285.36 159.63C285.36 159.63 289.14 150.17 291.36 147.01C293.58 143.85 305.86 139.8 305.86 139.8Z" fill="#FAFEFE"/>
</g>
<path d="M305.86 139.8C305.86 139.8 301.13 143.9 299.24 148.63C297.35 153.36 297.66 158.1 292.93 159.63C288.2 161.16 285.36 159.63 285.36 159.63C285.36 159.63 289.14 150.17 291.36 147.01C293.58 143.85 305.86 139.8 305.86 139.8Z" stroke="#063646" stroke-linecap="round" stroke-linejoin="round"/>
<path d="M294.38 0.560059C294.38 0.560059 282.52 31.2701 277.79 39.7901C273.06 48.3101 267.06 50.7901 260.12 53.6701C253.18 56.5501 233.62 68.8101 231.72 73.5501C229.82 78.2901 227.62 92.4801 225.72 97.2101C223.82 101.94 220.04 104.46 214.36 106.04C208.68 107.62 202.69 108.57 203.64 111.4C204.59 114.23 213.73 116.14 222.88 114.88C232.03 113.62 235.5 111.09 238.34 107.3C241.18 103.51 245.91 95.3001 247.8 94.3701L249.7 93.3701C249.7 93.3701 249.38 127.13 250.01 131.23C250.64 135.33 247.17 149.53 240.23 166.57C233.29 183.61 238.34 194.96 240.55 197.17C242.76 199.38 247.17 199.38 248.12 198.43C249.07 197.48 248.44 184.86 250.33 176.66C252.22 168.46 263.26 146.66 266.42 142.27C268.83 138.73 271.04 135.057 273.04 131.27C271.561 141.537 268.917 151.602 265.16 161.27C258.85 177.68 252.22 188.4 250.96 193.14C249.7 197.88 254.43 200.71 257.27 199.45C260.11 198.19 266.1 185.56 268.27 181.15C270.44 176.74 276.84 166 276.84 166C278.565 166.207 280.313 165.966 281.918 165.3C283.522 164.635 284.928 163.567 286 162.2C289.78 157.47 295.78 147.69 295.78 147.69C295.78 147.69 304.61 142.95 305.87 139.8C307.13 136.65 309.34 106.04 311.24 95.3101C313.14 84.5801 318.49 61.5601 321.33 52.4101C324.17 43.2601 344.87 3.72006 344.87 3.72006" fill="#FAFEFE"/>
<mask id="mask1_896_15979" style="mask-type:luminance" maskUnits="userSpaceOnUse" x="203" y="0" width="142" height="200">
<path d="M294.38 0.560059C294.38 0.560059 282.52 31.2701 277.79 39.7901C273.06 48.3101 267.06 50.7901 260.12 53.6701C253.18 56.5501 233.62 68.8101 231.72 73.5501C229.82 78.2901 227.62 92.4801 225.72 97.2101C223.82 101.94 220.04 104.46 214.36 106.04C208.68 107.62 202.69 108.57 203.64 111.4C204.59 114.23 213.73 116.14 222.88 114.88C232.03 113.62 235.5 111.09 238.34 107.3C241.18 103.51 245.91 95.3001 247.8 94.3701L249.7 93.3701C249.7 93.3701 249.38 127.13 250.01 131.23C250.64 135.33 247.17 149.53 240.23 166.57C233.29 183.61 238.34 194.96 240.55 197.17C242.76 199.38 247.17 199.38 248.12 198.43C249.07 197.48 248.44 184.86 250.33 176.66C252.22 168.46 263.26 146.66 266.42 142.27C268.83 138.73 271.04 135.057 273.04 131.27C271.561 141.537 268.917 151.602 265.16 161.27C258.85 177.68 252.22 188.4 250.96 193.14C249.7 197.88 254.43 200.71 257.27 199.45C260.11 198.19 266.1 185.56 268.27 181.15C270.44 176.74 276.84 166 276.84 166C278.565 166.207 280.313 165.966 281.918 165.3C283.522 164.635 284.928 163.567 286 162.2C289.78 157.47 295.78 147.69 295.78 147.69C295.78 147.69 304.61 142.95 305.87 139.8C307.13 136.65 309.34 106.04 311.24 95.3101C313.14 84.5801 318.49 61.5601 321.33 52.4101C324.17 43.2601 344.87 3.72006 344.87 3.72006" fill="white"/>
</mask>
<g mask="url(#mask1_896_15979)">
<path d="M238.35 107.3C241.19 103.52 245.92 95.3001 247.81 94.3701L249.71 93.3701C249.71 93.3701 245 84.2801 240.33 90.9501C235.66 97.6201 229 107.67 223 108.33C218.84 108.8 215 107.66 211.05 106.92C206.61 108.06 202.89 109.12 203.65 111.4C204.59 114.24 213.74 116.14 222.89 114.88C232.04 113.62 235.51 111.09 238.35 107.3Z" fill="#00C1DB"/>
<path d="M236.73 182.33C236.5 190.5 239.13 195.79 240.56 197.22C242.77 199.43 247.18 199.43 248.13 198.48C249.08 197.53 248.45 184.91 250.34 176.71C252.23 168.51 263.27 146.71 266.43 142.32C268.84 138.78 271.05 135.107 273.05 131.32C273.05 131.32 265.67 145 257.67 153C250.58 160.09 240.36 167.7 236.73 182.33Z" fill="#00C1DB"/>
<path d="M331.67 29.67C325.239 40.7766 318.112 51.4646 310.33 61.67C296.33 80.33 295.67 103.67 293.67 113.67C291.67 123.67 293 133 285.67 143.67C278.34 154.34 273.67 163 273.67 163L273.05 131.28C271.571 141.547 268.927 151.612 265.17 161.28C258.86 177.69 252.23 188.41 250.97 193.15C249.71 197.89 254.44 200.72 257.28 199.46C260.12 198.2 266.11 185.57 268.28 181.16C270.45 176.75 276.84 166 276.84 166C278.565 166.207 280.314 165.966 281.918 165.3C283.522 164.635 284.928 163.567 286 162.2C289.78 157.47 295.78 147.69 295.78 147.69C295.78 147.69 304.61 142.95 305.87 139.8C307.13 136.65 309.34 106.04 311.24 95.31C313.14 84.58 318.49 61.56 321.33 52.41C322.65 48.18 327.2 38.75 331.72 29.83L331.67 29.67Z" fill="#00C1DB"/>
<g opacity="0.5">
<path d="M238.35 107.3C241.19 103.52 245.92 95.3001 247.81 94.3701L249.71 93.3701C249.71 93.3701 245 84.2801 240.33 90.9501C235.66 97.6201 229 107.67 223 108.33C218.84 108.8 215 107.66 211.05 106.92C206.61 108.06 202.89 109.12 203.65 111.4C204.59 114.24 213.74 116.14 222.89 114.88C232.04 113.62 235.51 111.09 238.35 107.3Z" fill="#FAFEFE"/>
<path d="M236.73 182.33C236.5 190.5 239.13 195.79 240.56 197.22C242.77 199.43 247.18 199.43 248.13 198.48C249.08 197.53 248.45 184.91 250.34 176.71C252.23 168.51 263.27 146.71 266.43 142.32C268.84 138.78 271.05 135.107 273.05 131.32C273.05 131.32 265.67 145 257.67 153C250.58 160.09 240.36 167.7 236.73 182.33Z" fill="#FAFEFE"/>
<path d="M331.67 29.67C325.239 40.7766 318.112 51.4646 310.33 61.67C296.33 80.33 295.67 103.67 293.67 113.67C291.67 123.67 293 133 285.67 143.67C278.34 154.34 273.67 163 273.67 163L273.05 131.28C271.571 141.547 268.927 151.612 265.17 161.28C258.86 177.69 252.23 188.41 250.97 193.15C249.71 197.89 254.44 200.72 257.28 199.46C260.12 198.2 266.11 185.57 268.28 181.16C270.45 176.75 276.84 166 276.84 166C278.565 166.207 280.314 165.966 281.918 165.3C283.522 164.635 284.928 163.567 286 162.2C289.78 157.47 295.78 147.69 295.78 147.69C295.78 147.69 304.61 142.95 305.87 139.8C307.13 136.65 309.34 106.04 311.24 95.31C313.14 84.58 318.49 61.56 321.33 52.41C322.65 48.18 327.2 38.75 331.72 29.83L331.67 29.67Z" fill="#FAFEFE"/>
</g>
</g>
<path d="M294.38 0.560059C294.38 0.560059 282.52 31.2701 277.79 39.7901C273.06 48.3101 267.06 50.7901 260.12 53.6701C253.18 56.5501 233.62 68.8101 231.72 73.5501C229.82 78.2901 227.62 92.4801 225.72 97.2101C223.82 101.94 220.04 104.46 214.36 106.04C208.68 107.62 202.69 108.57 203.64 111.4C204.59 114.23 213.73 116.14 222.88 114.88C232.03 113.62 235.5 111.09 238.34 107.3C241.18 103.51 245.91 95.3001 247.8 94.3701L249.7 93.3701C249.7 93.3701 249.38 127.13 250.01 131.23C250.64 135.33 247.17 149.53 240.23 166.57C233.29 183.61 238.34 194.96 240.55 197.17C242.76 199.38 247.17 199.38 248.12 198.43C249.07 197.48 248.44 184.86 250.33 176.66C252.22 168.46 263.26 146.66 266.42 142.27C268.83 138.73 271.04 135.057 273.04 131.27C271.561 141.537 268.917 151.602 265.16 161.27C258.85 177.68 252.22 188.4 250.96 193.14C249.7 197.88 254.43 200.71 257.27 199.45C260.11 198.19 266.1 185.56 268.27 181.15C270.44 176.74 276.84 166 276.84 166C278.565 166.207 280.313 165.966 281.918 165.3C283.522 164.635 284.928 163.567 286 162.2C289.78 157.47 295.78 147.69 295.78 147.69C295.78 147.69 304.61 142.95 305.87 139.8C307.13 136.65 309.34 106.04 311.24 95.3101C313.14 84.5801 318.49 61.5601 321.33 52.4101C324.17 43.2601 344.87 3.72006 344.87 3.72006" stroke="#063646" stroke-linecap="round" stroke-linejoin="round"/>
<path d="M275 126.33C275 126.33 277.67 125 278.33 120.33C278.737 117.461 278.961 114.568 279 111.67" stroke="#063646" stroke-linecap="round" stroke-linejoin="round"/>
<path d="M276.84 166C276.84 166 286.62 148.34 288.2 147.39C289.78 146.44 294.82 143.6 295.14 139.19C295.46 134.78 295.77 129.41 295.77 129.41" stroke="#063646" stroke-linecap="round" stroke-linejoin="round"/>
<path d="M107.39 3C107.39 3 118.15 41.4 120.39 46.13C122.63 50.86 134.58 58.43 136.79 68.84C139 79.25 141.84 83.67 144.36 91.56C146.88 99.45 149.1 99.45 145.31 106.07C141.52 112.69 140.89 116.8 143.42 120.9C145.95 125 158.88 130.36 157.3 133.52C155.72 136.68 154.14 137.62 152.88 137.62H151.62C151.62 137.62 154.46 148.03 152.88 151.82C151.3 155.61 147.52 158.13 146.26 156.23C145 154.33 142.79 151.5 142.79 151.5C142.79 151.5 145.31 156.55 142.16 157.18C139.01 157.81 138.37 156.87 133.64 154.66C128.91 152.45 118.18 150.24 118.18 150.24C118.18 150.24 105.56 155.24 101.46 156.55C97.36 157.86 92.31 156.23 92.31 156.23C92.31 156.23 78.74 161.6 76.53 157.23C74.32 152.86 72.75 134.52 71.8 131.05C70.85 127.58 67.7 124.74 68.33 119.37C68.96 114 70.54 110.85 70.86 108.65C71.18 106.45 79.37 66.37 79.37 57.54C79.37 48.71 63.92 4.54 63.92 4.54" fill="#FAFEFE"/>
<path d="M107.39 3C107.39 3 118.15 41.4 120.39 46.13C122.63 50.86 134.58 58.43 136.79 68.84C139 79.25 141.84 83.67 144.36 91.56C146.88 99.45 149.1 99.45 145.31 106.07C141.52 112.69 140.89 116.8 143.42 120.9C145.95 125 158.88 130.36 157.3 133.52C155.72 136.68 154.14 137.62 152.88 137.62H151.62C151.62 137.62 154.46 148.03 152.88 151.82C151.3 155.61 147.52 158.13 146.26 156.23C145 154.33 142.79 151.5 142.79 151.5C142.79 151.5 145.31 156.55 142.16 157.18C139.01 157.81 138.37 156.87 133.64 154.66C128.91 152.45 118.18 150.24 118.18 150.24C118.18 150.24 105.56 155.24 101.46 156.55C97.36 157.86 92.31 156.23 92.31 156.23C92.31 156.23 78.74 161.6 76.53 157.23C74.32 152.86 72.75 134.52 71.8 131.05C70.85 127.58 67.7 124.74 68.33 119.37C68.96 114 70.54 110.85 70.86 108.65C71.18 106.45 79.37 66.37 79.37 57.54C79.37 48.71 63.92 4.54 63.92 4.54" stroke="#063646" stroke-linecap="round" stroke-linejoin="round"/>
<path d="M121 82.0601C121 82.0601 126 103.2 128.89 110.46C131.78 117.72 134.56 125.29 137.72 128.13C140.88 130.97 150.34 136.01 151.6 137.59" stroke="#063646" stroke-linecap="round" stroke-linejoin="round"/>
<path d="M99.22 105.73C99.22 105.73 119.41 134.73 122.22 139.17C125.03 143.61 133.58 143.58 135.79 145.48L142.73 151.48" stroke="#063646" stroke-linecap="round" stroke-linejoin="round"/>
<path d="M80 113.93C80 113.93 88.52 124.34 95.46 134.75C102.4 145.16 103.04 147.69 106.46 148.63C109.88 149.57 118.13 150.21 118.13 150.21" stroke="#063646" stroke-linecap="round" stroke-linejoin="round"/>
<path d="M73.35 130C73.35 130 87.86 149.56 89.12 152.4C89.7379 153.968 90.8464 155.294 92.28 156.18" stroke="#063646" stroke-linecap="round" stroke-linejoin="round"/>
<path d="M98.9 85.53C98.9 85.53 92.28 89.01 93.23 91.84C93.9151 93.7983 94.7579 95.6979 95.75 97.52" stroke="#063646" stroke-linecap="round" stroke-linejoin="round"/>
<path d="M81.24 96.26C81.24 96.26 75.24 98.15 74.93 101.62C74.7677 103.799 75.2034 105.981 76.19 107.93" stroke="#063646" stroke-linecap="round" stroke-linejoin="round"/>
<path d="M194.94 136.89H148.33V142.22H194.94V136.89Z" fill="#FAFEFE" stroke="#063646" stroke-linecap="round" stroke-linejoin="round"/>
<path opacity="0.2" d="M110.44 12.89C110.44 12.89 126.15 48.03 128.36 52.77C130.57 57.51 142.55 65.07 144.76 75.48C146.97 85.89 149.81 90.31 152.33 98.2C154.85 106.09 157.07 106.08 153.28 112.71C149.49 119.34 148.86 123.43 151.39 127.54C153.92 131.65 166.85 137 165.27 140.16C163.69 143.32 162.11 144.26 160.85 144.26H159.59C159.59 144.26 162.43 154.67 160.85 158.45C159.27 162.23 155.49 164.76 154.23 162.87C152.97 160.98 150.76 158.14 150.76 158.14C150.76 158.14 153.28 163.19 150.13 163.82C146.98 164.45 146.34 163.5 141.61 161.29C136.88 159.08 126.15 156.88 126.15 156.88C126.15 156.88 113.53 161.88 109.43 163.19C105.33 164.5 100.28 162.87 100.28 162.87C100.28 162.87 86.71 168.23 84.5 163.82C82.29 159.41 80.72 141.1 79.77 137.63C78.82 134.16 75.67 131.32 76.3 125.96C76.93 120.6 78.51 117.44 78.83 115.23C79.15 113.02 87.34 72.96 87.34 64.12C87.34 55.28 71.89 11.12 71.89 11.12" fill="#010F14"/>
<path d="M107.39 3C107.39 3 118.15 41.4 120.39 46.13C122.63 50.86 134.58 58.43 136.79 68.84C139 79.25 141.84 83.67 144.36 91.56C146.88 99.45 149.1 99.45 145.31 106.07C141.52 112.69 140.89 116.8 143.42 120.9C145.95 125 158.88 130.36 157.3 133.52C155.72 136.68 154.14 137.62 152.88 137.62H151.62C151.62 137.62 154.46 148.03 152.88 151.82C151.3 155.61 147.52 158.13 146.26 156.23C145 154.33 142.79 151.5 142.79 151.5C142.79 151.5 145.31 156.55 142.16 157.18C139.01 157.81 138.37 156.87 133.64 154.66C128.91 152.45 118.18 150.24 118.18 150.24C118.18 150.24 105.56 155.24 101.46 156.55C97.36 157.86 92.31 156.23 92.31 156.23C92.31 156.23 78.74 161.6 76.53 157.23C74.32 152.86 72.75 134.52 71.8 131.05C70.85 127.58 67.7 124.74 68.33 119.37C68.96 114 70.54 110.85 70.86 108.65C71.18 106.45 79.37 66.37 79.37 57.54C79.37 48.71 63.92 4.54 63.92 4.54" fill="#FAFEFE"/>
<mask id="mask2_896_15979" style="mask-type:luminance" maskUnits="userSpaceOnUse" x="63" y="3" width="95" height="156">
<path d="M107.39 3C107.39 3 118.15 41.4 120.39 46.13C122.63 50.86 134.58 58.43 136.79 68.84C139 79.25 141.84 83.67 144.36 91.56C146.88 99.45 149.1 99.45 145.31 106.07C141.52 112.69 140.89 116.8 143.42 120.9C145.95 125 158.88 130.36 157.3 133.52C155.72 136.68 154.14 137.62 152.88 137.62H151.62C151.62 137.62 154.46 148.03 152.88 151.82C151.3 155.61 147.52 158.13 146.26 156.23C145 154.33 142.79 151.5 142.79 151.5C142.79 151.5 145.31 156.55 142.16 157.18C139.01 157.81 138.37 156.87 133.64 154.66C128.91 152.45 118.18 150.24 118.18 150.24C118.18 150.24 105.56 155.24 101.46 156.55C97.36 157.86 92.31 156.23 92.31 156.23C92.31 156.23 78.74 161.6 76.53 157.23C74.32 152.86 72.75 134.52 71.8 131.05C70.85 127.58 67.7 124.74 68.33 119.37C68.96 114 70.54 110.85 70.86 108.65C71.18 106.45 79.37 66.37 79.37 57.54C79.37 48.71 63.92 4.54 63.92 4.54" fill="white"/>
</mask>
<g mask="url(#mask2_896_15979)">
<path d="M101 151C97.0848 151.793 93.1118 152.268 89.12 152.42C89.12 152.42 89.34 159.97 76.5 157.15C78.71 161.57 92.28 156.15 92.28 156.15C92.28 156.15 97.33 157.73 101.43 156.47C105.53 155.21 118.15 150.16 118.15 150.16C118.15 150.16 128.88 152.37 133.61 154.58C138.34 156.79 138.97 157.73 142.13 157.1C145.29 156.47 142.76 151.42 142.76 151.42C142.76 151.42 144.97 154.26 146.23 156.15C147.49 158.04 151.23 155.52 152.85 151.74C154.47 147.96 151.59 137.54 151.59 137.54H152.85C154.11 137.54 155.69 136.54 157.27 133.44C158.85 130.34 145.91 124.92 143.39 120.82C140.87 116.72 141.49 112.62 145.28 105.99C149.07 99.36 146.86 99.37 144.33 91.48C141.8 83.59 138.97 79.18 136.76 68.76C134.76 59.34 124.76 52.24 121.23 47.47C123.615 53.8238 126.665 59.9076 130.33 65.62C139.67 79.62 140.33 92.95 137.67 100.28C135.01 107.61 132.33 113.62 132.33 113.62L123 93C123 93 124.33 113 127 117.67C129.67 122.34 131 127.67 135.67 131.67C140.34 135.67 147 140.33 141.67 140.33C136.34 140.33 122.25 139.17 122.25 139.17C122.25 139.17 123.67 144.33 116.33 144.33C111.164 144.202 106.026 143.532 101 142.33C101 142.33 107.67 149.67 101 151Z" fill="#00C1DB"/>
<path opacity="0.5" d="M101 151C97.0848 151.793 93.1118 152.268 89.12 152.42C89.12 152.42 89.34 159.97 76.5 157.15C78.71 161.57 92.28 156.15 92.28 156.15C92.28 156.15 97.33 157.73 101.43 156.47C105.53 155.21 118.15 150.16 118.15 150.16C118.15 150.16 128.88 152.37 133.61 154.58C138.34 156.79 138.97 157.73 142.13 157.1C145.29 156.47 142.76 151.42 142.76 151.42C142.76 151.42 144.97 154.26 146.23 156.15C147.49 158.04 151.23 155.52 152.85 151.74C154.47 147.96 151.59 137.54 151.59 137.54H152.85C154.11 137.54 155.69 136.54 157.27 133.44C158.85 130.34 145.91 124.92 143.39 120.82C140.87 116.72 141.49 112.62 145.28 105.99C149.07 99.36 146.86 99.37 144.33 91.48C141.8 83.59 138.97 79.18 136.76 68.76C134.76 59.34 124.76 52.24 121.23 47.47C123.615 53.8238 126.665 59.9076 130.33 65.62C139.67 79.62 140.33 92.95 137.67 100.28C135.01 107.61 132.33 113.62 132.33 113.62L123 93C123 93 124.33 113 127 117.67C129.67 122.34 131 127.67 135.67 131.67C140.34 135.67 147 140.33 141.67 140.33C136.34 140.33 122.25 139.17 122.25 139.17C122.25 139.17 123.67 144.33 116.33 144.33C111.164 144.202 106.026 143.532 101 142.33C101 142.33 107.67 149.67 101 151Z" fill="#FAFEFE"/>
</g>
<path d="M107.39 3C107.39 3 118.15 41.4 120.39 46.13C122.63 50.86 134.58 58.43 136.79 68.84C139 79.25 141.84 83.67 144.36 91.56C146.88 99.45 149.1 99.45 145.31 106.07C141.52 112.69 140.89 116.8 143.42 120.9C145.95 125 158.88 130.36 157.3 133.52C155.72 136.68 154.14 137.62 152.88 137.62H151.62C151.62 137.62 154.46 148.03 152.88 151.82C151.3 155.61 147.52 158.13 146.26 156.23C145 154.33 142.79 151.5 142.79 151.5C142.79 151.5 145.31 156.55 142.16 157.18C139.01 157.81 138.37 156.87 133.64 154.66C128.91 152.45 118.18 150.24 118.18 150.24C118.18 150.24 105.56 155.24 101.46 156.55C97.36 157.86 92.31 156.23 92.31 156.23C92.31 156.23 78.74 161.6 76.53 157.23C74.32 152.86 72.75 134.52 71.8 131.05C70.85 127.58 67.7 124.74 68.33 119.37C68.96 114 70.54 110.85 70.86 108.65C71.18 106.45 79.37 66.37 79.37 57.54C79.37 48.71 63.92 4.54 63.92 4.54" stroke="#063646" stroke-linecap="round" stroke-linejoin="round"/>
<path d="M121 82.0601C121 82.0601 126 103.2 128.89 110.46C131.78 117.72 134.56 125.29 137.72 128.13C140.88 130.97 150.34 136.01 151.6 137.59" stroke="#063646" stroke-linecap="round" stroke-linejoin="round"/>
<path d="M99.22 105.73C99.22 105.73 119.41 134.73 122.22 139.17C125.03 143.61 133.58 143.58 135.79 145.48L142.73 151.48" stroke="#063646" stroke-linecap="round" stroke-linejoin="round"/>
<path d="M80 113.93C80 113.93 88.52 124.34 95.46 134.75C102.4 145.16 103.04 147.69 106.46 148.63C109.88 149.57 118.13 150.21 118.13 150.21" stroke="#063646" stroke-linecap="round" stroke-linejoin="round"/>
<path d="M73.35 130C73.35 130 87.86 149.56 89.12 152.4C89.7379 153.968 90.8464 155.294 92.28 156.18" stroke="#063646" stroke-linecap="round" stroke-linejoin="round"/>
<path d="M98.9 85.53C98.9 85.53 92.28 89.01 93.23 91.84C93.9151 93.7983 94.7579 95.6979 95.75 97.52" stroke="#063646" stroke-linecap="round" stroke-linejoin="round"/>
<path d="M81.24 96.26C81.24 96.26 75.24 98.15 74.93 101.62C74.7677 103.799 75.2034 105.981 76.19 107.93" stroke="#063646" stroke-linecap="round" stroke-linejoin="round"/>
</g>
<defs>
<clipPath id="clip0_896_15979">
<rect width="383" height="364" fill="white"/>
</clipPath>
</defs>
</svg>
