<svg width="3710" height="3710" viewBox="0 0 3710 3710" fill="none" xmlns="http://www.w3.org/2000/svg">
<g clip-path="url(#clip0_1484_1962)">
<path d="M3710 0H0V3710H3710V0Z" fill="white"/>
<path d="M3216.18 1822.27C3263.35 2062.94 3358.94 2550.72 3130.18 2877.03C2721.39 3460.12 1320.43 3435.09 706.563 2680.85C663.691 2628.17 304.14 2171.81 413.658 1591.42C554.782 843.533 1396.92 302.433 2065.29 449.066C2488.11 541.829 2758.77 891.644 2868.61 1033.77C2915.34 1094.25 3129.38 1379.38 3216.18 1822.27Z" fill="#F4F7FA"/>
<path d="M1005.76 1767.87C1006.56 1768.48 1007.37 1769.1 1008.18 1769.71C1055.97 1805.89 1114.59 1836.99 1186.97 1857.82C1201.37 1860.88 1215.76 1863.95 1230.16 1867.01C1250.53 1836.09 1264.38 1803.03 1224.19 1779.06C1161.78 1741.85 1190.09 1622.72 1219.18 1585.39C1255.2 1539.18 1336.84 1429.87 1241.26 1370.82C1161.7 1321.66 1100.31 1306.2 1122.33 1193.35C1144.35 1080.5 1101.1 995.717 998.468 976.876C890.464 957.05 839.008 793.65 740.034 819.003C567.577 863.18 643.114 1143.16 809.644 1260.76C976.175 1378.35 853.605 1418.13 825.652 1507.98C787.492 1630.64 962.341 1646.48 994.433 1706.54C1005.3 1726.89 1007.76 1748 1005.76 1767.87Z" fill="#C1FD93"/>
<mask id="mask0_1484_1962" style="mask-type:luminance" maskUnits="userSpaceOnUse" x="642" y="816" width="645" height="1076">
<path d="M983.574 1835.18L1215.54 1891.74C1237.06 1862.2 1269.08 1805.83 1224.19 1779.06C1161.78 1741.85 1190.09 1622.72 1219.18 1585.39C1255.2 1539.18 1336.84 1429.87 1241.26 1370.82C1161.7 1321.66 1100.31 1306.2 1122.33 1193.35C1144.35 1080.5 1101.1 995.718 998.468 976.877C890.464 957.05 839.008 793.65 740.034 819.003C567.578 863.18 643.114 1143.16 809.645 1260.76C976.176 1378.35 853.605 1418.13 825.653 1507.98C787.493 1630.64 962.342 1646.48 994.434 1706.54C1019.59 1753.63 999.801 1804.85 983.574 1835.18Z" fill="white"/>
</mask>
<g mask="url(#mask0_1484_1962)">
<g opacity="0.5">
<path d="M1101.69 1825.32L1106.86 1825.56C1123.8 1447.68 957.272 1063.44 672.253 822.773L668.916 826.726C952.734 1066.38 1118.56 1449.02 1101.69 1825.32Z" fill="#2C660E"/>
<path d="M1093.28 1618.51L1098.3 1619.76C1134.15 1475.5 1285.6 1393.74 1287.13 1392.93L1284.71 1388.36C1283.16 1389.18 1129.7 1471.98 1093.28 1618.51Z" fill="#2C660E"/>
<path d="M1102.91 1755.72L1107.92 1754.44C1070.47 1608.46 809.249 1524.2 806.615 1523.36L805.053 1528.3C807.659 1529.12 1066.17 1612.52 1102.91 1755.72Z" fill="#2C660E"/>
<path d="M992.618 1261.7L997.723 1260.84C978.003 1142.93 1088.18 996.402 1089.3 994.936L1085.18 991.802C1084.05 993.286 972.532 1141.6 992.618 1261.7Z" fill="#2C660E"/>
<path d="M874.56 1052.48L878.254 1048.86C782.826 951.641 598.871 946.53 597.021 946.492L596.908 951.665C598.734 951.701 780.619 956.779 874.56 1052.48Z" fill="#2C660E"/>
</g>
</g>
<mask id="mask1_1484_1962" style="mask-type:luminance" maskUnits="userSpaceOnUse" x="685" y="478" width="767" height="1537">
<path d="M1315.76 2014.37L1059.2 2013.5C1059.2 2013.5 1011.35 1881.73 1074.54 1789.06C1203.46 1599.99 1028.87 1500.28 961.995 1447.57C861.139 1368.09 806.927 1254.06 955.782 1205C1104.64 1155.94 956.003 925.002 774.621 820.11C597.127 717.466 677.168 342.721 1081.73 529.607C1323.33 641.215 1284.56 897.644 1295.77 1031.79C1306.98 1165.94 1506.39 1177.71 1437.58 1341.31C1378.79 1481.05 1267.66 1582.72 1351.88 1679.21C1436.1 1775.71 1444.48 1883.61 1315.76 2014.37Z" fill="white"/>
</mask>
<g mask="url(#mask1_1484_1962)">
<path d="M1315.75 2014.37L1059.2 2013.5C1059.2 2013.5 1011.35 1881.73 1074.54 1789.06C1203.46 1599.99 1028.87 1500.28 961.995 1447.57C861.139 1368.09 816.925 1265.68 938.758 1199.76C1076.6 1125.18 956.003 925.002 774.622 820.11C597.128 717.466 677.169 342.721 1081.73 529.607C1323.34 641.215 1284.56 897.644 1295.77 1031.79C1306.98 1165.94 1506.39 1177.71 1437.58 1341.31C1378.79 1481.05 1267.66 1582.72 1351.88 1679.21C1436.1 1775.71 1444.48 1883.61 1315.75 2014.37Z" fill="#275611"/>
</g>
<mask id="mask2_1484_1962" style="mask-type:luminance" maskUnits="userSpaceOnUse" x="685" y="478" width="767" height="1537">
<path d="M1315.76 2014.37L1059.2 2013.5C1059.2 2013.5 1011.35 1881.73 1074.54 1789.06C1203.46 1599.99 1028.87 1500.28 961.995 1447.57C861.139 1368.09 806.927 1254.06 955.782 1205C1104.64 1155.94 956.003 925.002 774.621 820.11C597.127 717.466 677.168 342.721 1081.73 529.607C1323.33 641.215 1284.56 897.644 1295.77 1031.79C1306.98 1165.94 1506.39 1177.71 1437.58 1341.31C1378.79 1481.05 1267.66 1582.72 1351.88 1679.21C1436.1 1775.71 1444.48 1883.61 1315.76 2014.37Z" fill="white"/>
</mask>
<g mask="url(#mask2_1484_1962)">
<g opacity="0.5">
<path d="M1204.64 2037.81L1199.31 2036.81C1199.93 2033.51 1260.41 1703.14 1221.62 1357.55C1185.89 1039.16 1056.12 642.339 640.876 559.922L641.93 554.609C826.78 591.296 971.396 692.253 1071.77 854.674C1151.94 984.42 1204.18 1153.44 1227.02 1357.05C1265.88 1703.43 1205.25 2034.5 1204.64 2037.81Z" fill="#ABC9CE"/>
<path d="M1110.77 924.357L1105.4 923.667C1128.28 744.856 1060.99 490.518 1060.31 487.97L1065.54 486.567C1066.23 489.127 1133.79 744.497 1110.77 924.357Z" fill="#ABC9CE"/>
<path d="M1040.93 817.969C858.993 703.754 688.462 757.682 686.762 758.24L685.073 753.096C686.799 752.527 859.642 697.768 1043.81 813.382L1040.93 817.969Z" fill="#ABC9CE"/>
<path d="M1234.67 1584.86C1174.98 1329.3 827.891 1265.5 824.457 1265.16L824.635 1259.75C828.036 1259.76 1179.73 1325.8 1239.95 1583.63L1234.67 1584.86Z" fill="#ABC9CE"/>
<path d="M1236.71 1476.67L1231.41 1475.54C1266.07 1311.7 1444.3 1199.49 1446.1 1198.38L1448.96 1202.98C1447.18 1204.08 1270.88 1315.11 1236.71 1476.67Z" fill="#ABC9CE"/>
<path d="M1207.68 1984.61C1200.21 1885.2 1058.58 1806.02 1057.15 1805.23L1059.76 1800.49C1065.7 1803.76 1205.39 1881.86 1213.08 1984.21L1207.68 1984.61Z" fill="#ABC9CE"/>
<path d="M1223.06 1906.57L1217.72 1905.64C1231.26 1827.98 1349 1741.82 1387.7 1713.51C1393.16 1709.5 1397.88 1706.05 1398.6 1705.27L1402.64 1708.88C1401.64 1710 1398.51 1712.3 1390.89 1717.88C1352.64 1745.87 1236.22 1831.06 1223.06 1906.57Z" fill="#ABC9CE"/>
</g>
</g>
<path d="M2481.13 1868.32C2509.36 1929.31 2482.45 1990.31 2456.63 2031.36C2450.47 2031.4 2446.89 2033.11 2440.67 2034.62C2384.5 2048.28 2358.15 2041.33 2301.05 2045.46C2288.76 2046.35 2252.25 2037.2 2237.58 2032.42L2210.38 2023.04C2210.38 2023.04 2162.1 1874.7 2237.96 1833.73C2313.82 1792.76 2284.77 1645.13 2278.41 1564.62C2261.16 1346.17 2497.22 1366.03 2497.49 1083.54C2497.56 1008.41 2472.57 865.103 2535.92 805.261C2608.08 737.083 2660.77 803.963 2707.17 746.951C2779.69 657.843 2897.39 625.877 2967.54 717.582C3036.78 808.09 2952.65 988.259 2743.5 1133.06C2605.23 1253.95 2603.07 1290.14 2613.95 1378.26C2621.57 1439.99 2680.46 1600.8 2596.67 1665.01C2512.88 1729.22 2448.85 1798.61 2481.13 1868.32Z" fill="#E1FEC9"/>
<mask id="mask3_1484_1962" style="mask-type:luminance" maskUnits="userSpaceOnUse" x="2197" y="662" width="795" height="1420">
<path d="M2420.17 2081.28L2214.96 2028.43C2214.96 2028.43 2162.1 1874.7 2237.96 1833.73C2313.81 1792.76 2284.77 1645.14 2278.41 1564.62C2261.16 1346.18 2497.22 1366.03 2497.49 1083.54C2497.56 1008.41 2472.57 865.105 2535.91 805.262C2608.08 737.085 2660.77 803.964 2707.17 746.952C2779.69 657.844 2897.39 625.879 2967.54 717.583C3036.78 808.091 2952.65 988.26 2743.5 1133.07C2605.23 1253.95 2603.07 1290.14 2613.95 1378.27C2621.57 1439.99 2680.46 1600.8 2596.67 1665.01C2512.88 1729.22 2448.84 1798.61 2481.13 1868.32C2530.24 1974.4 2420.17 2081.28 2420.17 2081.28Z" fill="white"/>
</mask>
<g mask="url(#mask3_1484_1962)">
<g opacity="0.5">
<path d="M2330.78 2047.76L2326.61 2047.24C2329.71 2022.4 2333.14 1997.39 2336.81 1972.9C2363.97 1791.57 2407.08 1619.34 2464.94 1460.99C2513.96 1326.82 2574.24 1200.71 2644.09 1086.17C2700.26 994.053 2762.9 908.886 2830.28 833.032C2877.64 779.709 2926.84 731.502 2976.5 689.757C2985.15 682.48 2994.4 675.523 3003.36 668.794C3015.28 659.83 3027.62 650.56 3038.61 640.462L3041.46 643.558C3030.31 653.795 3017.89 663.128 3005.88 672.154C2996.97 678.849 2987.76 685.772 2979.2 692.974C2929.69 734.589 2880.65 782.65 2833.42 835.823C2766.21 911.488 2703.72 996.454 2647.67 1088.35C2577.97 1202.66 2517.81 1328.52 2468.88 1462.44C2411.12 1620.52 2368.08 1792.48 2340.96 1973.52C2337.3 1997.98 2333.87 2022.96 2330.78 2047.76Z" fill="#2C660E"/>
<path d="M2568.46 1231.2L2564.66 1229.42C2641.25 1066.18 2574 764.586 2573.31 761.559L2577.4 760.626C2578.1 763.668 2645.67 1066.65 2568.46 1231.2Z" fill="#2C660E"/>
<path d="M2394.24 1706.64L2390.25 1705.31C2429.32 1588.28 2648.42 1497.95 2650.62 1497.05L2652.21 1500.94C2650.02 1501.83 2432.7 1591.44 2394.24 1706.64Z" fill="#2C660E"/>
<path d="M2377.81 1774.96L2373.65 1774.36C2385.24 1694.66 2358.47 1579.77 2298.26 1450.87C2295.23 1444.39 2295.23 1444.39 2295.34 1443.6L2299.5 1444.15L2297.42 1443.87L2299.45 1443.35C2299.6 1443.81 2300.74 1446.25 2302.07 1449.09C2362.62 1578.73 2389.52 1694.46 2377.81 1774.96Z" fill="#2C660E"/>
<path d="M2337.07 2002.51L2333.26 2000.75C2370.62 1920.29 2498.3 1888.53 2499.59 1888.22L2500.58 1892.3C2499.31 1892.61 2373.57 1923.9 2337.07 2002.51Z" fill="#2C660E"/>
<path d="M2324.43 2048.09C2308.6 1978.33 2272.22 1910.84 2213.22 1841.75L2216.41 1839.02C2275.87 1908.64 2312.54 1976.72 2328.53 2047.16L2324.43 2048.09Z" fill="#2C660E"/>
<path d="M2794.47 881.148L2790.77 879.154C2838.42 790.766 2867.98 686.865 2877.7 652.723C2880.05 644.458 2880.88 641.552 2881.35 640.59L2885.13 642.428C2884.78 643.167 2883.44 647.892 2881.74 653.874C2871.99 688.125 2842.33 792.357 2794.47 881.148Z" fill="#2C660E"/>
<path d="M2695.75 1013.4L2692.81 1010.41C2759.91 944.353 2948.21 946.466 2956.19 946.588L2956.13 950.789C2954.19 950.761 2761.6 948.582 2695.75 1013.4Z" fill="#2C660E"/>
</g>
</g>
<mask id="mask4_1484_1962" style="mask-type:luminance" maskUnits="userSpaceOnUse" x="2103" y="1046" width="1065" height="1428">
<path d="M2147.92 2396.63L2392.74 2473.37C2392.74 2473.37 2478.18 2362.23 2445.97 2254.79C2380.24 2035.6 2576.81 1993.33 2656.49 1963.31C2776.66 1918.04 2862.81 1825.73 2735.75 1733.97C2608.69 1642.2 2820.19 1467.01 3024.8 1421.86C3225.02 1377.68 3262.02 996.274 2819.89 1052.1C2555.85 1085.44 2515.28 1341.59 2464.04 1466.08C2412.8 1590.56 2219.15 1541.49 2235.29 1718.24C2249.07 1869.22 2324.27 1999.72 2214.82 2066.24C2105.36 2132.76 2064.75 2233.07 2147.92 2396.63Z" fill="white"/>
</mask>
<g mask="url(#mask4_1484_1962)">
<path d="M2147.92 2396.63L2392.74 2473.37C2392.74 2473.37 2478.18 2362.23 2445.97 2254.79C2380.24 2035.6 2576.81 1993.33 2656.49 1963.31C2776.66 1918.04 2849.76 1833.79 2753.56 1734.12C2644.71 1621.35 2820.19 1467.01 3024.8 1421.86C3225.02 1377.68 3262.02 996.274 2819.89 1052.1C2555.85 1085.44 2515.28 1341.59 2464.04 1466.08C2412.8 1590.56 2219.15 1541.49 2235.29 1718.24C2249.07 1869.22 2324.27 1999.72 2214.82 2066.24C2105.36 2132.76 2064.75 2233.07 2147.92 2396.63Z" fill="#9EF85E"/>
</g>
<mask id="mask5_1484_1962" style="mask-type:luminance" maskUnits="userSpaceOnUse" x="2103" y="1046" width="1065" height="1428">
<path d="M2147.92 2396.63L2392.74 2473.37C2392.74 2473.37 2478.18 2362.23 2445.97 2254.79C2380.24 2035.6 2576.81 1993.33 2656.49 1963.31C2776.66 1918.04 2862.81 1825.73 2735.75 1733.97C2608.69 1642.2 2820.19 1467.01 3024.8 1421.86C3225.02 1377.68 3262.02 996.274 2819.89 1052.1C2555.85 1085.44 2515.28 1341.59 2464.04 1466.08C2412.8 1590.56 2219.15 1541.49 2235.29 1718.24C2249.07 1869.22 2324.27 1999.72 2214.82 2066.24C2105.36 2132.76 2064.75 2233.07 2147.92 2396.63Z" fill="white"/>
</mask>
<g mask="url(#mask5_1484_1962)">
<g opacity="0.5">
<path d="M2246.76 2452.56L2252.13 2453.23C2252.54 2449.9 2294.77 2116.7 2436.23 1799C2566.55 1506.32 2810.21 1167.3 3230.94 1214.28L3231.55 1208.9C3044.25 1187.98 2875.88 1240.49 2731.11 1364.97C2615.46 1464.4 2514.56 1609.73 2431.23 1796.9C2289.47 2115.33 2247.17 2449.23 2246.76 2452.56Z" fill="#103003"/>
<path d="M2672.86 1419.6L2678.19 1420.57C2710.44 1243.21 2851.47 1021.11 2852.89 1018.89L2848.33 1015.97C2846.9 1018.21 2705.3 1241.2 2672.86 1419.6Z" fill="#103003"/>
<path d="M2771.59 1339.31C2979.55 1285.44 3125.8 1388.4 3127.25 1389.45L3130.41 1385.06C3128.94 1383.99 2980.74 1279.54 2770.24 1334.06L2771.59 1339.31Z" fill="#103003"/>
<path d="M2355.06 2011.74C2489.22 1786.18 2839.36 1830.3 2842.74 1831.01L2844.21 1825.8C2840.96 1824.79 2485.76 1781.41 2350.41 2008.97L2355.06 2011.74Z" fill="#103003"/>
<path d="M2385.83 1907.99L2391.22 1908.52C2407.72 1741.87 2271.75 1581.02 2270.38 1579.42L2266.26 1582.94C2267.62 1584.53 2402.1 1743.66 2385.83 1907.99Z" fill="#103003"/>
<path d="M2259.93 2400.94C2297.11 2308.43 2456.06 2275.78 2457.66 2275.46L2456.6 2270.15C2449.94 2271.47 2293.18 2303.68 2254.91 2398.92L2259.93 2400.94Z" fill="#103003"/>
<path d="M2268.87 2321.9L2274.24 2322.63C2284.82 2244.51 2198.63 2126.78 2170.31 2088.1C2166.31 2082.63 2162.85 2077.91 2162.4 2076.95L2157.46 2079.17C2158.08 2080.54 2160.37 2083.68 2165.94 2091.3C2193.94 2129.55 2279.16 2245.95 2268.87 2321.9Z" fill="#103003"/>
</g>
</g>
<path d="M2379.65 2458.64C2378.73 2459.07 2377.81 2459.49 2376.89 2459.92C2322.45 2484.99 2258.51 2502.77 2183.35 2507.56C2168.63 2507.46 2153.91 2507.36 2139.19 2507.26C2125.93 2472.68 2119.52 2437.42 2163.91 2422.65C2232.86 2399.71 2230.8 2277.28 2210.41 2234.57C2185.16 2181.71 2128.91 2057.41 2234.93 2020.27C2323.2 1989.35 2386.48 1987.44 2389.22 1872.49C2391.95 1757.54 2452.4 1684.04 2556.69 1687.68C2666.43 1691.52 2751.78 1542.98 2843 1589C3001.94 1669.2 2868.02 1926.42 2680.12 2005.49C2492.22 2084.57 2603.38 2149.75 2611.38 2243.51C2622.3 2371.5 2448.13 2349.41 2403.89 2401.18C2388.9 2418.71 2381.96 2438.8 2379.65 2458.64Z" fill="#103003"/>
<mask id="mask6_1484_1962" style="mask-type:luminance" maskUnits="userSpaceOnUse" x="2131" y="1580" width="783" height="955">
<path d="M2386.86 2529.14L2148.16 2534.56C2133.49 2501.08 2114.32 2439.15 2163.91 2422.65C2232.86 2399.71 2230.8 2277.28 2210.41 2234.57C2185.16 2181.71 2128.91 2057.41 2234.93 2020.27C2323.2 1989.35 2386.48 1987.44 2389.22 1872.49C2391.95 1757.55 2452.4 1684.04 2556.69 1687.68C2666.43 1691.52 2751.78 1542.98 2843 1589.01C3001.94 1669.2 2868.02 1926.42 2680.12 2005.49C2492.22 2084.57 2603.38 2149.75 2611.38 2243.51C2622.3 2371.51 2448.13 2349.41 2403.89 2401.18C2369.2 2441.76 2377.52 2496.04 2386.86 2529.14Z" fill="white"/>
</mask>
<g mask="url(#mask6_1484_1962)">
<g opacity="0.5">
<path d="M2273.61 2494.14L2268.52 2493.26C2333.14 2120.57 2578.32 1781.07 2908.39 1607.25L2910.8 1611.82C2582.12 1784.92 2337.97 2123 2273.61 2494.14Z" fill="#FCFDFE"/>
<path d="M2326.25 2293.97L2321.08 2294.11C2317.06 2145.51 2186.7 2033.13 2185.39 2032.01L2188.74 2028.07C2190.07 2029.2 2322.16 2143.03 2326.25 2293.97Z" fill="#FCFDFE"/>
<path d="M2287.37 2425.91L2282.75 2423.58C2350.69 2289.05 2623.91 2262.87 2626.67 2262.62L2627.13 2267.77C2624.41 2268.02 2354.02 2293.94 2287.37 2425.91Z" fill="#FCFDFE"/>
<path d="M2501.21 1967.11L2496.41 1965.18C2541 1854.25 2464.87 1687.48 2464.1 1685.81L2468.79 1683.63C2469.57 1685.32 2546.63 1854.13 2501.21 1967.11Z" fill="#FCFDFE"/>
<path d="M2661.46 1788.14L2658.63 1783.81C2772.71 1709.36 2953.47 1743.88 2955.29 1744.24L2954.28 1749.32C2952.49 1748.96 2773.76 1714.85 2661.46 1788.14Z" fill="#FCFDFE"/>
</g>
</g>
<path d="M2486.96 481.074V2994.25C2486.96 3031.83 2454.85 3039.92 2418.44 3041.11L1170.54 3105.65L1151.63 3106.27C1112.84 3107.54 1081.05 3076.76 1081.05 3037.87V437.452C1081.05 398.565 1112.84 367.788 1151.63 369.057L1177.29 369.896L2429.76 467.309C2466.17 468.5 2486.96 443.491 2486.96 481.074Z" fill="#010F14"/>
<path d="M2525.83 481.074V2994.25C2525.83 3031.83 2496.09 3063.55 2459.68 3064.75L1190.51 3106.27C1151.71 3107.54 1119.92 3076.76 1119.92 3037.87V437.452C1119.92 398.565 1151.72 367.788 1190.51 369.057L2459.68 410.577C2496.09 411.768 2525.83 443.491 2525.83 481.074Z" fill="#063646"/>
<path d="M2484.75 619.234V2947.39C2484.75 2982.48 2456.96 3012.06 2422.94 3013.13L1229.51 3050.62C1193.4 3051.76 1163.81 3023.04 1163.81 2986.81V582.792C1163.81 546.56 1193.4 517.779 1229.51 518.832L2422.94 553.634C2456.96 554.626 2484.75 584.146 2484.75 619.234Z" fill="url(#paint0_linear_1484_1962)"/>
<path d="M1858.44 468.037C1858.44 481.28 1847.89 491.696 1834.87 491.302C1821.84 490.908 1811.27 479.84 1811.27 466.583C1811.27 453.325 1821.84 442.91 1834.87 443.319C1847.89 443.727 1858.44 454.794 1858.44 468.037Z" fill="#62F0FE"/>
<path d="M2299.55 2033.08L1346.42 2045.86C1334.37 2046.03 1324.59 2036.38 1324.59 2024.31V1815.61C1324.59 1803.55 1334.37 1793.7 1346.42 1793.62L2299.55 1787.17C2311 1787.1 2320.28 1796.56 2320.28 1808.3V2011.54C2320.28 2023.28 2311 2032.93 2299.55 2033.08Z" fill="#F4F7FA"/>
<path d="M2297.39 2417.52L1348.7 2440.1C1335.39 2440.41 1324.59 2429.87 1324.59 2416.55V2212.4C1324.59 2199.08 1335.39 2188.1 1348.7 2187.87L2297.39 2171.6C2310.03 2171.38 2320.28 2181.72 2320.28 2194.69V2393.48C2320.28 2406.46 2310.03 2417.22 2297.39 2417.52Z" fill="#F4F7FA"/>
<path d="M2203.31 1163.55C2203.31 1373.04 2036.68 1542.88 1829.05 1542.92C1619.09 1542.95 1447.15 1369.7 1447.15 1155.94C1447.15 942.186 1619.09 772.393 1829.05 776.654C2036.68 780.868 2203.31 954.069 2203.31 1163.55Z" fill="white"/>
<path d="M1983.36 1046.25C1983.36 1132.56 1914.44 1201.89 1829.15 1201.09C1743.54 1200.29 1673.91 1129.2 1673.91 1042.31C1673.91 955.422 1743.54 886.104 1829.15 887.48C1914.44 888.851 1983.36 959.931 1983.36 1046.25Z" fill="#11485A"/>
<path d="M1829.05 1542.92C1920.83 1542.9 2004.55 1509.72 2069.37 1454.75C2047.31 1340.64 1948.42 1253.85 1829.05 1252.95C1708.9 1252.04 1608.21 1338.32 1585.6 1453.68C1651.89 1509.46 1736.81 1542.93 1829.05 1542.92Z" fill="#11485A"/>
<path d="M1960.24 1944.31L1440.05 1949.98C1422.35 1950.17 1407.86 1935.8 1407.86 1918.05C1407.86 1900.29 1422.35 1885.63 1440.05 1885.46L1960.24 1880.67C1977.44 1880.52 1991.5 1894.69 1991.5 1912.18C1991.5 1929.66 1977.44 1944.12 1960.24 1944.31Z" fill="#11485A"/>
<path d="M1485.69 2310.62C1485.69 2333.31 1467.37 2352.09 1444.74 2352.58C1422.09 2353.07 1403.7 2335.03 1403.7 2312.3C1403.7 2289.56 1422.09 2270.77 1444.74 2270.33C1467.37 2269.89 1485.69 2287.93 1485.69 2310.62Z" fill="#11485A"/>
<path d="M1639.07 2307.48C1639.07 2330.08 1620.89 2348.79 1598.45 2349.27C1575.98 2349.75 1557.74 2331.79 1557.74 2309.14C1557.74 2286.5 1575.98 2267.79 1598.45 2267.35C1620.89 2266.92 1639.07 2284.88 1639.07 2307.48Z" fill="#11485A"/>
<path d="M1791.2 2304.37C1791.2 2326.87 1773.18 2345.5 1750.91 2345.98C1728.62 2346.46 1710.54 2328.57 1710.54 2306.02C1710.54 2283.46 1728.62 2264.83 1750.91 2264.4C1773.18 2263.97 1791.2 2281.86 1791.2 2304.37Z" fill="url(#paint1_linear_1484_1962)"/>
<path d="M1942.12 2301.28C1942.12 2323.69 1924.23 2342.25 1902.15 2342.73C1880.04 2343.2 1862.1 2325.38 1862.1 2302.92C1862.1 2280.45 1880.04 2261.9 1902.15 2261.47C1924.23 2261.04 1942.12 2278.87 1942.12 2301.28Z" fill="#11485A"/>
<path d="M2091.82 2298.22C2091.82 2320.54 2074.08 2339.02 2052.17 2339.49C2030.24 2339.97 2012.44 2322.21 2012.44 2299.84C2012.44 2277.47 2030.24 2258.99 2052.17 2258.56C2074.08 2258.14 2091.82 2275.89 2091.82 2298.22Z" fill="#11485A"/>
<path d="M1828.99 1552.22C1724.85 1552.22 1626.75 1511 1552.75 1436.14C1478.66 1361.19 1437.85 1261.68 1437.85 1155.94C1437.85 1049.31 1479.25 950.017 1554.42 876.356C1628.29 803.97 1725.86 765.235 1829.23 767.357C1932.02 769.444 2028.44 811.815 2100.73 886.667C2172.88 961.376 2212.61 1059.71 2212.61 1163.55C2212.61 1267.43 2172.85 1365.01 2100.66 1438.31C2028.33 1511.74 1931.87 1552.2 1829.05 1552.22C1829.03 1552.22 1829 1552.22 1828.99 1552.22ZM1821.27 785.876C1725.78 785.876 1635.91 822.551 1567.44 889.641C1495.87 959.775 1456.45 1054.35 1456.45 1155.94C1456.45 1256.75 1495.35 1351.62 1565.98 1423.06C1636.46 1494.35 1729.87 1533.62 1828.99 1533.62C1829.01 1533.62 1829.02 1533.62 1829.04 1533.62C2030.29 1533.59 2194.01 1367.58 2194.01 1163.56C2194.01 959.43 2030.21 790.039 1828.86 785.953C1826.33 785.901 1823.79 785.876 1821.27 785.876Z" fill="white"/>
<path opacity="0.3" d="M2525.83 479.638C2525.83 442.343 2496.24 411.772 2458.97 410.553L1766.85 387.911C2023.57 659.971 2081.3 888.226 2087.89 1044.21C2106.69 1489.45 1723.13 1683.43 1794.45 2170.35C1814 2303.83 1857.24 2387.66 1874.13 2618.25C1888.53 2814.84 1873.48 2977.56 1858.48 3084.41L2459.69 3064.74C2496.09 3063.55 2525.83 3031.83 2525.83 2994.25L2525.83 479.638Z" fill="url(#paint2_linear_1484_1962)"/>
<path opacity="0.3" d="M1501.06 1733.96C1508.36 1519.49 1434.87 1429.83 1415.4 1407.87C1401.64 1392.36 1388.9 1381.37 1293.8 1302.86C1223.15 1244.53 1164.27 1196.18 1122.47 1161.93C1121.62 1762.73 1120.77 2363.54 1119.92 2964.35C1148.39 2733.74 1203.12 2559.82 1244.75 2448.76C1361.3 2137.89 1491.7 2009.14 1501.06 1733.96Z" fill="url(#paint3_linear_1484_1962)"/>
<path d="M2722.94 2587.9C2764.57 2562.75 2747.12 2429.5 2685.93 2337.71C2599.06 2207.36 2417.2 2150.39 2381.89 2191.5C2345.76 2233.57 2459.86 2382.16 2478.39 2406.29C2545.63 2493.85 2673.7 2617.65 2722.94 2587.9Z" fill="url(#paint4_linear_1484_1962)"/>
<path d="M3195.62 3139.06C3188.49 3148.5 3188.12 3164.75 3195.7 3172.07C3203.16 3179.26 3212.81 3172.51 3241.73 3170.8C3272.7 3168.97 3281.42 3175.55 3301.9 3167.89C3310.17 3164.79 3324.65 3157.77 3323.82 3151.74C3323.24 3147.49 3315.42 3145.97 3289.19 3139.71C3251.95 3130.82 3252.05 3130.14 3244.26 3129.55C3224.69 3128.08 3205.04 3126.59 3195.62 3139.06Z" fill="#010F14"/>
<path d="M3195.03 3087.98L3227.57 3131.12C3227.43 3134.13 3215.8 3148.3 3201.04 3147.51L3161.96 3108.41L3195.03 3087.98Z" fill="url(#paint5_linear_1484_1962)"/>
<path d="M3027.55 3248.9C3020.61 3258.49 3020.58 3274.74 3028.32 3281.9C3035.93 3288.93 3045.43 3281.98 3074.31 3279.66C3105.24 3277.18 3114.09 3283.57 3134.4 3275.48C3142.61 3272.21 3156.93 3264.89 3155.98 3258.87C3155.32 3254.64 3147.46 3253.29 3121.1 3247.58C3083.69 3239.47 3083.78 3238.79 3075.97 3238.37C3056.38 3237.31 3036.7 3236.23 3027.55 3248.9Z" fill="#010F14"/>
<path d="M3026.29 3198.83L3058.82 3241.98C3058.68 3244.99 3047.06 3259.16 3032.29 3258.36L2993.21 3219.26L3026.29 3198.83Z" fill="url(#paint6_linear_1484_1962)"/>
<path d="M2041.26 2212.9C2089.95 2194.25 2164.6 2171.89 2257.44 2168.43C2361.96 2164.54 2445.9 2161.4 2505.71 2208.64C2704.7 2365.79 2607.16 2779.92 2592.77 2825.99C2575.67 2880.78 2543.14 2918 2543.14 2918C2523.62 2940.33 2504.46 2953.37 2494.09 2960.23C2344.41 3059.28 2251.36 3120.84 2153.11 3095.69C2140.04 3092.34 2080.64 3071.74 2047.86 3022.32C2042.01 3013.51 2038.36 3002.22 2037.43 2986.45C2022.18 2725.76 2052.92 2464 2041.26 2212.9Z" fill="url(#paint7_linear_1484_1962)"/>
<path opacity="0.3" d="M2127.08 2523.62C2107.12 2469.04 2127.75 2406.54 2083.28 2379.28C2066.98 2369.29 2046.74 2365.07 2024.68 2365.56C2027.41 2557.45 2031.28 2749.16 2036.04 2949.41C2037.61 3015.56 2045.89 3018.83 2110.03 3076.76C2184.35 3143.89 2245.51 3122.24 2355.3 3100.22C2211.45 3011.85 2175.68 2963.79 2190.34 2885.26C2207.41 2793.8 2374.87 2766.72 2368.1 2701.7C2360.92 2632.79 2170.73 2642.95 2127.08 2523.62Z" fill="url(#paint8_linear_1484_1962)"/>
<path d="M2087.16 2216.37C2037.75 2188.77 1924.12 2267.28 1862.04 2334.98C1833.18 2366.44 1732.71 2475.98 1763.96 2616.91C1769.05 2639.87 1792.57 2747.26 1897.2 2796.38C1990.88 2840.36 2114.53 2823.52 2211.46 2752.64C2224.64 2741.26 2237.82 2729.88 2251 2718.5C2263.88 2704.97 2276.77 2691.45 2289.65 2677.92C2268.04 2662.94 2231.48 2641.54 2180.79 2628.83C2103.55 2609.46 2068.79 2636.59 2049.7 2615.56C2026.2 2589.67 2078.59 2545.03 2092.32 2431.05C2096.03 2400.29 2142.36 2247.2 2087.16 2216.37Z" fill="url(#paint9_linear_1484_1962)"/>
<path d="M2176.87 3064.2C2182.96 3172.8 2223.79 3112.64 2316.21 3015.2C2413.55 2912.58 2642.57 2732.21 2795.44 2801.07C2909.29 2852.36 2898.24 3004.07 3080.25 3099.28C3112.31 3116.06 3140.38 3125.67 3157.63 3130.9C3177.35 3112.66 3197.06 3094.43 3216.78 3076.19C3206.2 3019.48 3158.97 2803.24 2961.5 2666.93C2913.75 2633.97 2822.64 2570.49 2707.43 2571.98C2395.96 2576 2171.26 2964.04 2176.87 3064.2Z" fill="#097B95"/>
<path d="M2033.37 3013.82C2034.67 3077.01 2075.93 3134.93 2122.41 3163.21C2225.6 3225.99 2380.13 3158.25 2466.68 3088.99C2572 3004.72 2571.96 2922.15 2625.78 2922.56C2709.4 2923.19 2723.98 3123.15 2910.59 3220.77C2942.65 3237.54 2970.72 3247.16 2987.97 3252.39C3007.68 3234.15 3027.4 3215.92 3047.12 3197.68C3014.75 3075.23 2964.65 2986.25 2927.71 2930.87C2881.62 2861.8 2837.26 2795.31 2751.36 2747.13C2660.91 2696.39 2574.49 2694.04 2537.77 2693.47C2306.15 2689.86 2029.97 2848.96 2033.37 3013.82Z" fill="#029AB8"/>
<path d="M2662.13 2634.26L2088.76 2737.66L2255.15 2781.26L2670.89 2671.24L2662.13 2634.26Z" fill="#34810A"/>
<path d="M2071.55 2756.8L2071.56 2756.8C2073.65 2767.5 2082.22 2775.75 2092.99 2777.43L2289.69 2813.28L2280.8 2763.47L2088.76 2737.65C2078.08 2736.73 2069.5 2746.29 2071.55 2756.8Z" fill="#2C660E"/>
<path d="M2163.69 2711.8C2160.02 2711.71 2172.59 2666.62 2189.69 2668.19C2206.79 2669.76 2294.87 2700.12 2305.75 2717.59C2316.64 2735.06 2316.64 2735.06 2316.64 2735.06C2316.64 2735.06 2282.66 2744.51 2259.86 2741.51C2237.05 2738.51 2193.47 2712.58 2163.69 2711.8Z" fill="url(#paint10_linear_1484_1962)"/>
<path d="M2263.23 2405.66L2250.65 2781.58C2250.21 2794.55 2269.68 2812.35 2282.56 2810.75L2880.42 2728.18C2890.25 2726.96 2897.92 2719.07 2898.85 2709.21L2946.85 2343.41C2948.1 2330.13 2923.52 2318.39 2910.25 2319.77L2282.14 2385.36C2271.66 2386.46 2263.58 2395.12 2263.23 2405.66Z" fill="#275611"/>
<path d="M2277.78 2415.49L2265.2 2791.41C2264.77 2804.38 2276.03 2814.67 2288.91 2813.08L2894.97 2738.01C2904.81 2736.79 2912.47 2728.9 2913.4 2719.04L2948.03 2352.59C2949.28 2339.32 2938.07 2328.22 2924.81 2329.6L2296.7 2395.19C2286.21 2396.28 2278.14 2404.95 2277.78 2415.49Z" fill="url(#paint11_linear_1484_1962)"/>
<path opacity="0.3" d="M2656.25 2668.31C2601.43 2649.84 2616.91 2605.48 2550.13 2556.77C2462.02 2492.5 2380.01 2529.51 2346.33 2477.06C2335.84 2460.73 2329.43 2434.56 2342.18 2390.44L2296.7 2395.19C2286.21 2396.28 2278.14 2404.95 2277.78 2415.49L2265.2 2791.41C2264.77 2804.38 2276.03 2814.67 2288.91 2813.08L2894.97 2738.01C2904.81 2736.79 2912.47 2728.9 2913.4 2719.04L2918.18 2668.47C2898.94 2659.6 2876.18 2651.94 2850.05 2648.68C2759.44 2637.37 2719.37 2689.57 2656.25 2668.31Z" fill="url(#paint12_linear_1484_1962)"/>
<path d="M2261.85 2025.27C2263.63 2064 2260.45 2094.9 2257.15 2116.1C2253.37 2140.38 2250.23 2146.74 2246.11 2151.96C2246.11 2151.96 2244.8 2153.61 2243.32 2155.09C2239.53 2158.86 2192.01 2168.13 2178 2171.4C2176.52 2171.74 2149.08 2178.41 2141.21 2193.16C2141.15 2193.26 2141 2193.55 2140.92 2193.99C2138.21 2208.74 2222.47 2255.51 2307.14 2240.31C2358.97 2231.01 2405.26 2199.51 2401.76 2184.01C2398.25 2168.42 2346.52 2178.79 2329.95 2150.95C2318.42 2131.59 2329.46 2103.07 2342.89 2079.29C2328.08 2053.87 2276.67 2050.69 2261.85 2025.27Z" fill="url(#paint13_linear_1484_1962)"/>
<path d="M2373.02 2070.45C2406.13 2060.84 2427.49 1946.81 2399.63 1933.03C2386.31 1926.43 2376.44 1950.05 2323.34 1971.17C2280.84 1988.08 2262.88 1982.62 2251.12 2001.27C2239.5 2019.69 2246.64 2046.37 2250.3 2065.29C2251.89 2073.5 2257.2 2077.37 2261.39 2084.24C2267.2 2093.76 2276.24 2108.86 2290.9 2134.01C2293.76 2128.18 2297.72 2121.05 2303.16 2113.57C2305.26 2110.7 2313.6 2099.5 2338.26 2082.74C2354.02 2072.03 2369.23 2071.55 2373.02 2070.45Z" fill="#010F14"/>
<path d="M2267.29 2110.37C2267.29 2110.37 2280.93 2150.17 2324.11 2156.8C2362.77 2162.74 2387.23 2078.5 2366.89 2054.99C2360.1 2047.14 2344.39 2041.04 2330.35 2041.82C2322.06 2042.29 2318.69 2044.95 2305.12 2045.44C2292.61 2045.9 2289.56 2043.85 2285.32 2046.06C2280.02 2048.84 2274.71 2057.34 2276.65 2083.97C2271 2075 2262.9 2070.25 2256.07 2071.8C2254.98 2072.05 2251.97 2073.25 2249.9 2075.63C2242.42 2084.21 2248.58 2098.65 2267.29 2110.37Z" fill="url(#paint14_linear_1484_1962)"/>
<path d="M2284.72 2040.57C2286.26 2042.35 2279.12 2047.96 2276.56 2057.58C2271.59 2076.24 2285.66 2103.06 2304.69 2109.28C2315.94 2112.95 2320.64 2106.72 2340.09 2108.91C2352.14 2110.27 2361.61 2113.93 2367.47 2116.64C2368.88 2138.62 2358.71 2157.98 2342.79 2164.49C2325.65 2171.49 2308.03 2161.05 2300.67 2156.69C2295.74 2153.77 2279.95 2144.45 2274.5 2126.88C2268.82 2108.56 2280.08 2100.76 2271.88 2087.41C2267.74 2080.68 2261.23 2076.72 2256.74 2064.46C2255.52 2061.13 2254.85 2058.27 2254.47 2056.36C2266.61 2048.12 2282.5 2038 2284.72 2040.57Z" fill="#010F14"/>
<path d="M2351.95 2121.24C2351.95 2121.24 2342.77 2123.72 2328.72 2119.78C2328.04 2119.59 2327.23 2119.62 2327.06 2119.96C2326.44 2121.24 2334.22 2129.3 2343.15 2128.8C2349.49 2128.44 2355.39 2123.81 2354.9 2122.19C2354.7 2121.51 2353.33 2121.29 2351.95 2121.24Z" fill="url(#paint15_linear_1484_1962)"/>
<path d="M459.255 1669.62C443.365 1622.94 454.494 1569.28 479.017 1531.77C520.458 1468.4 574.471 1490.42 628.57 1420.14C663.565 1374.68 695.412 1335.85 734.269 1306.78C762.854 1285.38 830.495 1261.15 856.919 1277.97C935.981 1328.3 790.919 1756.82 630.985 1781.21C566.991 1790.97 483.141 1739.78 459.255 1669.62Z" fill="#42AA06"/>
<path d="M762.641 3022.83C766.861 3031.83 771.629 3045.03 772.888 3061.45C773.44 3068.64 773.219 3075.17 772.645 3080.82C768.004 3087.67 746.305 3111.16 717.002 3116.95C698.874 3120.54 669.486 3105.17 702.777 3084.37C736.068 3063.57 741.044 3058.56 731.259 3005.4C728.742 2991.72 729.731 2986.71 731.879 2985.75C736.897 2983.5 751.195 3004.48 762.641 3022.83Z" fill="#010F14"/>
<path d="M916.171 3063.44C920.391 3072.45 925.159 3085.64 926.418 3102.06C926.97 3109.26 926.749 3115.78 926.175 3121.44C921.534 3128.28 899.836 3151.77 870.532 3157.57C852.404 3161.15 823.016 3145.78 856.308 3124.98C889.599 3104.18 894.575 3099.18 884.79 3046.01C882.273 3032.33 883.262 3027.32 885.41 3026.36C890.428 3024.12 904.725 3045.09 916.171 3063.44Z" fill="#010F14"/>
<path d="M1075.84 1952.62C1086.85 2019.65 1097.85 2086.68 1108.86 2153.71C1084.75 2217.12 1062.34 2286.2 1043.34 2360.82C974.729 2630.34 931.945 2889.93 928.816 3075.88C913.713 3081.35 898.61 3086.81 883.507 3092.27C856.445 2990.09 864.622 2835.58 840.562 2653.38C812.137 2438.12 831.466 2269.84 821.57 2269.25C812.086 2268.68 785.524 2422.74 785.476 2598.67C785.425 2784.65 764.033 2934.38 777.821 3041.88C759.725 3042.96 741.63 3044.04 723.534 3045.12C673.422 2902.96 651.526 2733.6 626.156 2509.65C608.538 2354.13 587.745 2147.53 691.645 1934.37C702.02 1913.09 738.241 1865.84 745.032 1854.16C864.179 1876.96 956.692 1929.83 1075.84 1952.62Z" fill="#126378"/>
<path opacity="0.25" d="M1043.34 2360.82C1062.34 2286.2 1084.75 2217.12 1108.86 2153.71C1097.85 2086.68 1086.85 2019.65 1075.84 1952.62C956.693 1929.83 864.18 1876.96 745.034 1854.17C738.243 1865.84 702.022 1913.09 691.647 1934.37C656.623 2006.23 635.808 2077.33 624.224 2145.99C854.734 2143.47 921.443 2191.47 939.808 2235.72C969.044 2306.15 880.128 2377.58 911.587 2520.12C921.048 2562.99 935.178 2584.12 936.837 2637.82C939.014 2708.29 916.013 2715.13 912.411 2786.81C908.47 2865.25 881.304 2941.91 894.041 2997.51C901.96 3032.08 911.234 3060.18 918.36 3079.67C921.846 3078.41 925.331 3077.15 928.818 3075.88C931.946 2889.93 974.73 2630.34 1043.34 2360.82Z" fill="#126378"/>
<path d="M977.071 1022.45C984.462 1032.33 973.482 1045.58 971.29 1093.82C970.287 1115.88 971.617 1134.39 973.105 1147.53C973.524 1159.42 974.196 1170.44 975.124 1180.18C975.805 1187.33 976.533 1192.91 977.56 1198.86C979.461 1209.88 982.187 1220.82 985.657 1231.35C985.887 1232.05 985.543 1232.8 984.882 1233.08C984.843 1233.1 984.802 1233.12 984.761 1233.13C984.023 1233.37 983.229 1232.97 982.986 1232.23C979.472 1221.57 976.713 1210.5 974.786 1199.34C973.747 1193.32 973.01 1187.67 972.323 1180.45C971.834 1175.32 971.421 1169.81 971.072 1164.04C969.493 1179.24 969.169 1196.04 974.576 1218.47C990.984 1286.54 938.144 1331.35 896.498 1333.16C848.47 1335.23 815.914 1297.17 805.846 1284.72C765.265 1234.52 757.453 1152.71 795.619 1092.88C845.615 1014.5 958.958 998.242 977.071 1022.45Z" fill="#010F14"/>
<path d="M855.623 1087.99C857.678 1080.38 866.972 1049.35 895.37 1029.9C949.251 992.997 1035.62 1022.61 1085.14 1066.07C1136.95 1111.54 1115.4 1143 1166.34 1193.5C1221.66 1248.34 1260.48 1224.39 1337.37 1277.37C1367.62 1298.2 1449.13 1354.36 1454.58 1441.97C1459.28 1517.67 1405.75 1593.48 1340.24 1622.73C1228.09 1672.8 1087.64 1583.38 1021.38 1501.15C957.822 1422.28 1000.71 1402.97 910.344 1250.65C877.672 1195.57 840.268 1144.85 855.623 1087.99Z" fill="#010F14"/>
<path d="M774.803 1308.79C733.836 1350.26 722.805 1400.12 719.577 1422.4C709.536 1491.72 736.763 1548.27 743.157 1563.12C773.367 1633.3 762.239 1771.62 586.14 2069.48C602.879 2083.43 660.593 2186.71 687.89 2137.18C725.106 2069.66 893.944 1594.54 731.105 2157.58C728.959 2165 745.553 2163.51 753.097 2166.32C807.184 2186.52 872.14 2201.22 945.944 2200.3C1061.62 2198.86 1149.76 2159.66 1196.36 2134.45C1164.76 2060.79 1131.68 1961.09 1117.53 1840.08C1090.53 1609.24 1146.71 1423.07 1185.86 1322.68C1150.16 1298 1037.08 1226.53 903.296 1249.63C869.964 1255.38 817.954 1265.1 774.803 1308.79Z" fill="#5BD40E"/>
<path opacity="0.3" d="M1117.53 1840.08C1090.53 1609.24 1146.71 1423.07 1185.86 1322.68C1150.16 1298 1037.09 1226.53 903.299 1249.63C869.964 1255.38 817.954 1265.1 774.804 1308.79C742.186 1341.81 728.573 1380.1 722.739 1405.6C723.738 1405.43 725.115 1405.21 726.756 1404.98C809.15 1393.6 904.309 1459.89 936.841 1522.6C991.131 1627.24 866.243 1712.74 869.367 1878.58C871.056 1968.23 910.019 2074.23 1029.14 2192.61C1104.01 2179.67 1161.7 2153.2 1196.36 2134.45C1164.76 2060.79 1131.68 1961.08 1117.53 1840.08Z" fill="#C1FD93"/>
<path d="M934.579 1166.61C922.841 1190.43 912.93 1220.23 925.855 1240.22C933.729 1252.4 946.762 1259.19 959.633 1265.58C990.049 1280.69 1004.16 1274.55 1010.17 1283.72C1023.38 1303.9 985.966 1380.89 924.934 1387.58C864.195 1394.23 809.227 1328.05 818.369 1300.1C826.618 1274.88 886.412 1282.79 897.101 1250.91C902.483 1234.87 892.631 1217.05 883.985 1204.98L876.832 1205.61L934.579 1166.61Z" fill="url(#paint16_linear_1484_1962)"/>
<path opacity="0.4" d="M1010.17 1283.72C1004.16 1274.55 990.048 1280.69 959.632 1265.58C946.761 1259.19 933.729 1252.4 925.855 1240.22C912.931 1220.23 922.841 1190.43 934.579 1166.61L876.83 1205.61L883.983 1204.98C890.845 1214.56 898.339 1227.76 898.5 1240.82C902.698 1243.72 906.243 1246.91 908.755 1250C900.789 1267.18 898.087 1282.02 897.051 1291.61C895.435 1306.57 894.236 1317.68 900.654 1328.18C907.656 1339.63 919.62 1343.65 930.08 1347.15C953.322 1354.95 975.04 1352.36 989.309 1348.94C1009.04 1324.29 1017.59 1295.05 1010.17 1283.72Z" fill="url(#paint17_linear_1484_1962)"/>
<path d="M923.92 1189.56C923.92 1189.56 925.94 1220.16 896.169 1225.28C859.487 1231.59 839.27 1135.39 847.276 1128.37C856.559 1120.22 868.235 1134.43 891.419 1124.94C901.181 1120.94 907.776 1106.43 915.263 1119.63C923.78 1134.66 923.557 1163.8 923.557 1163.8C923.557 1163.8 931.082 1155.16 933.863 1163.59C937.502 1174.62 930.183 1183.12 923.92 1189.56Z" fill="url(#paint18_linear_1484_1962)"/>
<path d="M869.19 1078.15C856.199 1088.91 847.31 1111.49 854.243 1124.02C864.203 1142.02 900.619 1128.08 912.642 1150.08C917.913 1159.72 916.258 1172.18 919.496 1172.31C922.178 1172.42 924.649 1163.92 926.922 1156.96C939.451 1118.56 949.695 1115.17 947.878 1103.62C944.183 1080.13 895.863 1056.05 869.19 1078.15Z" fill="#010F14"/>
<path d="M1084.77 1319.38C1125.23 1321.94 1129.29 1309.81 1174.07 1342.62C1302.67 1436.82 1386.08 1702.54 1258.56 1830.96C1187.64 1902.39 1058.2 1946 948.092 1891.48C858.455 1847.1 825.395 1759.36 817.367 1735.87C818.842 1712.31 820.318 1688.76 821.793 1665.21C872.143 1719.53 915.396 1733.25 946.772 1734.93C1000.18 1737.79 1022.37 1705.92 1113.72 1700.89C1149.31 1698.92 1169.19 1702.48 1173.34 1692.8C1181.92 1672.78 1104.25 1640.52 1067.67 1581.17C1041.01 1537.91 1024.85 1461.86 1084.77 1319.38Z" fill="#42AA06"/>
<path d="M926.949 1120.64C917.829 1128.75 932.727 1160.26 962.895 1222.94C981.463 1261.53 990.747 1280.82 997.11 1289.4C1031.37 1335.62 1093.19 1374.89 1159.49 1378.06C1204.99 1380.23 1213.42 1363.53 1249.86 1373.56C1304.83 1388.69 1331.86 1439.41 1334.65 1437.18C1337.74 1434.71 1307.89 1370.28 1240.59 1312.16C1185.53 1264.6 1168.09 1275.41 1080.75 1208.4C1074.42 1203.54 1047.6 1182.84 1009.46 1158.72C964.607 1130.37 936.022 1112.58 926.949 1120.64Z" fill="#010F14"/>
<path d="M568.946 1475.51L662.465 1706.87C664.051 1711.16 667.525 1714.47 671.88 1715.86L779.687 1750.1C790.823 1753.63 801.482 1743.5 798.506 1732.2L740.874 1513.47C739.555 1508.46 735.782 1497.35 726.236 1494.32L594.921 1456.37C583.217 1452.9 564.712 1464.07 568.946 1475.51Z" fill="url(#paint19_linear_1484_1962)"/>
<path d="M567.76 1479.18L650.563 1703.09C652.149 1707.38 655.623 1710.69 659.978 1712.07L767.785 1746.32C778.922 1749.85 789.58 1739.72 786.603 1728.42L728.971 1509.69C727.652 1504.68 723.816 1500.73 718.853 1499.25L585.874 1459.83C574.171 1456.36 563.526 1467.73 567.76 1479.18Z" fill="url(#paint20_linear_1484_1962)"/>
<path d="M827.552 1684.15L816.21 1673.56C816.21 1673.56 800.095 1651.52 787.953 1640.85C775.812 1630.17 763.921 1628.02 751.03 1638.29C738.139 1648.56 749.09 1665.56 758.408 1680.38C764.078 1689.4 780.057 1695.12 793.358 1698.58C802.709 1701.01 819.086 1713.22 819.086 1713.22L827.552 1684.15Z" fill="url(#paint21_linear_1484_1962)"/>
<path d="M580.338 1582.93L591.014 1571.68C591.014 1571.68 613.19 1555.74 623.962 1543.69C634.736 1531.63 636.984 1519.76 626.816 1506.79C616.647 1493.81 599.567 1504.62 584.667 1513.82C575.602 1519.42 569.754 1535.35 566.188 1548.62C563.68 1557.96 551.336 1574.23 551.336 1574.23L580.338 1582.93Z" fill="url(#paint22_linear_1484_1962)"/>
<path d="M549.56 1560.18C563.383 1567.08 577.209 1573.97 591.032 1580.86C595.263 1586.25 645.63 1652.37 618.742 1715.77C615.244 1724.02 602.019 1755.2 575.94 1760.72C535.694 1769.25 477.064 1714.08 478.956 1654.86C480.223 1615.17 508.518 1578.7 549.56 1560.18Z" fill="#42AA06"/>
</g>
<defs>
<linearGradient id="paint0_linear_1484_1962" x1="1163.81" y1="1784.73" x2="2484.75" y2="1784.73" gradientUnits="userSpaceOnUse">
<stop stop-color="#CDFCFF"/>
<stop offset="1" stop-color="#00C1DB"/>
</linearGradient>
<linearGradient id="paint1_linear_1484_1962" x1="1018.48" y1="807.629" x2="2176.13" y2="3174.76" gradientUnits="userSpaceOnUse">
<stop stop-color="#097B95"/>
<stop offset="0.9964" stop-color="#063646"/>
</linearGradient>
<linearGradient id="paint2_linear_1484_1962" x1="1766.85" y1="1736.16" x2="2525.83" y2="1736.16" gradientUnits="userSpaceOnUse">
<stop stop-color="#F9F9F9"/>
<stop offset="1" stop-color="#62F0FE"/>
</linearGradient>
<linearGradient id="paint3_linear_1484_1962" x1="1111.09" y1="2062.76" x2="1757.13" y2="2086.79" gradientUnits="userSpaceOnUse">
<stop stop-color="#FAFEFE"/>
<stop offset="1" stop-color="#62F0FE"/>
</linearGradient>
<linearGradient id="paint4_linear_1484_1962" x1="2519.13" y1="2437.25" x2="2593.65" y2="2335.27" gradientUnits="userSpaceOnUse">
<stop stop-color="#063646"/>
<stop offset="0.9964" stop-color="#010F14"/>
</linearGradient>
<linearGradient id="paint5_linear_1484_1962" x1="3240.41" y1="3144.75" x2="3135.15" y2="3077.66" gradientUnits="userSpaceOnUse">
<stop stop-color="#FFC444"/>
<stop offset="0.9964" stop-color="#F36F56"/>
</linearGradient>
<linearGradient id="paint6_linear_1484_1962" x1="3071.66" y1="3255.6" x2="2966.4" y2="3188.52" gradientUnits="userSpaceOnUse">
<stop stop-color="#FFC444"/>
<stop offset="0.9964" stop-color="#F36F56"/>
</linearGradient>
<linearGradient id="paint7_linear_1484_1962" x1="2061.45" y1="2881.6" x2="2362.03" y2="2470.25" gradientUnits="userSpaceOnUse">
<stop stop-color="#11485A"/>
<stop offset="0.603138" stop-color="#072630"/>
<stop offset="0.9964" stop-color="#010F14"/>
</linearGradient>
<linearGradient id="paint8_linear_1484_1962" x1="2071.71" y1="2882.81" x2="2382.3" y2="2489.14" gradientUnits="userSpaceOnUse">
<stop stop-color="#126378"/>
<stop offset="0.9964" stop-color="#010F14"/>
</linearGradient>
<linearGradient id="paint9_linear_1484_1962" x1="1913.03" y1="2705.96" x2="2177.64" y2="2303.3" gradientUnits="userSpaceOnUse">
<stop stop-color="#11485A"/>
<stop offset="0.9964"/>
</linearGradient>
<linearGradient id="paint10_linear_1484_1962" x1="2164.69" y1="2719" x2="2308.01" y2="2690.95" gradientUnits="userSpaceOnUse">
<stop stop-color="#FFC444"/>
<stop offset="0.9964" stop-color="#F36F56"/>
</linearGradient>
<linearGradient id="paint11_linear_1484_1962" x1="2427.24" y1="2986.41" x2="2680.68" y2="2354.61" gradientUnits="userSpaceOnUse">
<stop stop-color="#103003"/>
<stop offset="1" stop-color="#7BEE2D"/>
</linearGradient>
<linearGradient id="paint12_linear_1484_1962" x1="2251.01" y1="2606.68" x2="2909.66" y2="2556.55" gradientUnits="userSpaceOnUse">
<stop stop-color="#103003"/>
<stop offset="1" stop-color="#34810A"/>
</linearGradient>
<linearGradient id="paint13_linear_1484_1962" x1="2211.08" y1="2329.61" x2="2365.74" y2="1974.06" gradientUnits="userSpaceOnUse">
<stop stop-color="#FFC444"/>
<stop offset="0.9964" stop-color="#F36F56"/>
</linearGradient>
<linearGradient id="paint14_linear_1484_1962" x1="2315.07" y1="2058.4" x2="2255.08" y2="2418.91" gradientUnits="userSpaceOnUse">
<stop stop-color="#FFC444"/>
<stop offset="0.9964" stop-color="#F36F56"/>
</linearGradient>
<linearGradient id="paint15_linear_1484_1962" x1="2345.59" y1="2107.63" x2="2330.87" y2="2151.27" gradientUnits="userSpaceOnUse">
<stop stop-color="#FFC444"/>
<stop offset="1" stop-color="#F36F56"/>
</linearGradient>
<linearGradient id="paint16_linear_1484_1962" x1="918.775" y1="1475.09" x2="910.346" y2="1076.12" gradientUnits="userSpaceOnUse">
<stop stop-color="#FFC444"/>
<stop offset="0.9964" stop-color="#F36F56"/>
</linearGradient>
<linearGradient id="paint17_linear_1484_1962" x1="921.02" y1="1419.52" x2="966.886" y2="1095.93" gradientUnits="userSpaceOnUse">
<stop stop-color="#FFC444"/>
<stop offset="0.9964" stop-color="#F36F56"/>
</linearGradient>
<linearGradient id="paint18_linear_1484_1962" x1="886.918" y1="1136.79" x2="945.641" y2="1471" gradientUnits="userSpaceOnUse">
<stop stop-color="#FFC444"/>
<stop offset="0.9964" stop-color="#F36F56"/>
</linearGradient>
<linearGradient id="paint19_linear_1484_1962" x1="870.713" y1="1487.27" x2="755.52" y2="1559.55" gradientUnits="userSpaceOnUse">
<stop stop-color="#11485A"/>
<stop offset="0.9964" stop-color="#097B95"/>
</linearGradient>
<linearGradient id="paint20_linear_1484_1962" x1="539.41" y1="1558.02" x2="999.567" y2="1704.17" gradientUnits="userSpaceOnUse">
<stop stop-color="#62F0FE"/>
<stop offset="1" stop-color="#097B95"/>
</linearGradient>
<linearGradient id="paint21_linear_1484_1962" x1="755.211" y1="1634.96" x2="860.205" y2="1766.7" gradientUnits="userSpaceOnUse">
<stop stop-color="#FFC444"/>
<stop offset="0.9964" stop-color="#F36F56"/>
</linearGradient>
<linearGradient id="paint22_linear_1484_1962" x1="630.115" y1="1510.99" x2="497.523" y2="1614.91" gradientUnits="userSpaceOnUse">
<stop stop-color="#FFC444"/>
<stop offset="0.9964" stop-color="#F36F56"/>
</linearGradient>
<clipPath id="clip0_1484_1962">
<rect width="3710" height="3710" fill="white"/>
</clipPath>
</defs>
</svg>
