<?xml version="1.0" encoding="utf-8"?>
<!-- Generator: Adobe Illustrator 27.5.0, SVG Export Plug-In . SVG Version: 6.00 Build 0)  -->
<svg version="1.1" xmlns="http://www.w3.org/2000/svg" xmlns:xlink="http://www.w3.org/1999/xlink" x="0px" y="0px"
	 viewBox="0 0 3710 3710" style="enable-background:new 0 0 3710 3710;" xml:space="preserve">
<g id="Background">
	<g>
		<g>
			<rect style="fill:#FFFFFF;" width="3710" height="3710"/>
		</g>
	</g>
</g>
<g id="Illustration">
	<g>
		<path style="fill:#F4F7FA;" d="M3234.929,1790.591c47.166,240.67,142.762,728.444-86.004,1054.753
			c-408.791,583.094-1809.751,558.063-2423.614-196.177c-42.872-52.676-402.423-509.039-292.905-1089.424
			C573.53,811.851,1415.673,270.751,2084.036,417.384c422.819,92.763,693.484,442.578,803.318,584.706
			C2934.091,1062.569,3148.129,1347.695,3234.929,1790.591z"/>
		<g>
			<g>
				<g>
					
						<linearGradient id="SVGID_1_" gradientUnits="userSpaceOnUse" x1="4362.6187" y1="599.4167" x2="4903.0894" y2="1489.1704" gradientTransform="matrix(0.9715 0.2369 -0.2369 0.9715 -3231.9116 -714.3309)">
						<stop  offset="0" style="stop-color:#FF9085"/>
						<stop  offset="1" style="stop-color:#FB6FBB"/>
					</linearGradient>
					<path style="fill:url(#SVGID_1_);" d="M1005.76,1767.868c0.802,0.616,1.608,1.229,2.416,1.84
						c47.793,36.181,106.415,67.281,178.795,88.108c14.395,3.064,28.791,6.129,43.186,9.193
						c20.377-30.924,34.221-63.983-5.965-87.946c-62.409-37.214-34.105-156.345-5.009-193.677
						c36.012-46.207,117.656-155.518,22.08-214.566c-79.566-49.158-140.957-64.617-118.936-177.47
						c22.021-112.853-21.228-197.633-123.859-216.474C890.464,957.05,839.008,793.65,740.034,819.003
						c-172.457,44.177-96.92,324.162,69.61,441.754c166.531,117.592,43.961,157.374,16.008,247.224
						c-38.16,122.663,136.689,138.496,168.781,198.56C1005.304,1726.885,1007.76,1747.997,1005.76,1767.868z"/>
					<g>
						<defs>
							<path id="SVGID_00000128457057087763221230000000124632922377090987_" d="M983.574,1835.175l231.962,56.565
								c21.52-29.541,53.545-85.909,8.656-112.676c-62.409-37.214-34.105-156.345-5.009-193.677
								c36.012-46.206,117.656-155.517,22.08-214.566c-79.566-49.158-140.957-64.617-118.936-177.47
								c22.021-112.853-21.228-197.633-123.859-216.474C890.464,957.05,839.008,793.65,740.034,819.003
								c-172.456,44.177-96.92,324.161,69.611,441.753c166.531,117.592,43.96,157.374,16.008,247.224
								c-38.16,122.664,136.689,138.496,168.781,198.56C1019.592,1753.626,999.801,1804.854,983.574,1835.175z"/>
						</defs>
						<clipPath id="SVGID_00000008869004070352053920000010486502623251818892_">
							<use xlink:href="#SVGID_00000128457057087763221230000000124632922377090987_"  style="overflow:visible;"/>
						</clipPath>
						<g style="opacity:0.5;clip-path:url(#SVGID_00000008869004070352053920000010486502623251818892_);">
							<path style="fill:#FCFDFE;" d="M1101.692,1825.322l5.169,0.233c16.943-377.872-149.589-762.116-434.608-1002.782
								l-3.337,3.953C952.734,1066.379,1118.564,1449.019,1101.692,1825.322z"/>
							<path style="fill:#FCFDFE;" d="M1093.281,1618.513l5.021,1.249c35.852-144.263,187.301-226.022,188.828-226.831l-2.424-4.571
								C1283.16,1389.178,1129.7,1471.976,1093.281,1618.513z"/>
							<path style="fill:#FCFDFE;" d="M1102.913,1755.724l5.011-1.286c-37.457-145.978-298.675-230.24-301.309-231.074l-1.562,4.933
								C807.659,1529.122,1066.169,1612.521,1102.913,1755.724z"/>
							<path style="fill:#FCFDFE;" d="M992.618,1261.696l5.105-0.851c-19.72-117.918,90.459-264.443,91.574-265.909l-4.116-3.134
								C1084.051,993.286,972.532,1141.6,992.618,1261.696z"/>
							<path style="fill:#FCFDFE;" d="M874.56,1052.483l3.694-3.624c-95.428-97.218-279.383-102.329-281.233-102.367l-0.113,5.173
								C598.734,951.701,780.619,956.779,874.56,1052.483z"/>
						</g>
					</g>
				</g>
				<g>
					<defs>
						<path id="SVGID_00000070103499541418813430000007129993137637369504_" d="M1315.755,2014.37l-256.557-0.871
							c0,0-47.848-131.772,15.34-224.438c128.922-189.067-45.667-288.785-112.543-341.491
							c-100.856-79.484-155.068-193.514-6.213-242.571c148.855-49.057,0.221-279.997-181.161-384.889
							c-177.494-102.644-97.453-477.389,307.11-290.503c241.604,111.608,202.832,368.037,214.038,502.186
							c11.206,134.149,210.625,145.922,141.806,309.52c-58.784,139.742-169.917,241.406-85.696,337.902
							C1436.099,1775.711,1444.479,1883.612,1315.755,2014.37z"/>
					</defs>
					<clipPath id="SVGID_00000016075011823140966550000012458342953891035011_">
						<use xlink:href="#SVGID_00000070103499541418813430000007129993137637369504_"  style="overflow:visible;"/>
					</clipPath>
					
						<linearGradient id="SVGID_00000060020327433969292020000003050019223565506226_" gradientUnits="userSpaceOnUse" x1="3201.7498" y1="548.1341" x2="2691" y2="1999.7399" gradientTransform="matrix(-1 -0.0034 -0.0034 1 4070.4146 -17.6354)">
						<stop  offset="0" style="stop-color:#FFC444"/>
						<stop  offset="0.9964" style="stop-color:#F36F56"/>
					</linearGradient>
					
						<path style="clip-path:url(#SVGID_00000016075011823140966550000012458342953891035011_);fill:url(#SVGID_00000060020327433969292020000003050019223565506226_);" d="
						M1315.755,2014.37l-256.557-0.871c0,0-47.848-131.772,15.34-224.438c128.922-189.067-45.667-288.785-112.543-341.491
						c-100.856-79.484-145.07-181.89-23.237-247.808c137.847-74.583,17.245-274.76-164.136-379.652
						c-177.494-102.644-97.453-477.389,307.11-290.503c241.604,111.608,202.832,368.037,214.038,502.186
						c11.206,134.149,210.625,145.922,141.806,309.52c-58.784,139.742-169.917,241.406-85.696,337.902
						C1436.099,1775.711,1444.479,1883.612,1315.755,2014.37z"/>
					<g style="opacity:0.5;clip-path:url(#SVGID_00000016075011823140966550000012458342953891035011_);">
						<path style="fill:#BEB8F2;" d="M1204.635,2037.805l-5.324-0.995c0.616-3.298,61.103-333.671,22.312-679.263
							c-35.734-318.383-165.498-715.208-580.747-797.625l1.054-5.313c184.85,36.687,329.466,137.644,429.835,300.065
							c80.177,129.746,132.412,298.77,155.255,502.378C1265.876,1703.434,1205.251,2034.5,1204.635,2037.805z"/>
						<path style="fill:#BEB8F2;" d="M1110.774,924.357l-5.374-0.69c22.879-178.811-44.41-433.149-45.091-435.697l5.231-1.403
							C1066.225,489.127,1133.786,744.497,1110.774,924.357z"/>
						<path style="fill:#BEB8F2;" d="M1040.932,817.969c-181.939-114.215-352.47-60.287-354.17-59.729l-1.689-5.144
							c1.726-0.569,174.569-55.328,358.739,60.286L1040.932,817.969z"/>
						<path style="fill:#BEB8F2;" d="M1234.674,1584.865c-59.691-255.562-406.783-319.369-410.217-319.708l0.178-5.408
							c3.401,0.013,355.092,66.052,415.312,323.884L1234.674,1584.865z"/>
						<path style="fill:#BEB8F2;" d="M1236.713,1476.667l-5.301-1.123c34.658-163.842,212.891-276.054,214.689-277.168l2.855,4.602
							C1447.178,1204.082,1270.883,1315.111,1236.713,1476.667z"/>
						<path style="fill:#BEB8F2;" d="M1207.685,1984.614c-7.473-99.417-149.107-178.598-150.536-179.387l2.614-4.741
							c5.942,3.272,145.631,81.373,153.322,183.724L1207.685,1984.614z"/>
						<path style="fill:#BEB8F2;" d="M1223.06,1906.571l-5.336-0.93c13.531-77.658,131.278-163.821,169.971-192.134
							c5.468-4.002,10.188-7.456,10.908-8.237l4.034,3.613c-1,1.116-4.131,3.422-11.744,8.994
							C1352.637,1745.872,1236.216,1831.064,1223.06,1906.571z"/>
					</g>
				</g>
				<g>
					
						<linearGradient id="SVGID_00000134250029622559151710000006613227177833193350_" gradientUnits="userSpaceOnUse" x1="-1225.9697" y1="457.6726" x2="-589.588" y2="2129.8203" gradientTransform="matrix(-0.9979 -0.0653 -0.0653 0.9979 1659.3927 96.1151)">
						<stop  offset="0" style="stop-color:#AA80F9"/>
						<stop  offset="0.9964" style="stop-color:#6165D7"/>
					</linearGradient>
					<path style="fill:url(#SVGID_00000134250029622559151710000006613227177833193350_);" d="M2481.126,1868.323
						c28.238,60.983,1.327,121.983-24.5,163.037c-6.159,0.037-9.737,1.747-15.961,3.261c-56.169,13.664-82.513,6.712-139.615,10.844
						c-12.29,0.89-48.802-8.269-63.471-13.047l-27.201-9.381c0,0-48.274-148.333,27.582-189.306
						c75.855-40.972,46.811-188.597,40.451-269.108c-17.254-218.449,218.812-198.593,219.077-481.08
						c0.07-75.133-24.918-218.44,38.427-278.282c72.167-68.178,124.852-1.298,171.254-58.31
						c72.525-89.108,190.216-121.074,260.369-29.369c69.238,90.508-14.892,270.677-224.035,415.483
						c-138.273,120.881-140.434,157.07-129.551,245.199c7.623,61.729,66.505,222.534-17.281,286.746
						C2512.883,1729.223,2448.845,1798.609,2481.126,1868.323z"/>
					<g>
						<defs>
							<path id="SVGID_00000173839673862339164390000001939641620184878220_" d="M2420.169,2081.285l-205.21-52.856
								c0,0-52.854-153.725,23.001-194.697c75.855-40.972,46.811-188.597,40.452-269.108
								c-17.255-218.449,218.812-198.593,219.076-481.08c0.071-75.133-24.918-218.439,38.427-278.282
								c72.167-68.177,124.852-1.298,171.254-58.31c72.525-89.108,190.216-121.073,260.369-29.369
								c69.238,90.508-14.892,270.677-224.035,415.483c-138.273,120.882-140.434,157.07-129.551,245.199
								c7.623,61.729,66.505,222.534-17.282,286.746c-83.787,64.212-147.825,133.598-115.544,203.313
								C2530.245,1974.403,2420.169,2081.285,2420.169,2081.285z"/>
						</defs>
						<clipPath id="SVGID_00000155128207209748795090000002201560348867625135_">
							<use xlink:href="#SVGID_00000173839673862339164390000001939641620184878220_"  style="overflow:visible;"/>
						</clipPath>
						<g style="opacity:0.5;clip-path:url(#SVGID_00000155128207209748795090000002201560348867625135_);">
							<path style="fill:#FCFDFE;" d="M2330.782,2047.764l-4.168-0.52c3.096-24.839,6.526-49.851,10.193-74.342
								c27.165-181.328,70.272-353.558,128.13-511.909c49.025-134.175,109.3-260.285,179.15-374.826
								c56.173-92.114,118.817-177.281,186.191-253.135c47.364-53.323,96.557-101.53,146.217-143.275
								c8.653-7.277,17.909-14.234,26.861-20.963c11.927-8.964,24.26-18.234,35.259-28.332l2.84,3.096
								c-11.15,10.237-23.565,19.57-35.573,28.596c-8.908,6.695-18.118,13.618-26.683,20.82
								c-49.504,41.615-98.551,89.676-145.78,142.849c-67.208,75.665-129.701,160.631-185.745,252.532
								c-69.706,114.306-129.861,240.165-178.791,374.081c-57.76,158.083-100.798,330.039-127.92,511.087
								C2337.299,1997.98,2333.874,2022.957,2330.782,2047.764z"/>
							<path style="fill:#FCFDFE;" d="M2568.463,1231.205l-3.804-1.783c76.593-163.243,9.337-464.836,8.648-467.863l4.097-0.933
								C2578.095,763.668,2645.668,1066.655,2568.463,1231.205z"/>
							<path style="fill:#FCFDFE;" d="M2394.237,1706.644l-3.985-1.329c39.072-117.03,258.164-207.367,260.373-208.266l1.584,3.893
								C2650.018,1501.833,2432.697,1591.442,2394.237,1706.644z"/>
							<path style="fill:#FCFDFE;" d="M2377.808,1774.963l-4.157-0.606c11.593-79.701-15.182-194.585-75.391-323.487
								c-3.027-6.482-3.027-6.482-2.924-7.273l4.165,0.554l-2.083-0.277l2.027-0.521c0.152,0.455,1.295,2.902,2.621,5.738
								C2362.619,1578.729,2389.519,1694.457,2377.808,1774.963z"/>
							<path style="fill:#FCFDFE;" d="M2337.074,2002.514l-3.809-1.769c37.355-80.459,165.039-112.213,166.323-112.525l0.991,4.083
								C2499.312,1892.611,2373.575,1923.897,2337.074,2002.514z"/>
							<path style="fill:#FCFDFE;" d="M2324.431,2048.091c-15.832-69.759-52.21-137.253-111.214-206.34l3.196-2.73
								c59.456,69.618,96.129,137.702,112.115,208.14L2324.431,2048.091z"/>
							<path style="fill:#FCFDFE;" d="M2794.472,881.148l-3.697-1.994c47.643-88.388,77.206-192.289,86.92-226.431
								c2.352-8.265,3.189-11.171,3.656-12.133l3.777,1.838c-0.347,0.739-1.691,5.464-3.393,11.446
								C2871.991,688.125,2842.333,792.357,2794.472,881.148z"/>
							<path style="fill:#FCFDFE;" d="M2695.752,1013.401l-2.946-2.995c67.104-66.053,255.403-63.94,263.386-63.818l-0.066,4.201
								C2954.19,950.761,2761.603,948.582,2695.752,1013.401z"/>
						</g>
					</g>
				</g>
				<g>
					<defs>
						<path id="SVGID_00000162319132055810888050000015172779049324279200_" d="M2147.922,2396.631l244.815,76.735
							c0,0,85.448-111.14,53.233-218.573c-65.729-219.197,130.838-261.465,210.52-291.485
							c120.167-45.273,206.316-137.576,79.259-229.341c-127.058-91.765,84.442-266.961,289.047-312.107
							c200.22-44.178,237.222-425.586-204.91-369.757c-264.04,33.341-304.609,289.491-355.848,413.975
							s-244.885,75.415-228.748,252.163c13.784,150.975,88.98,281.48-20.473,347.998
							C2105.364,2132.756,2064.754,2233.074,2147.922,2396.631z"/>
					</defs>
					<clipPath id="SVGID_00000136374434318801462970000016534856228286550409_">
						<use xlink:href="#SVGID_00000162319132055810888050000015172779049324279200_"  style="overflow:visible;"/>
					</clipPath>
					
						<linearGradient id="SVGID_00000034090791675428302290000014645670143914977695_" gradientUnits="userSpaceOnUse" x1="5922.8765" y1="417.7218" x2="5412.1133" y2="1869.3658" gradientTransform="matrix(0.9542 0.2991 -0.2991 0.9542 -2498.8721 -1062.5543)">
						<stop  offset="0.0036" style="stop-color:#E38DDD"/>
						<stop  offset="1" style="stop-color:#9571F6"/>
					</linearGradient>
					
						<path style="clip-path:url(#SVGID_00000136374434318801462970000016534856228286550409_);fill:url(#SVGID_00000034090791675428302290000014645670143914977695_);" d="
						M2147.922,2396.631l244.815,76.735c0,0,85.448-111.14,53.233-218.573c-65.729-219.197,130.838-261.465,210.52-291.485
						c120.167-45.273,193.272-129.519,97.07-229.186c-108.848-112.768,66.63-267.116,271.236-312.262
						c200.22-44.178,237.222-425.586-204.91-369.757c-264.04,33.341-304.609,289.491-355.848,413.975
						s-244.885,75.415-228.748,252.163c13.784,150.975,88.98,281.48-20.473,347.998
						C2105.364,2132.756,2064.754,2233.074,2147.922,2396.631z"/>
					<g style="opacity:0.5;clip-path:url(#SVGID_00000136374434318801462970000016534856228286550409_);">
						<path style="fill:#BEB8F2;" d="M2246.757,2452.563l5.376,0.662c0.409-3.33,42.635-336.53,184.094-654.221
							c130.319-292.68,373.983-631.703,794.717-584.721l0.602-5.383c-187.291-20.916-355.662,31.595-500.438,156.07
							c-115.651,99.434-216.543,244.756-299.874,431.93C2289.472,2115.325,2247.169,2449.227,2246.757,2452.563z"/>
						<path style="fill:#BEB8F2;" d="M2672.856,1419.599l5.331,0.967c32.252-177.36,173.286-399.453,174.706-401.675l-4.562-2.919
							C2846.904,1018.205,2705.297,1241.199,2672.856,1419.599z"/>
						<path style="fill:#BEB8F2;" d="M2771.593,1339.305c207.956-53.864,354.203,49.097,355.654,50.143l3.166-4.393
							c-1.473-1.064-149.672-105.516-360.177-50.994L2771.593,1339.305z"/>
						<path style="fill:#BEB8F2;" d="M2355.062,2011.738c134.162-225.556,484.302-181.44,487.677-180.725l1.466-5.209
							c-3.246-1.016-358.445-44.395-493.797,183.166L2355.062,2011.738z"/>
						<path style="fill:#BEB8F2;" d="M2385.829,1907.987l5.392,0.533c16.499-166.653-119.469-327.499-120.846-329.105l-4.113,3.523
							C2267.625,1584.528,2402.102,1743.661,2385.829,1907.987z"/>
						<path style="fill:#BEB8F2;" d="M2259.931,2400.939c37.18-92.505,196.125-125.16,197.725-125.481l-1.058-5.31
							c-6.653,1.323-163.417,33.536-201.692,128.772L2259.931,2400.939z"/>
						<path style="fill:#BEB8F2;" d="M2268.87,2321.9l5.368,0.726c10.581-78.115-75.607-195.844-103.929-234.53
							c-4.002-5.468-7.457-10.187-7.907-11.149l-4.938,2.225c0.615,1.366,2.903,4.51,8.475,12.123
							C2193.941,2129.546,2279.158,2245.949,2268.87,2321.9z"/>
					</g>
				</g>
				<g>
					
						<linearGradient id="SVGID_00000000180813244507463340000008180094491686425021_" gradientUnits="userSpaceOnUse" x1="1800.6599" y1="1483.0978" x2="2341.134" y2="2372.8572" gradientTransform="matrix(-0.9997 0.0227 0.0227 0.9997 4470.2871 119.3449)">
						<stop  offset="0" style="stop-color:#FFC444"/>
						<stop  offset="0.9964" style="stop-color:#F36F56"/>
					</linearGradient>
					<path style="fill:url(#SVGID_00000000180813244507463340000008180094491686425021_);" d="M2379.648,2458.639
						c-0.916,0.429-1.834,0.855-2.754,1.278c-54.449,25.07-118.383,42.852-193.548,47.644c-14.718-0.099-29.435-0.198-44.153-0.298
						c-13.259-34.579-19.678-69.84,24.718-84.611c68.946-22.939,66.893-145.369,46.496-188.08
						c-25.246-52.864-81.502-177.162,24.527-214.3c88.268-30.918,151.547-32.829,154.282-147.778
						c2.735-114.949,63.186-188.459,167.469-184.814c109.741,3.836,195.097-144.696,286.314-98.675
						c158.941,80.192,25.024,337.414-162.879,416.489c-187.903,79.074-76.74,144.257-68.741,238.014
						c10.92,127.997-163.248,105.901-207.494,157.669C2388.897,2418.71,2381.963,2438.803,2379.648,2458.639z"/>
					<g>
						<defs>
							<path id="SVGID_00000131326563362170278610000009115786291654123425_" d="M2386.858,2529.14l-238.697,5.417
								c-14.672-33.474-33.841-95.406,15.75-111.905c68.946-22.939,66.893-145.369,46.496-188.08
								c-25.246-52.863-81.502-177.161,24.527-214.3c88.268-30.918,151.547-32.829,154.282-147.778
								c2.735-114.949,63.186-188.459,167.469-184.814c109.741,3.836,195.097-144.696,286.314-98.674
								c158.941,80.191,25.024,337.413-162.879,416.488c-187.903,79.074-76.74,144.257-68.741,238.013
								c10.92,127.998-163.248,105.9-207.493,157.668C2369.198,2441.758,2377.522,2496.042,2386.858,2529.14z"/>
						</defs>
						<clipPath id="SVGID_00000017499606187905043540000016187471218817770628_">
							<use xlink:href="#SVGID_00000131326563362170278610000009115786291654123425_"  style="overflow:visible;"/>
						</clipPath>
						<g style="opacity:0.5;clip-path:url(#SVGID_00000017499606187905043540000016187471218817770628_);">
							<path style="fill:#FCFDFE;" d="M2273.614,2494.144l-5.098-0.883c64.624-372.69,309.807-712.191,639.871-886.014l2.41,4.578
								C2582.124,1784.916,2337.969,2123.002,2273.614,2494.144z"/>
							<path style="fill:#FCFDFE;" d="M2326.253,2293.97l-5.172,0.141c-4.026-148.597-134.377-260.98-135.694-262.098l3.349-3.944
								C2190.07,2029.201,2322.162,2143.031,2326.253,2293.97z"/>
							<path style="fill:#FCFDFE;" d="M2287.371,2425.909l-4.618-2.332c67.94-134.524,341.161-160.707,343.913-160.955l0.466,5.153
								C2624.409,2268.021,2354.019,2293.942,2287.371,2425.909z"/>
							<path style="fill:#FCFDFE;" d="M2501.214,1967.107l-4.802-1.928c44.59-110.929-31.542-277.701-32.315-279.373l4.693-2.176
								C2469.574,1685.322,2546.629,1854.129,2501.214,1967.107z"/>
							<path style="fill:#FCFDFE;" d="M2661.458,1788.138l-2.829-4.333c114.084-74.45,294.842-39.926,296.657-39.566l-1.001,5.077
								C2952.494,1748.958,2773.764,1714.847,2661.458,1788.138z"/>
						</g>
					</g>
				</g>
			</g>
			<g>
				<g>
					<g>
						
							<linearGradient id="SVGID_00000180356510465294605690000003780948302121263033_" gradientUnits="userSpaceOnUse" x1="2780.2456" y1="2617.8232" x2="1577.6237" y2="1591.9315">
							<stop  offset="0" style="stop-color:#444B8C"/>
							<stop  offset="0.9964" style="stop-color:#26264F"/>
						</linearGradient>
						<path style="fill:url(#SVGID_00000180356510465294605690000003780948302121263033_);" d="M2486.955,481.074v2513.175
							c0,37.583-32.108,45.671-68.516,46.862l-1247.903,64.537l-18.905,0.618c-38.793,1.269-70.586-29.508-70.586-68.396V437.452
							c0-38.887,31.793-69.664,70.586-68.395l25.656,0.839l1252.471,97.413C2466.166,468.5,2486.955,443.491,2486.955,481.074z"/>
						
							<linearGradient id="SVGID_00000033339271453206279380000010736766605929429950_" gradientUnits="userSpaceOnUse" x1="-1242.0767" y1="3165.0173" x2="3189.5903" y2="3329.8713" gradientTransform="matrix(0 -1 1 0 -1389.0323 1734.3226)">
							<stop  offset="0" style="stop-color:#444B8C"/>
							<stop  offset="0.9964" style="stop-color:#26264F"/>
						</linearGradient>
						<path style="fill:url(#SVGID_00000033339271453206279380000010736766605929429950_);" d="M2525.831,481.074v2513.175
							c0,37.583-29.74,69.305-66.148,70.497l-1269.176,41.52c-38.793,1.269-70.585-29.508-70.585-68.396V437.452
							c0-38.887,31.793-69.664,70.585-68.395l1269.176,41.52C2496.091,411.768,2525.831,443.491,2525.831,481.074z"/>
						
							<linearGradient id="SVGID_00000044167047809612285910000016543809774134524070_" gradientUnits="userSpaceOnUse" x1="1163.8098" y1="1784.7289" x2="2484.7534" y2="1784.7289">
							<stop  offset="0" style="stop-color:#FF9085"/>
							<stop  offset="1" style="stop-color:#FB6FBB"/>
						</linearGradient>
						<path style="fill:url(#SVGID_00000044167047809612285910000016543809774134524070_);" d="M2484.753,619.234v2328.158
							c0,35.088-27.793,64.67-61.813,65.739l-1193.427,37.49c-36.111,1.134-65.703-27.58-65.703-63.812V582.792
							c0-36.232,29.592-65.013,65.703-63.96l1193.427,34.802C2456.961,554.626,2484.753,584.146,2484.753,619.234z"/>
					</g>
					<path style="fill:#DE8BDF;" d="M1858.438,468.037c0,13.243-10.549,23.659-23.569,23.265
						c-13.028-0.394-23.596-11.462-23.596-24.719c0-13.258,10.567-23.673,23.596-23.264
						C1847.889,443.727,1858.438,454.794,1858.438,468.037z"/>
				</g>
				<g>
					<path style="fill:#F4F7FA;" d="M2299.553,2033.083l-953.134,12.781c-12.052,0.162-21.829-9.486-21.829-21.549v-208.706
						c0-12.063,9.776-21.907,21.829-21.989l953.134-6.446c11.448-0.078,20.722,9.382,20.722,21.128v203.233
						C2320.275,2023.283,2311,2032.929,2299.553,2033.083z"/>
					<path style="fill:#F4F7FA;" d="M2297.387,2417.519l-948.691,22.578c-13.31,0.317-24.107-10.226-24.107-23.549v-204.144
						c0-13.323,10.797-24.308,24.107-24.536l948.691-16.272c12.644-0.217,22.888,10.124,22.888,23.097v198.791
						C2320.275,2406.458,2310.031,2417.218,2297.387,2417.519z"/>
					<path style="fill:#FFFFFF;" d="M2203.312,1163.553c0,209.484-166.636,379.331-374.266,379.364
						c-209.957,0.033-381.895-173.221-381.895-386.976s171.938-383.548,381.895-379.287
						C2036.676,780.868,2203.312,954.069,2203.312,1163.553z"/>
					
						<linearGradient id="SVGID_00000138571159428088927210000011293387256999894713_" gradientUnits="userSpaceOnUse" x1="1578.8657" y1="533.5717" x2="2736.5159" y2="2900.7063">
						<stop  offset="0" style="stop-color:#AA80F9"/>
						<stop  offset="0.9964" style="stop-color:#6165D7"/>
					</linearGradient>
					<path style="fill:url(#SVGID_00000138571159428088927210000011293387256999894713_);" d="M1983.361,1046.247
						c0,86.316-68.918,155.642-154.213,154.842c-85.606-0.803-155.234-71.893-155.234-158.78s69.627-156.205,155.234-154.829
						C1914.443,888.851,1983.361,959.931,1983.361,1046.247z"/>
					
						<linearGradient id="SVGID_00000129191636657100923570000004816948293322610603_" gradientUnits="userSpaceOnUse" x1="1420.054" y1="611.239" x2="2577.7046" y2="2978.3748">
						<stop  offset="0" style="stop-color:#AA80F9"/>
						<stop  offset="0.9964" style="stop-color:#6165D7"/>
					</linearGradient>
					<path style="fill:url(#SVGID_00000129191636657100923570000004816948293322610603_);" d="M1829.046,1542.917
						c91.781-0.015,175.501-33.196,240.326-88.164c-22.06-114.114-120.948-200.899-240.326-201.803
						c-120.143-0.911-220.838,85.375-243.448,200.735C1651.888,1509.464,1736.813,1542.932,1829.046,1542.917z"/>
					
						<linearGradient id="SVGID_00000075138532273081901190000002918433266115284368_" gradientUnits="userSpaceOnUse" x1="1131.1223" y1="752.5424" x2="2288.7732" y2="3119.6785">
						<stop  offset="0" style="stop-color:#AA80F9"/>
						<stop  offset="0.9964" style="stop-color:#6165D7"/>
					</linearGradient>
					<path style="fill:url(#SVGID_00000075138532273081901190000002918433266115284368_);" d="M1960.243,1944.306l-520.193,5.675
						c-17.697,0.193-32.188-14.178-32.188-31.935l0,0c0-17.758,14.491-32.42,32.188-32.583l520.193-4.789
						c17.198-0.158,31.257,14.017,31.257,31.501l0,0C1991.5,1929.66,1977.441,1944.119,1960.243,1944.306z"/>
					<g>
						
							<linearGradient id="SVGID_00000124120009436202747720000008178623982560915084_" gradientUnits="userSpaceOnUse" x1="768.9297" y1="929.6696" x2="1926.5815" y2="3296.8081">
							<stop  offset="0" style="stop-color:#AA80F9"/>
							<stop  offset="0.9964" style="stop-color:#6165D7"/>
						</linearGradient>
						<path style="fill:url(#SVGID_00000124120009436202747720000008178623982560915084_);" d="M1485.691,2310.618
							c0,22.688-18.323,41.476-40.951,41.963c-22.654,0.488-41.04-17.548-41.04-40.285c0-22.738,18.385-41.526,41.04-41.965
							C1467.367,2269.893,1485.691,2287.93,1485.691,2310.618z"/>
						
							<linearGradient id="SVGID_00000144317610071339720290000016341695855721180837_" gradientUnits="userSpaceOnUse" x1="894.2137" y1="868.4032" x2="2051.8645" y2="3235.5393">
							<stop  offset="0" style="stop-color:#AA80F9"/>
							<stop  offset="0.9964" style="stop-color:#6165D7"/>
						</linearGradient>
						<path style="fill:url(#SVGID_00000144317610071339720290000016341695855721180837_);" d="M1639.067,2307.48
							c0,22.596-18.175,41.306-40.619,41.79c-22.471,0.484-40.707-17.48-40.707-40.125s18.236-41.356,40.707-41.791
							C1620.892,2266.918,1639.067,2284.884,1639.067,2307.48z"/>
						
							<linearGradient id="SVGID_00000150796178426173528150000015783178528108652184_" gradientUnits="userSpaceOnUse" x1="1018.4821" y1="807.6277" x2="2176.1321" y2="3174.7625">
							<stop  offset="0" style="stop-color:#AA80F9"/>
							<stop  offset="0.9964" style="stop-color:#6165D7"/>
						</linearGradient>
						<path style="fill:url(#SVGID_00000150796178426173528150000015783178528108652184_);" d="M1791.204,2304.367
							c0,22.505-18.028,41.137-40.291,41.617c-22.289,0.48-40.378-17.413-40.378-39.967c0-22.553,18.089-41.187,40.378-41.619
							C1773.175,2263.968,1791.204,2281.863,1791.204,2304.367z"/>
						
							<linearGradient id="SVGID_00000145779053440511598400000001165588770216251038_" gradientUnits="userSpaceOnUse" x1="1141.7528" y1="747.3486" x2="2299.4043" y2="3114.4861">
							<stop  offset="0" style="stop-color:#AA80F9"/>
							<stop  offset="0.9964" style="stop-color:#6165D7"/>
						</linearGradient>
						<path style="fill:url(#SVGID_00000145779053440511598400000001165588770216251038_);" d="M1942.116,2301.28
							c0,22.414-17.884,40.97-39.968,41.446c-22.11,0.477-40.053-17.346-40.053-39.809s17.943-41.019,40.053-41.448
							C1924.233,2261.041,1942.116,2278.865,1942.116,2301.28z"/>
						
							<linearGradient id="SVGID_00000056394077124502774720000013012592541569518759_" gradientUnits="userSpaceOnUse" x1="1264.0295" y1="687.5434" x2="2421.6814" y2="3054.6819">
							<stop  offset="0" style="stop-color:#AA80F9"/>
							<stop  offset="0.9964" style="stop-color:#6165D7"/>
						</linearGradient>
						<path style="fill:url(#SVGID_00000056394077124502774720000013012592541569518759_);" d="M2091.819,2298.217
							c0,22.325-17.74,40.804-39.648,41.277c-21.933,0.472-39.732-17.28-39.732-39.653c0-22.372,17.799-40.853,39.732-41.278
							C2074.079,2258.138,2091.819,2275.892,2091.819,2298.217z"/>
					</g>
					<path style="fill:#FFFFFF;" d="M1828.985,1552.217c-104.136,0-202.232-41.221-276.235-116.079
						c-74.093-74.95-114.899-174.458-114.899-280.196c0-106.631,41.399-205.925,116.571-279.586
						c73.87-72.386,171.436-111.121,274.811-108.999c102.79,2.087,199.208,44.458,271.494,119.31
						c72.148,74.709,111.882,173.043,111.882,276.887c0,103.878-39.755,201.453-111.945,274.751
						c-72.33,73.439-168.792,113.896-271.618,113.912C1829.027,1552.217,1829.004,1552.217,1828.985,1552.217z M1821.272,785.876
						c-95.494,0-185.367,36.675-253.831,103.765c-71.574,70.134-110.99,164.709-110.99,266.302
						c0,100.81,38.898,195.676,109.528,267.121c70.477,71.291,163.888,110.552,263.007,110.556c0.024,0,0.035,0,0.058,0
						c201.244-0.033,364.969-166.044,364.969-370.065c0-204.125-163.808-373.516-365.156-377.602
						C1826.33,785.901,1823.791,785.876,1821.272,785.876z"/>
				</g>
				
					<linearGradient id="SVGID_00000023256371072523752970000006912353069606419372_" gradientUnits="userSpaceOnUse" x1="1766.845" y1="1736.1622" x2="2525.8301" y2="1736.1622">
					<stop  offset="0" style="stop-color:#FF9085"/>
					<stop  offset="1" style="stop-color:#FB6FBB"/>
				</linearGradient>
				<path style="opacity:0.3;fill:url(#SVGID_00000023256371072523752970000006912353069606419372_);" d="M2525.83,479.638
					c0-37.295-29.587-67.866-66.862-69.085l-692.123-22.642c256.726,272.06,314.45,500.315,321.041,656.298
					c18.807,445.238-364.757,639.221-293.438,1126.139c19.552,133.485,62.791,217.317,79.68,447.907
					c14.398,196.587-0.652,359.304-15.646,466.157l601.203-19.669c36.407-1.19,66.146-32.913,66.146-70.496V479.638z"/>
			</g>
			
				<linearGradient id="SVGID_00000005260912293313332790000008313438067472803513_" gradientUnits="userSpaceOnUse" x1="1111.0918" y1="2062.76" x2="1757.1252" y2="2086.7917">
				<stop  offset="0" style="stop-color:#FF9085"/>
				<stop  offset="1" style="stop-color:#FB6FBB"/>
			</linearGradient>
			<path style="opacity:0.3;fill:url(#SVGID_00000005260912293313332790000008313438067472803513_);" d="M1501.063,1733.956
				c7.297-214.465-66.191-304.122-85.667-326.085c-13.755-15.513-26.494-26.502-121.593-105.011
				c-70.653-58.329-129.537-106.681-171.333-140.935c-0.85,600.807-1.699,1201.615-2.55,1802.422
				c28.474-230.611,83.197-404.527,124.833-515.582C1361.304,2137.893,1491.7,2009.142,1501.063,1733.956z"/>
		</g>
		<g>
			
				<linearGradient id="SVGID_00000029752164690185006270000015760637404031520653_" gradientUnits="userSpaceOnUse" x1="2423.7388" y1="2450.1526" x2="2502.0203" y2="2351.0298" gradientTransform="matrix(0.9993 -0.0374 0.0374 0.9993 5.4506 79.4603)">
				<stop  offset="0" style="stop-color:#AA80F9"/>
				<stop  offset="0.9964" style="stop-color:#6165D7"/>
			</linearGradient>
			<path style="fill:url(#SVGID_00000029752164690185006270000015760637404031520653_);" d="M2722.94,2587.898
				c41.628-25.15,24.182-158.395-37.005-250.192c-86.879-130.344-268.737-187.315-304.045-146.206
				c-36.134,42.071,77.969,190.657,96.503,214.792C2545.629,2493.849,2673.7,2617.648,2722.94,2587.898z"/>
			
				<linearGradient id="SVGID_00000059995932622458989660000002664106916425564075_" gradientUnits="userSpaceOnUse" x1="153.9591" y1="3762.2485" x2="282.7272" y2="3762.2485" gradientTransform="matrix(-0.9369 0.3496 0.3496 0.9369 2143.646 -451.6694)">
				<stop  offset="0" style="stop-color:#444B8C"/>
				<stop  offset="0.9964" style="stop-color:#26264F"/>
			</linearGradient>
			<path style="fill:url(#SVGID_00000059995932622458989660000002664106916425564075_);" d="M3195.622,3139.062
				c-7.135,9.442-7.504,25.692,0.082,33.006c7.456,7.19,17.106,0.44,46.024-1.268c30.977-1.827,39.693,4.749,60.171-2.912
				c8.273-3.101,22.747-10.121,21.923-16.153c-0.579-4.242-8.402-5.761-34.633-12.027c-37.235-8.891-37.135-9.567-44.926-10.154
				C3224.693,3128.076,3205.045,3126.594,3195.622,3139.062z"/>
			
				<linearGradient id="SVGID_00000129908519489168653970000005644067140007892661_" gradientUnits="userSpaceOnUse" x1="726.2906" y1="3945.5146" x2="780.5914" y2="3833.1245" gradientTransform="matrix(-0.8508 0.5255 0.5255 0.8508 1784.9674 -593.7634)">
				<stop  offset="0" style="stop-color:#FFC444"/>
				<stop  offset="0.9964" style="stop-color:#F36F56"/>
			</linearGradient>
			<path style="fill:url(#SVGID_00000129908519489168653970000005644067140007892661_);" d="M3195.035,3087.978l32.533,43.145
				c-0.141,3.011-11.765,17.179-26.529,16.383l-39.084-39.1L3195.035,3087.978z"/>
			
				<linearGradient id="SVGID_00000160888321848620523020000016541168466935881107_" gradientUnits="userSpaceOnUse" x1="411.2348" y1="3812.8623" x2="540.0098" y2="3812.8623" gradientTransform="matrix(-0.9293 0.3692 0.3692 0.9293 2120.7793 -460.7804)">
				<stop  offset="0" style="stop-color:#444B8C"/>
				<stop  offset="0.9964" style="stop-color:#26264F"/>
			</linearGradient>
			<path style="fill:url(#SVGID_00000160888321848620523020000016541168466935881107_);" d="M3027.545,3248.897
				c-6.936,9.592-6.963,25.846,0.775,32.999c7.606,7.032,17.112,0.081,45.988-2.236c30.931-2.48,39.784,3.913,60.096-4.177
				c8.207-3.274,22.529-10.597,21.578-16.612c-0.667-4.227-8.521-5.582-34.879-11.293c-37.414-8.107-37.326-8.784-45.129-9.208
				C3056.379,3237.305,3036.703,3236.235,3027.545,3248.897z"/>
			
				<linearGradient id="SVGID_00000031906791067662911320000017194782331950166168_" gradientUnits="userSpaceOnUse" x1="928.1117" y1="3951.1565" x2="982.412" y2="3838.7673" gradientTransform="matrix(-0.8508 0.5255 0.5255 0.8508 1784.9674 -593.7634)">
				<stop  offset="0" style="stop-color:#FFC444"/>
				<stop  offset="0.9964" style="stop-color:#F36F56"/>
			</linearGradient>
			<path style="fill:url(#SVGID_00000031906791067662911320000017194782331950166168_);" d="M3026.29,3198.835l32.533,43.145
				c-0.141,3.011-11.764,17.179-26.529,16.383l-39.083-39.099L3026.29,3198.835z"/>
			
				<linearGradient id="SVGID_00000088849903590910187130000017434388993640278415_" gradientUnits="userSpaceOnUse" x1="1949.761" y1="2877.0789" x2="2265.5171" y2="2477.2578" gradientTransform="matrix(0.9993 -0.0374 0.0374 0.9993 5.4506 79.4603)">
				<stop  offset="0" style="stop-color:#AA80F9"/>
				<stop  offset="0.9964" style="stop-color:#6165D7"/>
			</linearGradient>
			<path style="fill:url(#SVGID_00000088849903590910187130000017434388993640278415_);" d="M2041.262,2212.9
				c48.692-18.653,123.335-41.005,216.173-44.466c104.523-3.898,188.468-7.03,248.276,40.203
				c198.985,157.15,101.446,571.281,87.064,617.355c-17.102,54.791-49.639,92.01-49.639,92.01
				c-19.518,22.326-38.672,35.369-49.045,42.233c-149.683,99.043-242.73,160.61-340.976,135.454
				c-13.071-3.347-72.471-23.948-105.259-73.368c-5.844-8.809-9.498-20.099-10.422-35.875
				C2022.176,2725.757,2052.919,2464.005,2041.262,2212.9z"/>
			
				<linearGradient id="SVGID_00000078725756136730884630000003342757973251465398_" gradientUnits="userSpaceOnUse" x1="2043.3365" y1="2834.3452" x2="2354.1182" y2="2440.8232" gradientTransform="matrix(1 -5.000000e-04 5.000000e-04 1 26.9588 49.4893)">
				<stop  offset="0" style="stop-color:#AA80F9"/>
				<stop  offset="0.9964" style="stop-color:#6165D7"/>
			</linearGradient>
			<path style="opacity:0.3;fill:url(#SVGID_00000078725756136730884630000003342757973251465398_);" d="M2127.084,2523.622
				c-19.965-54.582,0.666-117.083-43.804-144.341c-16.296-9.988-36.545-14.215-58.6-13.719
				c2.73,191.888,6.598,383.593,11.361,583.852c1.573,66.141,9.845,69.412,73.989,127.347
				c74.322,67.127,135.479,45.483,245.273,23.456c-143.85-88.372-179.625-136.426-164.967-214.958
				c17.07-91.458,184.53-118.543,177.76-183.559C2360.92,2632.793,2170.727,2642.945,2127.084,2523.622z"/>
			
				<linearGradient id="SVGID_00000135654573262385663080000015878854551237941434_" gradientUnits="userSpaceOnUse" x1="1808.225" y1="2922.6765" x2="2127.2993" y2="2518.6541" gradientTransform="matrix(0.9993 -0.0374 0.0337 0.901 7.5814 140.2558)">
				<stop  offset="0" style="stop-color:#AA80F9"/>
				<stop  offset="0.9964" style="stop-color:#6165D7"/>
			</linearGradient>
			<path style="fill:url(#SVGID_00000135654573262385663080000015878854551237941434_);" d="M2087.162,2216.367
				c-49.413-27.601-163.042,50.917-225.126,118.612c-28.857,31.46-129.324,141-98.073,281.93
				c5.091,22.966,28.602,130.352,133.234,179.47c93.684,43.98,217.334,27.14,314.258-43.737
				c13.18-11.38,26.365-22.757,39.548-34.139c12.882-13.528,25.765-27.056,38.645-40.586
				c-21.605-14.975-58.164-36.376-108.857-49.088c-77.246-19.372-112.005,7.762-131.093-13.267
				c-23.501-25.891,28.892-70.531,42.627-184.512C2096.03,2400.292,2142.356,2247.197,2087.162,2216.367z"/>
			
				<linearGradient id="SVGID_00000034056717014044961650000013888580682772168327_" gradientUnits="userSpaceOnUse" x1="1659.7864" y1="3683.3088" x2="2092.4031" y2="3135.5151" gradientTransform="matrix(0.938 -0.3467 0.3467 0.938 -203.6298 383.4162)">
				<stop  offset="0" style="stop-color:#444B8C"/>
				<stop  offset="0.9964" style="stop-color:#26264F"/>
			</linearGradient>
			<path style="fill:url(#SVGID_00000034056717014044961650000013888580682772168327_);" d="M2176.874,3064.2
				c6.081,108.6,46.911,48.445,139.334-48.997c97.339-102.625,326.367-282.989,479.233-214.131
				c113.85,51.283,102.8,202.994,284.811,298.212c32.061,16.772,60.127,26.39,77.376,31.616
				c19.718-18.237,39.436-36.471,59.153-54.709c-10.582-56.711-57.814-272.951-255.286-409.262
				c-47.742-32.955-138.851-96.434-254.063-94.948C2395.958,2576,2171.263,2964.041,2176.874,3064.2z"/>
			
				<linearGradient id="SVGID_00000119818480867896998540000011604357133524438436_" gradientUnits="userSpaceOnUse" x1="1907.1672" y1="3188.2827" x2="1416.8633" y2="3731.3889" gradientTransform="matrix(0.938 -0.3467 0.3467 0.938 -203.6298 383.4162)">
				<stop  offset="0" style="stop-color:#444B8C"/>
				<stop  offset="0.9964" style="stop-color:#26264F"/>
			</linearGradient>
			<path style="fill:url(#SVGID_00000119818480867896998540000011604357133524438436_);" d="M2033.37,3013.824
				c1.303,63.187,42.563,121.108,89.045,149.389c103.188,62.774,257.716-4.959,344.268-74.221
				c105.317-84.273,105.279-166.839,159.096-166.433c83.622,0.632,98.201,200.588,284.811,298.213
				c32.061,16.772,60.125,26.387,77.376,31.616c19.717-18.237,39.435-36.473,59.15-54.712
				c-32.362-122.45-82.462-211.425-119.408-266.803c-46.085-69.074-90.444-135.558-176.347-183.743
				c-90.45-50.736-176.873-53.09-213.59-53.663C2306.151,2689.856,2029.972,2848.965,2033.37,3013.824z"/>
			<g>
				
					<linearGradient id="SVGID_00000165914418763501784210000001541201101187308720_" gradientUnits="userSpaceOnUse" x1="2066.7944" y1="3159.7104" x2="1996.3313" y2="2960.0647" gradientTransform="matrix(0.9814 -0.1921 0.1921 0.9814 -127.8708 206.0307)">
					<stop  offset="0" style="stop-color:#311944"/>
					<stop  offset="1" style="stop-color:#893976"/>
				</linearGradient>
				<polygon style="fill:url(#SVGID_00000165914418763501784210000001541201101187308720_);" points="2662.134,2634.257 
					2088.758,2737.655 2255.148,2781.26 2670.894,2671.243 				"/>
				
					<linearGradient id="SVGID_00000054249113742556907330000007043893108552218047_" gradientUnits="userSpaceOnUse" x1="1758.9526" y1="2870.4624" x2="1784.7903" y2="3048.9771" gradientTransform="matrix(0.9814 -0.1921 0.1921 0.9814 -127.8708 206.0307)">
					<stop  offset="0" style="stop-color:#311944"/>
					<stop  offset="1" style="stop-color:#893976"/>
				</linearGradient>
				<path style="fill:url(#SVGID_00000054249113742556907330000007043893108552218047_);" d="M2071.555,2756.797l0.001,0.005
					c2.094,10.698,10.662,18.945,21.432,20.632l196.701,35.849l-8.889-49.814l-192.042-25.814
					C2078.083,2736.729,2069.497,2746.286,2071.555,2756.797z"/>
			</g>
			
				<linearGradient id="SVGID_00000109739565715840803150000009642568438456199870_" gradientUnits="userSpaceOnUse" x1="1767.0874" y1="2906.4907" x2="1913.1256" y2="2906.4907" gradientTransform="matrix(0.9814 -0.1921 0.1921 0.9814 -127.8708 206.0307)">
				<stop  offset="0" style="stop-color:#FFC444"/>
				<stop  offset="0.9964" style="stop-color:#F36F56"/>
			</linearGradient>
			<path style="fill:url(#SVGID_00000109739565715840803150000009642568438456199870_);" d="M2163.685,2711.8
				c-3.661-0.095,8.904-45.18,26.006-43.609c17.098,1.573,105.177,31.927,116.063,49.397c10.887,17.469,10.887,17.469,10.887,17.469
				s-33.977,9.452-56.785,6.452C2237.048,2738.507,2193.465,2712.576,2163.685,2711.8z"/>
			<g>
				<g>
					
						<linearGradient id="SVGID_00000093166871827513370490000003442233196356683945_" gradientUnits="userSpaceOnUse" x1="2514.8342" y1="2767.6277" x2="2377.4355" y2="2572.5217" gradientTransform="matrix(0.9971 -0.0759 0.0759 0.9971 -52.0933 75.7368)">
						<stop  offset="0" style="stop-color:#444B8C"/>
						<stop  offset="0.9964" style="stop-color:#26264F"/>
					</linearGradient>
					<path style="fill:url(#SVGID_00000093166871827513370490000003442233196356683945_);" d="M2263.23,2405.661l-12.582,375.922
						c-0.435,12.971,19.032,30.766,31.912,29.171l597.857-82.571c9.835-1.22,17.5-9.109,18.429-18.974l47.999-365.802
						c1.253-13.273-23.33-25.015-36.593-23.633l-628.109,65.586C2271.655,2386.456,2263.583,2395.119,2263.23,2405.661z"/>
					
						<linearGradient id="SVGID_00000166634959773859396260000012856192810033925504_" gradientUnits="userSpaceOnUse" x1="2251.2881" y1="3090.5068" x2="2551.9648" y2="2479.7578" gradientTransform="matrix(0.9971 -0.0759 0.0759 0.9971 -52.0933 75.7368)">
						<stop  offset="0" style="stop-color:#311944"/>
						<stop  offset="1" style="stop-color:#893976"/>
					</linearGradient>
					<path style="fill:url(#SVGID_00000166634959773859396260000012856192810033925504_);" d="M2277.785,2415.485l-12.585,375.926
						c-0.431,12.972,10.826,23.261,23.707,21.668l606.067-75.069c9.834-1.219,17.498-9.11,18.43-18.973l34.624-366.442
						c1.254-13.277-9.956-24.379-23.219-22.993l-628.11,65.585C2286.211,2396.28,2278.137,2404.947,2277.785,2415.485z"/>
				</g>
				
					<linearGradient id="SVGID_00000121965244457144313810000016893619149131749811_" gradientUnits="userSpaceOnUse" x1="2104.3899" y1="2698.4954" x2="2764.958" y2="2698.4954" gradientTransform="matrix(0.9971 -0.0759 0.0759 0.9971 -52.0933 75.7368)">
					<stop  offset="0" style="stop-color:#311944"/>
					<stop  offset="1" style="stop-color:#893976"/>
				</linearGradient>
				<path style="opacity:0.3;fill:url(#SVGID_00000121965244457144313810000016893619149131749811_);" d="M2656.255,2668.306
					c-54.824-18.47-39.343-62.823-106.129-111.54c-88.107-64.271-170.113-27.253-203.797-79.701
					c-10.488-16.336-16.898-42.507-4.146-86.626l-45.484,4.748c-10.488,1.093-18.562,9.76-18.914,20.298l-12.585,375.926
					c-0.429,12.97,10.828,23.261,23.707,21.668l606.067-75.069c9.834-1.219,17.498-9.107,18.43-18.973l4.777-50.566
					c-19.237-8.867-42-16.528-68.13-19.79C2759.438,2637.369,2719.373,2689.57,2656.255,2668.306z"/>
			</g>
			<g>
				
					<linearGradient id="SVGID_00000076577673014500595220000015741595501057646474_" gradientUnits="userSpaceOnUse" x1="2580.6223" y1="1621.3127" x2="2595.1687" y2="1233.8467" gradientTransform="matrix(0.9313 0.3642 -0.3642 0.9313 398.2288 -120.1834)">
					<stop  offset="0" style="stop-color:#FFC444"/>
					<stop  offset="0.9964" style="stop-color:#F36F56"/>
				</linearGradient>
				<path style="fill:url(#SVGID_00000076577673014500595220000015741595501057646474_);" d="M2261.851,2025.266
					c1.775,38.738-1.4,69.632-4.701,90.83c-3.783,24.289-6.925,30.643-11.045,35.86c0,0-1.304,1.652-2.788,3.134
					c-3.782,3.774-51.312,13.035-65.317,16.305c-1.483,0.346-28.916,7.015-36.792,21.767c-0.055,0.102-0.208,0.389-0.29,0.829
					c-2.708,14.749,81.551,61.521,166.226,46.322c51.823-9.303,98.111-40.798,94.619-56.299
					c-3.516-15.598-55.242-5.222-71.815-33.061c-11.53-19.366-0.484-47.884,12.944-71.66
					C2328.076,2053.867,2276.668,2050.692,2261.851,2025.266z"/>
				<g>
					
						<linearGradient id="SVGID_00000134229728009865487000000003295871135491566210_" gradientUnits="userSpaceOnUse" x1="-88.8391" y1="1867.6942" x2="-226.8325" y2="1517.2163" gradientTransform="matrix(-0.9773 -0.2121 -0.2121 0.9773 2475.9617 414.7617)">
						<stop  offset="0" style="stop-color:#444B8C"/>
						<stop  offset="0.9964" style="stop-color:#26264F"/>
					</linearGradient>
					<path style="fill:url(#SVGID_00000134229728009865487000000003295871135491566210_);" d="M2373.022,2070.449
						c33.108-9.611,54.47-123.639,26.612-137.423c-13.323-6.592-23.194,17.02-76.291,38.146
						c-42.501,16.911-60.462,11.444-72.225,30.095c-11.622,18.425-4.477,45.105-0.818,64.026c1.588,8.21,6.901,12.079,11.091,18.946
						c5.805,9.524,14.853,24.623,29.508,49.771c2.858-5.834,6.821-12.962,12.265-20.437c2.096-2.876,10.434-14.076,35.098-30.832
						C2354.021,2072.034,2369.233,2071.549,2373.022,2070.449z"/>
					
						<linearGradient id="SVGID_00000070098503675279838190000006484799236236882356_" gradientUnits="userSpaceOnUse" x1="1598.1223" y1="1689.9933" x2="1593.5867" y2="2055.4275" gradientTransform="matrix(0.9884 0.1519 -0.1519 0.9884 992.1978 145.2596)">
						<stop  offset="0" style="stop-color:#FFC444"/>
						<stop  offset="0.9964" style="stop-color:#F36F56"/>
					</linearGradient>
					<path style="fill:url(#SVGID_00000070098503675279838190000006484799236236882356_);" d="M2267.293,2110.369
						c0,0,13.633,39.799,56.813,46.432c38.66,5.938,63.12-78.3,42.784-101.816c-6.786-7.844-22.497-13.949-36.54-13.164
						c-8.295,0.465-11.658,3.125-25.225,3.618c-12.518,0.457-15.57-1.593-19.807,0.624c-5.3,2.775-10.61,11.274-8.667,37.908
						c-5.647-8.968-13.75-13.721-20.58-12.167c-1.089,0.249-4.099,1.45-6.168,3.823
						C2242.419,2084.211,2248.582,2098.647,2267.293,2110.369z"/>
					
						<linearGradient id="SVGID_00000178923462621962535220000017589963545997830564_" gradientUnits="userSpaceOnUse" x1="-135.0024" y1="1832.9984" x2="-233.7251" y2="1582.2609" gradientTransform="matrix(-0.9773 -0.2121 -0.2121 0.9773 2475.9617 414.7617)">
						<stop  offset="0" style="stop-color:#444B8C"/>
						<stop  offset="0.9964" style="stop-color:#26264F"/>
					</linearGradient>
					<path style="fill:url(#SVGID_00000178923462621962535220000017589963545997830564_);" d="M2284.723,2040.571
						c1.537,1.775-5.598,7.393-8.16,17.006c-4.977,18.659,9.098,45.486,28.128,51.702c11.25,3.674,15.945-2.56,35.401-0.369
						c12.045,1.356,21.514,5.018,27.382,7.726c1.41,21.983-8.761,41.344-24.683,47.851c-17.142,7.006-34.758-3.432-42.122-7.798
						c-4.926-2.919-20.721-12.238-26.17-29.814c-5.676-18.317,5.586-26.113-2.619-39.465c-4.137-6.734-10.651-10.694-15.138-22.953
						c-1.219-3.331-1.892-6.188-2.268-8.093C2266.609,2048.115,2282.5,2037.997,2284.723,2040.571z"/>
					
						<linearGradient id="SVGID_00000102524711443648270740000011320951356390115243_" gradientUnits="userSpaceOnUse" x1="-231.6253" y1="1681.9174" x2="-226.491" y2="1727.6891" gradientTransform="matrix(-0.9773 -0.2121 -0.2121 0.9773 2475.9617 414.7617)">
						<stop  offset="0" style="stop-color:#FFC444"/>
						<stop  offset="1" style="stop-color:#F36F56"/>
					</linearGradient>
					<path style="fill:url(#SVGID_00000102524711443648270740000011320951356390115243_);" d="M2351.947,2121.238
						c0,0-9.182,2.482-23.229-1.458c-0.683-0.194-1.492-0.159-1.658,0.181c-0.625,1.278,7.164,9.342,16.093,8.836
						c6.341-0.362,12.235-4.986,11.75-6.602C2354.695,2121.515,2353.327,2121.295,2351.947,2121.238z"/>
				</g>
			</g>
		</g>
		<g>
			
				<linearGradient id="SVGID_00000155106587304228828220000017681994074269765551_" gradientUnits="userSpaceOnUse" x1="774.4022" y1="1224.9286" x2="1056.0787" y2="1492.6606" gradientTransform="matrix(0.9531 0.3027 -0.3027 0.9531 179.6148 -132.1562)">
				<stop  offset="0" style="stop-color:#AA80F9"/>
				<stop  offset="0.9964" style="stop-color:#6165D7"/>
			</linearGradient>
			<path style="fill:url(#SVGID_00000155106587304228828220000017681994074269765551_);" d="M459.255,1669.618
				c-15.89-46.678-4.761-100.337,19.762-137.844c41.441-63.378,95.454-41.35,149.553-111.633
				c34.995-45.463,66.842-84.288,105.699-113.366c28.585-21.392,96.226-45.622,122.65-28.803
				c79.062,50.328-66,478.845-225.934,503.239C566.991,1790.969,483.141,1739.782,459.255,1669.618z"/>
			<g>
				
					<linearGradient id="SVGID_00000176725544878612419070000009203480197345912246_" gradientUnits="userSpaceOnUse" x1="1104.2583" y1="2979.552" x2="1186.4865" y2="2979.552" gradientTransform="matrix(0.9942 0.1073 -0.1073 0.9942 -84.7215 -32.2266)">
					<stop  offset="0" style="stop-color:#AA80F9"/>
					<stop  offset="0.9964" style="stop-color:#6165D7"/>
				</linearGradient>
				<path style="fill:url(#SVGID_00000176725544878612419070000009203480197345912246_);" d="M762.641,3022.827
					c4.22,9.006,8.988,22.202,10.247,38.62c0.552,7.196,0.331,13.721-0.243,19.378c-4.641,6.841-26.34,30.331-55.643,36.129
					c-18.128,3.587-47.516-11.781-14.225-32.582c33.291-20.801,38.267-25.808,28.482-78.977c-2.517-13.679-1.528-18.684,0.62-19.646
					C736.897,2983.501,751.195,3004.479,762.641,3022.827z"/>
				
					<linearGradient id="SVGID_00000114045097430225122320000016853202071187446403_" gradientUnits="userSpaceOnUse" x1="1261.2643" y1="3003.457" x2="1343.4923" y2="3003.457" gradientTransform="matrix(0.9942 0.1073 -0.1073 0.9942 -84.7215 -32.2266)">
					<stop  offset="0" style="stop-color:#AA80F9"/>
					<stop  offset="0.9964" style="stop-color:#6165D7"/>
				</linearGradient>
				<path style="fill:url(#SVGID_00000114045097430225122320000016853202071187446403_);" d="M916.171,3063.44
					c4.22,9.006,8.988,22.202,10.247,38.62c0.552,7.195,0.331,13.721-0.243,19.377c-4.641,6.841-26.339,30.331-55.643,36.129
					c-18.128,3.588-47.516-11.781-14.224-32.582c33.291-20.801,38.267-25.808,28.482-78.977c-2.517-13.679-1.528-18.684,0.62-19.646
					C890.428,3024.115,904.725,3045.092,916.171,3063.44z"/>
				
					<linearGradient id="SVGID_00000013174119036500014140000008598165065712138895_" gradientUnits="userSpaceOnUse" x1="751.5429" y1="2446.4404" x2="1251.452" y2="2446.4404" gradientTransform="matrix(0.9998 -0.0174 0.0174 0.9998 -179.4408 43.821)">
					<stop  offset="0" style="stop-color:#444B8C"/>
					<stop  offset="0.9964" style="stop-color:#26264F"/>
				</linearGradient>
				<path style="fill:url(#SVGID_00000013174119036500014140000008598165065712138895_);" d="M1075.838,1952.624
					c11.007,67.027,22.014,134.056,33.021,201.082c-24.106,63.409-46.524,132.498-65.519,207.112
					c-68.611,269.525-111.395,529.113-114.524,715.064c-15.103,5.465-30.206,10.927-45.309,16.392
					c-27.062-102.186-18.885-256.696-42.945-438.897c-28.425-215.259-9.096-383.541-18.992-384.131
					c-9.484-0.566-36.046,153.494-36.094,329.427c-0.051,185.979-21.443,335.709-7.655,443.203
					c-18.096,1.08-36.191,2.16-54.287,3.24c-50.112-142.153-72.008-311.518-97.378-535.465
					c-17.618-155.521-38.411-362.125,65.489-575.278c10.375-21.285,46.596-68.534,53.387-80.21
					C864.179,1876.961,956.692,1929.827,1075.838,1952.624z"/>
				
					<linearGradient id="SVGID_00000149371398115572120380000010608025521941907344_" gradientUnits="userSpaceOnUse" x1="778.1605" y1="2419.1067" x2="1260.9958" y2="2419.1067" gradientTransform="matrix(0.9947 0.1031 -0.1031 0.9947 68.8918 -44.2863)">
					<stop  offset="0" style="stop-color:#444B8C"/>
					<stop  offset="0.9964" style="stop-color:#26264F"/>
				</linearGradient>
				<path style="opacity:0.25;fill:url(#SVGID_00000149371398115572120380000010608025521941907344_);" d="M1043.341,2360.819
					c18.994-74.615,41.413-143.703,65.519-207.112c-11.007-67.027-22.014-134.056-33.021-201.082
					c-119.146-22.797-211.659-75.662-330.805-98.46c-6.791,11.675-43.012,58.924-53.387,80.209
					c-35.024,71.855-55.839,142.954-67.423,211.614c230.51-2.518,297.219,45.483,315.584,89.728
					c29.236,70.435-59.68,141.86-28.221,284.406c9.461,42.87,23.591,63.995,25.25,117.697
					c2.177,70.474-20.824,77.307-24.426,148.996c-3.941,78.437-31.107,155.098-18.37,210.697
					c7.919,34.565,17.193,62.669,24.319,82.154c3.486-1.261,6.971-2.521,10.458-3.784
					C931.946,2889.93,974.73,2630.344,1043.341,2360.819z"/>
			</g>
			
				<linearGradient id="SVGID_00000062899768423990852520000017804972835076315776_" gradientUnits="userSpaceOnUse" x1="1767.9932" y1="1545.8309" x2="829.4194" y2="1051.2178" gradientTransform="matrix(0.9947 0.1031 -0.1031 0.9947 68.8918 -44.2863)">
				<stop  offset="0" style="stop-color:#311944"/>
				<stop  offset="1" style="stop-color:#6B3976"/>
			</linearGradient>
			<path style="fill:url(#SVGID_00000062899768423990852520000017804972835076315776_);" d="M977.071,1022.448
				c7.391,9.877-3.589,23.129-5.781,71.37c-1.003,22.066,0.327,40.568,1.815,53.711c0.419,11.89,1.091,22.915,2.019,32.655
				c0.681,7.146,1.409,12.73,2.436,18.674c1.901,11.025,4.627,21.957,8.097,32.495c0.23,0.697-0.114,1.444-0.775,1.73
				c-0.039,0.017-0.08,0.032-0.121,0.045c-0.738,0.245-1.532-0.157-1.775-0.896c-3.514-10.667-6.273-21.735-8.2-32.894
				c-1.039-6.018-1.776-11.667-2.463-18.888c-0.489-5.133-0.902-10.643-1.251-16.415c-1.579,15.206-1.903,32.003,3.504,54.433
				c16.408,68.076-36.432,112.885-78.078,114.688c-48.028,2.078-80.584-35.981-90.652-48.435
				c-40.581-50.199-48.393-132.007-10.227-191.838C845.615,1014.503,958.958,998.242,977.071,1022.448z"/>
			
				<linearGradient id="SVGID_00000095332969844078762890000012206779522164079244_" gradientUnits="userSpaceOnUse" x1="1757.2773" y1="1566.1482" x2="818.7114" y2="1071.5392" gradientTransform="matrix(0.9947 0.1031 -0.1031 0.9947 68.8918 -44.2863)">
				<stop  offset="0" style="stop-color:#311944"/>
				<stop  offset="1" style="stop-color:#6B3976"/>
			</linearGradient>
			<path style="fill:url(#SVGID_00000095332969844078762890000012206779522164079244_);" d="M855.623,1087.988
				c2.055-7.609,11.349-38.635,39.747-58.086c53.881-36.905,140.247-7.292,189.766,36.167
				c51.816,45.475,30.267,76.934,81.202,127.428c55.322,54.844,94.145,30.892,171.036,83.869
				c30.245,20.838,111.754,76.996,117.202,164.603c4.708,75.701-48.831,151.509-114.339,180.757
				c-112.15,50.072-252.595-39.349-318.86-121.581c-63.555-78.869-20.672-98.175-111.033-250.499
				C877.672,1195.571,840.268,1144.849,855.623,1087.988z"/>
			
				<linearGradient id="SVGID_00000058578669569768382810000010535292133007882940_" gradientUnits="userSpaceOnUse" x1="1005.4067" y1="1550.9626" x2="1822.004" y2="2068.4097" gradientTransform="matrix(0.969 0.2472 -0.2472 0.969 191.9047 -160.8439)">
				<stop  offset="0" style="stop-color:#AA80F9"/>
				<stop  offset="0.9964" style="stop-color:#6165D7"/>
			</linearGradient>
			<path style="fill:url(#SVGID_00000058578669569768382810000010535292133007882940_);" d="M774.803,1308.785
				c-40.967,41.471-51.998,91.332-55.226,113.616c-10.041,69.321,17.186,125.864,23.58,140.718
				c30.21,70.177,19.082,208.498-157.017,506.356c16.739,13.953,74.453,117.236,101.75,67.708
				c37.216-67.525,206.054-542.642,43.215,20.396c-2.146,7.419,14.448,5.926,21.992,8.743
				c54.087,20.195,119.043,34.898,192.847,33.979c115.674-1.441,203.815-40.646,250.412-65.847
				c-31.596-73.668-64.675-173.369-78.827-294.374c-26.998-230.841,29.179-417.008,68.331-517.397
				c-35.702-24.679-148.777-96.152-282.564-73.054C869.964,1255.384,817.954,1265.103,774.803,1308.785z"/>
			
				<linearGradient id="SVGID_00000089564677375064391160000003455671149339795615_" gradientUnits="userSpaceOnUse" x1="930.9307" y1="1502.7839" x2="1704.9337" y2="1993.2406" gradientTransform="matrix(0.9947 0.1031 -0.1031 0.9947 68.8918 -44.2863)">
				<stop  offset="0" style="stop-color:#AA80F9"/>
				<stop  offset="0.9964" style="stop-color:#6165D7"/>
			</linearGradient>
			<path style="opacity:0.3;fill:url(#SVGID_00000089564677375064391160000003455671149339795615_);" d="M1117.532,1840.079
				c-26.998-230.841,29.179-417.009,68.331-517.397c-35.702-24.679-148.777-96.152-282.564-73.054
				c-33.335,5.756-85.345,15.476-128.495,59.157c-32.618,33.02-46.231,71.312-52.065,96.816c0.999-0.168,2.376-0.39,4.017-0.618
				c82.394-11.379,177.553,54.905,210.085,117.612c54.29,104.644-70.598,190.145-67.474,355.984
				c1.689,89.65,40.652,195.653,159.769,314.029c74.874-12.934,132.56-39.407,167.223-58.154
				C1164.763,2060.785,1131.683,1961.084,1117.532,1840.079z"/>
			
				<linearGradient id="SVGID_00000081620805342352874170000005837487598477003694_" gradientUnits="userSpaceOnUse" x1="2123.0625" y1="1325.9576" x2="2138.0332" y2="927.1894" gradientTransform="matrix(-0.9999 -0.0164 -0.0164 0.9999 3063.3711 184.0832)">
				<stop  offset="0" style="stop-color:#FFC444"/>
				<stop  offset="0.9964" style="stop-color:#F36F56"/>
			</linearGradient>
			<path style="fill:url(#SVGID_00000081620805342352874170000005837487598477003694_);" d="M934.579,1166.606
				c-11.738,23.825-21.649,53.626-8.724,73.616c7.874,12.179,20.907,18.963,33.778,25.357c30.416,15.109,44.531,8.973,50.535,18.14
				c13.214,20.176-24.202,97.172-85.234,103.858c-60.739,6.653-115.707-59.523-106.565-87.475
				c8.249-25.222,68.043-17.315,78.732-49.188c5.382-16.047-4.47-33.866-13.116-45.934l-7.153,0.626L934.579,1166.606z"/>
			
				<linearGradient id="SVGID_00000118374784599242739700000011085619119628766602_" gradientUnits="userSpaceOnUse" x1="998.4723" y1="1368.1106" x2="1010.7328" y2="1041.53" gradientTransform="matrix(0.9947 0.1031 -0.1031 0.9947 68.8918 -44.2863)">
				<stop  offset="0" style="stop-color:#FFC444"/>
				<stop  offset="0.9964" style="stop-color:#F36F56"/>
			</linearGradient>
			<path style="opacity:0.4;fill:url(#SVGID_00000118374784599242739700000011085619119628766602_);" d="M1010.167,1283.719
				c-6.004-9.166-20.119-3.032-50.535-18.141c-12.871-6.392-25.903-13.179-33.777-25.357c-12.924-19.989-3.014-49.79,8.724-73.614
				l-57.749,38.999l7.153-0.625c6.862,9.578,14.356,22.776,14.517,35.84c4.198,2.902,7.743,6.088,10.255,9.18
				c-7.966,17.183-10.668,32.017-11.704,41.611c-1.616,14.959-2.815,26.07,3.603,36.568c7.002,11.452,18.966,15.465,29.426,18.974
				c23.242,7.796,44.96,5.207,59.229,1.789C1009.036,1324.292,1017.587,1295.048,1010.167,1283.719z"/>
			
				<linearGradient id="SVGID_00000099653521888569872090000002097668509003338651_" gradientUnits="userSpaceOnUse" x1="2128.655" y1="1186.6033" x2="2124.6177" y2="1511.8873" gradientTransform="matrix(-0.9871 0.1603 0.1672 1.0296 2789.7134 -426.1559)">
				<stop  offset="0" style="stop-color:#FFC444"/>
				<stop  offset="0.9964" style="stop-color:#F36F56"/>
			</linearGradient>
			<path style="fill:url(#SVGID_00000099653521888569872090000002097668509003338651_);" d="M923.92,1189.564
				c0,0,2.02,30.591-27.751,35.712c-36.682,6.31-56.899-89.888-48.893-96.911c9.283-8.145,20.959,6.068,44.143-3.43
				c9.762-3.999,16.357-18.509,23.844-5.303c8.517,15.025,8.294,44.171,8.294,44.171s7.525-8.646,10.306-0.214
				C937.502,1174.624,930.183,1183.118,923.92,1189.564z"/>
			
				<linearGradient id="SVGID_00000175302027828837887500000003727192884429658754_" gradientUnits="userSpaceOnUse" x1="1788.6464" y1="1506.6378" x2="850.0756" y2="1012.0262" gradientTransform="matrix(0.9947 0.1031 -0.1031 0.9947 68.8918 -44.2863)">
				<stop  offset="0" style="stop-color:#311944"/>
				<stop  offset="1" style="stop-color:#6B3976"/>
			</linearGradient>
			<path style="fill:url(#SVGID_00000175302027828837887500000003727192884429658754_);" d="M869.19,1078.15
				c-12.991,10.764-21.88,33.339-14.947,45.868c9.96,17.999,46.376,4.057,58.399,26.058c5.271,9.646,3.616,22.105,6.854,22.234
				c2.682,0.108,5.153-8.387,7.426-15.352c12.529-38.395,22.773-41.789,20.956-53.342
				C944.183,1080.135,895.863,1056.048,869.19,1078.15z"/>
			
				<linearGradient id="SVGID_00000039856248748630675710000009102405480630627498_" gradientUnits="userSpaceOnUse" x1="1287.3954" y1="1355.5757" x2="1750.382" y2="1648.9529" gradientTransform="matrix(0.9531 0.3027 -0.3027 0.9531 179.6148 -132.1562)">
				<stop  offset="0" style="stop-color:#AA80F9"/>
				<stop  offset="0.9964" style="stop-color:#6165D7"/>
			</linearGradient>
			<path style="fill:url(#SVGID_00000039856248748630675710000009102405480630627498_);" d="M1084.766,1319.377
				c40.46,2.566,44.524-9.568,89.305,23.239c128.594,94.204,212.004,359.919,84.489,488.345
				c-70.924,71.431-200.357,115.042-310.468,60.523c-89.637-44.38-122.697-132.12-130.725-155.617
				c1.475-23.552,2.951-47.103,4.426-70.655c50.35,54.315,93.603,68.041,124.979,69.721c53.407,2.86,75.593-29.015,166.946-34.048
				c35.589-1.961,55.467,1.596,59.617-8.087c8.58-20.022-69.088-52.28-105.664-111.627
				C1041.007,1537.909,1024.852,1461.861,1084.766,1319.377z"/>
			
				<linearGradient id="SVGID_00000047740342623663414330000004124363058021851292_" gradientUnits="userSpaceOnUse" x1="1768.931" y1="1544.0297" x2="830.3643" y2="1049.4202" gradientTransform="matrix(0.9947 0.1031 -0.1031 0.9947 68.8918 -44.2863)">
				<stop  offset="0" style="stop-color:#311944"/>
				<stop  offset="1" style="stop-color:#6B3976"/>
			</linearGradient>
			<path style="fill:url(#SVGID_00000047740342623663414330000004124363058021851292_);" d="M926.949,1120.642
				c-9.12,8.104,5.778,39.613,35.946,102.3c18.568,38.583,27.852,57.874,34.215,66.458c34.262,46.221,96.076,85.493,162.38,88.659
				c45.499,2.172,53.925-14.529,90.366-4.5c54.973,15.129,82.002,65.851,84.797,63.619c3.088-2.468-26.763-66.898-94.061-125.023
				c-55.064-47.559-72.498-36.742-159.84-103.756c-6.337-4.862-33.148-25.56-71.297-49.678
				C964.607,1130.368,936.022,1112.579,926.949,1120.642z"/>
			<g>
				
					<linearGradient id="SVGID_00000160899185934416824740000008548282166460463285_" gradientUnits="userSpaceOnUse" x1="1148.8549" y1="1334.2428" x2="1060.947" y2="1438.0029" gradientTransform="matrix(0.9531 0.3027 -0.3027 0.9531 179.6148 -132.1562)">
					<stop  offset="0" style="stop-color:#FFC444"/>
					<stop  offset="0.9964" style="stop-color:#F36F56"/>
				</linearGradient>
				<path style="fill:url(#SVGID_00000160899185934416824740000008548282166460463285_);" d="M568.946,1475.515l93.519,231.357
					c1.586,4.286,5.06,7.601,9.415,8.984l107.807,34.242c11.136,3.537,21.795-6.602,18.819-17.901l-57.632-218.73
					c-1.319-5.006-5.092-16.113-14.638-19.145l-131.315-37.955C583.217,1452.898,564.712,1464.068,568.946,1475.515z"/>
				
					<linearGradient id="SVGID_00000106863929578851571100000008559675779269227692_" gradientUnits="userSpaceOnUse" x1="854.5153" y1="1501.9603" x2="1337.3156" y2="1501.9603" gradientTransform="matrix(0.9531 0.3027 -0.3027 0.9531 179.6148 -132.1562)">
					<stop  offset="0" style="stop-color:#FF9085"/>
					<stop  offset="1" style="stop-color:#FB6FBB"/>
				</linearGradient>
				<path style="fill:url(#SVGID_00000106863929578851571100000008559675779269227692_);" d="M567.76,1479.18l82.803,223.911
					c1.586,4.286,5.06,7.601,9.415,8.984l107.807,34.242c11.137,3.537,21.795-6.602,18.818-17.902l-57.632-218.729
					c-1.319-5.006-5.155-8.961-10.118-10.433l-132.979-39.424C574.171,1456.36,563.526,1467.732,567.76,1479.18z"/>
			</g>
			
				<linearGradient id="SVGID_00000134233872007778212160000001351330627065096322_" gradientUnits="userSpaceOnUse" x1="-2106.6089" y1="517.4727" x2="-1938.1598" y2="517.4727" gradientTransform="matrix(0.6233 0.7821 -0.7821 0.6233 2472.9751 2959.9968)">
				<stop  offset="0" style="stop-color:#FFC444"/>
				<stop  offset="0.9964" style="stop-color:#F36F56"/>
			</linearGradient>
			<path style="fill:url(#SVGID_00000134233872007778212160000001351330627065096322_);" d="M827.552,1684.15l-11.342-10.585
				c0,0-16.115-22.044-28.257-32.72c-12.141-10.676-24.032-12.827-36.923-2.554c-12.891,10.273-1.94,27.265,7.378,42.091
				c5.67,9.019,21.649,14.738,34.95,18.197c9.351,2.432,25.728,14.644,25.728,14.644L827.552,1684.15z"/>
			
				<linearGradient id="SVGID_00000008858031600520485210000008216315046761246345_" gradientUnits="userSpaceOnUse" x1="-1858.4392" y1="4026.199" x2="-1689.9828" y2="4026.199" gradientTransform="matrix(-0.7871 0.6169 -0.6169 -0.7871 1651.0991 5826.4858)">
				<stop  offset="0" style="stop-color:#FFC444"/>
				<stop  offset="0.9964" style="stop-color:#F36F56"/>
			</linearGradient>
			<path style="fill:url(#SVGID_00000008858031600520485210000008216315046761246345_);" d="M580.338,1582.933l10.676-11.258
				c0,0,22.176-15.934,32.948-27.99c10.774-12.054,13.022-23.927,2.854-36.9c-10.169-12.975-27.249-2.162-42.149,7.036
				c-9.065,5.596-14.913,21.53-18.479,34.802c-2.508,9.333-14.852,25.611-14.852,25.611L580.338,1582.933z"/>
			
				<linearGradient id="SVGID_00000070079850492131818450000010800522418249812664_" gradientUnits="userSpaceOnUse" x1="944.0962" y1="1510.8091" x2="822.4772" y2="1772.6473" gradientTransform="matrix(0.9531 0.3027 -0.3027 0.9531 179.6148 -132.1562)">
				<stop  offset="0" style="stop-color:#AA80F9"/>
				<stop  offset="0.9964" style="stop-color:#6165D7"/>
			</linearGradient>
			<path style="fill:url(#SVGID_00000070079850492131818450000010800522418249812664_);" d="M549.56,1560.184
				c13.823,6.895,27.649,13.784,41.472,20.679c4.231,5.384,54.598,71.505,27.71,134.907c-3.498,8.248-16.723,39.433-42.802,44.954
				c-40.246,8.522-98.876-46.646-96.984-105.867C480.223,1615.166,508.518,1578.704,549.56,1560.184z"/>
		</g>
	</g>
</g>
</svg>
