<svg xmlns="http://www.w3.org/2000/svg" viewBox="0 0 865.76 682.89"><path d="M372.6,430.31H285.43L248.86,652.2a7.74,7.74,0,0,0,7.64,9h204L422.41,430.31Zm-114,221.39,34.93-211.9H414.36l34.92,211.9Z" fill="#797c7c"/><path d="M429.21,430.31h-137L255.69,652a7.89,7.89,0,0,0,7.78,9.17H458a7.89,7.89,0,0,0,7.78-9.17ZM265.37,651.7l34.92-211.9H421.16l34.93,211.9Z" fill="#a9aaaa"/><path d="M428.85,430.31H341.69L305.12,652.2a7.74,7.74,0,0,0,7.63,9h204L478.67,430.31Zm-114,221.39,34.93-211.9H470.61l34.93,211.9Z" fill="#797c7c"/><path d="M485.47,430.31h-137L312,652a7.89,7.89,0,0,0,7.78,9.17H514.24A7.89,7.89,0,0,0,522,652ZM321.62,651.7l34.93-211.9H477.41l34.93,211.9Z" fill="#a9aaaa"/><path d="M293,159.74h-27.1l-2.19-28.38c-25.29,0-34.9,28.38-34.9,28.38S163,355.81,293,442c0,0,87.37,58.64,181.88-15.1L360.45,283.22Z" fill="#f36316"/><path d="M293,159.74h-27.1l-2.19-28.38c-25.29,0-34.9,28.38-34.9,28.38S163,355.81,293,442c0,0,87.37,58.64,181.88-15.1L360.45,283.22Z" opacity="0.4"/><path d="M374.24,254.84,306.8,131.36H267.33a32.17,32.17,0,0,0-16.85,4.75h0a32.31,32.31,0,0,0-14.6,20.37c-12.7,55.68-30.5,189.88,70.93,257.17,0,0,2.73,1.83,7.74,4.44a154.19,154.19,0,0,0,19.67,8.48A157.21,157.21,0,0,0,402.59,435c25.23-2.61,53.59-12,82.72-33.83,1.12-.83,2.24-1.69,3.37-2.57l-19.25-24.18Z" fill="#f36316"/><path d="M374.24,254.84,306.8,131.36H267.33a32.17,32.17,0,0,0-16.85,4.75h0a32.31,32.31,0,0,0-14.6,20.37c-12.7,55.68-30.5,189.88,70.93,257.17,0,0,2.73,1.83,7.74,4.44a154.19,154.19,0,0,0,19.67,8.48A157.21,157.21,0,0,0,402.59,435c25.23-2.61,53.59-12,82.72-33.83,1.12-.83,2.24-1.69,3.37-2.57l-19.25-24.18Z" opacity="0.2"/><path d="M374.24,254.84,306.8,131.36H267.33a32.17,32.17,0,0,0-16.85,4.75h0A32.25,32.25,0,0,0,240,153.45c-12.71,55.69-30.5,189.88,70.93,257.17,0,0,2.73,1.83,7.74,4.44a152.76,152.76,0,0,0,19.67,8.48,157.21,157.21,0,0,0,68.38,8.38c24-2.49,50.9-11.13,78.57-30.8,1.12-.83,2.24-1.69,3.37-2.57l-19.25-24.18Z" fill="#f36316"/><path d="M306.8,131.36H284.06s-6,5.74,6.8,39l-12.61,57.4s-18.43,13.31-10.74,31.08-1.88,52,20.81,58.3c0,0-12.78,73.5,26.22,100.9a54.29,54.29,0,0,0,19.67,8.48l.74.16c63.38,13.19,122.42-21.79,122.42-21.79l12.06-30.57L374.24,254.84Z" opacity="0.2"/><path d="M394.41,165.68a58.67,58.67,0,0,0-32.94-27.14L369,173.38l8.25,7.89L397.3,176l-1.45-5.17Z" fill="#51cea4"/><path d="M389.86,169.11c-7.29-6.38-27.44-28.15-27.44-28.15l-36.16,1.15c-16,22.18-23.7,83.74-27.42,137.9,0,.36,0,.72-.07,1.08-2.87,42.37-3.31,80-3.38,90.43,0,1.64,0,2.6,0,2.81v0C321.59,332.32,401,323.11,401,323.11s-6-34.27-4-64.22c.88-13.21,3.32-25.59,8.51-33.81a38.41,38.41,0,0,0,6.13-16.48C413.63,190.25,398.61,176.76,389.86,169.11Z" fill="#51cea4"/><g opacity="0.2"><path d="M376.21,229.27c-30.18-1.61-17.29,8.94,12.33,8.24,0,0,10.15-3.52,8.33,18a9.9,9.9,0,0,0,.17,3.37c.88-13.21,3.32-25.59,8.51-33.81a38.41,38.41,0,0,0,6.13-16.48h0S406.38,230.87,376.21,229.27Z"/><polygon points="385.32 164.83 397.3 175.99 395.85 170.82 385.32 164.83"/></g><path d="M298.84,280c0,.36,0,.72-.07,1.08-2.87,42.37-3.31,80-3.38,90.43,0,0,3.28-61.87,91-79.81l-71.58-12.32Z" opacity="0.2"/><path d="M336,208.6S315.18,233.18,314.44,235s-10.18,23.91-10.18,23.91v9.67l20.19,5.55,50.6-3.44,11.18-26.87-50.55,9.06Z" opacity="0.2"/><path d="M442.38,232.35c-9.28,3.68-17.27,2.08-32.94-2.24s-23.21,13.69-23.21,13.69L329,258.89l.32-9.75-41-8.79-7.65,7.18S265.53,318.47,311,311.45c45.09-7,92.23-25.92,93-26.22h0s39.12-2,44.51-17.06C450.29,263.06,451.65,228.67,442.38,232.35Z" fill="#f5ae97"/><path d="M288.32,240.35l-7.65,7.18S265.53,318.47,311,311.45c45.09-7,92.23-25.92,93-26.22l-67.08,17.26C260.59,325.5,288.32,240.35,288.32,240.35Z" fill="#ed856e"/><path d="M331.74,240.87c-5-3.58-15.34-16.54-15.34-16.54L291.33,226l-9,6.33s-13.35,8.44-9,14.07,15.41-6.16,24.76,4.78,23.9-7.12,32.19.64S336.78,244.44,331.74,240.87Z" fill="#075445"/><path d="M309.9,157.73a28,28,0,0,0-11.3,17.17l-16.23,57.46s23.14-8.08,49.37,8.51l7-58.48a29,29,0,0,0-7.16-22C326.62,154.9,319.36,151.19,309.9,157.73Z" fill="#51cea4"/><path d="M388.11,73.4l-.82-20.56L356.37,47l-3.48-.66L351,49.81,331.31,85.66s-14.37-8.39-16.71,7.22c-1.08,7.33,3.68,12,8.54,14.84,0,0,0,0,0,0,.77.42,1.52.85,2.25,1.17a36.54,36.54,0,0,0,5.56,2.13,2.39,2.39,0,0,1,1.72,1.84s5.36,18.16-1.42,24.62c0,0,8.47,14.86,21.2,15.3s10.74-11.8,9-14.27c-1-1.42-1.28-4.53-1.3-7.29s.22-5.16.22-5.16c2,1.46,6.94,1.35,6.94,1.35,23.4-.34,21.18-44.18,21.18-44.18Z" fill="#f5ae97"/><path d="M328,93.11l0-.09a2.34,2.34,0,0,0-3.53-2.58c-1.47,1-2.63,3-1.16,7.24,2.85,8.14,7.14,4.22,6.64,1.72S327.12,96,328,93.11Z" fill="#ed856e"/><path d="M359.26,81.38a7.31,7.31,0,0,0-3.43,2.14,5.14,5.14,0,0,0-1.58,3.67,1.25,1.25,0,0,0,1.15,1.29,1.22,1.22,0,0,0,1.29-1.15c-.11-1.6,1.62-3.14,3.07-3.56a3.47,3.47,0,0,1,2.3.07,2.8,2.8,0,0,1,1.47,1.3A1.22,1.22,0,0,0,365.7,84,5.6,5.6,0,0,0,359.26,81.38Z" fill="#072c35"/><path d="M382.48,79.22c-2.47-.48-4.88,1.21-6.2,3.17a1.25,1.25,0,0,0,.2,1.72,1.23,1.23,0,0,0,1.72-.2c.86-1.28,2.31-2.53,3.79-2.3a4,4,0,0,1,3.09,2.82,1.22,1.22,0,0,0,2.43-.31A6.38,6.38,0,0,0,382.48,79.22Z" fill="#072c35"/><path d="M381.26,86.29c-1.2.1-2.06,1.72-1.91,3.63s1.24,3.39,2.44,3.3,2-1.72,1.9-3.63S382.45,86.2,381.26,86.29Z" fill="#072c35"/><path d="M361.34,87.63c-1.27.09-2.17,1.81-2,3.83s1.3,3.57,2.57,3.47,2.16-1.81,2-3.82S362.6,87.53,361.34,87.63Z" fill="#072c35"/><path d="M325.43,108.93A37.13,37.13,0,0,0,331,111s5.24,0,5.7-4.91C336.38,106.6,332.94,111.48,325.43,108.93Z" fill="#ed856e"/><path d="M374,46,329.32,70l2,15.69C337,81.27,348,80.89,348,80.89c27.8-2,28-15.45,28-15.45,6.76,11.54,11.89,9.12,11.89,9.12L384,44.45Z" fill="#ed856e"/><path d="M394.85,61c-5.74-37-24.12-25.5-24.12-25.5C357.09,19.22,334.05,21.42,317.6,33h0c-11.93,8.37-20.38,21.63-19.25,36.3,2.7,34.93-6,53.09-6,53.09-8.17,16.43-2.21,30.68,2.84,38.54A43.93,43.93,0,0,0,301,168s10.31-11,24.84,4.65c9.63,10.35,19.74,11.09,25.46,10.4a2.75,2.75,0,0,0,1.85-4.39c-12.58-16.8-17.69-54-18.81-63.4a5.12,5.12,0,0,0-3.17-4.2,3.89,3.89,0,0,0-.93-.25s-7.21-2.64-11.09-6a13.91,13.91,0,0,1-2.57-2.9,12.87,12.87,0,0,1-2.1-7.29,15.16,15.16,0,0,1,.94-5.21c3.91-10.66,15.89-3.8,15.89-3.8,1-2.46,4.11-4.14,7.2-5.24a34.85,34.85,0,0,1,10.37-1.89c26.05-1,26.58-19.6,26.58-19.6s2.46,10.8,12.43,15.64a93.05,93.05,0,0,1,.39,20.62,66.57,66.57,0,0,1-4.75,20c-.11.25-.22.52-.35.76,0,.06-.07.17-.12.3-3.56,7.5-8.66,10.18-13.12,10.89a18.94,18.94,0,0,1-9.55-1,22.57,22.57,0,0,0,1.08,12.45,64.73,64.73,0,0,1,24.76,16.1,55.33,55.33,0,0,1,8.18,11s8.65-5.6,3-27.21C393.1,121.78,399.37,90.26,394.85,61Z" fill="#0e4959"/><path d="M355.25,57.07a21.64,21.64,0,0,1-8.6,2.91c-21.82,2.39-19.79,16.82-19.79,16.82,0-4.45,3.39-7.36,6.73-9.16a23.39,23.39,0,0,1,9.35-2.6c19.58-1.5,22-16.08,22-16.08C363,52.07,358.69,55.05,355.25,57.07Z" fill="#06252c"/><path d="M347.23,116.85A24.12,24.12,0,0,0,360,131.36l.15-.11c0-2.76.22-5.16.22-5.16S352.39,123.19,347.23,116.85Z" fill="#ed856e"/><path d="M375,52.55S369,73.2,349,73.42s-18.84,8.75-18.84,8.75-18.46-7-15.81,12.49h.09a15.16,15.16,0,0,1,.94-5.21c3.91-10.66,15.89-3.8,15.89-3.8,1-2.46,4.11-4.14,7.2-5.24a34.85,34.85,0,0,1,10.37-1.89c26.05-1,26.58-19.6,26.58-19.6s2.46,10.8,12.43,15.64C382.31,70.8,375,52.55,375,52.55Z" fill="#06252c"/><path d="M391.71,91.49c-7.75,50.92,3.64,59.22,3.64,59.22C390.07,143,391.71,91.49,391.71,91.49Z" fill="#06252c"/><path d="M334.34,115.27a5.12,5.12,0,0,0-3.17-4.2,3.89,3.89,0,0,0-.93-.25s-7.21-2.64-11.09-6a13.91,13.91,0,0,1-2.57-2.9s-1.09,6.38,14.57,13.44c0,0-2.21,31.95,10.38,55s-13.71-23.57-46.34-9.57A43.93,43.93,0,0,0,301,168s10.31-11,24.84,4.65c9.63,10.35,19.74,11.09,25.46,10.4a2.75,2.75,0,0,0,1.85-4.39C340.57,161.87,335.46,124.68,334.34,115.27Z" fill="#06252c"/><path d="M369.94,127.12a18.94,18.94,0,0,1-9.55-1,22.57,22.57,0,0,0,1.08,12.45,64.73,64.73,0,0,1,24.76,16.1l-2.92-10.06S376.9,136.18,369.94,127.12Z" fill="#06252c"/><path d="M296.47,128.06c-5.53,15.17,3.9,24.26,3.9,24.26s-5.4-13.46-.5-25.07a50.06,50.06,0,0,0,2.74-8.18c1.28-5.47,2.87-13.79,2.27-19.23A246.31,246.31,0,0,1,296.47,128.06Z" fill="#06252c"/><path d="M313.48,109.27c-6.69,24.85,2.16,38.11,2.16,38.11C311.66,125,313.48,109.27,313.48,109.27Z" fill="#06252c"/><path d="M374.48,105.84A6,6,0,0,0,366.7,110c-1.17,3.84.49,7.75,3.72,8.74s6.8-1.33,8-5.17S377.71,106.83,374.48,105.84Z" fill="#cb6655"/><path d="M582.9,208.6H430.42a7.94,7.94,0,0,0-7.67,5.88l-26.53,99a7.94,7.94,0,0,0,7.67,10H556.36a7.93,7.93,0,0,0,7.67-5.88l26.53-99.06A7.93,7.93,0,0,0,582.9,208.6Z" fill="#f36316"/><path d="M582.9,208.6H430.42a7.94,7.94,0,0,0-7.67,5.88l-26.53,99a7.94,7.94,0,0,0,7.67,10H556.36a7.93,7.93,0,0,0,7.67-5.88l26.53-99.06A7.93,7.93,0,0,0,582.9,208.6Z" opacity="0.4"/><path d="M589.27,208.6H436.79a7.94,7.94,0,0,0-7.67,5.88l-26.53,99a7.94,7.94,0,0,0,7.66,10H562.73a7.93,7.93,0,0,0,7.67-5.88l26.53-99.06A7.93,7.93,0,0,0,589.27,208.6Z" fill="#f36316"/><path d="M589.27,208.6H436.79a7.94,7.94,0,0,0-7.67,5.88l-26.53,99a7.94,7.94,0,0,0,7.66,10H562.73a7.93,7.93,0,0,0,7.67-5.88l26.53-99.06A7.93,7.93,0,0,0,589.27,208.6Z" opacity="0.2"/><path d="M589.27,214.93H436.79a1.6,1.6,0,0,0-1.55,1.18L408.7,315.17a1.56,1.56,0,0,0,.28,1.39,1.55,1.55,0,0,0,1.27.63H562.73a1.6,1.6,0,0,0,1.55-1.19L590.82,217a1.6,1.6,0,0,0-1.55-2Z" opacity="0.2"/><path d="M586.13,214.93H436.79a1.6,1.6,0,0,0-1.55,1.18L408.7,315.17a1.56,1.56,0,0,0,.28,1.39,1.55,1.55,0,0,0,1.27.63H559.59a1.62,1.62,0,0,0,1.56-1.19L587.68,217a1.6,1.6,0,0,0-1.55-2Z" fill="#f36316"/><path d="M556.38,622.57s-52.62-38.59-90-43.45l-.34,0-7.44-4-2.78,5.68c-6.95,9.34,44.39,48.76,80,57.42,15.34,3.73,21.72,2,23.85-1.41h0l.19-.41.05-.09,2.78-5.68-3-1.61A29,29,0,0,0,556.38,622.57Z" fill="#075445"/><path d="M515.94,590.28c-15.2-7.89-32.14-14.94-46.73-16.84-25.76-3.36-3.07,21.14,27.37,40,13.68,8.5,28.94,15.86,42.05,19,18.17,4.42,23.78,1.2,24.62-3.44,1-5.21-4.08-12.2-4.08-12.2A370.41,370.41,0,0,0,515.94,590.28Z" fill="#51cea4"/><path d="M515.94,590.28c-15.2-7.89-32.14-14.94-46.73-16.84-25.76-3.36-3.07,21.14,27.37,40,13.68,8.5,28.94,15.86,42.05,19,18.17,4.42,23.78,1.2,24.62-3.44,1-5.21-4.08-12.2-4.08-12.2A370.41,370.41,0,0,0,515.94,590.28Z" opacity="0.2"/><path d="M554.87,605h0a37.18,37.18,0,0,0-3.24-2.51c-17.22-12-24.8-37.88-24.8-37.88s-39.65-28.95-41.39-18.6c-.72,4.3-4.07,7.76-7.55,11.54-4.9,5.33-10,11.29-8.45,21.11,2.72,16.82,35.24,15.12,56.74,34.94s28.09,7.81,28.09,7.81S566.81,615.41,554.87,605Z" fill="#f5ae97"/><path d="M554.87,605c.38.39,7.92,8.13-1,14.11,0,0,.28-5.32-4.38-7.29,0,0,6.21,8.31-1.95,10.88s-23.2-17.9-31.64-20.18-42.84-16.17-44.37-22.71,13.33-18.2,13.33-18.2l-7-4.07c-4.9,5.33-10,11.29-8.45,21.11,2.72,16.82,35.24,15.12,56.74,34.94s28.09,7.81,28.09,7.81S566.81,615.41,554.87,605Z" fill="#ed856e"/><path d="M542.17,584.76c-6.93-8.42-17.18-2.88-26.23,5.52-9.61,8.92-15,22.85-16.45,25,13.69,8.5,26,14.09,39.14,17.28,18.17,4.42,23.78,1.2,24.62-3.44C568.2,609.86,542.17,584.76,542.17,584.76Z" fill="#51cea4"/><path d="M522.62,384.25a30.59,30.59,0,0,0-9.83-18.3c-5.42-4.89-19.83-6.8-27.72-6.8a30.66,30.66,0,0,0-30.66,30.66l-2.67,174.24a92.45,92.45,0,0,0,11.16,4.78c43.32,15.34,81.06-7.31,81.06-7.31l-21-177.3Z" fill="#075445"/><path d="M522.62,384.25a30.59,30.59,0,0,0-9.83-18.3c-5.42-4.89-19.83-6.8-27.72-6.8a30.66,30.66,0,0,0-30.66,30.66l-2.67,174.24a92.45,92.45,0,0,0,11.16,4.78c43.32,15.34,81.06-7.31,81.06-7.31l-21-177.3Z" opacity="0.2"/><path d="M522.62,384.25a30.59,30.59,0,0,0-9.83-18.3,30.76,30.76,0,0,0-9.36-1.45c-16.93,0-37.88,14.78-37.88,31.72L462.9,568.83c43.32,15.34,81.06-7.31,81.06-7.31l-21-177.3Z" fill="#075445"/><path d="M498.28,569.44l-.2-3.79,1.27-.06.19,3.79Zm-.39-7.58-.19-3.8L499,558l.2,3.79Zm-.38-7.59-.2-3.79,1.27-.06.19,3.79Zm-.39-7.58-.19-3.8,1.26-.06.19,3.79Zm-.39-7.59-.19-3.79,1.26-.06L498,539Zm-.38-7.58-.2-3.8,1.27-.06.19,3.79Zm-.39-7.59-.19-3.79,1.26-.06.2,3.79Zm-.38-7.58-.2-3.8,1.27-.06.19,3.79Zm-.39-7.59L495,505l1.26-.06.19,3.79Zm-.39-7.58-.19-3.8,1.26-.06.2,3.79Zm-.38-7.59-.2-3.79,1.27-.07.19,3.8ZM494,486l-.19-3.8,1.26-.06.2,3.79Zm-.38-7.59-.2-3.79,1.27-.07.19,3.8Zm-.39-7.58-.19-3.8,1.26-.06.19,3.79Zm-.39-7.59-.19-3.79,1.26-.07.2,3.8Zm-.38-7.58-.2-3.8,1.27-.06.19,3.79Zm-.39-7.59-.19-3.79,1.26-.07.2,3.8Zm-.38-7.58-.2-3.8,1.27-.06.19,3.79Zm-.39-7.59-.19-3.79,1.26-.07.19,3.8Zm-.39-7.58-.19-3.8,1.27-.06.19,3.79Zm-.38-7.59-.19-3.79,1.26-.07.19,3.8Zm-.39-7.58-.19-3.8,1.26-.06.2,3.79Zm-.38-7.59-.2-3.79,1.27-.07.19,3.8ZM489.4,395l-.19-3.8,1.26-.06.19,3.79ZM489,387.4l-.19-3.79,1.27-.07.19,3.8Zm-.38-7.58-.19-3.8,1.26-.06.19,3.79Zm-.39-7.59-.19-3.79,1.26-.07.2,3.8Z" fill="#51cea4"/><path d="M664.46,509.66h0a16.44,16.44,0,0,1-6.32-2.46c-11.69-7.92-47.81,24.28-47.81,24.28s11.09,9.28,13.46,23.91c2.31,14.16,12.53,23,25.6,12.55.43-.34.85-.7,1.29-1.08l53.77-47.5L693,504S676.61,511.87,664.46,509.66Z" fill="#f5ae97"/><rect x="619.64" y="538.16" width="131.01" height="10.39" transform="translate(-188.07 589.69) rotate(-41.45)" fill="#075445"/><path d="M675.85,500.09c-7.9,17.35,9.8,35.88,9.8,35.88l45.13-39.87C700.6,478.22,675.85,500.09,675.85,500.09Z" fill="#51cea4"/><path d="M401,323.11s-58.32-.44-96.42,37.81a102.15,102.15,0,0,0-9.22,10.6s10.17,72.88,84,49.46,106.3-36.2,106.3-36.2l110.2,161.57a119.78,119.78,0,0,0,27.64-8.82c18.67-8.5,40.64-24.46,44.77-53.2,0,0-111.27-133.71-137.36-170.12C530.93,314.21,513.33,290.7,401,323.11Z" fill="#075445"/><path d="M373.11,409.69c-51.66,3.45-68.1-47.85-68.1-47.85l-.4-.92a102.15,102.15,0,0,0-9.22,10.6s10.17,72.88,84,49.46,106.3-36.2,106.3-36.2l110.2,161.57a119.78,119.78,0,0,0,27.64-8.82l0-.12L488.68,363S424.77,406.23,373.11,409.69Z" opacity="0.2"/><path d="M639,517.42l-2.31-3,1-.77,2.31,3Zm-4.62-6-2.31-3,1-.77,2.3,3Zm-4.62-6-2.31-3,1-.77,2.31,3Zm-4.62-6-2.31-3,1-.77,2.31,3Zm-4.62-6-2.31-3,1-.77,2.31,3Zm-4.62-6-2.31-3,1-.77,2.31,3Zm-4.62-6-2.31-3,1-.77,2.31,3Zm-4.61-6-2.31-3,1-.77,2.31,3Zm-4.62-6-2.31-3,1-.77,2.31,3Zm-4.62-6-2.31-3,1-.77,2.31,3Zm-4.62-6-2.31-3,1-.77,2.31,3Zm-4.62-6-2.31-3,1-.77,2.31,3Zm-4.62-6-2.31-3,1-.77,2.3,3Zm-4.62-6-2.31-3,1-.77,2.31,3Zm-4.62-6L572,430l1-.77,2.31,3Zm-4.62-6-2.31-3,1-.77,2.31,3Zm-4.62-6-2.31-3,1-.76,2.31,3Zm-4.62-6-2.31-3,1-.77,2.31,3Zm-4.61-6-2.31-3,1-.77,2.31,3Zm-4.62-6-2.31-3,1-.77,2.31,3Zm-4.62-6-2.31-3,1-.77,2.31,3Zm-4.62-6-2.31-3,1-.77,2.31,3Zm-4.62-6-2.31-3,1-.77,2.31,3Zm-4.62-6-2.31-3,1-.77,2.3,3Zm-4.62-6-2.31-3,1-.76,2.31,3Zm-157.79-.33,0-1.26c1.22,0,2.48-.09,3.74-.21l.12,1.26C372.88,372.31,371.59,372.38,370.34,372.4Zm-3.85-.11c-1.29-.1-2.58-.26-3.82-.48l.22-1.24c1.2.21,2.44.36,3.69.46Zm11.5-.6-.21-1.25,1.48-.27,2.23-.45.25,1.24-2.23.45ZM358.91,371a35.79,35.79,0,0,1-3.65-1.27l.48-1.17a33.26,33.26,0,0,0,3.52,1.22Zm26.56-.79-.28-1.24c1.2-.26,2.44-.55,3.7-.85l.29,1.23Zm7.41-1.75-.3-1.23,3.68-.92.32,1.22Zm-41.1-.39a35,35,0,0,1-3.28-2l.73-1a32.56,32.56,0,0,0,3.16,2Zm171.73-1.32-2.31-3,1-.77,2.31,3Zm-123.25-.17-.32-1.23,3.67-1,.33,1.22Zm7.35-2-.34-1.22,3.66-1,.34,1.22Zm-62.15-.94c-.95-.84-1.89-1.74-2.77-2.68l.92-.87a36.4,36.4,0,0,0,2.69,2.59Zm69.47-1.12-.35-1.22,3.65-1.05.35,1.22Zm104-1.81-2.31-3,1-.77,2.31,3Zm-96.66-.31-.35-1.21,3.63-1.08.36,1.21Zm7.28-2.17-.36-1.21,3.63-1.11.37,1.21Zm-89.33-.2c-.78-1-1.53-2.05-2.24-3.14l1.06-.69c.69,1.06,1.42,2.08,2.17,3Zm96.62-2-.38-1.21,3.63-1.12.38,1.21Zm77.47-1.33-2.31-3,1-.77,2.31,3Zm-70.21-.93-.38-1.21,3.62-1.14.39,1.21ZM336,351.55c-.61-1.11-1.19-2.27-1.73-3.44l1.16-.53c.52,1.15,1.08,2.28,1.68,3.36Zm115.35-.13-.38-1.2,3.62-1.16.38,1.21Zm7.24-2.32-.39-1.2,3.62-1.17.39,1.2Zm51.1-.49-1.8-2.35-.5-.63,1-.81.54.67,1.8,2.35Zm-43.86-1.86-.4-1.2,3.61-1.18.4,1.2Zm-133-2.21a33.75,33.75,0,0,1-1.17-3.71l1.23-.29a35.41,35.41,0,0,0,1.13,3.57ZM473,344.38l-.4-1.2,3.61-1.2.4,1.2Zm31.73-1.32a19.57,19.57,0,0,0-3.06-2l.59-1.12a20.93,20.93,0,0,1,3.26,2.16ZM480.23,342l-.4-1.2,3.6-1.21.4,1.2Zm18.06-2.35a19.29,19.29,0,0,0-3.6-.72l.13-1.26a20,20,0,0,1,3.83.77Zm-10.87-.05-.36-1.22a20.17,20.17,0,0,1,3.84-.73l.12,1.26A18.32,18.32,0,0,0,487.42,339.58Z" fill="#51cea4"/><polygon points="659.63 73.02 659.63 196.2 633.06 195.5 611.73 208.8 617.62 196.82 455.52 196.82 455.52 73.02 659.63 73.02" fill="#51cea4"/><rect x="450.45" y="73.02" width="5.07" height="123.8" fill="#51cea4"/><rect x="450.45" y="73.02" width="5.07" height="123.8" opacity="0.2"/><rect x="516.7" y="123.42" width="88.87" height="19.88" fill="#fff"/><circle cx="529.34" cy="133.78" r="2.98" fill="#51cea4"/><circle cx="544.1" cy="133.21" r="2.98" fill="#51cea4"/><circle cx="559.44" cy="133.78" r="2.98" fill="#51cea4"/><circle cx="574.2" cy="133.78" r="2.98" fill="#51cea4"/><circle cx="589.53" cy="133.21" r="2.98" fill="#51cea4"/><rect x="547.09" y="159.76" width="27.26" height="5.11" fill="#075445"/><path d="M263,446.47c-8.14-27.12-13.54-44.43-13.93-50.32,0,0-9.76,25-15.46,39.19C221,466.63,218,491,231,516.65c0,0,.07,14,.19,14.65s14.45,14.3,14.45,14.3l21.56-13.27-1.47-23.39S271.12,473.58,263,446.47Z" fill="#166d4d"/><path d="M239.8,546.33l11.61,3.7s4-75-1.47-118.94C249.94,431.09,250.2,509.94,239.8,546.33Z" fill="#12563a"/><path d="M254.72,546s-20.24-55-69.43-69.18h0c-15.94-4.58-34.9-4.87-57.19,2.39,0,0,27.4-7.61,42.57,22.07.55,1.08,1.08,2.21,1.61,3.39,14.75,33.65,34.1,52.41,46.46,57.24,7.5,2.93,16.77,10.49,22.91,16,4,3.56,6.62,6.24,6.62,6.24l6.61-1.08-.07-19.49Z" fill="#208c68"/><path d="M168,479.72c.88.33,29,11.17,73.68,98.2,4,3.56,6.62,6.24,6.62,6.24l6.61-1.08-.07-19.49C243.62,543.23,210.62,489.66,168,479.72Z" fill="#166d4d"/><path d="M278.43,474.89h0C237,500.42,232.5,556,232.5,556l4.42,16.1L241.83,590l6.33-.69s1.74-3.14,4.47-7.41c4.22-6.59,10.78-15.88,16.9-20.48,10.09-7.59,23-29.71,27.94-64.3.17-1.22.37-2.39.61-3.51,6.3-31.07,33.35-31.1,33.35-31.1C309.15,461.52,291.85,466.62,278.43,474.89Z" fill="#31a683"/><path d="M236.92,572.1,241.83,590l6.33-.69s1.74-3.14,4.47-7.41c18.65-91.12,41.67-108.25,42.4-108.77C258.49,493.09,242,550.59,236.92,572.1Z" fill="#208c68"/><path d="M237.56,564.94c-12-12-31.94-25.1-56.38-15.12-32.73,13.35-39.7,52.79-41.18,67.68a1.91,1.91,0,0,0,3.32,1.48c12.4-13.67,54-54.36,96.84-37.88q2.4.92,4.8,2.08a5,5,0,0,0,1.8.52,2.74,2.74,0,0,0,2.83-1.26,3,3,0,0,0-.18-3A93.37,93.37,0,0,0,237.56,564.94Z" fill="#31a683"/><path d="M157.63,584.75c3.09-4.2,37.5-46.38,82.53-3.65q2.4.92,4.8,2.08a5,5,0,0,0,1.8.52,2.74,2.74,0,0,0,2.83-1.26,3,3,0,0,0-.18-3S200.45,525.25,157.63,584.75Z" fill="#208c68"/><path d="M157.63,584.75l-.09.12Z" fill="#208c68"/><path d="M157.46,585l.08-.11A1,1,0,0,1,157.46,585Z" fill="#3c7219"/><path d="M157.46,585l-.05.07Z" fill="#3c7219"/><path d="M294.54,524.25c-28.46,3.24-40.62,26.08-45.79,43.78A101.24,101.24,0,0,0,245,588a3.21,3.21,0,0,0,1.39,2.94,3,3,0,0,0,3.35-.27,5.63,5.63,0,0,0,1.44-1.44c1.11-1.57,2.28-3.07,3.48-4.48,32.19-38,93-21,111.94-14.42a2.08,2.08,0,0,0,2.4-3.14C359.85,553.81,332.65,519.9,294.54,524.25Z" fill="#208c68"/><path d="M248.75,568A101.24,101.24,0,0,0,245,588a3.21,3.21,0,0,0,1.39,2.94,3,3,0,0,0,3.35-.27,5.63,5.63,0,0,0,1.44-1.44c1.11-1.57,2.28-3.07,3.48-4.48,20.82-64.85,76.49-41.33,80.63-39.48C284.09,520.46,259.55,547,248.75,568Z" fill="#166d4d"/><path d="M160.9,524.08C225.21,539.36,244,577.49,244,577.49,222.35,532.71,160.9,524.08,160.9,524.08Z" fill="#03211b"/><path d="M168.68,515.15a.62.62,0,0,0-1,.61c.94,5.61,3.48,7,4.65,7.41a.63.63,0,0,0,.8-.48C173.36,521.47,173.24,518.57,168.68,515.15Z" fill="#03211b"/><path d="M175.81,517a.62.62,0,0,0-1,.52c.5,5.68,2.91,7.31,4.06,7.76a.62.62,0,0,0,.83-.42C180,523.67,180.09,520.77,175.81,517Z" fill="#03211b"/><path d="M182.83,520.49c-.39,5.07,1.49,6.86,2.43,7.44a.55.55,0,0,0,.79-.25c.46-1,1-3.55-2.23-7.5A.56.56,0,0,0,182.83,520.49Z" fill="#03211b"/><path d="M190.23,522.86c-1.39,4.9.1,7,.91,7.77a.55.55,0,0,0,.83-.09c.64-.89,1.66-3.28-.71-7.79A.56.56,0,0,0,190.23,522.86Z" fill="#03211b"/><path d="M197.37,525.82c-2,4.35-.93,6.54-.28,7.36a.53.53,0,0,0,.78,0c.73-.75,2-2.82.47-7.35A.52.52,0,0,0,197.37,525.82Z" fill="#03211b"/><path d="M206.06,527.88c-3.95,2.71-4.14,5.15-4,6.18a.52.52,0,0,0,.65.43c1-.26,3.18-1.38,4.16-6.07A.52.52,0,0,0,206.06,527.88Z" fill="#03211b"/><path d="M168.77,528.76c-1.16-.43-4-.84-8.23,3a.62.62,0,0,0,.42,1.08c5.7.08,7.57-2.15,8.14-3.25A.62.62,0,0,0,168.77,528.76Z" fill="#03211b"/><path d="M175.21,531.05c-1.18-.34-4.09-.52-8,3.67a.63.63,0,0,0,.5,1c5.7-.37,7.38-2.74,7.87-3.88A.63.63,0,0,0,175.21,531.05Z" fill="#03211b"/><path d="M181.92,532.88c-1.1-.12-3.69.15-6.47,4.42a.55.55,0,0,0,.59.84c5-1.17,6.1-3.51,6.36-4.58A.56.56,0,0,0,181.92,532.88Z" fill="#03211b"/><path d="M188.24,534.33c-1.1.09-3.59.87-5.47,5.6a.56.56,0,0,0,.75.72c4.63-2.13,5.28-4.65,5.32-5.75A.55.55,0,0,0,188.24,534.33Z" fill="#03211b"/><path d="M193.49,537.13c-1,.43-3.15,1.92-3.51,7a.56.56,0,0,0,.93.45c3.77-3.42,3.63-6,3.33-7.08A.55.55,0,0,0,193.49,537.13Z" fill="#03211b"/><path d="M199.91,539.69c-1,.52-2.95,2.21-2.84,7.3a.57.57,0,0,0,1,.37c3.42-3.77,3-6.35,2.64-7.38A.56.56,0,0,0,199.91,539.69Z" fill="#03211b"/><path d="M250.2,579.74s5.5-54,75.57-100.87C325.77,478.87,256.15,516.56,250.2,579.74Z" fill="#03211b"/><path d="M312.5,471.65c-3.93,6.12-2.78,9.64-2,11a.8.8,0,0,0,1.17.23c1.25-1,3.63-3.81,2.27-10.95A.8.8,0,0,0,312.5,471.65Z" fill="#03211b"/><path d="M304.8,477.05c-3.44,6.4-2,9.83-1.11,11.12a.79.79,0,0,0,1.18.13c1.17-1.05,3.32-4.07,1.4-11.08A.8.8,0,0,0,304.8,477.05Z" fill="#03211b"/><path d="M296.63,484.41c-2.08,6.15-.31,9,.67,10a.7.7,0,0,0,1.06-.06c.88-1.1,2.33-4.08-.41-10A.71.71,0,0,0,296.63,484.41Z" fill="#03211b"/><path d="M288.88,490.8c-.82,6.45,1.46,8.85,2.63,9.63a.71.71,0,0,0,1-.26c.63-1.26,1.47-4.46-2.38-9.7A.71.71,0,0,0,288.88,490.8Z" fill="#03211b"/><path d="M281.81,497.68c.16,6.11,2.63,8,3.83,8.58a.67.67,0,0,0,.92-.4c.41-1.26.72-4.36-3.61-8.67A.67.67,0,0,0,281.81,497.68Z" fill="#03211b"/><path d="M273.47,503.52a.67.67,0,0,0-.73,1c3.27,5.17,6.37,5.54,7.68,5.41a.67.67,0,0,0,.59-.81C280.72,507.84,279.4,505,273.47,503.52Z" fill="#03211b"/><path d="M329.64,487.93c-6.73-2.77-10-1-11.19,0a.8.8,0,0,0,0,1.19c1.17,1,4.4,2.89,11.19.26A.8.8,0,0,0,329.64,487.93Z" fill="#03211b"/><path d="M322.92,494.42c-6.49-3.3-9.88-1.78-11.15-.85a.79.79,0,0,0-.11,1.19c1.09,1.14,4.16,3.23,11.13,1.13A.79.79,0,0,0,322.92,494.42Z" fill="#03211b"/><path d="M314.27,501.15c-5.23-3.87-8.45-3-9.7-2.4a.71.71,0,0,0-.27,1c.78,1.16,3.18,3.46,9.63,2.65A.71.71,0,0,0,314.27,501.15Z" fill="#03211b"/><path d="M297.66,503.29a.72.72,0,0,0-.47,1c.54,1.3,2.44,4,8.92,4.5a.71.71,0,0,0,.58-1.19C302.33,502.74,299,502.92,297.66,503.29Z" fill="#03211b"/><path d="M292.62,509a.7.7,0,0,0-.73.77c.12,1.4,1.1,4.57,7.14,7a.71.71,0,0,0,.91-1C297.24,509.88,294,509,292.62,509Z" fill="#03211b"/><path d="M286.09,514.91a.7.7,0,0,0-.8.69c0,1.41.66,4.66,6.44,7.64a.71.71,0,0,0,1-.87C290.6,516.23,287.48,515.1,286.09,514.91Z" fill="#03211b"/><path d="M242.74,615.94c28.09-95.22-51.09-190.43-51.09-190.43C266.13,534.38,242.74,615.94,242.74,615.94Z" fill="#03211b"/><path d="M212.84,422.31c-6.14,9.58-4.32,15.09-3.07,17.21a1.23,1.23,0,0,0,1.82.35c1.95-1.5,5.68-5.95,3.52-17.12A1.24,1.24,0,0,0,212.84,422.31Z" fill="#03211b"/><path d="M220.93,434.45c-6.87,9.07-5.49,14.71-4.41,16.92a1.24,1.24,0,0,0,1.79.49c2.06-1.35,6.13-5.49,4.85-16.79A1.24,1.24,0,0,0,220.93,434.45Z" fill="#03211b"/><path d="M228.86,449.63c-7.39,7-7,12.14-6.39,14.25a1.1,1.1,0,0,0,1.5.7c2-.88,6.22-3.93,6.77-14.07A1.12,1.12,0,0,0,228.86,449.63Z" fill="#03211b"/><path d="M236.61,463.07c-8.62,5.36-9.28,10.51-9.08,12.7a1.11,1.11,0,0,0,1.34,1c2.15-.46,6.86-2.62,9.41-12.46A1.11,1.11,0,0,0,236.61,463.07Z" fill="#03211b"/><path d="M243.18,477c-8.8,3.74-10.15,8.42-10.28,10.49a1,1,0,0,0,1.1,1.11c2.07-.13,6.76-1.45,10.55-10.22A1,1,0,0,0,243.18,477Z" fill="#03211b"/><path d="M253.26,491.73c-9.47-1.29-13,2-14.21,3.75a1.06,1.06,0,0,0,.38,1.52c1.84.95,6.56,2.22,14.3-3.38A1,1,0,0,0,253.26,491.73Z" fill="#03211b"/><path d="M180.75,436.42a1.25,1.25,0,0,0-.84,2.16c8.33,7.78,14.08,7,16.4,6.13A1.23,1.23,0,0,0,197,443C195.85,440.79,192.14,436.31,180.75,436.42Z" fill="#03211b"/><path d="M186.75,449.75a1.25,1.25,0,0,0-.67,2.22c8.9,7.09,14.58,5.85,16.82,4.82a1.24,1.24,0,0,0,.54-1.78C202.14,452.91,198.09,448.74,186.75,449.75Z" fill="#03211b"/><path d="M195.4,464.55a1.12,1.12,0,0,0-.26,2.06c8.9,4.92,13.71,3,15.54,1.75a1.11,1.11,0,0,0,.2-1.65C209.43,465.06,205.24,462,195.4,464.55Z" fill="#03211b"/><path d="M218.27,477.33c-1.75-1.34-6.46-3.52-15.6.94a1.12,1.12,0,0,0,.15,2.07c9.7,3.07,14,.22,15.58-1.36A1.11,1.11,0,0,0,218.27,477.33Z" fill="#03211b"/><path d="M222.28,488.53c-2.08-.74-7.23-1.4-14.59,5.62a1.11,1.11,0,0,0,.77,1.92c10.17,0,13.44-4,14.44-6A1.12,1.12,0,0,0,222.28,488.53Z" fill="#03211b"/><path d="M228.32,500.92c-2.14-.54-7.33-.7-14,7a1.12,1.12,0,0,0,.95,1.84c10.12-1,13-5.29,13.8-7.34A1.12,1.12,0,0,0,228.32,500.92Z" fill="#03211b"/><rect x="218.42" y="575.57" width="59.97" height="88.1" rx="4.68" fill="#0e4959"/><path d="M273.71,575.57h-5.5c-.47,18-5.8,68.23-49.79,80.53V659a4.67,4.67,0,0,0,4.68,4.68h50.61a4.67,4.67,0,0,0,4.67-4.68V580.25A4.68,4.68,0,0,0,273.71,575.57Z" opacity="0.2"/><polygon points="603.24 73.02 553.51 196.82 484.53 196.82 533.28 73.02 603.24 73.02" fill="#fff" opacity="0.2"/><rect x="542.26" y="44.77" width="37.48" height="32.65" fill="#075445"/><rect x="542.26" y="77.42" width="37.48" height="4.26" fill="#075445"/><rect x="542.26" y="77.42" width="37.48" height="4.26" opacity="0.2"/><path d="M561,22.62h0A12.78,12.78,0,0,0,548.22,35.4v9.37h3.12V35.26a9.52,9.52,0,0,1,9.52-9.52h0a9.51,9.51,0,0,1,9.51,9.52v9.51h3.41V35.4A12.78,12.78,0,0,0,561,22.62Z" fill="#f36316"/><path d="M560.86,25.74h0a9.52,9.52,0,0,0-9.52,9.52v9.51h1.71V36.11a7.81,7.81,0,1,1,15.61,0v8.66h1.71V35.26A9.51,9.51,0,0,0,560.86,25.74Z" fill="#f36316"/><path d="M560.86,25.74h0a9.52,9.52,0,0,0-9.52,9.52v9.51h1.71V36.11a7.81,7.81,0,1,1,15.61,0v8.66h1.71V35.26A9.51,9.51,0,0,0,560.86,25.74Z" fill="#f36316"/><path d="M563.84,57.54a2.84,2.84,0,1,0-3.69,2.71v7h1.7v-7A2.84,2.84,0,0,0,563.84,57.54Z" fill="#f36316"/><rect x="573.78" y="49.31" width="3.12" height="22.71" rx="1.5" fill="#fff" opacity="0.2"/></svg>