<svg width="470" height="461" viewBox="0 0 470 461" fill="none" xmlns="http://www.w3.org/2000/svg">
<g clip-path="url(#clip0_896_3821)">
<path d="M40 276.93L48.65 271.33C48.65 271.33 52.85 249.02 49.73 229.33C45.35 201.55 26.47 192 19.61 194.74C12.75 197.48 11.13 205.74 23.52 221.74C30.83 231.2 40.23 251.19 40 276.93Z" fill="#126378"/>
<g opacity="0.3">
<path d="M40 276.93L48.65 271.33C48.65 271.33 52.85 249.02 49.73 229.33C45.35 201.55 26.47 192 19.61 194.74C12.75 197.48 11.13 205.74 23.52 221.74C30.83 231.2 40.23 251.19 40 276.93Z" fill="#62F0FE"/>
</g>
<path d="M43.15 265.92H43.06C42.8979 265.895 42.7519 265.808 42.653 265.678C42.554 265.547 42.5099 265.383 42.53 265.22C46.12 239.22 35.68 210.8 23.94 199.33C23.822 199.215 23.7546 199.057 23.7527 198.892C23.7509 198.727 23.8146 198.568 23.93 198.45C24.0453 198.332 24.2029 198.265 24.3679 198.263C24.5329 198.261 24.692 198.325 24.81 198.44C36.76 210.11 47.4 239 43.76 265.38C43.7407 265.528 43.6682 265.665 43.5561 265.764C43.444 265.864 43.2997 265.919 43.15 265.92Z" fill="#62F0FE"/>
<path d="M18.22 291C16.92 291.74 13.22 288.89 12.22 288.2C10.4637 287.003 9.04487 285.374 8.09999 283.47C7.04563 281.298 6.69602 278.851 7.09999 276.47C7.30801 275.215 7.60203 273.975 7.97999 272.76C8.32999 271.56 8.66999 270.36 8.97999 269.16C9.40061 267.999 9.57761 266.763 9.49999 265.53C9.18999 263.07 6.99999 261.35 5.01999 259.86C2.81999 258.22 0.53999 256.05 0.54999 253.09C0.707629 250.791 1.62587 248.61 3.15999 246.89C4.57999 245.09 6.25999 243.51 7.53999 241.61C8.54768 240.292 9.07353 238.669 9.02999 237.01C8.89222 235.996 8.55216 235.02 8.02999 234.14C7.02999 232.21 5.60999 230.44 4.88999 228.37C4.16999 226.3 4.26999 223.72 5.88999 222.24C7.20999 221.02 9.18999 220.85 10.98 220.97C12.6625 221.176 14.28 221.746 15.72 222.64C20.42 225.25 23.11 230.82 28.1 232.83C30.0667 233.45 32.0707 233.944 34.1 234.31C36.1 234.84 38.15 235.87 39.1 237.72C40.93 241.38 37.53 245.89 38.82 249.77C39.96 253.21 43.3 254.52 45.17 257.62C45.9343 258.988 46.2426 260.565 46.05 262.12C45.8868 264.748 45.2428 267.324 44.15 269.72C42.9162 272.206 41.5302 274.614 40 276.93L18.22 291Z" fill="#126378"/>
<g opacity="0.65">
<path d="M18.22 291C16.92 291.74 13.22 288.89 12.22 288.2C10.4637 287.003 9.04487 285.374 8.09999 283.47C7.04563 281.298 6.69602 278.851 7.09999 276.47C7.30801 275.215 7.60203 273.975 7.97999 272.76C8.32999 271.56 8.66999 270.36 8.97999 269.16C9.40061 267.999 9.57761 266.763 9.49999 265.53C9.18999 263.07 6.99999 261.35 5.01999 259.86C2.81999 258.22 0.53999 256.05 0.54999 253.09C0.707629 250.791 1.62587 248.61 3.15999 246.89C4.57999 245.09 6.25999 243.51 7.53999 241.61C8.54768 240.292 9.07353 238.669 9.02999 237.01C8.89222 235.996 8.55216 235.02 8.02999 234.14C7.02999 232.21 5.60999 230.44 4.88999 228.37C4.16999 226.3 4.26999 223.72 5.88999 222.24C7.20999 221.02 9.18999 220.85 10.98 220.97C12.6625 221.176 14.28 221.746 15.72 222.64C20.42 225.25 23.11 230.82 28.1 232.83C30.0667 233.45 32.0707 233.944 34.1 234.31C36.1 234.84 38.15 235.87 39.1 237.72C40.93 241.38 37.53 245.89 38.82 249.77C39.96 253.21 43.3 254.52 45.17 257.62C45.9343 258.988 46.2426 260.565 46.05 262.12C45.8868 264.748 45.2428 267.324 44.15 269.72C42.9162 272.206 41.5302 274.614 40 276.93L18.22 291Z" fill="#62F0FE"/>
</g>
<path d="M30.78 283.64C30.7029 283.637 30.6272 283.62 30.5571 283.587C30.487 283.555 30.4241 283.509 30.3719 283.453C30.3198 283.396 30.2795 283.329 30.2534 283.257C30.2273 283.184 30.216 283.107 30.22 283.03C31.22 259.79 20.22 234.12 12.22 226.67C12.1227 226.56 12.0697 226.418 12.0715 226.272C12.0732 226.125 12.1295 225.984 12.2294 225.877C12.3293 225.769 12.4657 225.703 12.6118 225.691C12.758 225.678 12.9035 225.721 13.02 225.81C21.14 233.42 32.32 259.51 31.34 283.08C31.3327 283.226 31.2714 283.364 31.1679 283.468C31.0644 283.571 30.9262 283.633 30.78 283.64Z" fill="#62F0FE"/>
<path d="M27 255.23H26.83C21.3356 253.709 15.6928 252.787 10 252.48C9.92294 252.477 9.84716 252.46 9.7771 252.427C9.70704 252.395 9.64409 252.349 9.59195 252.293C9.53981 252.236 9.49951 252.169 9.47342 252.097C9.44733 252.024 9.43597 251.947 9.44 251.87C9.44117 251.793 9.45813 251.716 9.48985 251.645C9.52156 251.575 9.56737 251.511 9.62446 251.459C9.68156 251.406 9.74874 251.366 9.82191 251.34C9.89508 251.315 9.97269 251.305 10.05 251.31C15.8564 251.612 21.6131 252.541 27.22 254.08C27.3667 254.13 27.4882 254.235 27.5591 254.373C27.6299 254.511 27.6446 254.671 27.6 254.82C27.5601 254.946 27.4793 255.054 27.3706 255.128C27.2619 255.203 27.1314 255.238 27 255.23Z" fill="#62F0FE"/>
<path d="M238.68 460.02C366.252 460.02 469.67 400.313 469.67 326.66C469.67 253.007 366.252 193.3 238.68 193.3C111.108 193.3 7.69 253.007 7.69 326.66C7.69 400.313 111.108 460.02 238.68 460.02Z" fill="#E1FEC9"/>
<path d="M115.92 269.81C164.85 241.57 244.17 241.57 293.09 269.81C334.56 293.75 340.86 330.3 312.03 358.09L419.68 419.45C426.24 423.24 426.24 429.38 419.68 433.17L410 438.76C403.44 442.55 393 442.25 386.64 438.1L292.64 372.36C243.64 400.36 164.72 400.25 115.96 372.1C67 343.85 67 298.06 115.92 269.81Z" fill="#E6E6E6"/>
<path d="M135.75 21.5L127.27 26.4C127.313 26.0282 127.336 25.6543 127.34 25.28V22.82C127.34 18.44 124.27 16.67 120.48 18.82C118.847 19.8166 117.451 21.1579 116.39 22.75C115.76 17.25 111.45 15.2 106.2 18.22C100.53 21.5 95.94 29.46 95.94 36.01V39.68C95.9006 41.1511 96.1982 42.6116 96.81 43.95L89.81 48.02C88.6945 48.7436 87.7672 49.7222 87.1047 50.8751C86.4422 52.0279 86.0635 53.3219 86 54.65C86 57.08 87.7 58.06 89.81 56.85L135.81 30.29C136.92 29.5703 137.844 28.598 138.506 27.4526C139.169 26.3072 139.55 25.0212 139.62 23.7C139.56 21.27 137.86 20.29 135.75 21.5Z" fill="#EBEBEB"/>
<path d="M23.9 43.56L28.68 39.87V29.33C28.68 20.97 35.35 11.27 42.58 7.1C49.82 2.92 55.69 6.31 55.69 14.66V16.19C57.216 13.7179 59.2979 11.636 61.77 10.11C66.98 7.11 71.2 9.54 71.2 15.55V16.25L77.87 12.4C81.3 10.4 84.08 12.02 84.08 15.98C83.9636 18.1354 83.3406 20.233 82.2616 22.1026C81.1826 23.9721 79.6781 25.5609 77.87 26.74L23.9 57.9C20.47 59.9 17.69 58.27 17.69 54.31C17.8064 52.1559 18.4294 50.0597 19.5085 48.1918C20.5875 46.3239 22.0922 44.7369 23.9 43.56Z" fill="#EBEBEB"/>
<path d="M94.83 288.19V318.62C94.83 335.14 105.75 351.62 127.58 364.27C171.24 389.48 242.04 389.48 285.7 364.27C307.53 351.66 318.45 335.14 318.45 318.62V288.19C318.45 271.67 307.53 255.19 285.7 242.55C242.04 217.34 171.24 217.34 127.58 242.55C105.75 255.15 94.83 271.67 94.83 288.19ZM307.63 288.19C307.63 301.41 297.92 314.29 280.29 324.47C260.79 335.73 234.64 341.93 206.64 341.93C178.64 341.93 152.49 335.73 132.99 324.47C115.36 314.29 105.65 301.41 105.65 288.19C105.65 274.97 115.36 262.09 132.99 251.91C152.49 240.65 178.64 234.45 206.64 234.45C234.64 234.45 260.8 240.65 280.29 251.91C297.93 262.09 307.63 275 307.63 288.19Z" fill="#126378"/>
<path opacity="0.2" d="M94.83 288.19V318.62C94.83 335.14 105.75 351.62 127.58 364.27C171.24 389.48 242.04 389.48 285.7 364.27C307.53 351.66 318.45 335.14 318.45 318.62V288.19C318.45 271.67 307.53 255.19 285.7 242.55C242.04 217.34 171.24 217.34 127.58 242.55C105.75 255.15 94.83 271.67 94.83 288.19ZM307.63 288.19C307.63 301.41 297.92 314.29 280.29 324.47C260.79 335.73 234.64 341.93 206.64 341.93C178.64 341.93 152.49 335.73 132.99 324.47C115.36 314.29 105.65 301.41 105.65 288.19C105.65 274.97 115.36 262.09 132.99 251.91C152.49 240.65 178.64 234.45 206.64 234.45C234.64 234.45 260.8 240.65 280.29 251.91C297.93 262.09 307.63 275 307.63 288.19Z" fill="#62F0FE"/>
<path opacity="0.6" d="M318.34 321.46C316.6 331.93 311.99 339.81 293.42 354.3C267.17 374.8 200.7 383.17 162.12 370.44C125.73 358.44 114.12 334.95 114.12 318.84L114.22 309.37C108.6 302.68 105.64 295.49 105.64 288.19C105.64 280.71 108.75 273.34 114.64 266.51L114.77 253.17H112.7C100.79 263.8 94.83 275.99 94.83 288.17V318.6C94.83 335.12 105.75 351.6 127.58 364.25C171.24 389.46 242.04 389.46 285.7 364.25C306.28 352.39 317.16 337 318.34 321.46Z" fill="#126378"/>
<path d="M285.71 242.55C242.04 217.34 171.25 217.34 127.59 242.55C83.93 267.76 83.92 308.63 127.59 333.84C171.26 359.05 242.04 359.05 285.71 333.84C329.38 308.63 329.37 267.76 285.71 242.55ZM280.3 324.47C260.8 335.73 234.64 341.93 206.65 341.93C178.66 341.93 152.5 335.73 132.99 324.47C115.36 314.29 105.65 301.41 105.65 288.19C105.65 274.97 115.36 262.09 132.99 251.91C152.49 240.65 178.65 234.45 206.65 234.45C234.65 234.45 260.8 240.65 280.3 251.91C297.93 262.09 307.64 274.98 307.64 288.19C307.64 301.4 297.93 314.29 280.3 324.47Z" fill="#126378"/>
<path opacity="0.5" d="M285.71 242.55C242.04 217.34 171.25 217.34 127.59 242.55C83.93 267.76 83.92 308.63 127.59 333.84C171.26 359.05 242.04 359.05 285.71 333.84C329.38 308.63 329.37 267.76 285.71 242.55ZM280.3 324.47C260.8 335.73 234.64 341.93 206.65 341.93C178.66 341.93 152.5 335.73 132.99 324.47C115.36 314.29 105.65 301.41 105.65 288.19C105.65 274.97 115.36 262.09 132.99 251.91C152.49 240.65 178.65 234.45 206.65 234.45C234.65 234.45 260.8 240.65 280.3 251.91C297.93 262.09 307.64 274.98 307.64 288.19C307.64 301.4 297.93 314.29 280.3 324.47Z" fill="#62F0FE"/>
<path d="M307.65 288.19C307.586 293.564 306.076 298.821 303.28 303.41C298.85 295.74 291.04 288.54 280.28 282.35C260.8 271.08 234.63 264.88 206.63 264.88C178.63 264.88 152.48 271.08 132.99 282.35C122.24 288.54 114.44 295.74 109.99 303.41C107.216 298.813 105.718 293.559 105.65 288.19C105.65 274.98 115.36 262.09 133 251.9C152.49 240.66 178.65 234.45 206.64 234.45C234.63 234.45 260.81 240.66 280.29 251.9C297.94 262.09 307.65 275 307.65 288.19Z" fill="#126378"/>
<path opacity="0.3" d="M307.65 288.19C307.586 293.564 306.076 298.821 303.28 303.41C298.85 295.74 291.04 288.54 280.28 282.35C260.8 271.08 234.63 264.88 206.63 264.88C178.63 264.88 152.48 271.08 132.99 282.35C122.24 288.54 114.44 295.74 109.99 303.41C107.216 298.813 105.718 293.559 105.65 288.19C105.65 274.98 115.36 262.09 133 251.9C152.49 240.66 178.65 234.45 206.64 234.45C234.63 234.45 260.81 240.66 280.29 251.9C297.94 262.09 307.65 275 307.65 288.19Z" fill="#62F0FE"/>
<path opacity="0.6" d="M133 251.9C115.36 262.09 105.65 274.98 105.65 288.19C105.721 293.56 107.223 298.814 110 303.41C114.46 295.74 122.26 288.54 133 282.35C137.542 279.752 142.26 277.477 147.12 275.54C142.86 277.19 129.78 281.4 134.55 268.93C140.22 254.12 167.89 238.08 188.22 235.42C167.31 237.49 148.14 243.17 133 251.9Z" fill="#126378"/>
<path opacity="0.4" d="M280.3 265.69C260.8 254.43 234.64 248.23 206.65 248.23C178.66 248.23 152.49 254.43 132.99 265.69C118.45 274.09 109.31 284.33 106.55 295.08C109.31 305.83 118.45 316.08 132.99 324.47C152.5 335.73 178.65 341.93 206.65 341.93C234.65 341.93 260.8 335.73 280.3 324.47C294.85 316.07 303.99 305.83 306.74 295.08C304 284.33 294.85 274.09 280.3 265.69Z" fill="#62F0FE"/>
<path d="M125.52 302.06C131.77 306.96 138.86 310.06 146.09 312.52C153.34 314.921 160.766 316.753 168.3 318C183.355 320.445 198.624 321.316 213.86 320.6C221.47 320.26 229.09 319.55 236.66 318.53C244.206 317.516 251.683 316.044 259.05 314.12C266.381 312.286 273.473 309.601 280.18 306.12C281.836 305.238 283.439 304.26 284.98 303.19C286.528 302.134 287.995 300.964 289.37 299.69C290.757 298.41 291.994 296.977 293.06 295.42C294.163 293.82 295.003 292.055 295.55 290.19C295.583 292.234 295.244 294.267 294.55 296.19C293.816 298.123 292.856 299.962 291.69 301.67C290.537 303.39 289.225 304.997 287.77 306.47C286.33 307.949 284.796 309.335 283.18 310.62C276.663 315.587 269.44 319.551 261.75 322.38C254.168 325.237 246.347 327.415 238.38 328.89C230.455 330.39 222.436 331.342 214.38 331.74C198.21 332.585 182.009 330.86 166.38 326.63C158.562 324.488 151.01 321.468 143.87 317.63C140.314 315.681 136.935 313.425 133.77 310.89C132.98 310.26 132.24 309.57 131.48 308.89C130.72 308.21 130 307.52 129.31 306.79C127.917 305.322 126.649 303.739 125.52 302.06Z" fill="#62F0FE"/>
<path d="M282.38 353.21C282.514 350.491 283.289 347.841 284.641 345.478C285.993 343.115 287.884 341.104 290.16 339.61C292.3 338.36 294.25 338.23 295.67 339.03L320.59 353.28C322 354.09 322.88 355.84 322.89 358.28C322.753 360.999 321.977 363.647 320.626 366.01C319.274 368.373 317.384 370.384 315.11 371.88C312.95 373.14 310.99 373.27 309.57 372.45L284.66 358.21C283.28 357.47 282.39 355.72 282.38 353.21Z" fill="#37474F"/>
<path d="M284.71 358.28C283.28 357.47 282.39 355.72 282.38 353.21C282.416 351.186 282.868 349.191 283.71 347.35L319.52 367.87C318.355 369.508 316.872 370.896 315.16 371.95C313 373.21 311.04 373.34 309.62 372.52L284.71 358.28Z" fill="#263238"/>
<path d="M405.44 393.81L326.14 353.4L326.04 353.34C324.2 352.34 321.7 352.52 318.95 354.12C313.33 357.4 308.8 365.32 308.83 371.82C308.83 375.08 310 377.36 311.83 378.42L386.36 426.42C388.504 427.777 390.9 428.689 393.405 429.1C395.909 429.512 398.47 429.414 400.936 428.814C403.402 428.214 405.722 427.124 407.757 425.608C409.793 424.092 411.502 422.182 412.783 419.991C414.064 417.8 414.891 415.374 415.214 412.857C415.537 410.339 415.35 407.783 414.664 405.34C413.978 402.896 412.807 400.616 411.22 398.635C409.634 396.654 407.664 395.013 405.43 393.81H405.44Z" fill="#455A64"/>
<path d="M311.84 378.44L386.37 426.44C389.141 428.179 392.316 429.169 395.584 429.312C398.853 429.454 402.102 428.745 405.014 427.254C407.926 425.763 410.4 423.541 412.195 420.805C413.989 418.07 415.042 414.915 415.25 411.65C413.82 417.86 403.56 423.14 390.84 416.03C378.12 408.92 331 379.13 309.59 366.8C309.087 368.42 308.825 370.104 308.81 371.8C308.82 375.1 310 377.38 311.84 378.44Z" fill="#37474F"/>
<path d="M311.84 378.44C309.98 377.38 308.84 375.1 308.84 371.84C308.84 365.34 313.34 357.42 318.96 354.14C321.71 352.54 324.21 352.37 326.05 353.36L333.05 356.92C331.16 355.92 328.61 356.08 325.78 357.72C320.02 361.08 315.37 369.21 315.4 375.88C315.4 379.22 316.55 381.61 318.45 382.69" fill="#126378"/>
<path opacity="0.2" d="M318.44 382.69C316.54 381.61 315.44 379.22 315.39 375.88C315.401 374.113 315.674 372.357 316.2 370.67C313.81 369.25 311.58 367.95 309.59 366.8C309.338 367.636 309.141 368.488 309 369.35C308.94 369.77 308.89 370.19 308.85 370.61C308.85 371.03 308.8 371.44 308.85 371.84C308.85 375.1 310.02 377.38 311.85 378.44L318.44 382.69Z" fill="#010F14"/>
<path d="M122.21 424.76L62.21 394.75L38.31 405.33L122.21 424.76Z" fill="#126378"/>
<g opacity="0.15">
<path d="M122.21 424.76L62.21 394.75L38.31 405.33L122.21 424.76Z" fill="#62F0FE"/>
</g>
<path d="M122.21 424.76L69.36 389.43L78.82 375.83L122.21 424.76Z" fill="#126378"/>
<g opacity="0.15">
<path d="M122.21 424.76L69.36 389.43L78.82 375.83L122.21 424.76Z" fill="#62F0FE"/>
</g>
<path d="M69.36 389.43L70.35 398.82L122.21 424.76L69.36 389.43Z" fill="#126378"/>
<g opacity="0.2">
<path d="M69.36 389.43L70.35 398.82L122.21 424.76L69.36 389.43Z" fill="#010F14"/>
</g>
<path d="M60.8 387.63C60.9453 387.627 61.0841 387.57 61.19 387.47C61.3124 387.349 61.3862 387.188 61.3973 387.016C61.4083 386.845 61.3559 386.675 61.25 386.54L60.1 385C60.0534 384.935 59.9934 384.881 59.9241 384.841C59.8548 384.801 59.7778 384.777 59.6982 384.769C59.6186 384.762 59.5383 384.771 59.4628 384.797C59.3872 384.823 59.318 384.865 59.26 384.92C59.138 385.04 59.0638 385.201 59.0509 385.372C59.038 385.543 59.0874 385.713 59.19 385.85C59.57 386.36 59.96 386.85 60.35 387.36C60.3991 387.437 60.4653 387.501 60.5433 387.548C60.6214 387.595 60.7093 387.623 60.8 387.63Z" fill="#455A64"/>
<path d="M55.53 380.81C54.8167 379.77 54.1267 378.72 53.46 377.66C53.3698 377.514 53.3353 377.341 53.3629 377.172C53.3904 377.003 53.4782 376.849 53.61 376.74C53.6722 376.691 53.7444 376.655 53.8215 376.637C53.8986 376.618 53.9789 376.616 54.0568 376.631C54.1347 376.647 54.2084 376.678 54.2728 376.725C54.3373 376.771 54.3909 376.831 54.43 376.9C55.1 377.95 55.78 378.99 56.43 380.02C56.5279 380.161 56.5699 380.333 56.5477 380.503C56.5255 380.673 56.4408 380.829 56.31 380.94C56.213 381.024 56.0886 381.071 55.96 381.07C55.8736 381.061 55.7903 381.033 55.7159 380.988C55.6416 380.943 55.5781 380.882 55.53 380.81ZM50.24 372.22C49.63 371.11 49.03 369.98 48.46 368.85C48.3817 368.698 48.3618 368.522 48.4042 368.356C48.4466 368.191 48.5483 368.046 48.69 367.95C48.7588 367.908 48.836 367.881 48.9162 367.871C48.9965 367.861 49.0779 367.869 49.1548 367.894C49.2318 367.918 49.3025 367.959 49.3621 368.014C49.4217 368.069 49.4687 368.135 49.5 368.21C50.06 369.32 50.65 370.43 51.25 371.53C51.3352 371.679 51.3629 371.853 51.3279 372.021C51.2929 372.189 51.1975 372.338 51.06 372.44C50.9666 372.497 50.8595 372.528 50.75 372.53C50.6451 372.528 50.5426 372.499 50.4529 372.444C50.3633 372.39 50.2898 372.312 50.24 372.22ZM45.78 363.06C45.28 361.87 44.78 360.67 44.36 359.48C44.2986 359.322 44.2973 359.148 44.3563 358.989C44.4153 358.831 44.5305 358.699 44.68 358.62C44.7545 358.588 44.8347 358.573 44.9156 358.574C44.9965 358.575 45.0763 358.593 45.1497 358.627C45.2232 358.661 45.2887 358.71 45.3422 358.771C45.3956 358.832 45.4357 358.903 45.46 358.98C45.89 360.15 46.36 361.33 46.86 362.5C46.9272 362.657 46.9348 362.833 46.8814 362.995C46.828 363.157 46.7173 363.294 46.57 363.38C46.4923 363.419 46.4068 363.439 46.32 363.44C46.2027 363.436 46.089 363.399 45.993 363.331C45.897 363.263 45.823 363.169 45.78 363.06ZM42.32 353.38C41.96 352.13 41.62 350.86 41.32 349.63C41.2722 349.467 41.2893 349.292 41.3675 349.141C41.4457 348.99 41.5792 348.875 41.74 348.82C41.8183 348.799 41.8999 348.795 41.9799 348.807C42.0599 348.82 42.1365 348.848 42.205 348.891C42.2734 348.934 42.3323 348.991 42.3779 349.058C42.4235 349.125 42.4548 349.201 42.47 349.28C42.76 350.5 43.09 351.74 43.47 352.97C43.5209 353.131 43.5102 353.305 43.44 353.458C43.3697 353.612 43.245 353.733 43.09 353.8H42.91C42.7797 353.802 42.6521 353.763 42.5459 353.687C42.4398 353.611 42.3606 353.504 42.32 353.38ZM40 343.27C39.8 342 39.62 340.7 39.47 339.41C39.4407 339.244 39.4778 339.074 39.5733 338.935C39.6687 338.797 39.8148 338.702 39.98 338.67C40.144 338.659 40.3058 338.712 40.431 338.819C40.5561 338.925 40.6347 339.076 40.65 339.24C40.79 340.51 40.97 341.79 41.17 343.04C41.2037 343.203 41.1737 343.372 41.0863 343.514C40.9989 343.655 40.8607 343.757 40.7 343.8H40.59C40.4458 343.793 40.3085 343.736 40.2011 343.639C40.0937 343.543 40.0227 343.413 40 343.27ZM39 332.91C39 331.91 38.94 330.91 38.94 329.84V329C38.936 328.919 38.948 328.837 38.9755 328.76C39.003 328.684 39.0454 328.613 39.1002 328.553C39.155 328.492 39.2211 328.443 39.2949 328.408C39.3687 328.374 39.4485 328.354 39.53 328.35C39.6954 328.363 39.8491 328.44 39.9577 328.566C40.0663 328.691 40.121 328.854 40.11 329.02V329.84C40.11 330.84 40.11 331.84 40.11 332.84C40.124 333.007 40.0722 333.172 39.9657 333.301C39.8591 333.43 39.7063 333.512 39.54 333.53C39.3898 333.51 39.2519 333.437 39.1524 333.322C39.053 333.208 38.9987 333.061 39 332.91ZM39.79 323.22C39.6263 323.191 39.4801 323.1 39.3816 322.966C39.283 322.832 39.2395 322.665 39.26 322.5C39.37 321.21 39.51 319.9 39.67 318.61C39.6761 318.528 39.6988 318.449 39.7368 318.376C39.7748 318.303 39.8273 318.239 39.891 318.188C39.9547 318.136 40.0283 318.098 40.1073 318.076C40.1862 318.054 40.2688 318.049 40.35 318.06C40.5133 318.094 40.657 318.19 40.7504 318.328C40.8438 318.467 40.8795 318.636 40.85 318.8C40.69 320.07 40.55 321.36 40.44 322.62C40.4329 322.775 40.3688 322.922 40.2599 323.033C40.151 323.144 40.005 323.21 39.85 323.22H39.79ZM41.19 313C41.0299 312.949 40.8952 312.839 40.8135 312.692C40.7317 312.545 40.709 312.373 40.75 312.21C41.01 310.94 41.31 309.67 41.64 308.42C41.655 308.341 41.6863 308.265 41.732 308.199C41.7778 308.132 41.8369 308.076 41.9056 308.034C41.9743 307.991 42.0511 307.964 42.1311 307.953C42.211 307.942 42.2924 307.948 42.37 307.97C42.5283 308.031 42.6581 308.149 42.734 308.301C42.8098 308.452 42.8262 308.627 42.78 308.79C42.46 310.01 42.16 311.27 41.9 312.51C41.8792 312.648 41.8108 312.774 41.7068 312.868C41.6028 312.961 41.4695 313.015 41.33 313.02L41.19 313ZM43.89 303.11C43.7379 303.036 43.6193 302.907 43.5581 302.75C43.4969 302.592 43.4976 302.417 43.56 302.26C43.99 301.06 44.47 299.85 44.97 298.67C44.9983 298.595 45.0417 298.527 45.0976 298.47C45.1536 298.412 45.2207 298.367 45.2949 298.337C45.3692 298.307 45.4488 298.293 45.5288 298.295C45.6089 298.297 45.6876 298.316 45.76 298.35C45.9057 298.438 46.0151 298.575 46.0683 298.736C46.1216 298.898 46.115 299.073 46.05 299.23C45.55 300.39 45.05 301.57 44.66 302.75C44.6225 302.867 44.5493 302.97 44.4507 303.043C44.3521 303.117 44.233 303.158 44.11 303.16C44.0336 303.163 43.9577 303.145 43.89 303.11ZM48 293.82C47.8591 293.721 47.7598 293.573 47.7211 293.405C47.6823 293.237 47.7069 293.061 47.79 292.91C48.4 291.8 49.04 290.69 49.69 289.62C49.7284 289.549 49.7817 289.487 49.8462 289.439C49.9107 289.39 49.9849 289.357 50.0637 289.34C50.1425 289.322 50.2241 289.323 50.3028 289.34C50.3816 289.357 50.4557 289.391 50.52 289.44C50.6516 289.549 50.7401 289.702 50.7694 289.871C50.7987 290.039 50.767 290.213 50.68 290.36C50.03 291.41 49.4 292.5 48.81 293.59C48.7624 293.685 48.6897 293.765 48.5998 293.821C48.5098 293.878 48.4062 293.908 48.3 293.91C48.1934 293.91 48.0892 293.878 48 293.82ZM53.31 285.33C53.1888 285.211 53.1149 285.052 53.102 284.883C53.0891 284.714 53.1381 284.546 53.24 284.41C53.99 283.41 54.78 282.41 55.57 281.47C55.6216 281.409 55.686 281.36 55.7585 281.326C55.831 281.293 55.91 281.275 55.99 281.275C56.07 281.275 56.149 281.293 56.2215 281.326C56.294 281.36 56.3584 281.409 56.41 281.47C56.5239 281.598 56.5868 281.764 56.5868 281.935C56.5868 282.106 56.5239 282.272 56.41 282.4C55.63 283.33 54.86 284.29 54.12 285.28C54.0678 285.354 53.9989 285.414 53.9189 285.455C53.8389 285.497 53.7502 285.519 53.66 285.52C53.5837 285.518 53.5086 285.501 53.4396 285.468C53.3707 285.435 53.3095 285.388 53.26 285.33H53.31ZM59.74 277.85C59.6261 277.722 59.5632 277.556 59.5632 277.385C59.5632 277.214 59.6261 277.048 59.74 276.92C60.62 276.05 61.53 275.2 62.44 274.4C62.5 274.347 62.5708 274.307 62.6477 274.283C62.7245 274.259 62.8055 274.253 62.8851 274.263C62.9648 274.273 63.0414 274.301 63.1095 274.343C63.1776 274.386 63.2358 274.443 63.28 274.51C63.3768 274.652 63.4199 274.823 63.4016 274.993C63.3833 275.164 63.3047 275.322 63.18 275.44C62.28 276.22 61.39 277.05 60.52 277.9C60.4174 278.006 60.2773 278.067 60.13 278.07C60.0449 278.069 59.9612 278.048 59.885 278.01C59.8089 277.972 59.7423 277.917 59.69 277.85H59.74ZM67.1 271.52C67.0179 271.371 66.991 271.199 67.0239 271.032C67.0569 270.866 67.1476 270.716 67.28 270.61C68.28 269.89 69.28 269.22 70.28 268.61C70.3485 268.569 70.4248 268.544 70.5039 268.535C70.583 268.526 70.6631 268.534 70.7388 268.559C70.8145 268.584 70.8841 268.624 70.9429 268.678C71.0018 268.731 71.0485 268.797 71.08 268.87C71.1577 269.021 71.1772 269.195 71.1348 269.359C71.0924 269.523 70.991 269.666 70.85 269.76C69.85 270.36 68.85 271.02 67.85 271.76C67.7563 271.826 67.6445 271.861 67.53 271.86C67.4278 271.848 67.3302 271.811 67.2463 271.752C67.1624 271.692 67.0949 271.613 67.05 271.52H67.1Z" fill="#455A64"/>
<path d="M75.9 267.2H76.08C76.6082 267 77.1539 266.849 77.71 266.75C77.8741 266.714 78.0179 266.616 78.1111 266.476C78.2043 266.336 78.2398 266.165 78.21 266C78.2037 265.919 78.1813 265.84 78.1441 265.767C78.1068 265.695 78.0554 265.631 77.993 265.579C77.9306 265.527 77.8583 265.487 77.7805 265.464C77.7027 265.44 77.6209 265.432 77.54 265.44C76.9205 265.556 76.3117 265.723 75.72 265.94C75.5616 266.003 75.4332 266.124 75.3607 266.278C75.2883 266.432 75.2773 266.608 75.33 266.77C75.3678 266.892 75.4432 267 75.5455 267.077C75.6478 267.154 75.7719 267.197 75.9 267.2Z" fill="#455A64"/>
<path d="M356.7 37.15L295.2 18.3L342.58 50.85L356.7 37.15Z" fill="#126378"/>
<path opacity="0.15" d="M356.7 37.15L295.2 18.3L342.58 50.85L356.7 37.15Z" fill="#62F0FE"/>
<path d="M295.2 18.3L361.39 28.95L375.51 15.25L295.2 18.3Z" fill="#126378"/>
<path opacity="0.15" d="M295.2 18.3L361.39 28.95L375.51 15.25L295.2 18.3Z" fill="#62F0FE"/>
<path d="M361.39 28.95L361.45 45.31L356.7 37.15L295.2 18.3L361.39 28.95Z" fill="#126378"/>
<path opacity="0.2" d="M361.39 28.95L361.45 45.31L356.7 37.15L295.2 18.3L361.39 28.95Z" fill="#010F14"/>
<path d="M361.45 45.31L351.99 41.72L356.7 37.15L361.45 45.31Z" fill="#126378"/>
<path opacity="0.2" d="M356.7 37.15L351.99 41.72L353.5 42.29L356.7 37.15Z" fill="#010F14"/>
<path d="M373.86 34.27C373.802 34.3127 373.754 34.3666 373.718 34.4285C373.682 34.4904 373.659 34.5589 373.65 34.63C373.629 34.8007 373.67 34.9732 373.766 35.1162C373.861 35.2593 374.004 35.3635 374.17 35.41L375.99 35.9C376.066 35.924 376.147 35.9311 376.226 35.9207C376.306 35.9103 376.382 35.8828 376.45 35.8399C376.517 35.7971 376.575 35.74 376.618 35.6726C376.661 35.6053 376.689 35.5293 376.7 35.45C376.724 35.2817 376.687 35.1103 376.595 34.9672C376.503 34.8241 376.363 34.7186 376.2 34.67L374.36 34.18C374.275 34.1553 374.186 34.1506 374.099 34.1662C374.013 34.1818 373.931 34.2174 373.86 34.27Z" fill="#455A64"/>
<path d="M382.19 36.5C383.38 36.9 384.57 37.32 385.74 37.75C385.9 37.8107 386.034 37.9267 386.116 38.077C386.199 38.2273 386.225 38.4021 386.19 38.57C386.169 38.6474 386.132 38.7194 386.081 38.7812C386.03 38.843 385.966 38.8931 385.894 38.9282C385.822 38.9633 385.744 38.9825 385.663 38.9845C385.583 38.9865 385.504 38.9714 385.43 38.94C384.27 38.51 383.09 38.1 381.91 37.7C381.749 37.6451 381.614 37.5337 381.529 37.3865C381.445 37.2394 381.417 37.0665 381.45 36.9C381.473 36.7717 381.545 36.6572 381.65 36.58C381.726 36.5226 381.815 36.4851 381.91 36.4712C382.004 36.4572 382.1 36.4671 382.19 36.5ZM391.6 40.12C392.77 40.64 393.92 41.12 395.06 41.73C395.214 41.8022 395.337 41.929 395.403 42.0859C395.47 42.2429 395.476 42.4189 395.42 42.58C395.39 42.6546 395.345 42.7221 395.287 42.778C395.229 42.8338 395.161 42.8769 395.085 42.9043C395.009 42.9317 394.929 42.9428 394.849 42.9369C394.769 42.931 394.691 42.9082 394.62 42.87C393.5 42.32 392.36 41.79 391.21 41.29C391.055 41.2198 390.931 41.0965 390.859 40.9423C390.788 40.7882 390.774 40.6135 390.82 40.45C390.853 40.3421 390.92 40.2475 391.01 40.18C391.094 40.1178 391.193 40.0795 391.297 40.0689C391.401 40.0583 391.505 40.076 391.6 40.12ZM400.7 44.71C401.82 45.35 402.92 46.02 404 46.71C404.144 46.7993 404.25 46.9376 404.3 47.0994C404.35 47.2612 404.339 47.4355 404.27 47.59C404.23 47.6608 404.176 47.7224 404.111 47.771C404.046 47.8195 403.971 47.8538 403.892 47.8717C403.813 47.8896 403.731 47.8907 403.651 47.8749C403.572 47.8591 403.496 47.8268 403.43 47.78C402.37 47.11 401.28 46.46 400.18 45.78C400.032 45.6973 399.919 45.5628 399.864 45.4023C399.808 45.2418 399.814 45.0665 399.88 44.91C399.913 44.8267 399.968 44.754 400.04 44.7C400.139 44.637 400.254 44.6043 400.371 44.6061C400.489 44.6079 400.603 44.644 400.7 44.71ZM409.32 50.32C410.37 51.09 411.4 51.89 412.39 52.69C412.524 52.7933 412.614 52.9436 412.642 53.1105C412.67 53.2775 412.633 53.4488 412.54 53.59C412.491 53.6547 412.428 53.7084 412.357 53.7475C412.286 53.7865 412.207 53.8101 412.126 53.8167C412.044 53.8233 411.963 53.8128 411.886 53.7858C411.809 53.7588 411.739 53.7159 411.68 53.66C410.68 52.87 409.68 52.09 408.68 51.33C408.54 51.2325 408.441 51.0858 408.404 50.9191C408.367 50.7523 408.394 50.5777 408.48 50.43C408.509 50.3776 408.55 50.333 408.6 50.3C408.707 50.2279 408.834 50.1911 408.963 50.1947C409.092 50.1983 409.217 50.2421 409.32 50.32ZM417.27 57C418.21 57.89 419.14 58.81 420.04 59.75C420.156 59.871 420.221 60.0323 420.221 60.2C420.221 60.3677 420.156 60.529 420.04 60.65C419.982 60.7081 419.914 60.7541 419.838 60.7856C419.763 60.817 419.682 60.8332 419.6 60.8332C419.518 60.8332 419.437 60.817 419.362 60.7856C419.286 60.7541 419.218 60.7081 419.16 60.65C418.28 59.73 417.36 58.82 416.44 57.95C416.315 57.8383 416.237 57.683 416.222 57.5158C416.207 57.3486 416.256 57.1821 416.36 57.05L416.44 56.97C416.558 56.8714 416.707 56.8199 416.861 56.8255C417.014 56.831 417.16 56.8932 417.27 57ZM424.36 64.62C425.01 65.41 425.64 66.21 426.27 67.03L426.77 67.7C426.875 67.8278 426.925 67.9918 426.91 68.1564C426.895 68.321 426.816 68.4731 426.69 68.58C426.622 68.6269 426.545 68.6597 426.464 68.6765C426.384 68.6933 426.3 68.6938 426.219 68.678C426.138 68.6622 426.061 68.6303 425.993 68.5843C425.924 68.5383 425.865 68.479 425.82 68.41L425.32 67.75C424.71 66.95 424.09 66.16 423.45 65.38C423.335 65.2606 423.27 65.1011 423.27 64.935C423.27 64.7689 423.335 64.6094 423.45 64.49C423.514 64.4326 423.589 64.3892 423.671 64.3624C423.753 64.3357 423.839 64.3263 423.925 64.3347C424.01 64.3432 424.093 64.3694 424.168 64.4116C424.243 64.4538 424.308 64.5112 424.36 64.58V64.62ZM429.61 72.82C429.757 72.7426 429.928 72.7243 430.088 72.769C430.248 72.8136 430.384 72.9177 430.47 73.06C431.16 74.16 431.84 75.28 432.47 76.41C432.514 76.4787 432.543 76.5553 432.557 76.6356C432.57 76.7158 432.568 76.7979 432.549 76.8771C432.53 76.9563 432.496 77.031 432.448 77.0968C432.4 77.1625 432.34 77.218 432.27 77.26C432.118 77.3278 431.946 77.3357 431.788 77.2819C431.63 77.2281 431.499 77.1167 431.42 76.97C430.78 75.86 430.11 74.75 429.42 73.68C429.331 73.5529 429.293 73.3973 429.314 73.2436C429.334 73.09 429.411 72.9496 429.53 72.85L429.61 72.82ZM434.68 81.82C434.84 81.7625 435.015 81.7677 435.171 81.8346C435.327 81.9014 435.452 82.0248 435.52 82.18C436.07 83.35 436.61 84.54 437.1 85.73C437.135 85.8033 437.154 85.8828 437.157 85.9638C437.16 86.0448 437.147 86.1255 437.118 86.2012C437.089 86.2769 437.045 86.346 436.989 86.4042C436.932 86.4624 436.865 86.5086 436.79 86.54C436.627 86.5862 436.452 86.5698 436.3 86.494C436.149 86.4181 436.031 86.2883 435.97 86.13C435.49 84.96 434.97 83.79 434.42 82.65C434.351 82.526 434.328 82.3817 434.356 82.2425C434.383 82.1034 434.459 81.9785 434.57 81.89C434.596 81.8358 434.634 81.788 434.68 81.75V81.82ZM438.53 91.32C438.696 91.2885 438.869 91.3202 439.013 91.409C439.157 91.4978 439.263 91.6372 439.31 91.8C439.69 93.02 440.05 94.27 440.36 95.51C440.384 95.5869 440.391 95.668 440.382 95.7479C440.372 95.8279 440.346 95.9049 440.304 95.9738C440.262 96.0428 440.207 96.1022 440.141 96.1481C440.074 96.194 439.999 96.2253 439.92 96.24C439.753 96.2618 439.583 96.2206 439.445 96.1245C439.306 96.0284 439.208 95.8842 439.17 95.72C438.86 94.5 438.51 93.27 438.17 92.08C438.128 91.9649 438.122 91.8395 438.155 91.7213C438.187 91.603 438.255 91.4977 438.35 91.42C438.395 91.3494 438.457 91.291 438.53 91.25V91.32ZM440.93 101.17C441.101 101.166 441.268 101.225 441.399 101.335C441.53 101.446 441.616 101.6 441.64 101.77C441.84 103.02 442 104.29 442.13 105.55C442.14 105.628 442.133 105.708 442.11 105.783C442.087 105.859 442.048 105.929 441.996 105.988C441.944 106.048 441.88 106.096 441.809 106.129C441.737 106.162 441.659 106.179 441.58 106.18C441.409 106.178 441.244 106.113 441.118 105.996C440.993 105.88 440.915 105.721 440.9 105.55C440.77 104.32 440.62 103.08 440.42 101.85C440.402 101.746 440.412 101.64 440.449 101.541C440.486 101.443 440.548 101.356 440.63 101.29C440.707 101.196 440.812 101.129 440.93 101.1V101.17Z" fill="#455A64"/>
<path d="M451.88 260.83C449.2 259.23 445.42 259.45 441.22 261.83L365.06 305.83C356.93 310.52 350.33 321.68 350.33 330.75C350.33 335.18 351.91 338.28 354.47 339.75L362.64 344.46C365.31 345.98 369.04 345.74 373.18 343.35L449.35 299.35C457.48 294.66 464.07 283.5 464.07 274.43C464.07 270.03 462.51 266.92 459.97 265.43C458.58 264.67 453.22 261.63 451.88 260.83Z" fill="#9EF85E"/>
<path d="M366.42 345C361.82 345 358.96 341.36 358.96 335.51C358.96 326.62 365.45 315.63 373.43 311.03L449.6 267.03C451.561 265.813 453.804 265.124 456.11 265.03C460.71 265.03 463.57 268.67 463.57 274.52C463.57 283.42 457.08 294.4 449.1 299.01L372.93 343.01C370.97 344.228 368.726 344.914 366.42 345Z" fill="#FAFAFA"/>
<path d="M456.11 265.49C460.4 265.49 463.11 268.94 463.11 274.49C463.11 283.23 456.73 294.02 448.89 298.49L372.72 342.49C370.836 343.666 368.679 344.334 366.46 344.43C365.51 344.462 364.565 344.276 363.699 343.886C362.832 343.496 362.066 342.912 361.46 342.18C360.039 340.229 359.333 337.85 359.46 335.44C359.46 326.71 365.84 315.92 373.68 311.44L449.85 267.44C451.734 266.264 453.891 265.596 456.11 265.5M456.11 264.5C453.714 264.591 451.383 265.308 449.35 266.58L373.18 310.58C365.05 315.28 358.46 326.43 358.46 335.5C358.46 341.85 361.69 345.5 366.46 345.5C368.855 345.407 371.184 344.694 373.22 343.43L449.39 299.43C457.52 294.74 464.11 283.58 464.11 274.51C464.11 268.16 460.88 264.51 456.11 264.51V264.5Z" fill="#EBEBEB"/>
<path d="M385.12 320.36C385.43 319.78 385.38 319.18 385.12 319.02L382.57 317.55C382.516 317.522 382.456 317.507 382.395 317.507C382.334 317.507 382.274 317.522 382.22 317.55L379.88 318.45L379.11 316.81C379.072 316.729 379.009 316.663 378.93 316.62L376.38 315.14C376.06 314.96 375.53 315.37 375.32 316.05L373.73 321.26C373.643 321.574 373.462 321.853 373.21 322.06L369.66 324.81C369.09 325.24 368.87 326.3 369.28 326.59L371.85 328.45C371.938 328.541 372.003 328.653 372.038 328.775C372.073 328.897 372.077 329.026 372.05 329.15L371.44 334.22C371.39 334.59 371.5 334.84 371.67 334.93L374.22 336.41C374.42 336.52 374.72 336.41 374.99 336.08L378.17 332.02C378.236 331.909 378.33 331.817 378.442 331.752C378.554 331.687 378.681 331.652 378.81 331.65L382 332C382.5 332.07 383.09 331.15 383 330.46L382.39 326.09C382.362 325.767 382.432 325.443 382.59 325.16L385.12 320.36Z" fill="#126378"/>
<path opacity="0.15" d="M385.09 319C385.035 318.975 384.975 318.962 384.915 318.962C384.855 318.962 384.795 318.975 384.74 319L381.18 320.36C381.134 320.383 381.083 320.396 381.032 320.398C380.98 320.4 380.929 320.392 380.881 320.373C380.833 320.354 380.789 320.325 380.753 320.289C380.717 320.252 380.688 320.208 380.67 320.16L379.85 318.42L382.19 317.53C382.244 317.503 382.304 317.488 382.365 317.488C382.426 317.488 382.486 317.503 382.54 317.53L385.09 319Z" fill="#62F0FE"/>
<path opacity="0.15" d="M376.25 322.72C376.161 323.033 375.98 323.312 375.73 323.52L372.18 326.26C372.017 326.387 371.886 326.552 371.8 326.74L369.25 325.26C369.342 325.075 369.471 324.912 369.63 324.78L373.18 322.04C373.429 321.835 373.611 321.56 373.7 321.25L376.25 322.72Z" fill="#62F0FE"/>
<path opacity="0.1" d="M378.92 316.61C378.6 316.4 378.06 316.81 377.84 317.51L376.25 322.72L373.7 321.24L375.29 316.03C375.5 315.35 376.03 314.94 376.35 315.12C376.42 315.12 378.58 316.42 378.91 316.6L378.92 316.61Z" fill="#010F14"/>
<path opacity="0.25" d="M374.37 329.91L371.84 328.45L369.27 326.59C368.97 326.37 369.01 325.77 369.27 325.28L371.82 326.76C371.56 327.24 371.52 327.85 371.82 328.07L374.37 329.91Z" fill="#010F14"/>
<path opacity="0.15" d="M374 335.68C374 336.05 374.06 336.3 374.25 336.4L371.69 334.92C371.589 334.835 371.515 334.723 371.476 334.597C371.437 334.471 371.435 334.337 371.47 334.21L372.08 329.14C372.105 329.02 372.102 328.897 372.071 328.779C372.04 328.66 371.981 328.551 371.9 328.46L374.43 329.92C374.512 330.009 374.571 330.116 374.602 330.233C374.633 330.35 374.636 330.472 374.61 330.59L374 335.68Z" fill="#010F14"/>
<path d="M379.08 316.79L380.67 320.17C380.688 320.218 380.717 320.262 380.753 320.299C380.789 320.335 380.833 320.364 380.881 320.383C380.929 320.402 380.98 320.41 381.032 320.408C381.083 320.406 381.134 320.393 381.18 320.37L384.74 319.01C385.3 318.79 385.53 319.59 385.12 320.36L382.55 325.18C382.392 325.463 382.322 325.787 382.35 326.11L382.96 330.48C383.05 331.17 382.46 332.09 381.96 332.02L378.78 331.63C378.651 331.632 378.524 331.667 378.412 331.732C378.3 331.797 378.206 331.889 378.14 332L375 336.06C374.49 336.71 373.9 336.48 374 335.67L374.61 330.6C374.639 330.476 374.636 330.347 374.601 330.224C374.566 330.102 374.5 329.99 374.41 329.9L371.84 328.05C371.43 327.75 371.66 326.7 372.22 326.26L375.77 323.52C376.022 323.313 376.203 323.034 376.29 322.72L377.88 317.51C378.09 316.68 378.82 316.26 379.08 316.79Z" fill="#126378"/>
<path opacity="0.5" d="M379.08 316.79L380.67 320.17C380.688 320.218 380.717 320.262 380.753 320.299C380.789 320.335 380.833 320.364 380.881 320.383C380.929 320.402 380.98 320.41 381.032 320.408C381.083 320.406 381.134 320.393 381.18 320.37L384.74 319.01C385.3 318.79 385.53 319.59 385.12 320.36L382.55 325.18C382.392 325.463 382.322 325.787 382.35 326.11L382.96 330.48C383.05 331.17 382.46 332.09 381.96 332.02L378.78 331.63C378.651 331.632 378.524 331.667 378.412 331.732C378.3 331.797 378.206 331.889 378.14 332L375 336.06C374.49 336.71 373.9 336.48 374 335.67L374.61 330.6C374.639 330.476 374.636 330.347 374.601 330.224C374.566 330.102 374.5 329.99 374.41 329.9L371.84 328.05C371.43 327.75 371.66 326.7 372.22 326.26L375.77 323.52C376.022 323.313 376.203 323.034 376.29 322.72L377.88 317.51C378.09 316.68 378.82 316.26 379.08 316.79Z" fill="#62F0FE"/>
<path d="M403 310.06C403.31 309.48 403.25 308.89 403 308.73L400.46 307.26C400.404 307.232 400.343 307.217 400.28 307.217C400.217 307.217 400.156 307.232 400.1 307.26L397.77 308.16L396.99 306.52C396.958 306.438 396.898 306.37 396.82 306.33L394.27 304.85C393.95 304.67 393.42 305.08 393.21 305.76L391.55 311C391.459 311.312 391.278 311.59 391.03 311.8L387.48 314.54C386.91 314.98 386.69 316.04 387.09 316.33L389.67 318.19C389.758 318.281 389.822 318.393 389.855 318.515C389.888 318.638 389.89 318.767 389.86 318.89L389.26 323.96C389.21 324.33 389.31 324.58 389.48 324.67L392 326.1C392.2 326.21 392.49 326.1 392.77 325.77L395.95 321.71C396.016 321.599 396.11 321.507 396.222 321.442C396.334 321.377 396.461 321.342 396.59 321.34L399.77 321.73C400.27 321.79 400.86 320.88 400.77 320.19L400.17 315.82C400.138 315.497 400.207 315.171 400.37 314.89L403 310.06Z" fill="#126378"/>
<path opacity="0.15" d="M402.94 308.72C402.885 308.695 402.825 308.683 402.765 308.683C402.705 308.683 402.645 308.695 402.59 308.72L399 310.08C398.953 310.103 398.902 310.116 398.85 310.118C398.797 310.121 398.745 310.112 398.696 310.093C398.648 310.075 398.603 310.046 398.566 310.009C398.529 309.973 398.499 309.929 398.48 309.88L397.67 308.14L400 307.25C400.056 307.223 400.118 307.208 400.18 307.208C400.242 307.208 400.304 307.223 400.36 307.25L402.94 308.72Z" fill="#62F0FE"/>
<path opacity="0.15" d="M394.1 312.43C394.011 312.743 393.83 313.022 393.58 313.23L390 316C389.837 316.127 389.706 316.292 389.62 316.48L387.09 315C387.189 314.817 387.321 314.654 387.48 314.52L391.03 311.78C391.278 311.57 391.459 311.292 391.55 310.98L394.1 312.43Z" fill="#62F0FE"/>
<path opacity="0.1" d="M396.77 306.32C396.45 306.11 395.91 306.52 395.69 307.22L394.1 312.43L391.55 311L393.14 305.79C393.35 305.11 393.88 304.7 394.2 304.88C394.27 304.88 396.43 306.18 396.75 306.35L396.77 306.32Z" fill="#010F14"/>
<path opacity="0.25" d="M392.22 319.61L389.69 318.16L387.12 316.3C386.83 316.08 386.87 315.48 387.12 314.99L389.68 316.47C389.42 316.95 389.38 317.56 389.68 317.77L392.22 319.61Z" fill="#010F14"/>
<path opacity="0.15" d="M391.81 325.38C391.76 325.76 391.87 326.01 392.05 326.11L389.5 324.63C389.33 324.53 389.23 324.29 389.28 323.92L389.89 318.85C389.913 318.73 389.909 318.607 389.878 318.489C389.846 318.372 389.789 318.263 389.71 318.17L392.24 319.62C392.322 319.709 392.381 319.816 392.412 319.933C392.443 320.05 392.446 320.172 392.42 320.29L391.81 325.38Z" fill="#010F14"/>
<path d="M396.92 306.5L398.51 309.88C398.529 309.929 398.559 309.973 398.596 310.009C398.633 310.046 398.678 310.075 398.726 310.093C398.775 310.112 398.827 310.121 398.88 310.118C398.932 310.116 398.983 310.103 399.03 310.08L402.59 308.72C403.15 308.5 403.38 309.3 402.97 310.06L400.4 314.89C400.238 315.171 400.168 315.497 400.2 315.82L400.8 320.19C400.9 320.88 400.31 321.79 399.8 321.73L396.62 321.34C396.491 321.342 396.364 321.377 396.252 321.442C396.14 321.507 396.046 321.599 395.98 321.71L392.8 325.77C392.29 326.42 391.7 326.19 391.8 325.38L392.41 320.31C392.437 320.186 392.433 320.057 392.398 319.935C392.363 319.813 392.298 319.701 392.21 319.61L389.64 317.76C389.23 317.46 389.45 316.41 390.02 315.97L393.57 313.23C393.822 313.023 394.003 312.744 394.09 312.43L395.68 307.22C395.94 306.39 396.67 306 396.92 306.5Z" fill="#126378"/>
<path opacity="0.5" d="M396.92 306.5L398.51 309.88C398.529 309.929 398.559 309.973 398.596 310.009C398.633 310.046 398.678 310.075 398.726 310.093C398.775 310.112 398.827 310.121 398.88 310.118C398.932 310.116 398.983 310.103 399.03 310.08L402.59 308.72C403.15 308.5 403.38 309.3 402.97 310.06L400.4 314.89C400.238 315.171 400.168 315.497 400.2 315.82L400.8 320.19C400.9 320.88 400.31 321.79 399.8 321.73L396.62 321.34C396.491 321.342 396.364 321.377 396.252 321.442C396.14 321.507 396.046 321.599 395.98 321.71L392.8 325.77C392.29 326.42 391.7 326.19 391.8 325.38L392.41 320.31C392.437 320.186 392.433 320.057 392.398 319.935C392.363 319.813 392.298 319.701 392.21 319.61L389.64 317.76C389.23 317.46 389.45 316.41 390.02 315.97L393.57 313.23C393.822 313.023 394.003 312.744 394.09 312.43L395.68 307.22C395.94 306.39 396.67 306 396.92 306.5Z" fill="#62F0FE"/>
<path d="M420.82 299.77C421.12 299.19 421.07 298.6 420.82 298.44L418.24 297C418.183 296.975 418.122 296.961 418.06 296.961C417.998 296.961 417.937 296.975 417.88 297L415.54 297.9L414.77 296.26C414.738 296.178 414.678 296.11 414.6 296.07L412.05 294.59C411.73 294.41 411.19 294.82 410.99 295.5L409.4 300.71C409.309 301.022 409.128 301.3 408.88 301.51L405.32 304.25C404.76 304.69 404.53 305.74 404.94 306.04L407.51 307.9C407.603 307.988 407.67 308.1 407.705 308.223C407.74 308.346 407.742 308.476 407.71 308.6L407.1 313.67C407.1 314.04 407.16 314.28 407.33 314.38L409.88 315.86C410.09 315.97 410.38 315.86 410.66 315.53L413.83 311.47C413.897 311.357 413.992 311.264 414.106 311.199C414.22 311.135 414.349 311.1 414.48 311.1L417.65 311.49C418.16 311.55 418.75 310.64 418.65 309.95L418.05 305.58C418.018 305.258 418.085 304.934 418.24 304.65L420.82 299.77Z" fill="#126378"/>
<path opacity="0.15" d="M420.79 298.43C420.733 298.405 420.672 298.392 420.61 298.392C420.548 298.392 420.487 298.405 420.43 298.43L416.88 299.79C416.833 299.813 416.782 299.826 416.73 299.828C416.677 299.831 416.625 299.822 416.576 299.803C416.528 299.785 416.483 299.756 416.446 299.719C416.409 299.683 416.379 299.639 416.36 299.59L415.54 297.85L417.88 296.96C417.934 296.933 417.994 296.918 418.055 296.918C418.116 296.918 418.176 296.933 418.23 296.96L420.79 298.43Z" fill="#62F0FE"/>
<path opacity="0.15" d="M412 302.13C411.909 302.445 411.729 302.726 411.48 302.94L407.93 305.68C407.766 305.809 407.633 305.973 407.54 306.16L404.99 304.68C405.089 304.497 405.221 304.334 405.38 304.2L408.93 301.46C409.178 301.25 409.359 300.972 409.45 300.66L412 302.13Z" fill="#62F0FE"/>
<path opacity="0.1" d="M414.62 296C414.3 295.79 413.75 296.2 413.54 296.89L412 302.13L409.45 300.66L411.04 295.45C411.25 294.77 411.78 294.36 412.1 294.54C412.17 294.54 414.32 295.84 414.65 296.01L414.62 296Z" fill="#010F14"/>
<path opacity="0.25" d="M410.06 309.32L407.54 307.87L404.94 306C404.65 305.78 404.68 305.18 404.94 304.69L407.49 306.17C407.24 306.65 407.2 307.26 407.49 307.47L410.06 309.32Z" fill="#010F14"/>
<path opacity="0.15" d="M409.66 315.09C409.61 315.47 409.72 315.72 409.9 315.82L407.35 314.34C407.18 314.24 407.08 314 407.12 313.63L407.73 308.55C407.756 308.433 407.754 308.311 407.724 308.195C407.695 308.078 407.639 307.971 407.56 307.88L410.08 309.33C410.158 309.421 410.215 309.528 410.246 309.644C410.278 309.76 410.282 309.882 410.26 310L409.66 315.09Z" fill="#010F14"/>
<path d="M414.77 296.21L416.36 299.59C416.379 299.639 416.409 299.683 416.446 299.719C416.483 299.756 416.528 299.785 416.576 299.803C416.625 299.822 416.677 299.831 416.73 299.828C416.782 299.826 416.833 299.813 416.88 299.79L420.43 298.43C421 298.21 421.22 299.01 420.82 299.77L418.24 304.6C418.085 304.884 418.018 305.208 418.05 305.53L418.65 309.9C418.75 310.59 418.16 311.5 417.65 311.44L414.48 311.05C414.349 311.05 414.22 311.085 414.106 311.149C413.992 311.214 413.897 311.308 413.83 311.42L410.66 315.48C410.15 316.13 409.56 315.9 409.66 315.09L410.26 310.02C410.29 309.897 410.288 309.768 410.255 309.645C410.222 309.523 410.158 309.411 410.07 309.32L407.49 307.46C407.09 307.17 407.31 306.11 407.88 305.68L411.43 302.94C411.678 302.73 411.859 302.452 411.95 302.14L413.54 296.93C413.79 296.1 414.52 295.68 414.77 296.21Z" fill="#126378"/>
<path opacity="0.5" d="M414.77 296.21L416.36 299.59C416.379 299.639 416.409 299.683 416.446 299.719C416.483 299.756 416.528 299.785 416.576 299.803C416.625 299.822 416.677 299.831 416.73 299.828C416.782 299.826 416.833 299.813 416.88 299.79L420.43 298.43C421 298.21 421.22 299.01 420.82 299.77L418.24 304.6C418.085 304.884 418.018 305.208 418.05 305.53L418.65 309.9C418.75 310.59 418.16 311.5 417.65 311.44L414.48 311.05C414.349 311.05 414.22 311.085 414.106 311.149C413.992 311.214 413.897 311.308 413.83 311.42L410.66 315.48C410.15 316.13 409.56 315.9 409.66 315.09L410.26 310.02C410.29 309.897 410.288 309.768 410.255 309.645C410.222 309.523 410.158 309.411 410.07 309.32L407.49 307.46C407.09 307.17 407.31 306.11 407.88 305.68L411.43 302.94C411.678 302.73 411.859 302.452 411.95 302.14L413.54 296.93C413.79 296.1 414.52 295.68 414.77 296.21Z" fill="#62F0FE"/>
<path d="M438.66 289.48C438.97 288.9 438.92 288.31 438.66 288.15L436.12 286.67C436.063 286.645 436.002 286.631 435.94 286.631C435.878 286.631 435.817 286.645 435.76 286.67L433.42 287.57L432.65 285.93C432.616 285.847 432.557 285.777 432.48 285.73C432.16 285.56 430 284.3 429.93 284.26C429.61 284.08 429.07 284.49 428.86 285.17L427.27 290.38C427.183 290.691 427.006 290.97 426.76 291.18L423.2 293.92C422.64 294.36 422.41 295.41 422.82 295.71L425.39 297.57C425.481 297.657 425.547 297.767 425.582 297.888C425.617 298.009 425.62 298.138 425.59 298.26L424.98 303.33C424.98 303.7 425.04 303.95 425.21 304.05L427.76 305.53C427.96 305.64 428.26 305.53 428.53 305.2L431.71 301.14C431.776 301.029 431.87 300.937 431.982 300.872C432.094 300.807 432.221 300.772 432.35 300.77L435.53 301.16C436.04 301.22 436.63 300.31 436.53 299.62L435.92 295.25C435.896 294.927 435.966 294.604 436.12 294.32L438.66 289.48Z" fill="#126378"/>
<path opacity="0.15" d="M438.63 288.14C438.575 288.115 438.515 288.102 438.455 288.102C438.395 288.102 438.335 288.115 438.28 288.14L434.72 289.5C434.674 289.523 434.623 289.536 434.572 289.538C434.52 289.54 434.469 289.532 434.421 289.513C434.373 289.494 434.329 289.465 434.293 289.429C434.257 289.392 434.228 289.348 434.21 289.3L433.39 287.56L435.73 286.67C435.784 286.64 435.844 286.625 435.905 286.625C435.966 286.625 436.026 286.64 436.08 286.67L438.63 288.14Z" fill="#62F0FE"/>
<path opacity="0.15" d="M429.8 291.84C429.709 292.155 429.529 292.436 429.28 292.65L425.73 295.39C425.566 295.519 425.433 295.683 425.34 295.87L422.79 294.39C422.885 294.207 423.014 294.044 423.17 293.91L426.72 291.17C426.975 290.964 427.16 290.685 427.25 290.37L429.8 291.84Z" fill="#62F0FE"/>
<path opacity="0.1" d="M432.47 285.74C432.15 285.53 431.6 285.94 431.39 286.63L429.8 291.84L427.25 290.37L428.84 285.16C429.04 284.48 429.58 284.07 429.9 284.25C429.97 284.25 432.12 285.55 432.45 285.72L432.47 285.74Z" fill="#010F14"/>
<path opacity="0.25" d="M427.91 299L425.39 297.55L422.82 295.69C422.52 295.47 422.56 294.87 422.82 294.38L425.37 295.86C425.11 296.34 425.08 296.95 425.37 297.16L427.91 299Z" fill="#010F14"/>
<path opacity="0.15" d="M427.5 304.8C427.5 305.18 427.57 305.43 427.75 305.53L425.18 304C425.01 303.9 424.91 303.66 424.95 303.29L425.56 298.21C425.584 298.093 425.581 297.972 425.551 297.856C425.522 297.74 425.467 297.632 425.39 297.54L427.91 298.99C427.989 299.081 428.045 299.188 428.074 299.305C428.104 299.421 428.106 299.543 428.08 299.66L427.5 304.8Z" fill="#010F14"/>
<path d="M432.62 285.92L434.21 289.3C434.229 289.349 434.259 289.393 434.296 289.429C434.333 289.466 434.378 289.495 434.426 289.513C434.475 289.532 434.527 289.541 434.58 289.538C434.632 289.536 434.683 289.523 434.73 289.5L438.28 288.14C438.85 287.92 439.07 288.72 438.66 289.48L436.09 294.31C435.936 294.594 435.866 294.917 435.89 295.24L436.5 299.61C436.6 300.3 436.01 301.21 435.5 301.15L432.32 300.76C432.191 300.762 432.064 300.797 431.952 300.862C431.84 300.927 431.746 301.019 431.68 301.13L428.5 305.19C428 305.84 427.41 305.61 427.5 304.8L428.11 299.73C428.142 299.606 428.14 299.476 428.105 299.353C428.07 299.23 428.003 299.118 427.91 299.03L425.34 297.17C424.93 296.88 425.16 295.82 425.72 295.39L429.28 292.65C429.527 292.439 429.707 292.161 429.8 291.85L431.39 286.63C431.64 285.81 432.37 285.39 432.62 285.92Z" fill="#126378"/>
<path opacity="0.5" d="M432.62 285.92L434.21 289.3C434.229 289.349 434.259 289.393 434.296 289.429C434.333 289.466 434.378 289.495 434.426 289.513C434.475 289.532 434.527 289.541 434.58 289.538C434.632 289.536 434.683 289.523 434.73 289.5L438.28 288.14C438.85 287.92 439.07 288.72 438.66 289.48L436.09 294.31C435.936 294.594 435.866 294.917 435.89 295.24L436.5 299.61C436.6 300.3 436.01 301.21 435.5 301.15L432.32 300.76C432.191 300.762 432.064 300.797 431.952 300.862C431.84 300.927 431.746 301.019 431.68 301.13L428.5 305.19C428 305.84 427.41 305.61 427.5 304.8L428.11 299.73C428.142 299.606 428.14 299.476 428.105 299.353C428.07 299.23 428.003 299.118 427.91 299.03L425.34 297.17C424.93 296.88 425.16 295.82 425.72 295.39L429.28 292.65C429.527 292.439 429.707 292.161 429.8 291.85L431.39 286.63C431.64 285.81 432.37 285.39 432.62 285.92Z" fill="#62F0FE"/>
<path d="M456.51 279.19C456.82 278.61 456.77 278.02 456.51 277.85L453.96 276.38C453.905 276.355 453.845 276.342 453.785 276.342C453.725 276.342 453.665 276.355 453.61 276.38L451.27 277.28L450.5 275.64C450.459 275.561 450.401 275.493 450.33 275.44C450 275.27 447.84 274.01 447.78 273.97C447.45 273.79 446.92 274.19 446.71 274.88L445.12 280.09C445.033 280.404 444.852 280.683 444.6 280.89L441 283.62C440.43 284.06 440.21 285.11 440.62 285.41L443.19 287.27C443.281 287.357 443.347 287.467 443.382 287.588C443.417 287.709 443.42 287.837 443.39 287.96L442.8 293C442.8 293.37 442.86 293.62 443.03 293.72L445.58 295.2C445.78 295.31 446.08 295.2 446.35 294.87L449.53 290.81C449.596 290.699 449.69 290.607 449.802 290.542C449.914 290.477 450.041 290.442 450.17 290.44L453.35 290.83C453.85 290.89 454.44 289.98 454.35 289.29L453.74 284.92C453.711 284.597 453.781 284.273 453.94 283.99L456.51 279.19Z" fill="#126378"/>
<path opacity="0.15" d="M456.48 277.85C456.426 277.823 456.366 277.809 456.305 277.809C456.244 277.809 456.184 277.823 456.13 277.85L452.57 279.21C452.524 279.233 452.473 279.246 452.422 279.248C452.37 279.25 452.319 279.242 452.271 279.223C452.223 279.204 452.179 279.175 452.143 279.139C452.107 279.102 452.078 279.058 452.06 279.01L451.24 277.27L453.58 276.37C453.634 276.342 453.694 276.327 453.755 276.327C453.816 276.327 453.876 276.342 453.93 276.37L456.48 277.85Z" fill="#62F0FE"/>
<path opacity="0.15" d="M447.65 281.55C447.556 281.866 447.372 282.147 447.12 282.36L443.57 285.1C443.409 285.23 443.28 285.394 443.19 285.58L440.64 284.1C440.732 283.915 440.861 283.752 441.02 283.62L444.57 280.88C444.822 280.673 445.003 280.394 445.09 280.08L447.65 281.55Z" fill="#62F0FE"/>
<path opacity="0.1" d="M450.32 275.44C450 275.24 449.45 275.65 449.24 276.34L447.65 281.55L445.09 280.08L446.68 274.87C446.89 274.19 447.43 273.78 447.75 273.96C447.82 273.96 449.97 275.26 450.3 275.43L450.32 275.44Z" fill="#010F14"/>
<path opacity="0.25" d="M445.76 288.74L443.23 287.29L440.66 285.43C440.36 285.21 440.4 284.61 440.66 284.12L443.21 285.6C442.95 286.08 442.91 286.69 443.21 286.9L445.76 288.74Z" fill="#010F14"/>
<path opacity="0.15" d="M445.35 294.51C445.35 294.89 445.41 295.14 445.6 295.23L443 293.75C442.83 293.65 442.73 293.41 442.77 293.03L443.38 287.96C443.405 287.842 443.401 287.72 443.37 287.604C443.338 287.487 443.28 287.38 443.2 287.29L445.73 288.74C445.809 288.83 445.866 288.938 445.896 289.055C445.925 289.171 445.927 289.293 445.9 289.41L445.35 294.51Z" fill="#010F14"/>
<path d="M450.47 275.63L452.06 279.01C452.079 279.059 452.109 279.103 452.146 279.139C452.183 279.176 452.228 279.205 452.276 279.223C452.325 279.242 452.377 279.251 452.43 279.248C452.482 279.246 452.533 279.233 452.58 279.21L456.13 277.85C456.69 277.63 456.92 278.43 456.51 279.19L453.94 284C453.781 284.283 453.711 284.607 453.74 284.93L454.35 289.3C454.44 289.99 453.85 290.9 453.35 290.84L450.17 290.45C450.041 290.452 449.914 290.487 449.802 290.552C449.69 290.617 449.596 290.709 449.53 290.82L446.35 294.88C445.85 295.53 445.26 295.29 445.35 294.49L445.96 289.42C445.989 289.296 445.986 289.167 445.951 289.044C445.916 288.922 445.85 288.81 445.76 288.72L443.19 286.86C442.78 286.57 443.01 285.51 443.57 285.08L447.13 282.34C447.371 282.126 447.548 281.849 447.64 281.54L449.23 276.32C449.49 275.52 450.22 275.09 450.47 275.63Z" fill="#126378"/>
<path opacity="0.5" d="M450.47 275.63L452.06 279.01C452.079 279.059 452.109 279.103 452.146 279.139C452.183 279.176 452.228 279.205 452.276 279.223C452.325 279.242 452.377 279.251 452.43 279.248C452.482 279.246 452.533 279.233 452.58 279.21L456.13 277.85C456.69 277.63 456.92 278.43 456.51 279.19L453.94 284C453.781 284.283 453.711 284.607 453.74 284.93L454.35 289.3C454.44 289.99 453.85 290.9 453.35 290.84L450.17 290.45C450.041 290.452 449.914 290.487 449.802 290.552C449.69 290.617 449.596 290.709 449.53 290.82L446.35 294.88C445.85 295.53 445.26 295.29 445.35 294.49L445.96 289.42C445.989 289.296 445.986 289.167 445.951 289.044C445.916 288.922 445.85 288.81 445.76 288.72L443.19 286.86C442.78 286.57 443.01 285.51 443.57 285.08L447.13 282.34C447.371 282.126 447.548 281.849 447.64 281.54L449.23 276.32C449.49 275.52 450.22 275.09 450.47 275.63Z" fill="#62F0FE"/>
<path d="M463.32 32L455.32 35.43L453.61 43.96C453.561 44.1943 453.448 44.4105 453.283 44.5842C453.118 44.7579 452.909 44.8823 452.677 44.9435C452.446 45.0047 452.202 45.0004 451.973 44.9309C451.744 44.8614 451.538 44.7295 451.38 44.55L445.65 38L437 39C436.752 39.0375 436.499 39.0015 436.272 38.8964C436.044 38.7914 435.852 38.6219 435.72 38.4089C435.588 38.196 435.522 37.949 435.529 37.6985C435.536 37.4481 435.616 37.2052 435.76 37L440.21 29.53L436.59 21.62C436.502 21.4076 436.473 21.1754 436.505 20.9478C436.538 20.7202 436.631 20.5056 436.776 20.3265C436.92 20.1475 437.11 20.0106 437.325 19.9302C437.541 19.8499 437.774 19.8291 438 19.87L446.48 21.8L452.88 15.91C453.056 15.7457 453.274 15.6342 453.51 15.5883C453.747 15.5425 453.991 15.5641 454.215 15.6508C454.44 15.7374 454.635 15.8856 454.779 16.0782C454.923 16.2709 455.01 16.5002 455.03 16.74L455.82 25.4L463.4 29.66C463.623 29.768 463.81 29.9385 463.939 30.1508C464.067 30.3632 464.13 30.6082 464.122 30.856C464.113 31.1039 464.033 31.344 463.891 31.5471C463.748 31.7502 463.55 31.9075 463.32 32Z" fill="#E0E0E0"/>
<path d="M419.23 17.18C419.159 17.2723 419.075 17.3532 418.98 17.42C418.81 17.5421 418.61 17.6143 418.401 17.6285C418.193 17.6426 417.985 17.5981 417.8 17.5L413.35 15.16L408.89 17.5C408.705 17.5981 408.497 17.6426 408.289 17.6285C408.08 17.6143 407.88 17.5421 407.71 17.42C407.538 17.2986 407.406 17.1302 407.328 16.935C407.249 16.7398 407.229 16.5263 407.27 16.32L408.12 11.32L404.51 7.81C404.36 7.66426 404.253 7.47893 404.204 7.27543C404.154 7.07194 404.163 6.85858 404.23 6.66C404.293 6.46103 404.41 6.28394 404.57 6.14938C404.729 6.01481 404.923 5.92832 405.13 5.9L410.13 5.18L412.36 0.659999C412.452 0.473329 412.594 0.316223 412.771 0.2066C412.948 0.0969766 413.152 0.03925 413.36 0.0400005C413.568 0.0415398 413.771 0.100211 413.947 0.209579C414.123 0.318947 414.266 0.474785 414.36 0.659999L416.59 5.18L421.59 5.9C421.797 5.93021 421.991 6.01762 422.15 6.15235C422.31 6.28708 422.429 6.46375 422.493 6.66242C422.558 6.86109 422.565 7.07384 422.515 7.27662C422.465 7.47941 422.36 7.66416 422.21 7.81L418.6 11.32L419.46 16.32C419.499 16.6257 419.416 16.9344 419.23 17.18ZM405 6.79L404.94 6.92C404.915 6.99467 404.912 7.07492 404.932 7.15117C404.951 7.22742 404.992 7.29644 405.05 7.35L408.91 11.12L408 16.44C407.988 16.5183 407.997 16.5985 408.028 16.6717C408.058 16.7449 408.108 16.8083 408.172 16.8549C408.236 16.9014 408.312 16.9294 408.391 16.9356C408.47 16.9418 408.549 16.926 408.62 16.89L413.4 14.38L418.17 16.89C418.238 16.9295 418.316 16.9503 418.395 16.9503C418.474 16.9503 418.552 16.9295 418.62 16.89C418.686 16.8444 418.738 16.7803 418.768 16.7056C418.799 16.6309 418.806 16.549 418.79 16.47L417.88 11.15L421.74 7.38C421.796 7.32511 421.835 7.25606 421.855 7.18029C421.874 7.10452 421.873 7.0249 421.85 6.95C421.827 6.87395 421.783 6.80608 421.723 6.75461C421.663 6.70313 421.589 6.67027 421.51 6.66L416.16 5.88L413.72 1C413.687 0.927341 413.633 0.865925 413.566 0.823291C413.498 0.780657 413.42 0.75866 413.34 0.76C413.268 0.767957 413.199 0.794149 413.139 0.836126C413.08 0.878102 413.032 0.934488 413 1L410.62 5.84L405.27 6.62C405.162 6.64179 405.066 6.70226 405 6.79Z" fill="#E0E0E0"/>
<path d="M363.54 84C356.01 79.64 345.66 80.23 334.22 86.83C311.22 100.13 292.53 132.7 292.53 159.59C292.53 173.12 297.27 182.59 304.9 187.02C306.67 188.02 313.59 192.02 313.59 192.02C313.266 195.063 312.214 197.984 310.524 200.535C308.835 203.087 306.556 205.194 303.88 206.68C303.44 206.93 303.71 207.36 304.1 207.58L314.67 213.69C314.813 213.775 314.974 213.823 315.14 213.83C325.55 213.83 337.6 206.83 340.96 192.29C342.22 191.69 343.49 191.04 344.78 190.29C367.78 177 386.47 144.42 386.47 117.54C386.47 104 381.74 94.54 374.11 90.08L363.54 84Z" fill="#37474F"/>
<path d="M344.78 92.93C321.78 106.22 303.09 138.8 303.09 165.68C303.09 183.93 311.68 194.85 324.4 195.85C323.92 201.65 322.23 208.17 314.4 212.78C313.78 213.15 314.59 213.84 315.11 213.84C325.52 213.84 337.57 206.84 340.93 192.3C342.19 191.7 343.46 191.05 344.75 190.3C367.75 177.01 386.44 144.43 386.44 117.55C386.44 90.67 367.8 79.64 344.78 92.93Z" fill="#455A64"/>
<path d="M314.43 212.78C314.05 213.02 314.22 213.37 314.54 213.61L304.1 207.61C303.71 207.37 303.44 206.96 303.88 206.7C306.561 205.211 308.844 203.098 310.534 200.538C312.225 197.979 313.273 195.05 313.59 192L314.74 192.68L315.8 193.3C318.449 194.756 321.384 195.616 324.4 195.82C323.93 201.65 322.23 208.17 314.43 212.78Z" fill="#263238"/>
<path d="M340.38 169.89C339.27 169.1 338.71 167.68 338.71 165.63C338.734 163.494 339.298 161.399 340.35 159.54C341.305 157.682 342.76 156.127 344.55 155.05C346.25 154.07 347.647 153.953 348.74 154.7C349.83 155.44 350.38 156.84 350.38 158.89C350.348 161.063 349.774 163.194 348.71 165.09C347.778 166.967 346.336 168.544 344.55 169.64C342.89 170.59 341.5 170.68 340.38 169.89ZM338.89 115.53L350.2 109L348.31 147.12L340.78 151.47L338.89 115.53Z" fill="#FAFAFA"/>
<path opacity="0.2" d="M350.34 186.65C362.62 177.65 373.21 163.38 379.69 148.06C367.41 157.07 356.82 171.33 350.34 186.65Z" fill="#010F14"/>
<path d="M428.86 238.75C424.6 238.8 421.43 235.82 419.44 232.07C432.2 216.38 440.83 195.48 440.83 177.2C440.83 163.65 436.08 154.13 428.43 149.73L417.88 143.65C410.35 139.3 400.01 139.9 388.58 146.49C365.58 159.79 346.89 192.36 346.89 219.25C346.89 232.78 351.62 242.25 359.25 246.7C361.03 247.7 368.04 251.76 369.77 252.77C377.31 257.16 387.68 256.58 399.14 249.96C402.209 248.174 405.122 246.133 407.85 243.86C415.59 249.99 425.03 243.31 428.77 240.11C429.27 239.69 429.33 238.75 428.86 238.75Z" fill="#9EF85E"/>
<path d="M380.69 255C366.75 255 358.1 243.65 358.1 225.39C358.1 198.75 376.66 166.39 399.46 153.2C405.84 149.52 411.94 147.65 417.59 147.65C431.52 147.65 440.18 158.99 440.18 177.26C440.18 194.73 432.04 215.6 418.94 231.71L418.67 232.05L418.87 232.43C421.22 236.86 424.63 239.34 428.49 239.43C428.463 239.514 428.415 239.59 428.35 239.65C425.69 241.93 420.41 245.74 414.94 245.74C412.504 245.751 410.14 244.917 408.25 243.38L407.84 243.06L407.43 243.39C404.728 245.625 401.844 247.632 398.81 249.39C392.44 253.08 386.34 255 380.69 255Z" fill="#FAFAFA"/>
<path d="M417.59 147V148.3C431.12 148.3 439.53 159.4 439.53 177.25C439.53 194.59 431.45 215.3 418.44 231.3L417.89 231.97L418.3 232.73C420.46 236.81 423.5 239.32 426.99 239.95C424.22 242.16 419.63 245.11 414.94 245.11C412.65 245.121 410.426 244.336 408.65 242.89L407.83 242.24L407.02 242.91C404.346 245.141 401.493 247.148 398.49 248.91C392.21 252.53 386.22 254.37 380.69 254.37C367.16 254.37 358.75 243.27 358.75 225.37C358.75 198.94 377.16 166.81 399.75 153.74C406.03 150.12 412.02 148.28 417.55 148.28V147M417.55 147C411.99 147 405.73 148.81 399.1 152.64C376.1 165.93 357.41 198.5 357.41 225.39C357.41 244.54 366.88 255.65 380.65 255.65C386.21 255.65 392.47 253.84 399.1 250.01C402.169 248.224 405.082 246.183 407.81 243.91C409.81 245.543 412.318 246.428 414.9 246.41C420.62 246.41 426.09 242.41 428.73 240.16C429.23 239.74 429.29 238.8 428.82 238.8H428.72C424.52 238.8 421.38 235.85 419.4 232.12C432.16 216.43 440.79 195.53 440.79 177.25C440.79 158.1 431.32 147 417.55 147Z" fill="#9EF85E"/>
<path d="M397 205.85C398.213 202.94 399.606 200.108 401.17 197.37C402.248 195.491 403.229 193.559 404.11 191.58C404.717 190.223 405.04 188.756 405.06 187.27C405.06 185.27 404.46 184.04 403.26 183.56C402.06 183.08 400.48 183.43 398.49 184.56C396.522 185.715 394.8 187.243 393.42 189.06C391.879 191.072 390.621 193.286 389.68 195.64L382.33 194.13C383.974 189.787 386.304 185.736 389.23 182.13C392.093 178.591 395.585 175.611 399.53 173.34C404.197 170.673 407.933 169.84 410.74 170.84C413.547 171.84 414.953 174.7 414.96 179.42C414.973 181.551 414.697 183.673 414.14 185.73C413.647 187.593 412.977 189.404 412.14 191.14C411.35 192.76 410.32 194.69 409.07 196.93C407.858 198.997 406.763 201.13 405.79 203.32C405.119 204.901 404.779 206.603 404.79 208.32L395.62 213.62C395.583 210.966 396.051 208.329 397 205.85ZM396 231.58C394.89 230.79 394.33 229.37 394.33 227.31C394.354 225.174 394.918 223.079 395.97 221.22C396.925 219.365 398.375 217.81 400.16 216.73C401.87 215.73 403.26 215.63 404.36 216.38C405.46 217.13 406 218.53 406 220.58C405.966 222.75 405.392 224.877 404.33 226.77C403.398 228.65 401.952 230.228 400.16 231.32C398.55 232.28 397.17 232.36 396.05 231.58H396Z" fill="#455A64"/>
<path d="M185.78 160.3L139.78 186.94L158.05 218C158.402 218.838 159.016 219.54 159.8 220C161.98 221.23 174.89 228.71 175.6 229.12C176.154 229.44 176.773 229.63 177.41 229.676C178.048 229.722 178.688 229.623 179.281 229.386C179.875 229.149 180.408 228.781 180.839 228.309C181.27 227.837 181.588 227.273 181.77 226.66L201.61 169.48L185.78 160.3Z" fill="#126378"/>
<path opacity="0.2" d="M185.78 160.3L139.78 186.94L158.05 218C158.402 218.838 159.016 219.54 159.8 220C161.98 221.23 174.89 228.71 175.6 229.12C176.154 229.44 176.773 229.63 177.41 229.676C178.048 229.722 178.688 229.623 179.281 229.386C179.875 229.149 180.408 228.781 180.839 228.309C181.27 227.837 181.588 227.273 181.77 226.66L201.61 169.48L185.78 160.3Z" fill="#010F14"/>
<path d="M155.61 196.08L173.88 227.14C174.229 227.929 174.812 228.592 175.55 229.038C176.288 229.485 177.146 229.694 178.007 229.637C178.868 229.58 179.69 229.261 180.363 228.721C181.036 228.181 181.527 227.448 181.77 226.62L201.61 169.44L155.61 196.08Z" fill="#126378"/>
<path d="M237.1 1L63.63 101.13C62.467 101.884 61.4985 102.902 60.8034 104.101C60.1083 105.3 59.7063 106.646 59.63 108.03V228.42C59.7037 229.799 60.105 231.141 60.8006 232.334C61.4962 233.527 62.4662 234.537 63.63 235.28L77.9 243.28C79.141 243.904 80.5108 244.23 81.9 244.23C83.2892 244.23 84.6591 243.904 85.9 243.28L259.38 143.09C260.541 142.334 261.509 141.316 262.203 140.117C262.898 138.919 263.301 137.573 263.38 136.19V15.8C263.306 14.4212 262.904 13.0799 262.208 11.887C261.513 10.6941 260.543 9.68396 259.38 8.94L245.12 0.94C243.871 0.323211 242.496 0.00738017 241.103 0.0177992C239.71 0.0282182 238.339 0.364597 237.1 1Z" fill="#126378"/>
<path opacity="0.3" d="M263.31 15.07C262.99 13.07 261.36 12.35 259.37 13.49L85.91 113.65C84.728 114.388 83.7594 115.422 83.1 116.65L60.89 104C61.5566 102.846 62.4977 101.873 63.63 101.17L237.11 1C238.352 0.377939 239.721 0.0540409 241.11 0.0540409C242.499 0.0540409 243.868 0.377939 245.11 1L259.37 9C260.42 9.67417 261.314 10.5641 261.994 11.6107C262.673 12.6573 263.122 13.8365 263.31 15.07Z" fill="#62F0FE"/>
<path d="M81.92 241.4V121C81.9962 119.617 82.3984 118.273 83.0935 117.075C83.7887 115.878 84.7572 114.862 85.92 114.11L259.38 14C261.57 12.73 263.38 13.76 263.38 16.3V136.65C263.301 138.033 262.898 139.379 262.203 140.577C261.509 141.776 260.541 142.794 259.38 143.55L85.9 243.7C83.7 245 81.92 243.94 81.92 241.4Z" fill="#126378"/>
<path opacity="0.2" d="M85.9 243.24C84.6544 243.849 83.2864 244.165 81.9 244.165C80.5137 244.165 79.1456 243.849 77.9 243.24L63.64 235.24C62.4771 234.5 61.5075 233.494 60.8118 232.304C60.1161 231.115 59.7144 229.776 59.64 228.4V108C59.711 106.579 60.1485 105.201 60.91 104L83.1 116.63C82.3686 117.806 81.9615 119.155 81.92 120.54V240.93C81.92 243.26 83.56 244.6 85.9 243.24Z" fill="#010F14"/>
<path d="M130.59 145L128.86 144C128.198 143.621 127.448 143.422 126.685 143.422C125.922 143.422 125.172 143.621 124.51 144L113.94 150.1V135.66L133.51 124.37C134.426 123.829 135.185 123.059 135.711 122.134C136.238 121.21 136.513 120.164 136.51 119.1V111C136.513 109.936 136.238 108.89 135.711 107.966C135.185 107.041 134.426 106.271 133.51 105.73C132.585 105.195 131.534 104.913 130.465 104.913C129.396 104.913 128.345 105.195 127.42 105.73L100.28 121.4C98.6733 122.326 97.3392 123.66 96.4123 125.267C95.4853 126.873 94.9982 128.695 95 130.55V205.74C94.9954 206.805 95.2699 207.853 95.7963 208.78C96.3226 209.706 97.0824 210.479 98 211.02C98.9261 211.554 99.9762 211.834 101.045 211.834C102.114 211.834 103.164 211.554 104.09 211.02L110.86 207.12C111.778 206.579 112.537 205.806 113.064 204.88C113.59 203.953 113.865 202.905 113.86 201.84V172.34L130.52 162.72C131.18 162.337 131.728 161.787 132.109 161.125C132.49 160.463 132.69 159.713 132.69 158.95V148.79C132.704 148.029 132.517 147.279 132.148 146.613C131.78 145.948 131.242 145.392 130.59 145Z" fill="#E0E0E0"/>
<path opacity="0.1" d="M104.71 210.66L104.13 211C103.204 211.532 102.154 211.812 101.086 211.811C100.018 211.811 98.9684 211.53 98.043 210.996C97.1176 210.462 96.3485 209.695 95.8127 208.771C95.2769 207.847 94.9932 206.798 94.99 205.73V130.54C94.9926 128.794 95.429 127.076 96.26 125.54L102.35 129.05C101.515 130.584 101.079 132.303 101.08 134.05V208.54C101.082 208.965 101.194 209.381 101.406 209.749C101.618 210.117 101.923 210.423 102.289 210.637C102.656 210.851 103.072 210.966 103.497 210.97C103.921 210.974 104.339 210.867 104.71 210.66Z" fill="#010F14"/>
<path d="M113.94 135.66V157.14L130.57 147.55C130.793 147.419 131.046 147.35 131.304 147.349C131.562 147.348 131.816 147.415 132.04 147.544C132.264 147.673 132.449 147.859 132.577 148.083C132.706 148.308 132.772 148.562 132.77 148.82V159C132.77 159.759 132.57 160.505 132.191 161.163C131.812 161.821 131.267 162.369 130.61 162.75L113.94 172.37V201.86C113.944 202.923 113.669 203.968 113.143 204.891C112.616 205.814 111.857 206.583 110.94 207.12L104.78 210.68C104.41 210.895 103.99 211.008 103.562 211.008C103.134 211.009 102.714 210.896 102.344 210.682C101.974 210.468 101.666 210.16 101.453 209.789C101.24 209.418 101.129 208.998 101.13 208.57V134.05C101.13 132.196 101.618 130.374 102.545 128.768C103.472 127.162 104.805 125.828 106.41 124.9L133.29 109.38C133.625 109.187 134.005 109.085 134.391 109.085C134.778 109.085 135.157 109.188 135.492 109.381C135.827 109.575 136.104 109.853 136.297 110.188C136.49 110.523 136.591 110.903 136.59 111.29V119.12C136.593 120.18 136.317 121.221 135.79 122.141C135.264 123.061 134.505 123.826 133.59 124.36L113.94 135.66Z" fill="#FAFAFA"/>
<path d="M172 90.24C171.692 89.196 171.151 88.2355 170.418 87.4307C169.685 86.6259 168.779 85.9977 167.769 85.5935C166.758 85.1892 165.669 85.0194 164.583 85.0967C163.497 85.174 162.443 85.4966 161.5 86.04L154.77 89.93C153.903 90.4296 153.15 91.1049 152.559 91.9125C151.969 92.7202 151.553 93.6424 151.34 94.62L131.27 186C131.113 186.77 131.201 187.57 131.522 188.288C131.843 189.005 132.381 189.604 133.06 190L134.9 191.06C135.47 191.389 136.117 191.562 136.775 191.562C137.433 191.562 138.08 191.389 138.65 191.06L146.76 186.38C147.889 185.689 148.808 184.704 149.42 183.53C150.104 182.345 150.606 181.064 150.91 179.73L154.17 163.07L170.57 153.6L172.27 160.37C172.511 161.253 173.061 162.019 173.82 162.53C174.5 162.93 179.23 165.64 179.91 166.05C180.349 166.238 180.831 166.304 181.305 166.24C181.778 166.177 182.226 165.987 182.6 165.69L192.5 159.97L172 90.24ZM158.67 140.07L162.18 122L162.39 121L166.11 135.77L158.67 140.07Z" fill="#E0E0E0"/>
<path opacity="0.1" d="M179.83 166C178.94 165.47 174.48 162.92 173.83 162.53C173.071 162.019 172.521 161.253 172.28 160.37L170.58 153.6L175.12 150.98L178.37 163.88C178.61 164.728 179.123 165.474 179.83 166Z" fill="#010F14"/>
<path opacity="0.1" d="M172.2 139.28L166.11 135.76L162.39 121C162.39 121 162.39 121 162.39 120.94C162.71 119.5 163.03 117.86 163.39 116.04C163.82 113.77 164.22 111.35 164.6 108.76C165.033 110.84 165.463 112.757 165.89 114.51C166.32 116.26 166.72 117.76 167.1 119.02L172.2 139.28Z" fill="#010F14"/>
<path opacity="0.1" d="M137.47 189C137.416 189.24 137.425 189.49 137.496 189.725C137.568 189.961 137.699 190.174 137.877 190.343C138.056 190.512 138.275 190.633 138.514 190.692C138.753 190.751 139.003 190.747 139.24 190.68V190.76L138.67 191.08C138.1 191.409 137.453 191.582 136.795 191.582C136.137 191.582 135.49 191.409 134.92 191.08L133.06 190C132.381 189.604 131.843 189.005 131.522 188.288C131.201 187.57 131.113 186.77 131.27 186L151.33 94.66C151.514 93.815 151.853 93.0114 152.33 92.29L158.42 95.81C157.937 96.5247 157.598 97.3262 157.42 98.17L137.47 189Z" fill="#010F14"/>
<path d="M192.51 160L182.6 165.72C181.49 166.36 180.6 166.48 179.92 166.08C179.162 165.568 178.612 164.802 178.37 163.92L175.12 151L154.12 163.09L150.87 179.75C150.557 181.086 150.051 182.369 149.37 183.56C148.761 184.733 147.841 185.716 146.71 186.4L139.54 190.55C139.299 190.687 139.023 190.751 138.746 190.735C138.469 190.72 138.203 190.624 137.979 190.46C137.755 190.297 137.583 190.072 137.484 189.813C137.385 189.554 137.363 189.271 137.42 189L157.37 98.14C157.585 97.1642 158.001 96.2439 158.591 95.4381C159.182 94.6322 159.934 93.9585 160.8 93.46L167.27 89.72C167.73 89.4549 168.244 89.2975 168.774 89.2599C169.303 89.2222 169.835 89.3051 170.327 89.5025C170.82 89.6999 171.262 90.0064 171.619 90.3992C171.977 90.792 172.24 91.2607 172.39 91.77L192.51 160ZM172.2 139.3L167.1 119C166.72 117.75 166.32 116.24 165.89 114.49C165.46 112.74 165.03 110.82 164.6 108.74C164.23 111.33 163.82 113.74 163.4 116.02C162.98 118.3 162.56 120.26 162.18 121.96L157.12 147.96L172.2 139.3Z" fill="#FAFAFA"/>
<path d="M239.91 125C241.656 121.998 243.19 118.877 244.5 115.66C245.853 112.344 246.988 108.943 247.9 105.48C248.82 101.98 249.521 98.4267 250 94.84C250.491 91.2173 250.738 87.5658 250.74 83.91C250.847 78.5352 250.159 73.174 248.7 68C247.659 64.1118 245.666 60.5443 242.9 57.62C242.029 56.7856 241.054 56.0663 240 55.48L234 52C232.1 50.8989 229.963 50.2712 227.77 50.17C224.25 49.97 220.35 51.1067 216.07 53.58C211.591 56.2103 207.621 59.6247 204.35 63.66C200.743 68.0387 197.705 72.8571 195.31 78C190.156 89.0918 187.467 101.169 187.43 113.4C187.326 118.783 188.021 124.151 189.49 129.33C190.528 133.23 192.529 136.806 195.31 139.73C196.177 140.59 197.156 141.33 198.22 141.93C199.22 142.49 203.17 144.79 204.15 145.36C206.074 146.473 208.239 147.101 210.46 147.19C213.98 147.363 217.887 146.213 222.18 143.74C224.007 142.685 225.742 141.481 227.37 140.14L229.85 142.99C230.188 143.337 230.572 143.636 230.99 143.88C231.69 144.29 236.67 147.15 237.05 147.38C237.718 147.79 238.498 147.979 239.28 147.92C240.728 147.747 242.119 147.252 243.35 146.47L253.86 140.41L239.91 125ZM230.53 99.9C229.893 103.428 228.87 106.875 227.48 110.18C226.261 113.108 224.628 115.846 222.63 118.31C220.805 120.558 218.59 122.459 216.09 123.92C214.258 125.107 212.149 125.796 209.97 125.92C208.874 124.144 208.093 122.192 207.66 120.15C206.891 116.617 206.535 113.006 206.6 109.39C206.581 105.386 206.936 101.388 207.66 97.45C208.281 93.9239 209.287 90.4766 210.66 87.17C211.89 84.2287 213.534 81.4778 215.54 79C217.377 76.7216 219.613 74.7969 222.14 73.32C223.939 72.1696 226.007 71.5078 228.14 71.4C229.248 73.1915 230.039 75.1602 230.48 77.22C231.264 80.7585 231.637 84.3759 231.59 88C231.602 92.004 231.247 96.0007 230.53 99.94V99.9Z" fill="#E0E0E0"/>
<path opacity="0.1" d="M203.9 145.25C202.63 144.52 199.14 142.49 198.22 141.97C197.156 141.37 196.177 140.63 195.31 139.77C192.529 136.846 190.528 133.27 189.49 129.37C188.021 124.191 187.326 118.823 187.43 113.44C187.43 107.282 188.121 101.144 189.49 95.14C190.71 89.6724 192.479 84.3421 194.77 79.23L200.86 82.75C196.05 93.5294 193.55 105.196 193.52 117C193.416 122.379 194.11 127.744 195.58 132.92C196.616 136.823 198.617 140.403 201.4 143.33C202.16 144.06 202.999 144.704 203.9 145.25Z" fill="#010F14"/>
<path opacity="0.1" d="M233.57 74C232.982 73.2627 232.247 72.6554 231.412 72.2165C230.578 71.7776 229.661 71.5166 228.72 71.45C228.55 71.45 228.37 71.45 228.2 71.45C229.303 73.2394 230.091 75.2045 230.53 77.26C231.295 80.7874 231.65 84.3912 231.59 88C231.606 92.0241 231.251 96.041 230.53 100C229.893 103.528 228.87 106.975 227.48 110.28C226.261 113.208 224.628 115.946 222.63 118.41C220.805 120.658 218.59 122.559 216.09 124.02C214.258 125.207 212.149 125.896 209.97 126.02C210.188 126.371 210.432 126.705 210.7 127.02C211.287 127.763 212.026 128.371 212.868 128.804C213.71 129.237 214.634 129.485 215.58 129.53C217.928 129.518 220.221 128.823 222.18 127.53C224.68 126.069 226.895 124.168 228.72 121.92C230.714 119.453 232.347 116.716 233.57 113.79C234.962 110.482 235.984 107.032 236.62 103.5C237.341 99.5411 237.696 95.5241 237.68 91.5C237.738 87.9012 237.382 84.3076 236.62 80.79C236.143 78.3208 235.099 75.9963 233.57 74Z" fill="#010F14"/>
<path opacity="0.1" d="M229.1 138.68C228.53 139.2 227.96 139.68 227.37 140.18L229.85 143.03C230.188 143.377 230.572 143.676 230.99 143.92C231.67 144.32 236.36 147.01 236.99 147.39C236.602 147.152 236.246 146.867 235.93 146.54L229.1 138.68Z" fill="#010F14"/>
<path d="M253.86 140.45L243.35 146.52C242.119 147.293 240.733 147.785 239.29 147.96C238.661 147.991 238.033 147.88 237.452 147.634C236.872 147.388 236.355 147.014 235.94 146.54L229.1 138.68C226.985 140.626 224.665 142.336 222.18 143.78C217.887 146.253 213.98 147.403 210.46 147.23C207.052 147.105 203.816 145.698 201.4 143.29C198.621 140.361 196.62 136.782 195.58 132.88C194.119 127.716 193.425 122.366 193.52 117C193.557 104.769 196.246 92.6918 201.4 81.6C203.799 76.4456 206.844 71.6169 210.46 67.23C213.733 63.1969 217.703 59.783 222.18 57.15C226.46 54.67 230.36 53.5333 233.88 53.74C237.274 53.9021 240.485 55.3291 242.88 57.74C245.651 60.6641 247.645 64.2363 248.68 68.13C250.148 73.2856 250.842 78.6305 250.74 83.99C250.741 87.6455 250.497 91.2971 250.01 94.92C249.521 98.5231 248.813 102.093 247.89 105.61C246.975 109.07 245.836 112.467 244.48 115.78C243.174 118.999 241.64 122.12 239.89 125.12L253.86 140.45ZM206.6 109.45C206.535 113.069 206.891 116.683 207.66 120.22C208.131 122.676 209.157 124.991 210.66 126.99C211.251 127.729 211.991 128.334 212.832 128.767C213.673 129.199 214.596 129.449 215.54 129.5C217.887 129.487 220.18 128.792 222.14 127.5C224.64 126.039 226.855 124.138 228.68 121.89C230.677 119.424 232.313 116.686 233.54 113.76C234.914 110.45 235.921 107 236.54 103.47C237.267 99.5118 237.622 95.4943 237.6 91.47C237.663 87.871 237.307 84.2769 236.54 80.76C236.071 78.3035 235.045 75.9874 233.54 73.99C232.95 73.2524 232.213 72.645 231.377 72.2062C230.541 71.7673 229.622 71.5064 228.68 71.44C226.358 71.421 224.083 72.089 222.14 73.36C219.611 74.83 217.374 76.7519 215.54 79.03C213.537 81.5102 211.894 84.2607 210.66 87.2C209.291 90.5081 208.285 93.955 207.66 97.48C206.937 101.415 206.582 105.409 206.6 109.41V109.45Z" fill="#FAFAFA"/>
</g>
<defs>
<clipPath id="clip0_896_3821">
<rect width="470" height="461" fill="white"/>
</clipPath>
</defs>
</svg>
