<svg width="500" height="500" viewBox="0 0 500 500" fill="none" xmlns="http://www.w3.org/2000/svg">
<path d="M59.4761 417.506C59.4761 417.506 115.604 478.06 205.163 475.753C294.723 473.445 371.488 415.697 434.964 370.497C498.44 325.297 515.924 254.503 479.561 198.962C443.198 143.422 384.595 166.309 310.396 129.89C236.198 93.4698 222.205 73.0023 139.212 81.2467C56.2189 89.491 -7.59574 178.258 1.14654 273.448C9.88881 368.639 59.4761 417.506 59.4761 417.506Z" fill="#62F0FE"/>
<path opacity="0.7" d="M59.4761 417.506C59.4761 417.506 115.604 478.06 205.163 475.753C294.723 473.445 371.488 415.697 434.964 370.497C498.44 325.297 515.924 254.503 479.561 198.962C443.198 143.422 384.595 166.309 310.396 129.89C236.198 93.4698 222.205 73.0023 139.212 81.2467C56.2189 89.491 -7.59574 178.258 1.14654 273.448C9.88881 368.639 59.4761 417.506 59.4761 417.506Z" fill="#FAFEFE"/>
<path opacity="0.2" d="M343.971 331.221V159.973C343.971 156.192 340.769 153.126 336.818 153.126H259.871C255.921 153.126 252.718 156.192 252.718 159.973V331.221C252.718 335.003 255.921 338.068 259.871 338.068H336.818C340.769 338.068 343.971 335.003 343.971 331.221Z" fill="#010F14"/>
<path d="M340.141 329.038V157.791C340.141 154.009 336.938 150.943 332.988 150.943H256.04C252.09 150.943 248.888 154.009 248.888 157.791V329.038C248.888 332.82 252.09 335.886 256.04 335.886H332.988C336.938 335.886 340.141 332.82 340.141 329.038Z" fill="#B5B5B5" stroke="#063646" stroke-linecap="round" stroke-linejoin="round"/>
<path d="M332.988 150.931H256.027C255.089 150.931 254.159 151.108 253.292 151.452C252.425 151.796 251.637 152.301 250.974 152.937C250.311 153.573 249.785 154.328 249.427 155.159C249.069 155.989 248.886 156.879 248.888 157.778V161.944H340.089V157.778C340.092 155.97 339.347 154.234 338.016 152.95C336.685 151.667 334.877 150.941 332.988 150.931Z" fill="#C1FD93" stroke="#063646" stroke-linecap="round" stroke-linejoin="round"/>
<path d="M312.598 170.999H254.229V262.285H312.598V170.999Z" fill="#063646" stroke="#063646" stroke-linecap="round" stroke-linejoin="round"/>
<path d="M248.849 326.082V329.076C248.847 329.974 249.03 330.865 249.388 331.695C249.746 332.526 250.272 333.281 250.935 333.917C251.598 334.553 252.386 335.057 253.253 335.402C254.12 335.746 255.05 335.923 255.988 335.923H332.949C333.888 335.923 334.817 335.746 335.684 335.402C336.551 335.057 337.339 334.553 338.002 333.917C338.665 333.281 339.191 332.526 339.549 331.695C339.907 330.865 340.09 329.974 340.089 329.076V326.082H248.849Z" fill="#C1FD93" stroke="#063646" stroke-linecap="round" stroke-linejoin="round"/>
<path d="M307.243 307.149H289.159V326.032H307.243V307.149Z" stroke="#063646" stroke-linecap="round" stroke-linejoin="round"/>
<path d="M303.139 307.149C303.139 306.138 302.826 305.149 302.239 304.308C301.652 303.467 300.818 302.812 299.842 302.425C298.866 302.038 297.792 301.936 296.755 302.134C295.719 302.331 294.767 302.818 294.02 303.533C293.273 304.248 292.764 305.159 292.558 306.151C292.352 307.143 292.458 308.172 292.862 309.106C293.267 310.04 293.951 310.839 294.83 311.401C295.708 311.963 296.741 312.263 297.797 312.263C298.499 312.263 299.194 312.13 299.842 311.874C300.49 311.617 301.079 311.24 301.575 310.765C302.071 310.29 302.464 309.726 302.733 309.106C303.001 308.486 303.139 307.821 303.139 307.149Z" stroke="#063646" stroke-linecap="round" stroke-linejoin="round"/>
<path d="M296.156 302.035V262.285" stroke="#063646" stroke-linecap="round" stroke-linejoin="round"/>
<path d="M271.076 274.097H254.229V294.564H271.076V274.097Z" stroke="#063646" stroke-linecap="round" stroke-linejoin="round"/>
<path d="M314.644 326.032H298.201V335.873H314.644V326.032Z" fill="#063646" stroke="#063646" stroke-linecap="round" stroke-linejoin="round"/>
<path d="M294.319 191.242H285.577L275.336 213.904H282.723L274.033 236.143L294.019 208.08H286.202L294.319 191.242Z" fill="#C1FD93"/>
<path opacity="0.2" d="M131.004 348.957H144.41V436.265H131.004C130.066 436.265 129.138 436.088 128.272 435.744C127.405 435.401 126.618 434.898 125.955 434.263C125.292 433.628 124.766 432.875 124.408 432.045C124.049 431.216 123.864 430.327 123.864 429.43V355.804C123.862 354.906 124.046 354.016 124.404 353.185C124.762 352.354 125.287 351.599 125.951 350.963C126.614 350.327 127.401 349.823 128.269 349.478C129.136 349.134 130.065 348.957 131.004 348.957Z" fill="#010F14"/>
<path d="M128.607 347.049H142.013V434.356H128.607C127.668 434.356 126.738 434.179 125.871 433.835C125.004 433.491 124.216 432.986 123.553 432.35C122.89 431.714 122.365 430.959 122.006 430.128C121.648 429.298 121.465 428.408 121.467 427.509V353.884C121.467 352.071 122.219 350.332 123.558 349.051C124.897 347.769 126.713 347.049 128.607 347.049Z" fill="#C1FD93" stroke="#063646" stroke-linecap="round" stroke-linejoin="round"/>
<path opacity="0.2" d="M391.982 349.244H378.576V386.836C379.744 386.036 381.12 385.559 382.553 385.459C383.986 385.359 385.42 385.638 386.698 386.267C387.976 386.896 389.048 387.85 389.796 389.024C390.545 390.198 390.941 391.547 390.941 392.923C390.941 394.298 390.545 395.647 389.796 396.821C389.048 397.995 387.976 398.949 386.698 399.578C385.42 400.207 383.986 400.487 382.553 400.386C381.12 400.286 379.744 399.809 378.576 399.009V436.601H391.982C393.879 436.601 395.698 435.88 397.04 434.596C398.381 433.312 399.135 431.57 399.135 429.754V356.091C399.135 354.275 398.381 352.534 397.04 351.249C395.698 349.965 393.879 349.244 391.982 349.244Z" fill="#010F14"/>
<path d="M389.689 347.049H376.282V384.703C377.451 383.903 378.827 383.427 380.26 383.326C381.693 383.226 383.127 383.506 384.405 384.135C385.683 384.764 386.755 385.717 387.503 386.892C388.252 388.066 388.648 389.414 388.648 390.79C388.648 392.165 388.252 393.514 387.503 394.688C386.755 395.862 385.683 396.816 384.405 397.445C383.127 398.074 381.693 398.354 380.26 398.253C378.827 398.153 377.451 397.677 376.282 396.876V434.469H389.689C390.628 434.469 391.557 434.291 392.424 433.947C393.291 433.603 394.079 433.098 394.742 432.462C395.405 431.826 395.931 431.071 396.289 430.241C396.647 429.41 396.83 428.52 396.829 427.621V353.884C396.829 352.071 396.077 350.332 394.738 349.051C393.399 347.769 391.583 347.049 389.689 347.049Z" fill="#C1FD93" stroke="#063646" stroke-linecap="round" stroke-linejoin="round"/>
<path opacity="0.2" d="M351.958 349.98H173.074C169.123 349.98 165.921 353.045 165.921 356.827V430.49C165.921 434.272 169.123 437.337 173.074 437.337H351.958C355.908 437.337 359.111 434.272 359.111 430.49V356.827C359.111 353.045 355.908 349.98 351.958 349.98Z" fill="#010F14"/>
<path d="M347.372 347.049H168.487C164.537 347.049 161.335 350.114 161.335 353.896V427.559C161.335 431.341 164.537 434.406 168.487 434.406H347.372C351.322 434.406 354.525 431.341 354.525 427.559V353.896C354.525 350.114 351.322 347.049 347.372 347.049Z" fill="#063646" stroke="#063646" stroke-linecap="round" stroke-linejoin="round"/>
<path d="M345.144 349.007H170.715C166.765 349.007 163.563 352.073 163.563 355.854V425.601C163.563 429.382 166.765 432.448 170.715 432.448H345.144C349.094 432.448 352.297 429.382 352.297 425.601V355.854C352.297 352.073 349.094 349.007 345.144 349.007Z" fill="#C1FD93" stroke="#063646" stroke-linecap="round" stroke-linejoin="round"/>
<path d="M177.191 352.162H305.953V430.078H177.191C175.148 430.078 173.19 429.302 171.746 427.919C170.302 426.537 169.491 424.662 169.491 422.707V359.534C169.491 357.579 170.302 355.704 171.746 354.321C173.19 352.939 175.148 352.162 177.191 352.162Z" fill="#B5B5B5" stroke="#063646" stroke-linecap="round" stroke-linejoin="round"/>
<path d="M342.603 395.442C345.553 395.442 347.945 393.153 347.945 390.328C347.945 387.504 345.553 385.215 342.603 385.215C339.653 385.215 337.261 387.504 337.261 390.328C337.261 393.153 339.653 395.442 342.603 395.442Z" fill="#063646" stroke="#063646" stroke-linecap="round" stroke-linejoin="round"/>
<path d="M313.823 415.124H310.123V430.078H313.823V415.124Z" stroke="#063646" stroke-linecap="round" stroke-linejoin="round"/>
<path d="M313.823 392.299H310.123V407.253H313.823V392.299Z" stroke="#063646" stroke-linecap="round" stroke-linejoin="round"/>
<path d="M209.28 272.85H172.8V270.941C172.8 270.445 172.594 269.969 172.228 269.618C171.861 269.268 171.364 269.07 170.846 269.07C170.327 269.07 169.83 269.268 169.464 269.618C169.097 269.969 168.891 270.445 168.891 270.941V300.875C168.891 301.372 169.097 301.847 169.464 302.198C169.83 302.549 170.327 302.746 170.846 302.746C171.364 302.746 171.861 302.549 172.228 302.198C172.594 301.847 172.8 301.372 172.8 300.875V298.194H209.28C210.536 298.19 211.739 297.711 212.625 296.86C213.512 296.009 214.01 294.856 214.01 293.654V277.439C214.017 276.84 213.899 276.245 213.665 275.69C213.431 275.134 213.084 274.628 212.644 274.201C212.204 273.775 211.681 273.435 211.103 273.203C210.526 272.971 209.906 272.851 209.28 272.85ZM172.8 275.344H197.554V295.674H172.8V275.344ZM211.404 293.654C211.404 294.194 211.181 294.713 210.783 295.096C210.385 295.479 209.845 295.696 209.28 295.699H200.043V275.369H209.28C209.844 275.369 210.384 275.583 210.782 275.965C211.18 276.346 211.404 276.863 211.404 277.402V293.654Z" fill="#063646"/>
<path d="M187.718 231.99H172.435V263.084H199.144V242.03L187.718 231.99Z" fill="#C1FD93" stroke="#063646" stroke-linecap="round" stroke-linejoin="round"/>
<path d="M189.49 241.157H179.796C177.99 241.157 176.526 242.559 176.526 244.288V255.413C176.526 257.142 177.99 258.544 179.796 258.544H189.49C191.296 258.544 192.76 257.142 192.76 255.413V244.288C192.76 242.559 191.296 241.157 189.49 241.157Z" fill="#FAFEFE" stroke="#063646" stroke-linecap="round" stroke-linejoin="round"/>
<path d="M184.487 241.469V258.556" stroke="#063646" stroke-linecap="round" stroke-linejoin="round"/>
<path d="M176.526 250.175H192.591" stroke="#063646" stroke-linecap="round" stroke-linejoin="round"/>
<path d="M180.422 258.406V254.527C180.422 253.495 180.85 252.506 181.612 251.776C182.375 251.046 183.409 250.636 184.487 250.636H184.63C185.709 250.636 186.745 251.046 187.509 251.775C188.273 252.504 188.705 253.494 188.708 254.527V258.544" stroke="#063646" stroke-linecap="round" stroke-linejoin="round"/>
<path d="M188.708 242.055V245.934C188.705 246.967 188.273 247.957 187.509 248.686C186.745 249.416 185.709 249.825 184.63 249.825H184.487C183.953 249.825 183.424 249.725 182.931 249.529C182.438 249.334 181.99 249.047 181.612 248.686C181.235 248.324 180.935 247.895 180.731 247.423C180.527 246.951 180.422 246.445 180.422 245.934V241.918" stroke="#063646" stroke-linecap="round" stroke-linejoin="round"/>
<path opacity="0.2" d="M443.446 212.246C443.446 212.08 443.377 211.922 443.255 211.805C443.133 211.688 442.967 211.622 442.794 211.622H416.919C416.747 211.625 416.584 211.692 416.462 211.808C416.341 211.925 416.271 212.081 416.268 212.246V230.543C416.271 230.707 416.341 230.864 416.463 230.979L421.844 294.103C421.838 294.132 421.838 294.161 421.844 294.19V359.446C421.843 359.537 421.863 359.627 421.904 359.709C421.945 359.791 422.004 359.864 422.078 359.92L425.687 381.273C425.712 381.419 425.79 381.551 425.906 381.647C426.023 381.743 426.172 381.796 426.326 381.797H427.342L428.215 429.505C428.252 429.899 428.441 430.266 428.746 430.533C429.051 430.8 429.45 430.948 429.863 430.948C430.277 430.948 430.675 430.8 430.98 430.533C431.285 430.266 431.475 429.899 431.511 429.505L432.371 381.785H433.374C433.53 381.784 433.68 381.731 433.799 381.636C433.918 381.54 433.998 381.407 434.026 381.261L437.622 359.908C437.697 359.852 437.759 359.78 437.802 359.698C437.845 359.616 437.868 359.526 437.869 359.434V294.19C437.863 294.161 437.863 294.132 437.869 294.103L443.25 230.979C443.368 230.862 443.434 230.706 443.433 230.543L443.446 212.246Z" fill="#010F14"/>
<path d="M426.547 430.44C426.288 430.437 426.04 430.338 425.855 430.163C425.671 429.989 425.564 429.753 425.557 429.505L424.593 376.808H428.502L427.55 429.505C427.544 429.755 427.435 429.993 427.248 430.168C427.06 430.342 426.809 430.44 426.547 430.44Z" fill="#FAFEFE" stroke="#063646" stroke-miterlimit="10"/>
<path d="M439.328 230.593H413.805L419.225 294.053H419.238V359.446H433.909V294.053H433.922L439.328 230.593Z" fill="#063646" stroke="#063646" stroke-linecap="round" stroke-linejoin="round"/>
<path d="M439.485 212.246H413.649V230.53H439.485V212.246Z" fill="#C1FD93" stroke="#063646" stroke-linecap="round" stroke-linejoin="round"/>
<path d="M430.078 381.174H423.069L419.421 359.546H433.713L430.078 381.174Z" fill="#C1FD93" stroke="#063646" stroke-linecap="round" stroke-linejoin="round"/>
<path opacity="0.2" d="M96.178 231.291C96.1655 231.136 96.0962 230.991 95.9826 230.88C95.8305 230.699 95.6225 230.569 95.3884 230.508C95.1543 230.448 94.9062 230.46 94.6797 230.543C92.8036 231.291 92.6212 238.8 92.5951 258.481C92.5951 270.355 92.5951 283.825 91.5919 292.681C88.6534 316.135 83.8625 339.342 77.2603 362.103C75.853 366.645 74.7991 371.281 74.1074 375.973C73.3903 371.294 72.3191 366.671 70.9023 362.141C64.2941 339.381 59.5031 316.173 56.5707 292.718C55.5936 283.863 55.5805 270.393 55.5675 258.519C55.5675 238.837 55.3721 231.329 53.4959 230.58C53.269 230.501 53.022 230.491 52.7888 230.551C52.5556 230.612 52.3476 230.739 52.1931 230.917C52.0779 231.026 52.0123 231.174 52.0107 231.329C52.0107 231.965 49.1313 295.313 53.965 321.892C56.1277 333.741 58.5511 345.689 60.8962 357.239C63.8407 371.744 66.3813 384.279 67.6451 392.96C69.4431 405.283 69.417 420.886 69.3128 427.023C69.3111 427.409 69.3889 427.792 69.5419 428.15C69.6948 428.508 69.9199 428.833 70.2042 429.108C70.4885 429.382 70.8265 429.6 71.1989 429.75C71.5713 429.899 71.9708 429.977 72.3746 429.979H75.7881C76.1918 429.979 76.5914 429.902 76.9639 429.753C77.3363 429.604 77.6742 429.386 77.9578 429.111C78.2414 428.836 78.4651 428.509 78.616 428.151C78.7669 427.793 78.842 427.409 78.8368 427.023C78.7456 420.886 78.7065 405.295 80.5045 392.96C81.8074 384.229 84.3219 371.757 87.2664 357.239C89.5985 345.689 92.0219 333.741 94.1846 321.892C99.0183 295.275 96.2041 231.927 96.178 231.291ZM74.1074 386.886C74.1421 387.034 74.1856 387.18 74.2377 387.323L74.1074 387.435L73.9771 387.323C74.0162 387.198 74.0553 387.061 74.1074 386.886Z" fill="#010F14"/>
<path d="M92.6733 231.64C88.7647 227.899 91.6962 272.488 89.4161 293.068C86.494 316.561 81.7029 339.807 75.0845 362.602C69.2216 381.934 72.1531 387.859 72.1531 387.859L71.2541 388.557C70.746 388.146 70.3551 387.859 70.3551 387.859C70.3551 387.859 73.2866 381.934 67.4237 362.602C60.8053 339.807 56.0142 316.561 53.0921 293.068C50.812 272.488 53.7435 227.899 49.8349 231.64C49.8349 231.64 46.9034 295.25 51.7892 322.066C56.675 348.882 63.1893 377.569 65.4693 393.16C67.2934 405.632 67.2412 421.447 67.15 427.31C67.1449 427.614 67.203 427.916 67.3212 428.199C67.4393 428.482 67.6151 428.739 67.8382 428.957C68.0614 429.174 68.3274 429.346 68.6208 429.464C68.9142 429.581 69.2292 429.642 69.5473 429.642H72.9609C73.279 429.642 73.5939 429.581 73.8874 429.464C74.1808 429.346 74.4468 429.174 74.67 428.957C74.8931 428.739 75.0688 428.482 75.187 428.199C75.3051 427.916 75.3633 427.614 75.3581 427.31C75.2669 421.447 75.2279 405.607 77.0388 393.16C79.3189 377.569 85.8332 348.882 90.719 322.066C95.6048 295.25 92.6733 231.64 92.6733 231.64Z" fill="#063646" stroke="#063646" stroke-linecap="round" stroke-linejoin="round"/>
<path opacity="0.2" d="M419.968 96.9871C426.566 74.5201 434.346 52.3864 443.276 30.6706L390.054 28.6875C390.054 28.6875 374.602 66.9906 368.439 77.6172C362.277 88.2438 354.459 91.337 345.417 94.9291C336.376 98.5212 310.891 113.813 308.416 119.724C305.94 125.636 303.074 143.335 300.599 149.234C298.123 155.134 293.198 158.277 285.798 160.248C284.352 160.634 282.88 160.996 281.472 161.345H281.368L279.974 161.695L279.232 161.882L278.749 162.006L278.085 162.193L277.616 162.331L276.952 162.53L276.561 162.642L275.61 162.967L275.427 163.042C275.18 163.129 274.945 163.216 274.724 163.316L274.424 163.441L273.916 163.69L273.642 163.827L273.186 164.089L272.991 164.226C272.802 164.355 272.623 164.496 272.457 164.651C272.328 164.778 272.21 164.916 272.105 165.062C272.069 165.113 272.039 165.168 272.014 165.224C271.951 165.332 271.898 165.444 271.857 165.561C271.83 165.621 271.808 165.684 271.792 165.748C271.778 165.872 271.778 165.998 271.792 166.122C271.786 166.18 271.786 166.239 271.792 166.297C271.801 166.493 271.84 166.686 271.909 166.871C273.134 170.413 285.055 172.783 296.977 171.211C308.898 169.64 313.419 166.484 317.119 161.757C320.819 157.03 326.982 146.79 329.444 145.63L331.92 144.383C331.92 144.383 331.503 186.49 332.324 191.604C333.144 196.717 328.623 214.428 319.582 235.682C316.564 242.448 315.004 249.727 314.995 257.084V257.184C315.017 258.854 315.152 260.52 315.399 262.173C315.612 263.599 315.916 265.011 316.311 266.401C316.429 266.801 316.559 267.2 316.676 267.574V267.636C316.937 268.409 317.21 269.12 317.484 269.757C317.614 270.043 317.731 270.318 317.862 270.567L317.94 270.729C318.061 270.97 318.179 271.195 318.292 271.403C318.294 271.436 318.294 271.469 318.292 271.503C318.422 271.74 318.552 271.964 318.696 272.176V272.239C318.813 272.413 318.917 272.588 319.034 272.737L319.139 272.887L319.399 273.224L319.503 273.336L319.842 273.698C322.721 276.454 328.467 276.454 329.705 275.269C330.943 274.084 330.122 258.344 332.584 248.117C335.047 237.889 349.43 210.699 353.547 205.224C356.687 200.808 359.567 196.227 362.172 191.504C360.246 204.309 356.801 216.863 351.906 228.921C343.685 249.389 335.047 262.759 333.405 268.671C331.763 274.583 337.926 278.113 341.626 276.542C345.326 274.97 353.13 259.217 355.958 253.717C358.785 248.216 367.201 235.033 367.201 235.033C369.448 235.291 371.727 234.99 373.817 234.16C375.908 233.33 377.739 231.998 379.136 230.293C379.735 229.57 380.373 228.759 381.038 227.899C383.447 228.182 385.893 227.922 388.178 227.138C394.34 225.18 393.936 219.268 396.399 213.418C397.441 211.081 398.837 208.904 400.542 206.957C402.387 205.795 403.921 204.236 405.024 202.405C406.249 199.499 408.138 177.896 410.027 161.42C410.571 139.634 413.91 117.994 419.968 96.9871Z" fill="#010F14"/>
<mask id="mask0_992_5700" style="mask-type:luminance" maskUnits="userSpaceOnUse" x="371" y="197" width="28" height="26">
<path d="M398.496 197.366C398.496 197.366 392.334 202.48 389.871 208.379C387.409 214.279 387.813 220.191 381.65 222.099C375.488 224.007 371.788 222.099 371.788 222.099C371.788 222.099 376.712 210.3 379.605 206.359C382.497 202.417 398.496 197.366 398.496 197.366Z" fill="white"/>
</mask>
<g mask="url(#mask0_992_5700)">
<path d="M398.496 197.366C398.496 197.366 392.334 202.48 389.871 208.379C387.409 214.279 387.813 220.191 381.65 222.099C375.488 224.007 371.788 222.099 371.788 222.099C371.788 222.099 376.712 210.3 379.605 206.359C382.497 202.417 398.496 197.366 398.496 197.366Z" fill="#00C1DB"/>
<path opacity="0.5" d="M398.496 197.366C398.496 197.366 392.334 202.48 389.871 208.379C387.409 214.279 387.813 220.191 381.65 222.099C375.488 224.007 371.788 222.099 371.788 222.099C371.788 222.099 376.712 210.3 379.605 206.359C382.497 202.417 398.496 197.366 398.496 197.366Z" fill="#FAFEFE"/>
</g>
<path d="M398.496 197.366C398.496 197.366 392.334 202.48 389.871 208.379C387.409 214.279 387.813 220.191 381.65 222.099C375.488 224.007 371.788 222.099 371.788 222.099C371.788 222.099 376.712 210.3 379.605 206.359C382.497 202.417 398.496 197.366 398.496 197.366Z" stroke="#063646" stroke-linecap="round" stroke-linejoin="round"/>
<path d="M383.539 23.6985C383.539 23.6985 368.087 62.0016 361.925 72.6282C355.762 83.2548 347.945 86.348 338.903 89.9401C329.861 93.5322 304.377 108.823 301.901 114.735C299.426 120.647 296.56 138.346 294.084 144.245C291.609 150.145 286.684 153.288 279.284 155.259C271.883 157.229 264.079 158.414 265.317 161.944C266.555 165.474 278.463 167.856 290.384 166.284C302.305 164.713 306.826 161.557 310.526 156.83C314.227 152.103 320.389 141.863 322.852 140.703L325.327 139.456C325.327 139.456 324.91 181.563 325.731 186.677C326.552 191.791 322.031 209.502 312.989 230.755C303.947 252.008 310.526 266.164 313.406 268.921C316.285 271.677 322.031 271.677 323.269 270.492C324.506 269.307 323.685 253.567 326.148 243.34C328.61 233.112 342.994 205.922 347.111 200.447C350.251 196.031 353.131 191.451 355.736 186.727C353.809 199.532 350.365 212.086 345.47 224.144C337.248 244.612 328.61 257.982 326.969 263.894C325.327 269.806 331.49 273.336 335.19 271.765C338.89 270.193 346.694 254.44 349.521 248.94C352.349 243.439 360.687 230.044 360.687 230.044C362.934 230.302 365.213 230.001 367.303 229.171C369.393 228.341 371.225 227.009 372.621 225.304C377.546 219.405 385.363 207.207 385.363 207.207C385.363 207.207 396.868 201.295 398.509 197.366C400.151 193.437 403.03 155.259 405.506 141.876C407.981 128.493 414.952 99.7809 418.652 88.3685C422.352 76.9562 449.321 27.6398 449.321 27.6398" fill="#FAFEFE"/>
<mask id="mask1_992_5700" style="mask-type:luminance" maskUnits="userSpaceOnUse" x="265" y="23" width="185" height="250">
<path d="M383.539 23.6985C383.539 23.6985 368.087 62.0016 361.925 72.6282C355.762 83.2548 347.945 86.348 338.903 89.9401C329.861 93.5322 304.377 108.823 301.901 114.735C299.426 120.647 296.56 138.346 294.084 144.245C291.609 150.145 286.684 153.288 279.284 155.259C271.883 157.229 264.079 158.414 265.317 161.944C266.555 165.474 278.463 167.856 290.384 166.284C302.305 164.713 306.826 161.557 310.526 156.83C314.227 152.103 320.389 141.863 322.852 140.703L325.327 139.456C325.327 139.456 324.91 181.563 325.731 186.677C326.552 191.791 322.031 209.502 312.989 230.755C303.947 252.008 310.526 266.164 313.406 268.921C316.285 271.677 322.031 271.677 323.269 270.492C324.506 269.307 323.685 253.567 326.148 243.34C328.61 233.112 342.994 205.922 347.111 200.447C350.251 196.031 353.131 191.451 355.736 186.727C353.809 199.532 350.365 212.086 345.47 224.144C337.248 244.612 328.61 257.982 326.969 263.894C325.327 269.806 331.49 273.336 335.19 271.765C338.89 270.193 346.694 254.44 349.521 248.94C352.349 243.439 360.687 230.044 360.687 230.044C362.934 230.302 365.213 230.001 367.303 229.171C369.393 228.341 371.225 227.009 372.621 225.304C377.546 219.405 385.363 207.207 385.363 207.207C385.363 207.207 396.868 201.295 398.509 197.366C400.151 193.437 403.03 155.259 405.506 141.876C407.981 128.493 414.952 99.7809 418.652 88.3685C422.352 76.9562 449.321 27.6398 449.321 27.6398" fill="white"/>
</mask>
<g mask="url(#mask1_992_5700)">
<path d="M310.54 156.83C314.24 152.116 320.402 141.863 322.865 140.703L325.34 139.456C325.34 139.456 319.204 128.119 313.119 136.438C307.035 144.757 298.358 157.292 290.54 158.115C285.121 158.701 280.117 157.279 274.971 156.356C269.186 157.778 264.34 159.1 265.33 161.944C266.555 165.486 278.476 167.856 290.397 166.284C302.318 164.713 306.839 161.557 310.54 156.83Z" fill="#00C1DB"/>
<path d="M308.429 250.412C308.129 260.602 311.556 267.2 313.419 268.983C316.298 271.74 322.044 271.74 323.282 270.555C324.519 269.37 323.699 253.629 326.161 243.402C328.623 233.174 343.007 205.984 347.124 200.509C350.264 196.093 353.144 191.513 355.749 186.789C355.749 186.789 346.134 203.852 335.711 213.83C326.474 222.673 313.158 232.164 308.429 250.412Z" fill="#00C1DB"/>
<path d="M432.124 60.006C423.745 73.8586 414.459 87.1893 404.32 99.9181C386.08 123.192 385.22 152.303 382.614 164.775C380.009 177.248 381.742 188.885 372.191 202.193C362.641 215.501 356.557 226.302 356.557 226.302L355.749 186.739C353.822 199.545 350.378 212.098 345.483 224.157C337.261 244.624 328.623 257.995 326.982 263.907C325.34 269.819 331.503 273.349 335.203 271.777C338.903 270.205 346.707 254.453 349.535 248.952C352.362 243.452 360.687 230.044 360.687 230.044C362.934 230.302 365.213 230.001 367.303 229.171C369.393 228.341 371.225 227.009 372.621 225.304C377.546 219.405 385.364 207.207 385.364 207.207C385.364 207.207 396.868 201.295 398.509 197.366C400.151 193.437 403.03 155.259 405.506 141.876C407.981 128.493 414.952 99.7809 418.652 88.3685C420.372 83.0926 426.3 71.331 432.189 60.2055L432.124 60.006Z" fill="#00C1DB"/>
<g opacity="0.5">
<path d="M310.54 156.83C314.24 152.116 320.402 141.863 322.865 140.703L325.34 139.456C325.34 139.456 319.204 128.119 313.119 136.438C307.035 144.757 298.358 157.292 290.54 158.115C285.121 158.701 280.117 157.279 274.971 156.356C269.186 157.778 264.34 159.1 265.33 161.944C266.555 165.486 278.476 167.856 290.397 166.284C302.318 164.713 306.839 161.557 310.54 156.83Z" fill="#FAFEFE"/>
<path d="M308.429 250.412C308.129 260.602 311.556 267.2 313.419 268.983C316.298 271.74 322.044 271.74 323.282 270.555C324.519 269.37 323.699 253.629 326.161 243.402C328.623 233.174 343.007 205.984 347.124 200.509C350.264 196.093 353.144 191.513 355.749 186.789C355.749 186.789 346.134 203.852 335.711 213.83C326.474 222.673 313.158 232.164 308.429 250.412Z" fill="#FAFEFE"/>
<path d="M432.124 60.006C423.745 73.8586 414.459 87.1893 404.32 99.9181C386.08 123.192 385.22 152.303 382.614 164.775C380.009 177.248 381.742 188.885 372.191 202.193C362.641 215.501 356.557 226.302 356.557 226.302L355.749 186.739C353.822 199.545 350.378 212.098 345.483 224.157C337.261 244.624 328.623 257.995 326.982 263.907C325.34 269.819 331.503 273.349 335.203 271.777C338.903 270.205 346.707 254.453 349.535 248.952C352.362 243.452 360.687 230.044 360.687 230.044C362.934 230.302 365.213 230.001 367.303 229.171C369.393 228.341 371.225 227.009 372.621 225.304C377.546 219.405 385.364 207.207 385.364 207.207C385.364 207.207 396.868 201.295 398.509 197.366C400.151 193.437 403.03 155.259 405.506 141.876C407.981 128.493 414.952 99.7809 418.652 88.3685C420.372 83.0926 426.3 71.331 432.189 60.2055L432.124 60.006Z" fill="#FAFEFE"/>
</g>
</g>
<path d="M383.539 23.6985C383.539 23.6985 368.087 62.0016 361.925 72.6282C355.762 83.2548 347.945 86.348 338.903 89.9401C329.861 93.5322 304.377 108.823 301.901 114.735C299.426 120.647 296.56 138.346 294.084 144.245C291.609 150.145 286.684 153.288 279.284 155.259C271.883 157.229 264.079 158.414 265.317 161.944C266.555 165.474 278.463 167.856 290.384 166.284C302.305 164.713 306.826 161.557 310.526 156.83C314.227 152.103 320.389 141.863 322.852 140.703L325.327 139.456C325.327 139.456 324.91 181.563 325.731 186.677C326.552 191.791 322.031 209.502 312.989 230.755C303.947 252.008 310.526 266.164 313.406 268.921C316.285 271.677 322.031 271.677 323.269 270.492C324.506 269.307 323.685 253.567 326.148 243.34C328.61 233.112 342.994 205.922 347.111 200.447C350.251 196.031 353.131 191.451 355.736 186.727C353.809 199.532 350.365 212.086 345.47 224.144C337.248 244.612 328.61 257.982 326.969 263.894C325.327 269.806 331.49 273.336 335.19 271.765C338.89 270.193 346.694 254.44 349.521 248.94C352.349 243.439 360.687 230.044 360.687 230.044C362.934 230.302 365.213 230.001 367.303 229.171C369.393 228.341 371.225 227.009 372.621 225.304C377.546 219.405 385.363 207.207 385.363 207.207C385.363 207.207 396.868 201.295 398.509 197.366C400.151 193.437 403.03 155.259 405.506 141.876C407.981 128.493 414.952 99.7809 418.652 88.3685C422.352 76.9562 449.321 27.6398 449.321 27.6398" stroke="#063646" stroke-linecap="round" stroke-linejoin="round"/>
<path d="M358.29 180.565C358.29 180.565 361.768 178.907 362.628 173.082C363.159 169.503 363.45 165.895 363.501 162.281" stroke="#063646" stroke-linecap="round" stroke-linejoin="round"/>
<path d="M360.687 230.044C360.687 230.044 373.429 208.017 375.488 206.833C377.546 205.648 384.113 202.105 384.53 196.605C384.947 191.105 385.35 184.407 385.35 184.407" stroke="#063646" stroke-linecap="round" stroke-linejoin="round"/>
<path d="M139.915 26.7417C139.915 26.7417 153.934 74.6362 156.853 80.5357C159.771 86.4352 175.341 95.8769 178.22 108.861C181.099 121.845 184.799 127.358 188.083 137.198C191.366 147.039 194.258 147.039 189.32 155.296C184.382 163.553 183.562 168.679 186.858 173.793C190.154 178.907 207 185.592 204.942 189.533C202.883 193.474 200.825 194.647 199.183 194.647H197.541C197.541 194.647 201.242 207.631 199.183 212.358C197.125 217.085 192.2 220.228 190.558 217.858C188.916 215.488 186.037 211.959 186.037 211.959C186.037 211.959 189.32 218.257 185.216 219.043C181.112 219.829 180.278 218.656 174.116 215.9C167.953 213.144 153.973 210.387 153.973 210.387C153.973 210.387 137.531 216.623 132.189 218.257C126.848 219.891 120.268 217.858 120.268 217.858C120.268 217.858 102.588 224.556 99.7088 219.105C96.8295 213.655 94.784 190.78 93.5462 186.452C92.3085 182.124 88.2045 178.582 89.0253 171.884C89.8461 165.187 91.9046 161.258 92.3215 158.514C92.7385 155.77 103.409 105.78 103.409 94.7669C103.409 83.7536 83.2796 28.6625 83.2796 28.6625" fill="#FAFEFE"/>
<path d="M139.915 26.7417C139.915 26.7417 153.934 74.6362 156.853 80.5357C159.771 86.4352 175.341 95.8769 178.22 108.861C181.099 121.845 184.799 127.358 188.083 137.198C191.366 147.039 194.258 147.039 189.32 155.296C184.382 163.553 183.562 168.679 186.858 173.793C190.154 178.907 207 185.592 204.942 189.533C202.883 193.474 200.825 194.647 199.183 194.647H197.541C197.541 194.647 201.242 207.631 199.183 212.358C197.125 217.085 192.2 220.228 190.558 217.858C188.916 215.488 186.037 211.959 186.037 211.959C186.037 211.959 189.32 218.257 185.216 219.043C181.112 219.829 180.278 218.656 174.116 215.9C167.953 213.144 153.973 210.387 153.973 210.387C153.973 210.387 137.531 216.623 132.189 218.257C126.848 219.891 120.268 217.858 120.268 217.858C120.268 217.858 102.588 224.556 99.7088 219.105C96.8295 213.655 94.784 190.78 93.5462 186.452C92.3085 182.124 88.2045 178.582 89.0253 171.884C89.8461 165.187 91.9046 161.258 92.3215 158.514C92.7385 155.77 103.409 105.78 103.409 94.7669C103.409 83.7536 83.2796 28.6625 83.2796 28.6625" stroke="#063646" stroke-linecap="round" stroke-linejoin="round"/>
<path d="M157.648 125.349C157.648 125.349 164.162 151.716 167.927 160.771C171.692 169.827 175.314 179.268 179.432 182.81C183.549 186.353 195.874 192.639 197.515 194.609" stroke="#063646" stroke-linecap="round" stroke-linejoin="round"/>
<path d="M129.271 154.872C129.271 154.872 155.576 191.042 159.237 196.58C162.898 202.118 174.038 202.08 176.917 204.45L185.959 211.934" stroke="#063646" stroke-linecap="round" stroke-linejoin="round"/>
<path d="M104.23 165.099C104.23 165.099 115.33 178.083 124.372 191.067C133.414 204.051 134.248 207.207 138.704 208.379C143.16 209.552 153.908 210.35 153.908 210.35" stroke="#063646" stroke-linecap="round" stroke-linejoin="round"/>
<path d="M95.5657 185.143C95.5657 185.143 114.47 209.539 116.112 213.081C116.917 215.037 118.361 216.691 120.229 217.796" stroke="#063646" stroke-linecap="round" stroke-linejoin="round"/>
<path d="M128.854 129.677C128.854 129.677 120.229 134.018 121.467 137.548C122.359 139.99 123.457 142.359 124.75 144.632" stroke="#063646" stroke-linecap="round" stroke-linejoin="round"/>
<path d="M105.845 143.061C105.845 143.061 98.0281 145.418 97.6242 149.746C97.4128 152.463 97.9804 155.185 99.2658 157.616" stroke="#063646" stroke-linecap="round" stroke-linejoin="round"/>
<path d="M253.982 193.736H193.255V200.384H253.982V193.736Z" fill="#FAFEFE" stroke="#063646" stroke-linecap="round" stroke-linejoin="round"/>
<path opacity="0.2" d="M143.889 39.077C143.889 39.077 164.357 82.9055 167.237 88.8175C170.116 94.7294 185.724 104.159 188.604 117.143C191.483 130.126 195.183 135.639 198.467 145.48C201.75 155.321 204.642 155.309 199.704 163.578C194.766 171.847 193.946 176.948 197.242 182.075C200.538 187.201 217.384 193.874 215.326 197.815C213.267 201.756 211.209 202.929 209.567 202.929H207.925C207.925 202.929 211.626 215.912 209.567 220.627C207.508 225.342 202.584 228.497 200.942 226.14C199.3 223.783 196.421 220.24 196.421 220.24C196.421 220.24 199.704 226.539 195.6 227.325C191.496 228.111 190.662 226.926 184.5 224.169C178.337 221.413 164.357 218.669 164.357 218.669C164.357 218.669 147.915 224.905 142.573 226.539C137.232 228.173 130.652 226.14 130.652 226.14C130.652 226.14 112.972 232.825 110.093 227.325C107.213 221.825 105.168 198.987 103.93 194.659C102.692 190.331 98.5883 186.789 99.4092 180.104C100.23 173.419 102.288 169.477 102.705 166.721C103.122 163.964 113.793 113.999 113.793 102.974C113.793 91.9481 93.6635 36.8694 93.6635 36.8694" fill="#010F14"/>
<path d="M139.915 26.7417C139.915 26.7417 153.934 74.6362 156.853 80.5357C159.771 86.4352 175.341 95.8769 178.22 108.861C181.099 121.845 184.799 127.358 188.083 137.198C191.366 147.039 194.258 147.039 189.32 155.296C184.382 163.553 183.562 168.679 186.858 173.793C190.154 178.907 207 185.592 204.942 189.533C202.883 193.474 200.825 194.647 199.183 194.647H197.541C197.541 194.647 201.242 207.631 199.183 212.358C197.125 217.085 192.2 220.228 190.558 217.858C188.916 215.488 186.037 211.959 186.037 211.959C186.037 211.959 189.32 218.257 185.216 219.043C181.112 219.829 180.278 218.656 174.116 215.9C167.953 213.144 153.973 210.387 153.973 210.387C153.973 210.387 137.531 216.623 132.189 218.257C126.848 219.891 120.268 217.858 120.268 217.858C120.268 217.858 102.588 224.556 99.7088 219.105C96.8295 213.655 94.784 190.78 93.5462 186.452C92.3085 182.124 88.2045 178.582 89.0253 171.884C89.8461 165.187 91.9046 161.258 92.3215 158.514C92.7385 155.77 103.409 105.78 103.409 94.7669C103.409 83.7536 83.2796 28.6625 83.2796 28.6625" fill="#FAFEFE"/>
<mask id="mask2_992_5700" style="mask-type:luminance" maskUnits="userSpaceOnUse" x="83" y="26" width="123" height="196">
<path d="M139.915 26.7417C139.915 26.7417 153.934 74.6362 156.853 80.5357C159.771 86.4352 175.341 95.8769 178.22 108.861C181.099 121.845 184.799 127.358 188.083 137.198C191.366 147.039 194.258 147.039 189.32 155.296C184.382 163.553 183.562 168.679 186.858 173.793C190.154 178.907 207 185.592 204.942 189.533C202.883 193.474 200.825 194.647 199.183 194.647H197.541C197.541 194.647 201.242 207.631 199.183 212.358C197.125 217.085 192.2 220.228 190.558 217.858C188.916 215.488 186.037 211.959 186.037 211.959C186.037 211.959 189.32 218.257 185.216 219.043C181.112 219.829 180.278 218.656 174.116 215.9C167.953 213.144 153.973 210.387 153.973 210.387C153.973 210.387 137.531 216.623 132.189 218.257C126.848 219.891 120.268 217.858 120.268 217.858C120.268 217.858 102.588 224.556 99.7088 219.105C96.8295 213.655 94.784 190.78 93.5462 186.452C92.3085 182.124 88.2045 178.582 89.0253 171.884C89.8461 165.187 91.9046 161.258 92.3215 158.514C92.7385 155.77 103.409 105.78 103.409 94.7669C103.409 83.7536 83.2796 28.6625 83.2796 28.6625" fill="white"/>
</mask>
<g mask="url(#mask2_992_5700)">
<path d="M131.59 211.335C126.489 212.324 121.313 212.916 116.112 213.106C116.112 213.106 116.399 222.523 99.6697 219.006C102.549 224.519 120.229 217.758 120.229 217.758C120.229 217.758 126.809 219.729 132.15 218.158C137.492 216.586 153.934 210.287 153.934 210.287C153.934 210.287 167.914 213.044 174.077 215.8C180.239 218.557 181.06 219.729 185.177 218.943C189.294 218.158 185.998 211.859 185.998 211.859C185.998 211.859 188.877 215.401 190.519 217.758C192.161 220.116 197.033 216.973 199.144 212.258C201.255 207.543 197.502 194.547 197.502 194.547H199.144C200.786 194.547 202.844 193.3 204.903 189.433C206.961 185.567 190.102 178.807 186.819 173.693C183.536 168.579 184.343 163.466 189.281 155.196C194.219 146.927 191.34 146.939 188.044 137.099C184.747 127.258 181.06 121.757 178.181 108.761C175.575 97.0119 162.546 88.1564 157.947 82.207C161.055 90.1318 165.029 97.7199 169.803 104.845C181.972 122.306 182.832 138.932 179.366 148.074C175.901 157.217 172.409 164.713 172.409 164.713L160.253 138.994C160.253 138.994 161.986 163.939 165.465 169.764C168.943 175.589 170.676 182.237 176.761 187.226C182.845 192.215 191.522 198.027 184.578 198.027C177.634 198.027 159.276 196.58 159.276 196.58C159.276 196.58 161.126 203.016 151.563 203.016C144.833 202.856 138.138 202.02 131.59 200.521C131.59 200.521 140.28 209.676 131.59 211.335Z" fill="#00C1DB"/>
<path opacity="0.5" d="M131.59 211.335C126.489 212.324 121.313 212.916 116.112 213.106C116.112 213.106 116.399 222.523 99.6697 219.006C102.549 224.519 120.229 217.758 120.229 217.758C120.229 217.758 126.809 219.729 132.15 218.158C137.492 216.586 153.934 210.287 153.934 210.287C153.934 210.287 167.914 213.044 174.077 215.8C180.239 218.557 181.06 219.729 185.177 218.943C189.294 218.158 185.998 211.859 185.998 211.859C185.998 211.859 188.877 215.401 190.519 217.758C192.161 220.116 197.033 216.973 199.144 212.258C201.255 207.543 197.502 194.547 197.502 194.547H199.144C200.786 194.547 202.844 193.3 204.903 189.433C206.961 185.567 190.102 178.807 186.819 173.693C183.536 168.579 184.343 163.466 189.281 155.196C194.219 146.927 191.34 146.939 188.044 137.099C184.747 127.258 181.06 121.757 178.181 108.761C175.575 97.0119 162.546 88.1564 157.947 82.207C161.055 90.1318 165.029 97.7199 169.803 104.845C181.972 122.306 182.832 138.932 179.366 148.074C175.901 157.217 172.409 164.713 172.409 164.713L160.253 138.994C160.253 138.994 161.986 163.939 165.465 169.764C168.943 175.589 170.676 182.237 176.761 187.226C182.845 192.215 191.522 198.027 184.578 198.027C177.634 198.027 159.276 196.58 159.276 196.58C159.276 196.58 161.126 203.016 151.563 203.016C144.833 202.856 138.138 202.02 131.59 200.521C131.59 200.521 140.28 209.676 131.59 211.335Z" fill="#FAFEFE"/>
</g>
<path d="M139.915 26.7417C139.915 26.7417 153.934 74.6362 156.853 80.5357C159.771 86.4352 175.341 95.8769 178.22 108.861C181.099 121.845 184.799 127.358 188.083 137.198C191.366 147.039 194.258 147.039 189.32 155.296C184.382 163.553 183.562 168.679 186.858 173.793C190.154 178.907 207 185.592 204.942 189.533C202.883 193.474 200.825 194.647 199.183 194.647H197.541C197.541 194.647 201.242 207.631 199.183 212.358C197.125 217.085 192.2 220.228 190.558 217.858C188.916 215.488 186.037 211.959 186.037 211.959C186.037 211.959 189.32 218.257 185.216 219.043C181.112 219.829 180.278 218.656 174.116 215.9C167.953 213.144 153.973 210.387 153.973 210.387C153.973 210.387 137.531 216.623 132.189 218.257C126.848 219.891 120.268 217.858 120.268 217.858C120.268 217.858 102.588 224.556 99.7088 219.105C96.8295 213.655 94.784 190.78 93.5462 186.452C92.3085 182.124 88.2045 178.582 89.0253 171.884C89.8461 165.187 91.9046 161.258 92.3215 158.514C92.7385 155.77 103.409 105.78 103.409 94.7669C103.409 83.7536 83.2796 28.6625 83.2796 28.6625" stroke="#063646" stroke-linecap="round" stroke-linejoin="round"/>
<path d="M157.648 125.349C157.648 125.349 164.162 151.716 167.927 160.771C171.692 169.827 175.314 179.268 179.432 182.81C183.549 186.353 195.874 192.639 197.515 194.609" stroke="#063646" stroke-linecap="round" stroke-linejoin="round"/>
<path d="M129.271 154.872C129.271 154.872 155.576 191.042 159.237 196.58C162.898 202.118 174.038 202.08 176.917 204.45L185.959 211.934" stroke="#063646" stroke-linecap="round" stroke-linejoin="round"/>
<path d="M104.23 165.099C104.23 165.099 115.33 178.083 124.372 191.067C133.414 204.051 134.248 207.207 138.704 208.379C143.16 209.552 153.908 210.35 153.908 210.35" stroke="#063646" stroke-linecap="round" stroke-linejoin="round"/>
<path d="M95.5657 185.143C95.5657 185.143 114.47 209.539 116.112 213.081C116.917 215.037 118.361 216.691 120.229 217.796" stroke="#063646" stroke-linecap="round" stroke-linejoin="round"/>
<path d="M128.854 129.677C128.854 129.677 120.229 134.018 121.467 137.548C122.359 139.99 123.457 142.359 124.75 144.632" stroke="#063646" stroke-linecap="round" stroke-linejoin="round"/>
<path d="M105.845 143.061C105.845 143.061 98.0281 145.418 97.6242 149.746C97.4128 152.463 97.9804 155.185 99.2658 157.616" stroke="#063646" stroke-linecap="round" stroke-linejoin="round"/>
</svg>
