<svg width="472" height="472" viewBox="0 0 472 472" fill="none" xmlns="http://www.w3.org/2000/svg">
<path d="M394.898 62.1311C399.734 66.9839 404.569 71.8367 409.792 77.1664C411.615 79.1608 413.052 80.6781 414.489 82.1954C422.273 93.0076 430.515 103.527 437.688 114.73C442.876 122.833 447.345 131.567 450.881 140.515C455.879 153.162 459.72 166.267 464.235 179.776C464.533 180.66 464.739 180.845 465.032 180.934C465.038 181.106 465.044 181.278 465.066 182.023C465.39 183.397 465.699 184.198 466.009 184.998C466.103 185.731 466.197 186.464 466.338 187.816C466.618 188.951 466.85 189.467 467.083 189.983C467.128 190.719 467.173 191.455 467.253 192.866C467.559 194.354 467.831 195.166 468.103 195.979C468.127 196.428 468.151 196.877 468.197 197.903C468.391 198.772 468.563 199.063 468.735 199.354C469.172 204.586 469.61 209.817 470.16 215.843C470.521 217.756 470.77 218.876 471.019 219.996C471.006 230.02 470.994 240.043 470.82 250.851C470.527 253.114 470.397 254.594 470.267 256.073C469.78 275.186 465.006 293.64 459.207 311.516C452.853 331.103 443.764 349.84 431.536 366.659C424.179 376.778 416.082 386.364 408.206 396.101C397.723 409.063 384.762 419.419 371.272 428.869C360.58 436.36 348.99 442.735 337.286 448.579C315.774 459.32 292.784 465.781 269.116 469.772C264.444 470.56 259.648 470.612 254.223 470.75C252.031 470.696 250.525 470.895 249.02 471.093C240.651 471.072 232.283 471.05 223.129 470.861C220.527 470.627 218.71 470.561 216.892 470.494C215.205 470.345 213.517 470.195 211.121 469.857C209.237 469.637 208.061 469.605 206.885 469.573C205.848 469.405 204.81 469.237 203.226 468.915C202.112 468.795 201.543 468.829 200.975 468.863C191.92 467.169 182.701 466.072 173.845 463.651C157.512 459.187 141.434 453.649 126.792 445.018C114.18 437.584 101.946 429.449 89.9674 421.024C82.7568 415.953 75.6919 410.347 69.7181 403.909C55.021 388.068 40.97 371.61 30.9554 352.222C25.6283 341.91 19.6934 331.789 15.6203 320.983C11.2098 309.283 8.52036 296.918 5.34845 284.773C4.25464 280.585 3.96655 276.187 3.36203 271.269C3.23816 270.11 3.06268 269.566 2.88718 269.022C2.84866 268.26 2.81018 267.498 2.77347 266.003C2.48221 263.854 2.18912 262.437 1.89603 261.021C1.8342 259.325 1.77234 257.63 1.71469 255.146C1.45908 252.91 1.19925 251.461 0.939453 250.012C0.94522 241.315 0.95102 232.618 1.13477 223.159C1.28485 221.222 1.25699 220.048 1.22913 218.874C0.888123 204.371 3.75763 190.25 7.71924 176.507C11.7863 162.397 16.6838 148.431 22.4863 134.948C26.606 125.376 32.1765 116.24 38.2684 107.748C47.6798 94.6279 57.5767 81.7704 68.2669 69.6857C74.8598 62.2327 83.0343 56.0659 90.9737 49.9371C119.612 27.8302 151.785 13.1553 187.171 5.76664C228.971 -2.96102 270.224 -0.618913 310.832 12.7344C336.758 21.2599 359.905 34.9734 381.991 50.673C383.59 51.8092 384.826 53.4553 386.736 55.2497C389.794 57.8004 392.346 59.9657 394.898 62.1311ZM287.997 274.525C297.125 276.381 306.184 278.753 315.394 280.002C352.175 284.99 388.099 279.898 423.557 270.063C438.35 265.96 438.642 265.998 439.643 250.736C440.235 241.709 439.751 232.611 439.751 223.078C437.883 223.604 436.632 223.98 435.368 224.306C418.298 228.716 401.389 233.948 384.119 237.347C350.885 243.888 317.695 243.227 285.703 231.041C267.07 223.943 249.03 215.256 230.859 206.986C197.531 191.817 162.809 186.898 126.55 191.746C98.3419 195.518 71.2662 203.588 44.4194 212.626C32.2912 216.71 32.1053 216.738 32.0069 229.531C31.9323 239.231 32.4389 248.936 32.7002 259.158C35.4082 258.31 36.9838 257.826 38.5537 257.324C56.1503 251.699 73.6502 245.746 91.366 240.527C114.153 233.812 137.393 229.923 161.309 231.055C185.276 232.19 206.944 241.008 228.587 250.296C247.988 258.622 267.667 266.304 287.997 274.525ZM230.519 113.013C204.657 101.188 177.526 95.4364 149.078 96.147C125.111 96.7456 101.836 101.575 78.871 108.074C77.123 108.569 75.1961 109.984 74.2522 111.524C66.0877 124.838 58.0788 138.249 50.1563 151.71C48.7029 154.18 47.8511 157.003 46.3253 160.597C49.1059 159.784 50.8048 159.291 52.5013 158.79C71.0092 153.319 89.3594 147.218 108.065 142.535C130.836 136.835 154.037 134.951 177.406 139.072C196.942 142.517 214.797 150.73 232.893 158.397C251.72 166.374 270.442 175.015 289.962 180.85C325.147 191.368 361.045 189.879 396.751 182.527C407.945 180.223 419.025 177.362 429.953 174.804C430.068 173.449 430.292 172.885 430.123 172.488C425.371 161.323 420.659 150.138 415.652 139.087C415.216 138.123 412.665 137.412 411.313 137.68C400.547 139.813 389.905 142.644 379.09 144.444C348.579 149.523 318.163 149.031 288.916 138.249C269.286 131.013 250.424 121.689 230.519 113.013ZM137.947 284.282C105.85 287.035 75.2926 296.168 43.6998 306.7C49.3566 318.046 54.8094 328.832 60.102 339.695C61.5882 342.746 63.3531 342.911 66.4512 342.001C81.2927 337.64 96.088 332.974 111.162 329.582C139.335 323.242 167.832 321.628 195.501 331.373C215.088 338.273 234.208 346.688 253.055 355.462C294.928 374.953 338.537 379.777 383.782 372.56C386.201 372.174 389.24 371.044 390.57 369.223C398.906 357.81 406.942 346.171 414.839 334.446C417.063 331.145 418.491 327.307 420.692 322.897C411.981 325.024 404.438 326.956 396.853 328.701C366.634 335.657 336.283 337.597 305.732 330.883C284.562 326.231 264.935 317.491 245.766 307.738C212.131 290.626 176.921 281.106 137.947 284.282Z" fill="#029EDC"/>
<path d="M249.262 471.343C250.526 470.895 252.032 470.696 253.771 470.741C252.503 471.187 251.003 471.389 249.262 471.343Z" fill="#C5E8F7"/>
<path d="M470.596 255.979C470.398 254.594 470.528 253.114 470.841 251.32C470.991 252.631 470.958 254.258 470.596 255.979Z" fill="#C5E8F7"/>
<path d="M471.264 219.778C470.769 218.876 470.52 217.756 470.271 216.281C470.684 217.137 471.096 218.348 471.264 219.778Z" fill="#C5E8F7"/>
<path d="M207.014 469.852C208.062 469.605 209.237 469.637 210.697 469.885C209.701 470.111 208.421 470.121 207.014 469.852Z" fill="#C5E8F7"/>
<path d="M466.249 184.809C465.699 184.198 465.39 183.397 465.146 182.268C465.638 182.833 466.064 183.726 466.249 184.809Z" fill="#C5E8F7"/>
<path d="M468.325 195.789C467.83 195.167 467.558 194.354 467.361 193.219C467.807 193.798 468.177 194.698 468.325 195.789Z" fill="#C5E8F7"/>
<path d="M201.096 469.106C201.544 468.829 202.112 468.795 202.831 468.934C202.393 469.188 201.804 469.268 201.096 469.106Z" fill="#C5E8F7"/>
<path d="M467.289 189.843C466.851 189.467 466.618 188.951 466.484 188.156C466.887 188.486 467.191 189.094 467.289 189.843Z" fill="#C5E8F7"/>
<path d="M468.8 199.1C468.563 199.063 468.391 198.772 468.289 198.229C468.528 198.267 468.697 198.557 468.8 199.1Z" fill="#C5E8F7"/>
<path d="M465.014 180.715C464.738 180.845 464.532 180.66 464.375 180.167C464.645 180.028 464.866 180.208 465.014 180.715Z" fill="#C5E8F7"/>
<path d="M287.611 274.398C267.667 266.304 247.989 258.622 228.587 250.296C206.945 241.008 185.277 232.19 161.31 231.055C137.394 229.923 114.154 233.812 91.3665 240.527C73.6507 245.746 56.1508 251.699 38.5543 257.324C36.9843 257.826 35.4088 258.31 32.7008 259.158C32.4395 248.936 31.9328 239.231 32.0074 229.531C32.1058 216.738 32.2917 216.71 44.4199 212.626C71.2668 203.588 98.3425 195.518 126.551 191.746C162.81 186.898 197.532 191.817 230.86 206.986C249.031 215.256 267.071 223.943 285.704 231.041C317.696 243.227 350.886 243.888 384.12 237.347C401.39 233.948 418.299 228.716 435.369 224.306C436.633 223.98 437.883 223.603 439.752 223.078C439.752 232.611 440.236 241.709 439.644 250.736C438.642 265.998 438.351 265.96 423.558 270.063C388.099 279.898 352.175 284.99 315.395 280.002C306.184 278.753 297.126 276.381 287.611 274.398Z" fill="#FCFEFE"/>
<path d="M230.87 113.156C250.425 121.689 269.287 131.013 288.917 138.25C318.163 149.031 348.58 149.523 379.091 144.445C389.906 142.644 400.548 139.813 411.314 137.68C412.666 137.413 415.217 138.123 415.653 139.087C420.66 150.138 425.372 161.323 430.124 172.488C430.293 172.885 430.068 173.449 429.953 174.804C419.026 177.362 407.946 180.223 396.752 182.527C361.046 189.879 325.148 191.368 289.963 180.85C270.443 175.015 251.721 166.374 232.894 158.397C214.797 150.73 196.943 142.517 177.407 139.072C154.038 134.951 130.837 136.835 108.066 142.535C89.3603 147.218 71.0101 153.319 52.5021 158.79C50.8057 159.292 49.1068 159.784 46.3262 160.597C47.852 157.003 48.7037 154.18 50.1572 151.71C58.0797 138.249 66.0886 124.838 74.2531 111.524C75.197 109.985 77.1239 108.569 78.8719 108.074C101.837 101.575 125.111 96.7456 149.079 96.147C177.527 95.4364 204.657 101.188 230.87 113.156Z" fill="#FCFEFE"/>
<path d="M138.413 284.253C176.92 281.106 212.131 290.626 245.766 307.738C264.934 317.491 284.561 326.231 305.731 330.883C336.283 337.597 366.633 335.657 396.852 328.701C404.438 326.956 411.98 325.024 420.691 322.897C418.49 327.307 417.062 331.145 414.839 334.446C406.941 346.171 398.906 357.81 390.57 369.224C389.24 371.044 386.2 372.174 383.782 372.56C338.536 379.777 294.927 374.953 253.054 355.462C234.207 346.688 215.087 338.273 195.5 331.373C167.831 321.628 139.335 323.242 111.161 329.582C96.0874 332.974 81.2921 337.64 66.4506 342.001C63.3524 342.911 61.5876 342.746 60.1014 339.695C54.8088 328.832 49.356 318.046 43.6992 306.7C75.292 296.168 105.849 287.035 138.413 284.253Z" fill="#FCFEFE"/>
</svg>
