<svg width="471" height="471" viewBox="0 0 471 471" fill="none" xmlns="http://www.w3.org/2000/svg">
<path d="M48.2384 379.164C47.7064 378.254 47.1743 377.343 46.3345 375.919C41.3922 368.679 36.7579 361.952 32.1235 355.224C31.851 354.44 31.5784 353.656 31.0656 352.256C28.5906 347.837 26.356 344.032 24.1212 340.228C23.468 338.795 22.8148 337.362 21.9456 335.269C19.8316 330.458 17.9337 326.307 16.0359 322.156C16.0359 322.156 15.9891 321.731 15.9742 321.149C13.3353 313.399 10.7114 306.231 8.0874 299.062C8.06396 298.674 8.04053 298.285 8.02734 297.212C7.68518 295.437 7.22034 294.368 6.99799 293.251C4.94653 282.945 2.93695 272.631 0.915222 262.319C0.909729 260.927 0.904236 259.535 0.935608 257.293C0.914917 254.068 0.857361 251.694 0.799805 249.32C0.791749 247.6 0.783691 245.88 0.76123 243.281C0.497924 236.344 0.248962 230.286 0 224.229C0.033325 222.57 0.0665891 220.911 0.444702 218.553C0.825683 214.675 0.861816 211.497 0.89801 208.319C0.980041 207.894 1.06207 207.469 1.46881 206.435C3.46161 196.323 5.12964 186.819 6.79767 177.316C7.23572 175.615 7.67383 173.914 8.435 171.589C10.4946 165.749 12.2311 160.533 13.9675 155.318C14.6497 153.255 15.332 151.193 16.3613 148.575C21.2527 138.353 25.7969 128.687 30.341 119.021C30.9133 118.052 31.4855 117.083 32.4127 115.612C34.8461 111.847 36.9246 108.584 39.0031 105.321C39.0031 105.321 39.104 104.981 39.3765 104.605C57.0267 78.7553 78.2369 57.1068 103.956 39.994C123.551 26.9556 144.284 16.2613 167.184 10.2873C178.052 7.45245 189.024 5.02289 199.949 2.4097C205.643 2.02026 211.336 1.63083 217.863 1.18845C220.107 0.839386 221.518 0.543335 222.928 0.247284C231.625 0.26825 240.321 0.289185 249.631 0.495911C250.82 0.602234 251.395 0.522706 251.971 0.443207C271.774 2.43094 291.311 5.73984 310.245 12.0912C328.851 18.3322 346.317 26.8914 362.927 37.3375C381.148 48.7973 397.31 62.7472 411.514 78.7425C441.068 112.024 459.793 150.782 467.642 194.649C468.98 202.131 469.437 209.77 470.264 218.093C470.477 219.67 470.728 220.49 470.978 221.31C470.977 230.005 470.975 238.7 470.74 248.121C470.515 250.037 470.522 251.227 470.529 252.417C470.344 255.086 470.158 257.755 469.746 261.058C469.415 262.257 469.31 262.823 469.205 263.389C469.047 265.702 468.889 268.014 468.446 271.053C467.788 274.292 467.414 276.804 467.04 279.316C466.991 279.761 466.942 280.206 466.735 281.323C462.326 300.479 457.088 318.592 448.75 335.768C429.413 375.603 401.811 408.272 364.487 432.159C351.303 440.596 336.832 447.023 322.949 454.367C321.475 454.914 320.001 455.46 317.871 456.256C310.425 458.698 303.635 460.891 296.846 463.083C296.846 463.083 296.382 463.106 295.762 463.201C280.745 465.655 266.346 468.015 251.948 470.374C248.574 470.438 245.2 470.502 240.927 470.556C235.669 470.573 231.309 470.601 226.949 470.629C225.879 470.553 224.809 470.477 222.904 470.373C216.957 469.826 211.807 469.55 206.742 468.739C195.789 466.984 184.88 464.954 173.953 463.037C173.953 463.037 173.662 462.947 173.292 462.76C169.02 461.238 165.114 459.919 161.219 458.566C153.157 455.764 145.101 452.944 137.042 450.132C135.547 449.266 134.053 448.4 131.936 447.293C127.191 444.815 123.068 442.579 118.945 440.342C118.187 439.979 117.428 439.616 116.181 438.902C108.823 434.112 101.955 429.672 95.0861 425.232C94.567 424.643 94.048 424.054 93.0959 423.046C87.8141 418.696 82.5641 415.164 78.1974 410.756C67.9857 400.449 58.1979 389.721 48.2384 379.164ZM258.362 258.847C259.28 260.616 259.989 262.538 261.152 264.127C266.213 271.038 272.907 275.095 281.66 273.819C291.219 272.425 297.222 266.744 299.124 257.113C299.67 254.347 300.035 251.538 300.342 248.733C302.37 230.205 297.888 213.48 284.941 199.911C260.744 174.551 223.626 171.862 195.048 192.699C177.229 205.691 165.133 222.831 157.892 243.464C148.024 271.586 148.032 299.772 161.85 326.338C180.978 363.11 212.594 383.489 253.527 386.864C297.784 390.512 334.782 373.687 362.138 338.932C391.011 302.248 403.009 260.043 395.895 213.386C389.476 171.295 368.651 137.568 333.972 112.955C300.423 89.1448 262.683 80.4488 221.856 84.1523C186.205 87.3863 154.33 99.6519 126.761 122.775C92.912 151.165 75.3722 187.412 74.011 231.508C73.4042 251.167 76.7936 270.299 82.527 289.001C85.1261 297.479 88.6213 305.682 91.71 314.01C92.1741 313.858 92.6382 313.707 93.1022 313.556C92.8726 312.126 92.6987 310.685 92.4049 309.27C88.8949 292.354 87.7723 275.302 90.246 258.173C95.1437 224.261 109.843 194.96 133.949 170.832C175.967 128.775 225.665 114.351 282.903 133.311C313.758 143.532 335.271 165.034 347.641 195.117C358.393 221.267 358.498 248.043 349.653 274.683C341.7 298.636 328.725 319.191 306.839 333.116C278.05 351.433 240.591 349.133 214.682 327.353C191.1 307.528 186.365 271.07 203.956 243.788C210.488 233.657 218.285 224.74 230.722 221.958C245.765 218.593 262.139 227.342 258.324 247.097C257.642 250.625 258.161 254.384 258.362 258.847ZM93.2107 316.402C93.3751 316.34 93.5394 316.278 93.7039 316.216C93.5361 316.151 93.3685 316.086 93.2107 316.402Z" fill="#9EA4AC"/>
<path d="M222.711 0C221.517 0.543334 220.107 0.839386 218.314 1.09201C219.453 0.616607 220.973 0.184661 222.711 0Z" fill="#E7E9EB"/>
<path d="M251.84 0.200118C251.395 0.52272 250.82 0.602248 250.1 0.476699C250.54 0.166763 251.125 0.0618741 251.84 0.200118Z" fill="#E7E9EB"/>
<path d="M258.244 258.442C258.161 254.384 257.643 250.625 258.324 247.097C262.139 227.342 245.766 218.593 230.723 221.958C218.286 224.74 210.488 233.657 203.956 243.788C186.365 271.07 191.1 307.528 214.682 327.352C240.591 349.133 278.05 351.433 306.84 333.116C328.725 319.191 341.7 298.636 349.653 274.683C358.498 248.043 358.394 221.267 347.641 195.117C335.272 165.034 313.758 143.532 282.904 133.311C225.665 114.351 175.967 128.775 133.949 170.832C109.844 194.96 95.1439 224.26 90.2462 258.173C87.7726 275.302 88.8952 292.354 92.4052 309.269C92.699 310.685 92.8728 312.126 93.1024 313.556C92.6385 313.707 92.1743 313.858 91.7102 314.01C88.6216 305.682 85.1264 297.479 82.5272 289.001C76.7938 270.299 73.4044 251.167 74.0113 231.508C75.3725 187.412 92.9123 151.165 126.762 122.775C154.33 99.6519 186.205 87.3862 221.856 84.1522C262.684 80.4488 300.423 89.1448 333.972 112.955C368.651 137.568 389.477 171.295 395.895 213.386C403.009 260.043 391.012 302.248 362.138 338.932C334.783 373.687 297.785 390.512 253.527 386.864C212.594 383.489 180.979 363.11 161.851 326.338C148.032 299.772 148.024 271.586 157.892 243.464C165.133 222.831 177.23 205.691 195.049 192.699C223.626 171.862 260.744 174.551 284.941 199.911C297.888 213.48 302.371 230.205 300.342 248.733C300.035 251.537 299.67 254.347 299.124 257.113C297.223 266.744 291.22 272.425 281.66 273.819C272.907 275.095 266.213 271.038 261.153 264.127C259.989 262.538 259.28 260.616 258.244 258.442Z" fill="#FEFEFE"/>
<path d="M93.2051 316.211C93.3678 316.086 93.5354 316.151 93.7031 316.217C93.5387 316.278 93.3744 316.34 93.2051 316.211Z" fill="#FEFEFE"/>
</svg>
