<svg width="471" height="471" viewBox="0 0 471 471" fill="none" xmlns="http://www.w3.org/2000/svg">
<path d="M1.18524 260.127C1.09512 258.1 1.00501 256.074 0.923431 253.275C0.702698 251.04 0.47342 249.577 0.244141 248.115C0.26822 239.748 0.292329 231.381 0.46814 222.248C0.60373 220.311 0.587616 219.142 0.571503 217.972C0.809082 215.636 1.04666 213.301 1.4458 210.322C1.5885 208.804 1.56958 207.93 1.55066 207.055C2.51459 199.975 2.99875 192.789 4.53159 185.834C9.28894 164.249 16.5809 143.535 27.1987 124.077C40.9364 98.9014 58.3628 76.7611 80.0807 57.8558C94.3998 45.3911 109.855 34.7362 126.512 25.8651C146.39 15.2779 167.729 8.64456 189.793 4.30533C193.037 3.66733 196.294 3.0939 200.109 2.50607C201.219 2.34631 201.765 2.17114 202.31 1.99594C203.68 1.87906 205.05 1.76215 207.149 1.64798C209.015 1.4043 210.154 1.15787 211.292 0.911469C212.667 0.863068 214.041 0.814667 216.206 0.771271C218.767 0.517487 220.538 0.258728 222.31 0C230.676 0.022796 239.041 0.0455934 248.182 0.239349C250.438 0.548706 251.921 0.687042 253.403 0.825409C267.604 2.99136 282.009 4.29361 295.942 7.59189C307.438 10.3133 318.752 14.5954 329.466 19.6344C343.189 26.0888 356.625 33.3706 369.428 41.4895C378.374 47.1625 386.187 54.6784 394.267 61.649C413.05 77.8539 427.483 97.7024 440.051 118.811C446.127 129.017 451.194 140.077 454.969 151.337C459.994 166.326 463.313 181.886 467.496 197.936C467.884 199.475 468.142 200.279 468.4 201.083C468.455 202.133 468.511 203.184 468.591 204.978C468.908 207.185 469.198 208.648 469.489 210.112C469.56 211.473 469.631 212.835 469.708 214.949C469.929 217.165 470.142 218.629 470.356 220.092C470.357 229.452 470.358 238.812 470.212 248.981C470.041 251.6 470.015 253.408 469.99 255.217C469.786 256.897 469.581 258.577 469.218 260.99C468.987 262.883 468.915 264.043 468.842 265.204C468.714 265.921 468.586 266.638 468.327 268.058C468.022 270.216 467.848 271.67 467.674 273.125C467.582 273.563 467.491 274.002 467.222 275.042C466.952 276.495 466.859 277.347 466.767 278.198C466.675 278.623 466.583 279.047 466.306 280.064C466.064 281.51 466.007 282.365 465.951 283.219C465.808 283.634 465.665 284.05 465.3 285.086C464.661 287.872 464.244 290.038 463.827 292.204C459.105 310.286 452.766 327.88 443.987 344.284C435.144 360.807 425.488 377.091 412.004 390.467C401.041 401.343 390.48 412.89 378.251 422.179C326.779 461.281 268.508 476.034 204.444 468.307C179.926 465.349 156.76 457.915 134.232 447.898C110.025 437.134 89.2797 421.698 70.2662 403.524C55.7524 389.651 43.67 373.865 33.2686 356.852C22.3012 338.913 13.5519 319.842 8.63913 299.286C5.8526 287.626 3.83902 275.781 1.66815 263.351C1.6344 261.83 1.40982 260.978 1.18524 260.127ZM314.542 157.369C288.657 118.139 262.772 78.9087 236.664 39.3399C235.573 40.5963 235.099 41.0506 234.732 41.5796C214.318 70.9962 193.544 100.171 173.615 129.912C154.13 158.987 136.391 189.137 122.765 221.503C114.661 240.749 107.198 260.423 106.658 281.471C105.269 335.544 128.731 375.961 175.895 402.41C197.145 414.327 220.512 416.259 244.213 415.218C261.457 414.461 278.157 411.179 293.806 403.148C347.418 375.636 378.998 312.177 357.492 247.01C347.084 215.469 331.776 186.388 314.542 157.369Z" fill="#EB2E2E"/>
<path d="M470.278 255.05C470.016 253.408 470.042 251.6 470.237 249.45C470.459 251.034 470.512 252.959 470.278 255.05Z" fill="#F9CFD1"/>
<path d="M464.135 292.071C464.244 290.038 464.661 287.872 465.296 285.417C465.157 287.398 464.8 289.668 464.135 292.071Z" fill="#F9CFD1"/>
<path d="M470.597 219.86C470.142 218.629 469.928 217.165 469.834 215.338C470.248 216.525 470.543 218.076 470.597 219.86Z" fill="#F9CFD1"/>
<path d="M0 248.341C0.473785 249.577 0.703064 251.04 0.793701 252.862C0.355163 251.67 0.055297 250.119 0 248.341Z" fill="#F9CFD1"/>
<path d="M253.309 0.497679C251.92 0.68701 250.438 0.548674 248.65 0.212614C249.968 0.0666178 251.591 0.118315 253.309 0.497679Z" fill="#F9CFD1"/>
<path d="M0.313648 218.125C0.587604 219.141 0.603717 220.311 0.424609 221.78C0.171497 220.812 0.113635 219.544 0.313648 218.125Z" fill="#F9CFD1"/>
<path d="M467.938 272.939C467.847 271.67 468.021 270.216 468.344 268.423C468.396 269.641 468.3 271.196 467.938 272.939Z" fill="#F9CFD1"/>
<path d="M211.087 0.682373C210.154 1.15784 209.016 1.40427 207.541 1.51862C208.431 1.0755 209.656 0.764404 211.087 0.682373Z" fill="#F9CFD1"/>
<path d="M469.13 265.089C468.914 264.043 468.986 262.883 469.233 261.416C469.411 262.398 469.415 263.686 469.13 265.089Z" fill="#F9CFD1"/>
<path d="M469.714 209.858C469.199 208.648 468.908 207.185 468.701 205.358C469.17 206.531 469.554 208.068 469.714 209.858Z" fill="#F9CFD1"/>
<path d="M0.949219 260.329C1.40961 260.978 1.63419 261.83 1.69907 262.907C1.26404 262.265 0.988739 261.399 0.949219 260.329Z" fill="#F9CFD1"/>
<path d="M467.049 278.115C466.859 277.347 466.952 276.495 467.235 275.379C467.395 276.087 467.363 277.059 467.049 278.115Z" fill="#F9CFD1"/>
<path d="M1.27892 207.216C1.56865 207.93 1.58757 208.804 1.41646 209.878C1.15368 209.178 1.08092 208.278 1.27892 207.216Z" fill="#F9CFD1"/>
<path d="M468.633 200.889C468.142 200.279 467.884 199.475 467.611 198.348C468.02 198.915 468.443 199.805 468.633 200.889Z" fill="#F9CFD1"/>
<path d="M466.211 283.113C466.008 282.365 466.065 281.51 466.317 280.391C466.499 281.087 466.485 282.046 466.211 283.113Z" fill="#F9CFD1"/>
<path d="M202.15 1.77557C201.764 2.17111 201.218 2.34628 200.488 2.38452C200.866 2.01678 201.428 1.78598 202.15 1.77557Z" fill="#F9CFD1"/>
<path d="M314.738 157.676C331.776 186.388 347.084 215.469 357.492 247.01C378.998 312.177 347.418 375.636 293.805 403.148C278.157 411.179 261.457 414.461 244.213 415.218C220.512 416.259 197.145 414.327 175.895 402.41C128.731 375.961 105.269 335.544 106.658 281.471C107.198 260.423 114.661 240.749 122.765 221.503C136.391 189.137 154.13 158.987 173.614 129.912C193.544 100.171 214.318 70.9962 234.732 41.5796C235.099 41.0506 235.573 40.5963 236.664 39.3398C262.772 78.9086 288.657 118.139 314.738 157.676ZM212.341 213.504C213.234 216.365 214.213 219.202 215.004 222.09C217.889 232.63 219.769 243.234 216.638 254.087C211.949 270.347 193.022 276.614 179.798 266.111C168.97 257.511 167.575 245.31 167.874 232.676C167.999 227.386 168.587 222.106 168.965 216.821C163.798 225.594 159.53 234.581 155.865 243.806C149.998 258.575 145.393 273.746 145.707 289.851C146.758 343.808 194.362 384.318 247.909 376.987C286.317 371.728 317.163 341.527 323.755 303.591C327.296 283.207 322.813 264.167 315.774 245.475C301.106 206.525 278.951 171.727 255.55 137.6C250.044 129.569 245.743 120.672 241.332 111.949C239.61 108.544 239.112 104.52 237.834 99.9908C235.198 103.772 233.008 106.869 230.864 109.997C221.717 123.339 212.55 136.724 208.462 152.666C203.24 173.028 206.391 192.977 212.341 213.504Z" fill="#FEFDFD"/>
<path d="M212.255 213.109C206.391 192.977 203.24 173.028 208.462 152.666C212.55 136.724 221.717 123.339 230.864 109.997C233.008 106.869 235.198 103.772 237.834 99.9908C239.112 104.52 239.61 108.544 241.332 111.949C245.743 120.672 250.044 129.569 255.55 137.6C278.951 171.727 301.106 206.525 315.774 245.475C322.813 264.167 327.296 283.207 323.755 303.591C317.163 341.527 286.316 371.728 247.909 376.987C194.362 384.318 146.758 343.808 145.707 289.851C145.393 273.746 149.998 258.575 155.865 243.806C159.53 234.581 163.798 225.594 168.965 216.821C168.587 222.106 167.999 227.386 167.873 232.676C167.574 245.31 168.97 257.511 179.797 266.111C193.021 276.614 211.949 270.347 216.638 254.087C219.768 243.234 217.889 232.63 215.004 222.09C214.213 219.202 213.234 216.365 212.255 213.109Z" fill="#EB2E2E"/>
</svg>
