<svg width="24" height="24" viewBox="0 0 413 333" fill="none" xmlns="http://www.w3.org/2000/svg">
<path d="M343.23 177.827C331.945 200.764 313.742 215.513 289.586 223.285C284.52 224.915 283.322 228.945 286.725 233.388C289.632 237.183 293.009 240.616 295.854 244.513C291.017 245.297 286.365 245.243 282.022 246.374C273.955 248.475 266.19 251.848 258.06 253.547C253.495 254.501 248.584 253.345 248.587 260.226C248.587 260.413 247.736 260.601 247.282 260.788C236.326 245.949 225.359 231.117 214.418 216.266C210.472 210.91 206.365 205.655 202.721 200.098C195.434 188.985 200.666 179.117 214.22 178.716C226.36 178.358 238.519 178.659 250.67 178.611C256.824 178.587 262.999 178.726 269.125 178.266C277.426 177.642 284.328 173.748 290.958 167.842C298.909 167.748 306.113 167.859 313.316 167.778C318.034 167.725 322.748 167.295 327.466 167.228C329.651 167.196 332.187 167.064 333.878 168.098C334.657 168.574 333.789 171.744 333.667 173.693C333.442 174.144 333.218 174.596 332.993 175.047C336.405 175.974 339.818 176.9 343.23 177.827Z" fill="#00C1DB"/>
<path d="M294.613 162.899C300.501 153.06 302.986 142.657 299.464 131.41C294.69 116.165 282.341 106.871 266.071 106.119C263.913 106.02 261.75 106.039 259.221 105.515C263.643 96.3734 268.487 87.7482 273.208 79.0557C276.256 73.4412 279.123 67.728 282.072 62.0591C290.956 64.7704 299.839 67.4818 308.939 70.825C310.044 72.9684 310.684 74.7175 311.863 75.9495C316.57 80.8644 321.503 85.5621 326.237 90.4515C329.478 93.7979 332.568 97.2607 332.236 102.497C332.177 103.436 333.113 105.259 333.67 105.291C339.918 105.651 341.312 111.035 343.664 115.076C347.769 122.134 347.252 122.268 339.445 125.038C334.394 126.831 328.312 127.894 327.044 134.965C326.394 138.59 326.243 140.642 330.945 139.131C332.251 138.711 333.987 139.633 335.526 139.939C335.244 141.267 334.976 142.599 334.674 143.922C334.529 144.56 334.321 145.183 333.914 146.085C325.705 149.902 317.758 153.526 309.73 156.961C304.755 159.089 299.657 160.929 294.613 162.899Z" fill="#1BDEF5"/>
<path d="M247.369 261.111C247.735 260.601 248.586 260.413 248.586 260.226C248.583 253.345 253.494 254.501 258.059 253.547C266.189 251.848 273.954 248.475 282.021 246.374C286.364 245.243 291.016 245.297 296.025 244.82C306.301 257.081 316.058 269.357 325.879 281.581C327.938 284.143 330.234 286.515 332.145 289.342C329.817 289.512 327.764 289.314 325.712 289.116C329.045 293.449 332.611 297.087 338.47 296.667C338.76 296.746 338.975 296.919 339.139 297.768C338.073 299.691 337.136 301.202 335.857 302.326C334.251 303.735 332.082 304.563 330.65 306.102C323.899 313.357 319.225 313.71 312.438 306.492C307.443 301.18 301.901 298.98 294.689 300.652C290.617 301.596 288.656 299.416 289.442 295.344C290.13 291.778 291.163 288.259 291.551 284.665C291.661 283.638 289.831 281.344 289.268 281.46C281.51 283.06 273.818 284.98 266.11 286.822C259.893 278.359 253.675 269.897 247.369 261.111Z" fill="#029AB8"/>
<path d="M266.199 287.152C273.818 284.98 281.51 283.06 289.268 281.46C289.831 281.344 291.661 283.638 291.55 284.665C291.163 288.259 290.13 291.778 289.441 295.344C288.655 299.416 290.617 301.596 294.688 300.652C301.9 298.98 307.443 301.18 312.438 306.492C319.225 313.71 323.899 313.357 330.65 306.102C332.081 304.563 334.251 303.735 335.857 302.325C337.135 301.202 338.073 299.691 339.197 297.972C346.527 306.227 353.945 314.764 361.001 323.592C362.227 325.126 362.714 328.169 362.061 329.982C361.593 331.283 358.664 332.374 356.819 332.395C340.829 332.576 324.836 332.51 308.843 332.483C301.101 332.469 295.436 329.296 291.026 322.595C283.16 310.641 274.574 299.161 266.199 287.152Z" fill="#097B95"/>
<path d="M181.116 105.838C172.428 105.895 163.74 105.953 154.59 105.537C153.645 103.67 153.399 102.13 152.639 100.91C150.07 96.7855 150.326 92.9643 153.03 88.9696C155.622 85.1422 158.035 81.1731 160.242 77.1116C163.048 71.9477 165.568 66.6283 168.212 61.376C176.231 61.2649 184.25 61.1537 192.717 61.5461C191.129 70.0254 189.199 78.0301 187.026 85.9683C185.203 92.6317 183.097 99.2179 181.116 105.838Z" fill="#9EF85E"/>
<path d="M173.895 190.757C173.946 192.455 173.996 194.153 173.744 195.986C173.133 194.746 172.824 193.369 172.374 191.356C165.026 193.231 158.078 195.004 150.717 196.787C145.925 197.792 141.546 198.786 137.155 199.411C135.375 196.58 133.993 193.661 131.746 191.769C128.815 189.301 127.704 187.163 129.054 183.264C132.09 174.495 134.514 165.515 137.355 156.675C138.754 152.321 140.526 148.086 142.278 144.122C143.716 147.126 144.649 150.061 146.355 152.441C152.898 161.566 159.518 170.649 166.514 179.425C168.182 181.517 171.416 182.361 173.929 183.778C173.99 185.518 174.052 187.257 173.792 189.439C173.235 190.02 173.001 190.158 172.766 190.297C173.142 190.45 173.519 190.604 173.895 190.757Z" fill="#7BEE2D"/>
<path d="M127.099 61.2085C130.169 61.1592 133.24 61.1099 136.738 61.5815C138.172 67.234 139.553 72.3258 140.107 77.506C141.118 86.9533 149.232 95.6752 143.093 105.856C128.741 105.916 114.39 105.976 99.6094 105.585C102.882 99.4515 106.643 93.8065 110.272 88.0785C115.927 79.1515 121.494 70.168 127.099 61.2085Z" fill="#42AA06"/>
<path d="M23.3537 131.919C21.1707 144.781 18.6325 157.595 16.8983 170.517C14.901 185.401 16.2956 200.249 18.6246 215.338C14.3577 211.292 10.4555 206.873 6.51908 202.485C4.49008 200.224 2.4003 198.016 0.337985 195.785C-1.11477 171.671 2.06052 148.212 10.9353 125.181C12.9752 125.574 14.4307 126.147 15.7425 126.954C18.3218 128.54 20.8212 130.256 23.3537 131.919Z" fill="#2C660E"/>
<path d="M281.65 61.9637C279.124 67.728 276.257 73.4412 273.208 79.0557C268.488 87.7482 263.644 96.3734 258.751 105.399C253.422 105.88 248.195 105.989 242.575 105.567C242.485 103.753 243.019 102.476 243.055 101.185C243.426 87.9276 243.716 74.6682 244.028 61.4094C256.428 61.5624 268.827 61.7154 281.65 61.9637Z" fill="#E1FEC9"/>
<path d="M364.039 74.8483C361.462 72.3836 358.885 69.9187 356.29 66.781C357.418 65.3506 358.564 64.5929 359.892 63.7157C359.438 62.3679 359.195 60.8393 358.453 59.6132C357.008 57.227 355.324 54.9803 353.666 52.7294C349.443 46.995 344.446 45.5044 337.865 47.9544C333.984 44.4236 329.54 41.3306 326.37 37.2483C322.621 32.422 323.57 26.6112 327.485 22.8039C331.467 18.9318 337.52 18.4949 342.76 22.1919C345.831 30.2844 348.432 37.9446 351.267 45.5171C351.809 46.9629 353.067 48.3479 354.347 49.2749C360.909 54.0289 367.454 58.832 374.275 63.1963C378.331 65.7917 382.885 67.6092 387.216 69.7764C388.869 73.6374 391.372 77.3711 391.974 81.3896C392.847 87.2167 389.909 90.5281 383.502 92.3555C378.255 85.4842 373.375 79.0006 368.528 72.5596C366.57 73.5578 365.305 74.203 364.039 74.8483Z" fill="#1BDEF5"/>
<path d="M142.128 143.798C140.525 148.086 138.753 152.321 137.354 156.675C134.513 165.515 132.089 174.495 129.052 183.264C127.703 187.163 128.814 189.301 131.745 191.769C133.992 193.661 135.374 196.58 136.76 199.467C132.049 200.522 127.72 201.152 123.391 201.782C123.309 193.521 122.531 185.193 123.326 177.018C124.275 167.278 119.742 160.608 113.285 153.652C113.822 146.299 114.497 139.693 115.171 133.087C124.52 132.999 133.869 132.91 143.678 133.121C144.14 133.42 144.158 133.869 144.151 134.262C143.472 137.702 142.8 140.75 142.128 143.798Z" fill="#5BD40E"/>
<path d="M142.277 144.122C142.8 140.75 143.472 137.702 144.365 134.179C144.879 133.557 145.068 133.326 145.153 133.011C152.977 132.926 160.803 132.912 168.625 132.727C172.657 132.631 174.203 134.305 174.16 138.391C174.003 153.212 174.094 168.036 174.01 183.319C171.415 182.361 168.181 181.517 166.513 179.425C159.517 170.649 152.897 161.566 146.354 152.441C144.648 150.061 143.715 147.126 142.277 144.122Z" fill="#9EF85E"/>
<path d="M87.9442 104.338C77.9135 101.273 70.8104 94.2275 64.8188 86.2226C60.79 80.8403 57.4136 74.7738 54.8319 68.5618C52.4752 62.8912 54.287 61.0947 60.4165 61.1058C70.0523 61.1232 79.6881 61.1439 89.7498 61.7269C89.4319 76.3064 88.688 90.3223 87.9442 104.338Z" fill="#42AA06"/>
<path d="M88.2637 104.535C88.6878 90.3223 89.4317 76.3064 90.197 61.8847C102.206 61.3251 114.194 61.1716 126.64 61.1132C121.493 70.168 115.926 79.1515 110.271 88.0785C106.641 93.8065 102.881 99.4515 99.1459 105.489C95.6024 105.474 92.093 105.103 88.2637 104.535Z" fill="#7BEE2D"/>
<path d="M123.385 241.743C123.301 230.398 123.217 219.054 123.63 207.253C126.461 207.99 128.994 208.915 131.076 210.45C133.334 212.116 134.958 214.653 137.238 216.277C142.417 219.962 147.829 223.321 152.996 227.112C150.606 229.542 148.366 231.672 145.779 233.838C141.29 237.013 137.147 240.152 131.755 244.238C141.918 251.927 150.999 259.203 160.538 265.819C164.445 268.529 169.341 269.814 173.787 271.747C173.895 277.453 174.002 283.159 173.712 289.26C171.122 287.417 168.973 285.134 166.729 282.948C155.309 271.821 143.853 260.73 132.444 249.592C131.271 248.448 129.532 247.141 129.416 245.793C129.055 241.577 126.298 241.72 123.385 241.743Z" fill="#34810A"/>
<path d="M146.125 233.801C148.366 231.672 150.606 229.542 153.345 227.076C158.077 223.596 162.311 220.453 167.944 216.27C157.816 212.142 154.701 204.289 151.13 196.777C158.078 195.004 165.026 193.231 172.373 191.356C172.824 193.369 173.132 194.746 173.661 196.404C173.948 215.413 174.014 234.141 173.622 253.333C171.603 253.361 169.989 253.06 168.49 252.467C158.991 248.71 152.924 240.812 146.125 233.801Z" fill="#5BD40E"/>
<path d="M294.389 163.076C299.657 160.929 304.756 159.089 309.731 156.961C317.759 153.526 325.706 149.902 334.297 146.079C340.29 143.8 345.673 141.799 351.056 139.798C351.103 142.174 351.149 144.551 350.931 147.525C350.856 148.7 351.047 149.277 351.237 149.854C348.748 159.031 346.258 168.208 343.499 177.606C339.818 176.9 336.405 175.974 332.993 175.047C333.218 174.596 333.442 174.144 333.667 173.693C333.788 171.744 334.657 168.574 333.878 168.098C332.187 167.064 329.651 167.196 327.466 167.228C322.748 167.295 318.034 167.725 313.316 167.778C306.113 167.859 298.908 167.748 291.236 167.67C291.9 166.167 293.032 164.71 294.389 163.076Z" fill="#097B95"/>
<path d="M21.0273 248.524C29.692 242.899 38.672 242.477 48.0563 247.646C49.998 253.702 47.0429 256.958 43.4015 260.116C40.7229 262.438 38.3671 265.133 35.1314 268.406C40.208 272.214 44.6321 275.316 48.7774 278.755C50.2567 279.983 51.061 282.024 51.704 283.73C44.8665 283.769 38.4983 283.771 31.985 283.554C31.2757 283.477 30.7115 283.62 29.7107 283.776C27.2373 283.767 25.2007 283.746 23.1581 283.337C23.3078 281.383 23.4635 279.817 23.6546 277.896C19.1784 278.321 19.4897 276.41 19.7511 272.837C20.3421 264.759 26.6723 256.893 21.0273 248.524Z" fill="#42AA06"/>
<path d="M181.578 105.933C183.096 99.218 185.203 92.6318 187.026 85.9683C189.199 78.0301 191.129 70.0255 193.174 61.6634C198.685 61.255 204.185 61.2329 209.961 61.9649C210.028 65.1713 209.996 67.654 209.581 70.0707C207.525 82.0289 205.368 93.9697 203.246 105.917C196.178 105.953 189.109 105.99 181.578 105.933Z" fill="#C1FD93"/>
<path d="M173.315 295.914C171.482 297.533 169.763 300.385 167.798 300.566C156.246 301.63 145.067 300.33 134.708 294.25C126.861 289.645 122.054 283.749 123.149 274.15C123.429 271.692 123.227 269.178 123.712 266.239C125.534 266.286 127.008 266.588 128.227 267.316C138.015 273.168 147.823 278.991 157.482 285.051C162.899 288.449 168.046 292.279 173.315 295.914Z" fill="#275611"/>
<path d="M143.55 105.936C149.232 95.6752 141.118 86.9533 140.107 77.506C139.553 72.3258 138.172 67.234 137.182 61.7065C147.231 61.2432 157.264 61.1758 167.754 61.2423C165.569 66.6284 163.049 71.9478 160.243 77.1116C158.036 81.1731 155.623 85.1422 153.031 88.9697C150.327 92.9644 150.071 96.7855 152.64 100.91C153.4 102.13 153.646 103.67 154.129 105.446C150.756 105.891 147.381 105.954 143.55 105.936Z" fill="#7BEE2D"/>
<path d="M173.546 295.6C168.047 292.279 162.9 288.449 157.482 285.051C147.823 278.991 138.015 273.168 128.227 267.316C127.009 266.588 125.535 266.286 123.82 265.781C123.356 258.071 123.25 250.368 123.265 242.204C126.298 241.72 129.055 241.577 129.417 245.793C129.532 247.141 131.271 248.448 132.444 249.592C143.853 260.73 155.309 271.821 166.73 282.948C168.973 285.134 171.122 287.418 173.634 289.712C173.895 291.607 173.835 293.446 173.546 295.6Z" fill="#2C660E"/>
<path d="M351.119 139.389C345.672 141.799 340.289 143.8 334.523 145.807C334.32 145.183 334.528 144.56 334.674 143.922C334.975 142.599 335.244 141.267 335.526 139.939C333.987 139.633 332.25 138.711 330.945 139.131C326.243 140.642 326.393 138.59 327.043 134.965C328.311 127.894 334.394 126.831 339.444 125.038C347.251 122.268 347.769 122.134 343.663 115.076C341.312 111.035 339.918 105.651 333.669 105.291C333.113 105.259 332.176 103.436 332.236 102.497C332.568 97.2607 329.477 93.7979 326.237 90.4515C321.502 85.5621 316.57 80.8644 311.863 75.9495C310.683 74.7175 310.043 72.9684 309.164 71.0851C321.778 76.2624 331.046 85.6095 338.587 96.8255C345.105 106.52 349.83 116.912 350.277 128.869C350.403 132.245 350.872 135.609 351.119 139.389Z" fill="#029AB8"/>
<path d="M270.067 18.4651C245.391 10.0773 219.991 7.44279 193.385 8.59025C191.534 5.94682 190.373 3.62101 189.213 1.2952C190.906 1.11179 192.6 0.928321 194.88 1.02384C196.377 1.08561 197.286 0.868446 198.196 0.651222C215.876 -1.08572 233.322 0.818152 250.599 4.39207C257.727 5.86649 264.688 8.14652 271.958 10.7063C271.482 13.7233 270.775 16.0942 270.067 18.4651Z" fill="#00C1DB"/>
<path d="M145.778 233.838C152.923 240.812 158.99 248.71 168.489 252.467C169.988 253.06 171.602 253.361 173.54 253.794C173.928 259.513 173.937 265.235 173.866 271.352C169.34 269.814 164.444 268.529 160.537 265.819C150.998 259.203 141.917 251.927 131.754 244.238C137.146 240.152 141.289 237.013 145.778 233.838Z" fill="#42AA06"/>
<path d="M150.716 196.787C154.701 204.289 157.815 212.142 167.944 216.27C162.31 220.453 158.077 223.596 153.494 226.776C147.828 223.321 142.416 219.962 137.238 216.277C134.957 214.653 133.334 212.116 131.075 210.45C128.993 208.915 126.461 207.99 123.739 206.795C123.286 205.394 123.221 203.994 123.273 202.188C127.72 201.152 132.05 200.522 136.773 199.836C141.545 198.786 145.924 197.792 150.716 196.787Z" fill="#42AA06"/>
<path d="M406.719 223.696C403.306 234.41 400.772 245.514 396.251 255.739C390.832 268 383.703 279.503 377.347 291.352C375.68 294.46 373.598 296.029 370.176 293.749C366.923 291.58 367.834 289.219 369.603 286.533C379.507 271.49 386.83 255.166 393.919 238.154C395.997 236.371 397.484 234.901 398.828 233.308C401.5 230.14 404.093 226.904 406.719 223.696Z" fill="#126378"/>
<path d="M32.1298 283.773C38.4979 283.771 44.8661 283.769 52.0948 283.718C55.3392 283.419 57.7229 283.168 60.2794 283.202C61.4208 283.974 62.3896 284.461 63.3583 284.949C63.2735 290.017 59.4564 292.47 55.9418 294.78C39.5466 305.554 18.7778 298.844 11.6133 280.135C13.635 280.349 15.2488 280.922 16.863 281.494C18.9631 282.239 21.0635 282.982 23.1637 283.726C25.2004 283.746 27.237 283.767 29.8507 284.006C30.9951 284.074 31.5624 283.924 32.1298 283.773Z" fill="#2C660E"/>
<path d="M203.691 106.023C205.37 93.9697 207.527 82.0289 209.583 70.0707C209.998 67.654 210.03 65.1713 210.262 62.2751C215.947 61.5866 221.608 61.342 227.694 61.5698C227.42 64.3871 226.921 66.8157 225.987 69.0629C221.077 80.8761 214.941 92.3744 217.141 105.89C212.806 105.97 208.47 106.049 203.691 106.023Z" fill="#EBFFFE"/>
<path d="M60.1065 282.918C57.7227 283.168 55.339 283.419 52.564 283.681C51.0604 282.024 50.2562 279.983 48.7769 278.755C44.6316 275.316 40.2075 272.214 35.1309 268.406C38.3666 265.133 40.7224 262.438 43.401 260.116C47.0424 256.958 49.9975 253.702 48.1919 247.983C56.3125 253.38 63.6157 259.828 65.8251 270.492C63.6525 274.937 61.8795 278.927 60.1065 282.918Z" fill="#5BD40E"/>
<path d="M23.5384 131.604C20.8208 130.256 18.3214 128.54 15.7421 126.954C14.4303 126.147 12.9748 125.574 11.1914 124.964C15.5465 113.801 20.2046 102.528 25.1788 91.396C25.6859 90.2612 28.2073 89.2144 29.5959 89.4261C35.5457 90.3332 38.2734 95.9977 35.9683 101.472C31.7992 111.374 27.796 121.346 23.5384 131.604Z" fill="#34810A"/>
<path d="M243.589 61.289C243.716 74.6682 243.426 87.9276 243.055 101.185C243.019 102.476 242.485 103.753 242.112 105.455C238.043 105.95 234.044 106.027 229.592 105.55C229.696 100.101 230.572 95.2175 230.743 90.309C231.079 80.6446 231.023 70.9666 231.13 61.2942C235.137 61.2524 239.143 61.2105 243.589 61.289Z" fill="#A2F7FF"/>
<path d="M0.253906 196.242C2.40033 198.016 4.49011 200.224 6.5191 202.485C10.4555 206.873 14.3577 211.292 18.601 215.738C19.9615 220.97 21.1099 226.141 21.9919 231.357C22.6754 235.399 20.9331 237.734 16.6331 237.85C15.4788 237.881 14.3257 238.066 13.1782 238.224C7.53687 239.003 5.57611 238.132 4.72821 232.594C2.9035 220.676 1.65448 208.67 0.253906 196.242Z" fill="#275611"/>
<path d="M387.139 69.4402C382.885 67.6092 378.331 65.7917 374.274 63.1963C367.453 58.832 360.909 54.0289 354.346 49.2749C353.066 48.3479 351.808 46.963 351.267 45.5171C348.431 37.9446 345.83 30.2844 343.139 22.2784C346.248 23.9415 350.016 25.4137 352.374 28.1161C364.141 41.6013 375.537 55.4095 387.139 69.4402Z" fill="#029AB8"/>
<path d="M32.088 194.884C30.6278 177.97 32.9744 161.416 36.8607 145.019C37.7015 141.471 38.8211 137.989 40.3042 134.241C43.2869 134.86 45.7777 135.714 48.2685 136.568C43.8583 152.354 40.618 168.323 40.3497 185.361C37.3317 188.899 34.7098 191.891 32.088 194.884Z" fill="#7BEE2D"/>
<path d="M230.759 61.1878C231.023 70.9666 231.078 80.6446 230.742 90.309C230.572 95.2175 229.696 100.101 229.141 105.434C225.442 105.953 221.74 106.033 217.59 106.002C214.941 92.3745 221.076 80.8761 225.987 69.063C226.921 66.8157 227.419 64.3871 228.117 61.6734C228.874 61.2303 229.631 61.1558 230.759 61.1878Z" fill="#CDFCFF"/>
<path d="M32.0078 195.332C34.7109 191.891 37.3328 188.899 40.252 185.812C42.1042 198.516 43.6387 211.318 45.2303 224.113C45.5703 226.846 44.7142 228.637 41.8965 229.26C38.8593 229.931 36.8859 228.593 36.4207 225.715C34.811 215.755 33.4081 205.762 32.0078 195.332Z" fill="#34810A"/>
<path d="M23.1577 283.337C21.0635 282.982 18.9631 282.239 16.863 281.494C15.2488 280.922 13.635 280.349 11.6334 279.774C6.74353 267.802 10.1294 256.298 20.7011 248.639C26.672 256.893 20.3418 264.759 19.7507 272.837C19.4893 276.41 19.1781 278.321 23.6542 277.896C23.4632 279.817 23.3074 281.383 23.1577 283.337Z" fill="#34810A"/>
<path d="M411.206 167.327C411.518 171.308 412.562 175.408 411.945 179.24C411.273 183.411 407.085 181.728 404.442 181.548C403.279 181.469 401.501 179.278 401.308 177.867C399.832 167.084 398.679 156.258 397.824 145.146C398.876 145.565 399.698 146.19 400.154 147.017C403.877 153.765 407.531 160.552 411.206 167.327Z" fill="#126378"/>
<path d="M168.891 12.0901C159.566 14.9668 150.236 17.8306 140.917 20.727C137.368 21.8298 136.756 19.1552 135.774 16.8672C134.642 14.2283 136.097 13.2741 138.331 12.6542C148.212 9.91351 158.081 7.1333 168.46 4.86554C168.94 7.60577 168.915 9.84796 168.891 12.0901Z" fill="#126378"/>
<path d="M411.425 166.854C407.53 160.552 403.876 153.765 400.153 147.017C399.697 146.19 398.875 145.565 397.917 144.751C397.068 142.574 396.554 140.484 395.972 138.413C395.009 134.989 395.952 132.369 399.476 131.388C403.148 130.366 406.409 131.367 407.098 135.506C408.808 145.766 410.153 156.086 411.425 166.854Z" fill="#029AB8"/>
<path d="M291.487 18.634C296.218 20.9578 301.029 23.1349 305.661 25.6411C311.96 29.0488 312.128 30.1873 308.084 36.7394C298.881 32.0424 289.671 27.3423 280.303 22.0178C283.925 20.4735 287.706 19.5538 291.487 18.634Z" fill="#00C1DB"/>
<path d="M406.851 223.32C404.095 226.904 401.502 230.14 398.829 233.308C397.486 234.901 395.998 236.371 394.238 238.054C396.016 228.399 398.054 218.569 400.374 208.806C400.586 207.912 402.552 206.998 403.79 206.86C409.405 206.233 410.293 207.221 409.27 212.784C408.642 216.196 407.753 219.559 406.851 223.32Z" fill="#097B95"/>
<path d="M114.712 132.978C114.497 139.693 113.822 146.299 113.147 153.348C108.415 148.532 103.613 143.333 99.0174 137.959C98.1917 136.994 97.8142 135.235 98.0273 133.978C98.1218 133.421 100.194 132.912 101.383 132.88C105.67 132.761 109.962 132.855 114.712 132.978Z" fill="#34810A"/>
<path d="M338.041 48.2441C344.447 45.5044 349.444 46.995 353.667 52.7294C355.325 54.9803 357.009 57.227 358.453 59.6132C359.196 60.8393 359.439 62.3679 359.892 63.7157C358.565 64.5929 357.419 65.3506 356.206 66.4556C350.165 60.7132 344.191 54.6235 338.041 48.2441Z" fill="#029AB8"/>
<path d="M66.1055 231.81C71.4536 229.697 76.1855 230.898 78.8007 235.033C81.739 239.678 80.5718 245.455 75.3555 249.467C71.9505 243.429 69.028 237.619 66.1055 231.81Z" fill="#7BEE2D"/>
<path d="M169.349 12.0944C168.914 9.84796 168.939 7.60577 168.875 4.88489C175.323 3.30658 181.859 2.20703 188.804 1.20135C190.373 3.62103 191.533 5.94684 192.918 8.5434C185.364 9.90906 177.586 11.0039 169.349 12.0944Z" fill="#097B95"/>
<path d="M65.7631 231.836C69.029 237.619 71.9515 243.429 75.0134 249.55C69.4865 252.845 64.334 251.753 61.3335 246.932C58.1325 241.79 59.5874 236.424 65.7631 231.836Z" fill="#42AA06"/>
<path d="M364.121 75.1868C365.305 74.2031 366.571 73.5578 368.528 72.5596C373.376 79.0007 378.256 85.4842 383.141 92.3248C374.972 93.6171 371.931 91.5603 369.033 83.9763C367.888 80.9813 365.84 78.332 364.121 75.1868Z" fill="#029AB8"/>
<path d="M291.245 18.3713C287.705 19.5538 283.924 20.4735 280.042 21.7998C276.825 21.0796 273.709 19.9528 270.33 18.6456C270.775 16.0942 271.482 13.7233 272.23 10.9393C278.515 13.0535 284.76 15.581 291.245 18.3713Z" fill="#097B95"/>
<path d="M48.4717 136.299C45.7796 135.714 43.2888 134.86 40.4531 133.901C40.9113 131.106 41.759 128.429 42.506 125.724C43.4413 122.337 45.3326 121.341 48.8147 122.385C52.5947 123.518 52.1559 125.715 51.1281 128.487C50.2097 130.964 49.4838 133.513 48.4717 136.299Z" fill="#097B95"/>
<path d="M74.2417 303.767C76.4816 303.694 78.687 303.209 80.2109 304.014C83.0586 305.518 84.1572 308.656 82.1439 311.173C80.7939 312.86 77.6074 314.401 75.6738 313.989C72.7969 313.374 70.5105 310.767 71.6793 307.13C72.0586 305.95 73.1396 304.995 74.2417 303.767Z" fill="#126378"/>
<path d="M395.689 108.165C393.187 111.51 390.008 112.365 387.567 109.587C386.351 108.203 386.253 104.069 387.409 102.85C388.644 101.548 392.183 101.568 394.265 102.299C395.315 102.667 395.367 105.881 395.689 108.165Z" fill="#126378"/>
<path d="M60.2793 283.202C61.8796 278.927 63.6526 274.937 65.7957 270.876C65.4523 275.438 64.7388 280.07 63.6918 284.825C62.3895 284.461 61.4207 283.974 60.2793 283.202Z" fill="#42AA06"/>
<path d="M338.359 296.341C332.612 297.087 329.046 293.449 325.713 289.116C327.765 289.314 329.818 289.512 332.31 289.659C334.582 291.745 336.415 293.88 338.359 296.341Z" fill="#097B95"/>
<path d="M197.904 0.5C197.286 0.868469 196.376 1.08563 195.305 1.07233C195.966 0.67749 196.789 0.513122 197.904 0.5Z" fill="#097B95"/>
<path d="M351.381 149.671C351.046 149.277 350.855 148.7 350.894 147.97C351.257 148.374 351.391 148.931 351.381 149.671Z" fill="#029AB8"/>
<path d="M173.966 190.531C173.519 190.604 173.142 190.45 172.766 190.297C173 190.158 173.235 190.02 173.691 189.864C173.913 189.846 174.037 190.304 173.966 190.531Z" fill="#9EF85E"/>
<path d="M144.904 132.92C145.068 133.326 144.879 133.557 144.373 133.786C144.158 133.869 144.14 133.42 144.143 133.196C144.315 132.924 144.485 132.877 144.904 132.92Z" fill="#34810A"/>
<path d="M31.9844 283.554C31.5622 283.924 30.9948 284.074 30.2871 283.994C30.7109 283.62 31.2751 283.477 31.9844 283.554Z" fill="#34810A"/>
</svg>
