<svg width="500" height="500" viewBox="0 0 500 500" fill="none" xmlns="http://www.w3.org/2000/svg">
<path d="M42.5532 300.358L51.7553 294.284C51.7553 294.284 56.2234 270.087 52.9043 248.731C48.2447 218.601 28.1596 208.243 20.8617 211.215C13.5638 214.187 11.8404 223.145 25.0213 240.499C32.7979 250.759 42.7979 272.44 42.5532 300.358Z" fill="#126378"/>
<g opacity="0.3">
<path d="M42.5532 300.358L51.7553 294.284C51.7553 294.284 56.2234 270.087 52.9043 248.731C48.2447 218.601 28.1596 208.243 20.8617 211.215C13.5638 214.187 11.8404 223.145 25.0213 240.499C32.7979 250.759 42.7979 272.44 42.5532 300.358Z" fill="#62F0FE"/>
</g>
<path d="M45.9043 288.416H45.8085C45.6361 288.39 45.4808 288.295 45.3755 288.153C45.2702 288.012 45.2233 287.834 45.2447 287.657C49.0639 259.458 37.9575 228.633 25.4681 216.193C25.3426 216.068 25.2709 215.897 25.2689 215.718C25.2669 215.539 25.3347 215.367 25.4575 215.239C25.5802 215.111 25.7478 215.038 25.9234 215.036C26.0989 215.033 26.2681 215.103 26.3936 215.228C39.1064 227.885 50.4256 259.219 46.5532 287.831C46.5327 287.992 46.4556 288.14 46.3363 288.248C46.2171 288.355 46.0636 288.415 45.9043 288.416Z" fill="#62F0FE"/>
<path d="M19.383 315.618C18 316.421 14.0638 313.33 13 312.581C11.1316 311.283 9.62222 309.516 8.61703 307.451C7.49538 305.095 7.12345 302.441 7.5532 299.859C7.7745 298.497 8.08729 297.153 8.48937 295.835C8.86171 294.534 9.22341 293.232 9.5532 291.931C10.0007 290.671 10.189 289.331 10.1064 287.993C9.77661 285.325 7.44682 283.46 5.34044 281.844C3.00001 280.065 0.57448 277.711 0.585118 274.501C0.752819 272.007 1.72967 269.642 3.36171 267.777C4.87235 265.824 6.65959 264.111 8.02129 262.05C9.0933 260.62 9.65271 258.86 9.60639 257.061C9.45983 255.961 9.09807 254.902 8.54257 253.948C7.47874 251.855 5.9681 249.935 5.20214 247.69C4.43618 245.445 4.54256 242.646 6.26597 241.041C7.67022 239.718 9.77661 239.534 11.6809 239.664C13.4708 239.887 15.1915 240.505 16.7234 241.475C21.7234 244.306 24.5851 250.347 29.8936 252.527C31.9859 253.199 34.1178 253.735 36.2766 254.132C38.4043 254.707 40.5851 255.824 41.5958 257.831C43.5426 261.8 39.9255 266.692 41.2979 270.9C42.5106 274.631 46.0638 276.052 48.0532 279.414C48.8663 280.898 49.1943 282.608 48.9894 284.295C48.8157 287.146 48.1306 289.939 46.9681 292.538C45.6555 295.235 44.1811 297.846 42.5532 300.358L19.383 315.618Z" fill="#126378"/>
<g opacity="0.65">
<path d="M19.383 315.618C18 316.421 14.0638 313.33 13 312.581C11.1316 311.283 9.62222 309.516 8.61703 307.451C7.49538 305.095 7.12345 302.441 7.5532 299.859C7.7745 298.497 8.08729 297.153 8.48937 295.835C8.86171 294.534 9.22341 293.232 9.5532 291.931C10.0007 290.671 10.189 289.331 10.1064 287.993C9.77661 285.325 7.44682 283.46 5.34044 281.844C3.00001 280.065 0.57448 277.711 0.585118 274.501C0.752819 272.007 1.72967 269.642 3.36171 267.777C4.87235 265.824 6.65959 264.111 8.02129 262.05C9.0933 260.62 9.65271 258.86 9.60639 257.061C9.45983 255.961 9.09807 254.902 8.54257 253.948C7.47874 251.855 5.9681 249.935 5.20214 247.69C4.43618 245.445 4.54256 242.646 6.26597 241.041C7.67022 239.718 9.77661 239.534 11.6809 239.664C13.4708 239.887 15.1915 240.505 16.7234 241.475C21.7234 244.306 24.5851 250.347 29.8936 252.527C31.9859 253.199 34.1178 253.735 36.2766 254.132C38.4043 254.707 40.5851 255.824 41.5958 257.831C43.5426 261.8 39.9255 266.692 41.2979 270.9C42.5106 274.631 46.0638 276.052 48.0532 279.414C48.8663 280.898 49.1943 282.608 48.9894 284.295C48.8157 287.146 48.1306 289.939 46.9681 292.538C45.6555 295.235 44.1811 297.846 42.5532 300.358L19.383 315.618Z" fill="#62F0FE"/>
</g>
<path d="M32.7447 307.636C32.6627 307.633 32.5821 307.613 32.5076 307.578C32.433 307.544 32.3661 307.494 32.3106 307.432C32.2551 307.371 32.2123 307.298 32.1845 307.22C32.1568 307.141 32.1447 307.057 32.149 306.974C33.2128 281.768 21.5107 253.926 13 245.846C12.8965 245.727 12.8401 245.573 12.842 245.414C12.8438 245.255 12.9038 245.102 13.01 244.986C13.1163 244.869 13.2614 244.797 13.4169 244.784C13.5724 244.77 13.7272 244.817 13.8511 244.913C22.4894 253.167 34.383 281.464 33.3404 307.028C33.3327 307.187 33.2675 307.337 33.1574 307.449C33.0473 307.561 32.9002 307.628 32.7447 307.636Z" fill="#62F0FE"/>
<path d="M28.7234 276.822H28.5426C22.6974 275.173 16.6944 274.173 10.6383 273.839C10.5563 273.837 10.4757 273.817 10.4012 273.782C10.3266 273.747 10.2597 273.698 10.2042 273.636C10.1487 273.575 10.1059 273.502 10.0781 273.424C10.0504 273.345 10.0383 273.261 10.0426 273.178C10.0438 273.094 10.0618 273.011 10.0956 272.934C10.1293 272.857 10.1781 272.789 10.2388 272.732C10.2995 272.675 10.371 272.631 10.4488 272.604C10.5267 272.576 10.6092 272.565 10.6915 272.57C16.8685 272.899 22.9927 273.906 28.9575 275.575C29.1135 275.629 29.2428 275.743 29.3182 275.893C29.3935 276.043 29.4091 276.216 29.3617 276.377C29.3193 276.514 29.2334 276.631 29.1177 276.712C29.002 276.792 28.8632 276.831 28.7234 276.822Z" fill="#62F0FE"/>
<path d="M253.915 498.937C389.63 498.937 499.649 434.179 499.649 354.295C499.649 274.411 389.63 209.653 253.915 209.653C118.2 209.653 8.18085 274.411 8.18085 354.295C8.18085 434.179 118.2 498.937 253.915 498.937Z" fill="#E1FEC9"/>
<path d="M123.319 292.636C175.372 262.007 259.755 262.007 311.798 292.636C355.915 318.601 362.617 358.243 331.947 388.384L446.468 454.935C453.447 459.046 453.447 465.705 446.468 469.816L436.17 475.879C429.191 479.989 418.085 479.664 411.319 475.163L311.319 403.861C259.192 434.23 175.234 434.111 123.362 403.579C71.2766 372.939 71.2766 323.275 123.319 292.636Z" fill="#E6E6E6"/>
<path d="M144.415 23.3189L135.394 28.6334C135.439 28.2301 135.464 27.8246 135.468 27.4187V24.7505C135.468 20 132.202 18.0803 128.17 20.4121C126.433 21.4931 124.948 22.9478 123.819 24.6746C123.149 18.7093 118.564 16.4859 112.979 19.7614C106.947 23.3189 102.064 31.9523 102.064 39.0564V43.0369C102.022 44.6324 102.339 46.2165 102.989 47.6681L95.5426 52.0824C94.3558 52.8672 93.3693 53.9287 92.6646 55.1791C91.9598 56.4294 91.557 57.8328 91.4894 59.2733C91.4894 61.9089 93.2979 62.9718 95.5426 61.6594L144.479 32.8525C145.66 32.0719 146.643 31.0173 147.347 29.775C148.052 28.5327 148.458 27.138 148.532 25.705C148.468 23.0694 146.66 22.0065 144.415 23.3189Z" fill="#EBEBEB"/>
<path d="M25.4255 47.2451L30.5106 43.243V31.8113C30.5106 22.744 37.6064 12.2234 45.2979 7.70065C53 3.16703 59.2447 6.84382 59.2447 15.9002V17.5597C60.8681 14.8784 63.0829 12.6204 65.7128 10.9653C71.2553 7.7115 75.7447 10.3471 75.7447 16.8655V17.6247L82.8404 13.449C86.4894 11.2798 89.4468 13.0369 89.4468 17.3319C89.323 19.6696 88.6602 21.9447 87.5124 23.9724C86.3645 26.0001 84.7639 27.7233 82.8404 29.0022L25.4255 62.7983C21.7766 64.9675 18.8192 63.1996 18.8192 58.9045C18.943 56.5683 19.6058 54.2947 20.7537 52.2688C21.9016 50.2428 23.5023 48.5216 25.4255 47.2451Z" fill="#EBEBEB"/>
<path d="M100.883 312.571V345.575C100.883 363.492 112.5 381.367 135.723 395.087C182.17 422.429 257.489 422.429 303.936 395.087C327.16 381.41 338.777 363.492 338.777 345.575V312.571C338.777 294.653 327.16 276.779 303.936 263.069C257.489 235.727 182.17 235.727 135.723 263.069C112.5 276.735 100.883 294.653 100.883 312.571ZM327.266 312.571C327.266 326.909 316.936 340.879 298.181 351.92C277.436 364.132 249.617 370.857 219.83 370.857C190.043 370.857 162.223 364.132 141.479 351.92C122.723 340.879 112.394 326.909 112.394 312.571C112.394 298.232 122.723 284.262 141.479 273.221C162.223 261.009 190.043 254.284 219.83 254.284C249.617 254.284 277.447 261.009 298.181 273.221C316.947 284.262 327.266 298.265 327.266 312.571Z" fill="#126378"/>
<path opacity="0.2" d="M100.883 312.571V345.575C100.883 363.492 112.5 381.367 135.723 395.087C182.17 422.429 257.489 422.429 303.936 395.087C327.16 381.41 338.777 363.492 338.777 345.575V312.571C338.777 294.653 327.16 276.779 303.936 263.069C257.489 235.727 182.17 235.727 135.723 263.069C112.5 276.735 100.883 294.653 100.883 312.571ZM327.266 312.571C327.266 326.909 316.936 340.879 298.181 351.92C277.436 364.132 249.617 370.857 219.83 370.857C190.043 370.857 162.223 364.132 141.479 351.92C122.723 340.879 112.394 326.909 112.394 312.571C112.394 298.232 122.723 284.262 141.479 273.221C162.223 261.009 190.043 254.284 219.83 254.284C249.617 254.284 277.447 261.009 298.181 273.221C316.947 284.262 327.266 298.265 327.266 312.571Z" fill="#62F0FE"/>
<path opacity="0.6" d="M338.66 348.655C336.809 360.011 331.904 368.557 312.149 384.273C284.223 406.508 213.511 415.586 172.468 401.779C133.755 388.764 121.404 363.286 121.404 345.813L121.511 335.542C115.532 328.286 112.383 320.488 112.383 312.57C112.383 304.458 115.691 296.464 121.957 289.056L122.096 274.588H119.894C107.223 286.117 100.883 299.338 100.883 312.549V345.553C100.883 363.471 112.5 381.345 135.723 395.065C182.17 422.408 257.489 422.408 303.936 395.065C325.83 382.202 337.404 365.51 338.66 348.655Z" fill="#126378"/>
<path d="M303.947 263.069C257.489 235.727 182.181 235.727 135.734 263.069C89.2872 290.412 89.2766 334.74 135.734 362.082C182.191 389.425 257.489 389.425 303.947 362.082C350.404 334.74 350.394 290.412 303.947 263.069ZM298.191 351.92C277.447 364.132 249.617 370.857 219.84 370.857C190.064 370.857 162.234 364.132 141.479 351.92C122.723 340.879 112.394 326.909 112.394 312.571C112.394 298.232 122.723 284.262 141.479 273.221C162.223 261.009 190.053 254.284 219.84 254.284C249.628 254.284 277.447 261.009 298.191 273.221C316.947 284.262 327.277 298.243 327.277 312.571C327.277 326.898 316.947 340.879 298.191 351.92Z" fill="#126378"/>
<path opacity="0.5" d="M303.947 263.069C257.489 235.727 182.181 235.727 135.734 263.069C89.2872 290.412 89.2766 334.74 135.734 362.082C182.191 389.425 257.489 389.425 303.947 362.082C350.404 334.74 350.394 290.412 303.947 263.069ZM298.191 351.92C277.447 364.132 249.617 370.857 219.84 370.857C190.064 370.857 162.234 364.132 141.479 351.92C122.723 340.879 112.394 326.909 112.394 312.571C112.394 298.232 122.723 284.262 141.479 273.221C162.223 261.009 190.053 254.284 219.84 254.284C249.628 254.284 277.447 261.009 298.191 273.221C316.947 284.262 327.277 298.243 327.277 312.571C327.277 326.898 316.947 340.879 298.191 351.92Z" fill="#62F0FE"/>
<path d="M327.287 312.571C327.219 318.399 325.613 324.101 322.638 329.078C317.926 320.759 309.617 312.95 298.17 306.236C277.447 294.013 249.606 287.289 219.819 287.289C190.032 287.289 162.213 294.013 141.479 306.236C130.043 312.95 121.745 320.759 117.011 329.078C114.06 324.092 112.466 318.394 112.394 312.571C112.394 298.243 122.723 284.262 141.489 273.21C162.223 261.02 190.053 254.284 219.83 254.284C249.606 254.284 277.457 261.02 298.181 273.21C316.957 284.262 327.287 298.265 327.287 312.571Z" fill="#126378"/>
<path opacity="0.3" d="M327.287 312.571C327.219 318.399 325.613 324.101 322.638 329.078C317.926 320.759 309.617 312.95 298.17 306.236C277.447 294.013 249.606 287.289 219.819 287.289C190.032 287.289 162.213 294.013 141.479 306.236C130.043 312.95 121.745 320.759 117.011 329.078C114.06 324.092 112.466 318.394 112.394 312.571C112.394 298.243 122.723 284.262 141.489 273.21C162.223 261.02 190.053 254.284 219.83 254.284C249.606 254.284 277.457 261.02 298.181 273.21C316.957 284.262 327.287 298.265 327.287 312.571Z" fill="#62F0FE"/>
<path opacity="0.6" d="M141.489 273.21C122.723 284.262 112.394 298.243 112.394 312.571C112.469 318.395 114.067 324.093 117.021 329.078C121.766 320.759 130.064 312.95 141.489 306.236C146.321 303.419 151.34 300.951 156.511 298.85C151.979 300.64 138.064 305.206 143.138 291.681C149.17 275.618 178.606 258.221 200.234 255.336C177.989 257.581 157.596 263.742 141.489 273.21Z" fill="#126378"/>
<path opacity="0.4" d="M298.191 288.167C277.447 275.954 249.617 269.23 219.84 269.23C190.064 269.23 162.223 275.954 141.479 288.167C126.011 297.278 116.287 308.384 113.351 320.043C116.287 331.703 126.011 342.82 141.479 351.92C162.234 364.132 190.053 370.857 219.84 370.857C249.628 370.857 277.447 364.132 298.191 351.92C313.67 342.809 323.394 331.703 326.319 320.043C323.404 308.384 313.67 297.278 298.191 288.167Z" fill="#62F0FE"/>
<path d="M133.532 327.614C140.181 332.928 147.723 336.291 155.415 338.959C163.127 341.563 171.027 343.55 179.043 344.902C195.059 347.554 211.302 348.499 227.511 347.722C235.606 347.354 243.713 346.584 251.766 345.477C259.794 344.378 267.748 342.781 275.585 340.694C283.384 338.705 290.928 335.793 298.064 332.017C299.825 331.061 301.53 329.999 303.17 328.839C304.817 327.694 306.378 326.425 307.84 325.043C309.315 323.655 310.632 322.101 311.766 320.412C312.939 318.677 313.833 316.762 314.415 314.74C314.45 316.957 314.089 319.162 313.351 321.247C312.57 323.344 311.549 325.339 310.309 327.191C309.082 329.056 307.686 330.799 306.138 332.397C304.606 334.001 302.975 335.505 301.255 336.898C294.323 342.286 286.638 346.585 278.457 349.653C270.391 352.751 262.071 355.114 253.596 356.714C245.165 358.34 236.634 359.373 228.064 359.805C210.862 360.722 193.627 358.851 177 354.262C168.683 351.939 160.649 348.664 153.053 344.501C149.27 342.387 145.675 339.941 142.309 337.191C141.468 336.508 140.681 335.759 139.872 335.022C139.064 334.284 138.298 333.536 137.564 332.744C136.082 331.151 134.733 329.435 133.532 327.614Z" fill="#62F0FE"/>
<path d="M300.404 383.091C300.547 380.142 301.371 377.268 302.81 374.705C304.248 372.142 306.26 369.961 308.681 368.341C310.957 366.985 313.032 366.844 314.543 367.712L341.053 383.167C342.553 384.046 343.489 385.944 343.5 388.59C343.355 391.539 342.529 394.411 341.091 396.974C339.653 399.537 337.643 401.718 335.223 403.341C332.926 404.707 330.84 404.848 329.33 403.959L302.83 388.514C301.362 387.712 300.415 385.813 300.404 383.091Z" fill="#37474F"/>
<path d="M302.883 388.59C301.362 387.711 300.415 385.813 300.404 383.091C300.442 380.896 300.924 378.732 301.819 376.735L339.915 398.991C338.675 400.768 337.098 402.273 335.277 403.416C332.979 404.783 330.894 404.924 329.383 404.035L302.883 388.59Z" fill="#263238"/>
<path d="M431.319 427.126L346.957 383.297L346.851 383.232C344.894 382.148 342.234 382.343 339.309 384.078C333.33 387.636 328.511 396.226 328.543 403.276C328.543 406.811 329.787 409.284 331.734 410.434L411.021 462.495C413.303 463.967 415.851 464.955 418.515 465.402C421.18 465.848 423.905 465.742 426.528 465.092C429.151 464.441 431.619 463.258 433.784 461.614C435.95 459.97 437.768 457.898 439.131 455.522C440.494 453.146 441.374 450.514 441.717 447.784C442.061 445.054 441.862 442.281 441.132 439.631C440.402 436.981 439.156 434.508 437.468 432.359C435.78 430.211 433.686 428.431 431.308 427.126H431.319Z" fill="#455A64"/>
<path d="M331.745 410.456L411.032 462.516C413.98 464.403 417.357 465.476 420.834 465.631C424.312 465.786 427.768 465.017 430.866 463.399C433.964 461.782 436.596 459.372 438.505 456.405C440.414 453.438 441.534 450.016 441.755 446.475C440.234 453.21 429.319 458.937 415.787 451.226C402.255 443.514 352.128 411.204 329.351 397.831C328.816 399.587 328.537 401.415 328.521 403.254C328.532 406.833 329.787 409.306 331.745 410.456Z" fill="#37474F"/>
<path d="M331.745 410.456C329.766 409.306 328.553 406.833 328.553 403.297C328.553 396.247 333.34 387.657 339.319 384.1C342.245 382.364 344.904 382.18 346.862 383.254L354.309 387.115C352.298 386.03 349.585 386.204 346.574 387.983C340.447 391.627 335.5 400.445 335.532 407.679C335.532 411.302 336.755 413.894 338.777 415.065" fill="#126378"/>
<path opacity="0.2" d="M338.766 415.065C336.745 413.894 335.574 411.302 335.521 407.679C335.533 405.762 335.823 403.858 336.383 402.028C333.84 400.488 331.468 399.078 329.351 397.831C329.083 398.738 328.873 399.662 328.723 400.597C328.66 401.052 328.606 401.508 328.564 401.963C328.564 402.419 328.511 402.863 328.564 403.297C328.564 406.833 329.809 409.306 331.755 410.456L338.766 415.065Z" fill="#010F14"/>
<path d="M130.011 460.694L66.1808 428.145L40.7553 439.62L130.011 460.694Z" fill="#126378"/>
<g opacity="0.15">
<path d="M130.011 460.694L66.1808 428.145L40.7553 439.62L130.011 460.694Z" fill="#62F0FE"/>
</g>
<path d="M130.011 460.694L73.7872 422.375L83.8511 407.625L130.011 460.694Z" fill="#126378"/>
<g opacity="0.15">
<path d="M130.011 460.694L73.7872 422.375L83.8511 407.625L130.011 460.694Z" fill="#62F0FE"/>
</g>
<path d="M73.7872 422.375L74.8404 432.56L130.011 460.694L73.7872 422.375Z" fill="#126378"/>
<g opacity="0.2">
<path d="M73.7872 422.375L74.8404 432.56L130.011 460.694L73.7872 422.375Z" fill="#010F14"/>
</g>
<path d="M64.6808 420.423C64.8354 420.419 64.9831 420.357 65.0957 420.249C65.226 420.119 65.3044 419.944 65.3162 419.758C65.328 419.572 65.2722 419.388 65.1595 419.241L63.9361 417.57C63.8865 417.5 63.8227 417.441 63.749 417.398C63.6753 417.355 63.5933 417.328 63.5087 417.32C63.424 417.312 63.3386 417.322 63.2582 417.35C63.1778 417.379 63.1043 417.424 63.0425 417.484C62.9128 417.614 62.8338 417.788 62.8201 417.974C62.8064 418.159 62.8589 418.343 62.9681 418.492C63.3723 419.046 63.7872 419.577 64.2021 420.13C64.2543 420.213 64.3247 420.283 64.4078 420.334C64.4908 420.385 64.5843 420.415 64.6808 420.423Z" fill="#455A64"/>
<path d="M59.0745 413.026C58.3156 411.898 57.5816 410.759 56.8723 409.61C56.7764 409.452 56.7397 409.264 56.769 409.08C56.7983 408.897 56.8917 408.73 57.0319 408.612C57.0981 408.558 57.1749 408.52 57.2569 408.5C57.339 408.479 57.4244 408.477 57.5072 408.494C57.5901 408.51 57.6685 408.545 57.737 408.595C57.8056 408.646 57.8626 408.71 57.9042 408.785C58.617 409.924 59.3404 411.052 60.0319 412.169C60.1361 412.322 60.1807 412.509 60.1571 412.693C60.1335 412.878 60.0434 413.047 59.9042 413.167C59.801 413.259 59.6687 413.309 59.5319 413.308C59.44 413.298 59.3513 413.268 59.2723 413.219C59.1932 413.17 59.1256 413.104 59.0745 413.026ZM53.4468 403.709C52.7979 402.505 52.1596 401.28 51.5532 400.054C51.4699 399.889 51.4487 399.699 51.4938 399.519C51.5389 399.339 51.6471 399.182 51.7979 399.078C51.8711 399.032 51.9532 399.003 52.0385 398.992C52.1239 398.982 52.2105 398.99 52.2924 399.017C52.3742 399.044 52.4494 399.088 52.5128 399.148C52.5762 399.207 52.6263 399.279 52.6596 399.36C53.2553 400.564 53.883 401.768 54.5213 402.961C54.6119 403.122 54.6414 403.312 54.6041 403.494C54.5669 403.675 54.4655 403.837 54.3191 403.948C54.2198 404.01 54.1059 404.044 53.9894 404.046C53.8778 404.044 53.7687 404.012 53.6733 403.953C53.5779 403.893 53.4997 403.809 53.4468 403.709ZM48.7021 393.774C48.1702 392.484 47.6383 391.182 47.1915 389.892C47.1262 389.721 47.1248 389.531 47.1876 389.359C47.2503 389.187 47.3729 389.045 47.5319 388.959C47.6111 388.924 47.6965 388.907 47.7826 388.909C47.8686 388.91 47.9535 388.93 48.0316 388.967C48.1098 389.003 48.1795 389.056 48.2364 389.122C48.2932 389.188 48.3359 389.266 48.3617 389.349C48.8191 390.618 49.3191 391.898 49.8511 393.167C49.9226 393.337 49.9307 393.528 49.8739 393.704C49.817 393.879 49.6992 394.028 49.5425 394.121C49.4599 394.164 49.3689 394.186 49.2766 394.187C49.1518 394.183 49.0309 394.142 48.9287 394.068C48.8266 393.995 48.7478 393.893 48.7021 393.774ZM45.0213 383.275C44.6383 381.92 44.2766 380.542 43.9574 379.208C43.9066 379.031 43.9247 378.841 44.008 378.678C44.0912 378.514 44.2331 378.389 44.4042 378.33C44.4875 378.307 44.5744 378.303 44.6595 378.316C44.7446 378.329 44.8261 378.36 44.8989 378.407C44.9717 378.454 45.0344 378.515 45.0829 378.588C45.1314 378.66 45.1647 378.742 45.1808 378.829C45.4894 380.152 45.8404 381.497 46.2447 382.831C46.2988 383.005 46.2874 383.194 46.2127 383.36C46.138 383.527 46.0053 383.659 45.8404 383.731H45.6489C45.5103 383.733 45.3746 383.69 45.2616 383.608C45.1487 383.527 45.0644 383.41 45.0213 383.275ZM42.5532 372.31C42.3404 370.933 42.1489 369.523 41.9894 368.124C41.9582 367.944 41.9977 367.759 42.0992 367.609C42.2007 367.459 42.3562 367.355 42.5319 367.321C42.7063 367.309 42.8785 367.367 43.0116 367.482C43.1448 367.598 43.2284 367.762 43.2447 367.939C43.3936 369.317 43.5851 370.705 43.7979 372.061C43.8337 372.237 43.8018 372.421 43.7088 372.574C43.6158 372.728 43.4688 372.839 43.2979 372.885H43.1808C43.0275 372.877 42.8814 372.816 42.7672 372.711C42.6529 372.606 42.5774 372.465 42.5532 372.31ZM41.4894 361.074C41.4894 359.989 41.4255 358.905 41.4255 357.744V356.833C41.4212 356.745 41.4341 356.656 41.4633 356.573C41.4925 356.49 41.5376 356.413 41.5959 356.348C41.6542 356.282 41.7246 356.229 41.8031 356.191C41.8815 356.154 41.9665 356.132 42.0532 356.128C42.2292 356.142 42.3927 356.226 42.5082 356.362C42.6237 356.498 42.6819 356.675 42.6702 356.855V357.744C42.6702 358.829 42.6702 359.913 42.6702 360.998C42.6851 361.179 42.63 361.358 42.5167 361.498C42.4033 361.638 42.2408 361.727 42.0638 361.746C41.904 361.725 41.7574 361.645 41.6515 361.521C41.5457 361.397 41.488 361.238 41.4894 361.074ZM42.3298 350.564C42.1557 350.532 42.0001 350.433 41.8953 350.288C41.7904 350.143 41.7441 349.962 41.7659 349.783C41.883 348.384 42.0319 346.963 42.2021 345.564C42.2086 345.475 42.2328 345.389 42.2732 345.31C42.3136 345.232 42.3695 345.162 42.4373 345.106C42.505 345.05 42.5833 345.009 42.6673 344.985C42.7513 344.961 42.8392 344.955 42.9255 344.967C43.0993 345.004 43.2521 345.109 43.3515 345.259C43.4508 345.408 43.4889 345.592 43.4574 345.77C43.2872 347.147 43.1383 348.547 43.0213 349.913C43.0137 350.081 42.9455 350.241 42.8296 350.361C42.7138 350.481 42.5585 350.553 42.3936 350.564H42.3298ZM43.8191 339.479C43.6488 339.424 43.5055 339.305 43.4186 339.146C43.3316 338.986 43.3074 338.799 43.3511 338.623C43.6277 337.245 43.9468 335.868 44.2979 334.512C44.3138 334.426 44.3471 334.344 44.3958 334.272C44.4444 334.2 44.5073 334.139 44.5804 334.093C44.6535 334.047 44.7352 334.017 44.8203 334.005C44.9054 333.993 44.9919 334 45.0745 334.024C45.2429 334.09 45.381 334.218 45.4617 334.382C45.5424 334.547 45.5598 334.736 45.5106 334.913C45.1702 336.236 44.8511 337.603 44.5745 338.948C44.5523 339.098 44.4796 339.235 44.3689 339.336C44.2582 339.437 44.1165 339.495 43.9681 339.501L43.8191 339.479ZM46.6915 328.753C46.5296 328.673 46.4035 328.533 46.3384 328.362C46.2733 328.191 46.274 328.001 46.3404 327.831C46.7979 326.529 47.3085 325.217 47.8404 323.937C47.8705 323.856 47.9167 323.782 47.9762 323.72C48.0357 323.657 48.1072 323.609 48.1861 323.576C48.2651 323.543 48.3498 323.528 48.4349 323.53C48.5201 323.533 48.6038 323.553 48.6808 323.59C48.8358 323.685 48.9522 323.834 49.0089 324.009C49.0655 324.184 49.0585 324.374 48.9894 324.544C48.4574 325.803 47.9255 327.082 47.5106 328.362C47.4707 328.489 47.3929 328.6 47.288 328.68C47.1831 328.76 47.0563 328.804 46.9255 328.807C46.8442 328.81 46.7635 328.791 46.6915 328.753ZM51.0638 318.677C50.914 318.569 50.8083 318.409 50.7671 318.227C50.7259 318.045 50.752 317.854 50.8404 317.69C51.4894 316.486 52.1702 315.282 52.8617 314.121C52.9026 314.045 52.9592 313.978 53.0279 313.925C53.0965 313.873 53.1754 313.836 53.2592 313.817C53.3431 313.799 53.4299 313.799 53.5136 313.818C53.5974 313.836 53.6762 313.874 53.7447 313.926C53.8847 314.045 53.9788 314.21 54.01 314.393C54.0412 314.576 54.0074 314.764 53.9149 314.924C53.2234 316.063 52.5532 317.245 51.9255 318.427C51.8749 318.53 51.7975 318.617 51.7019 318.678C51.6062 318.739 51.4959 318.773 51.383 318.774C51.2696 318.774 51.1587 318.74 51.0638 318.677ZM56.7128 309.469C56.5838 309.34 56.5052 309.167 56.4915 308.984C56.4778 308.8 56.5299 308.618 56.6383 308.471C57.4362 307.386 58.2766 306.302 59.117 305.282C59.1719 305.216 59.2404 305.163 59.3175 305.126C59.3947 305.09 59.4787 305.071 59.5638 305.071C59.6489 305.071 59.7329 305.09 59.8101 305.126C59.8873 305.163 59.9557 305.216 60.0106 305.282C60.1318 305.421 60.1987 305.6 60.1987 305.786C60.1987 305.972 60.1318 306.152 60.0106 306.291C59.1808 307.299 58.3617 308.341 57.5745 309.414C57.5189 309.494 57.4456 309.559 57.3605 309.605C57.2754 309.65 57.1811 309.674 57.0851 309.675C57.0039 309.673 56.924 309.654 56.8507 309.618C56.7773 309.583 56.7122 309.532 56.6596 309.469H56.7128ZM63.5532 301.356C63.432 301.217 63.3651 301.037 63.3651 300.851C63.3651 300.666 63.432 300.486 63.5532 300.347C64.4893 299.403 65.4574 298.482 66.4255 297.614C66.4894 297.556 66.5647 297.513 66.6464 297.487C66.7281 297.461 66.8143 297.454 66.8991 297.465C66.9839 297.477 67.0653 297.506 67.1377 297.553C67.2102 297.599 67.2721 297.66 67.3191 297.733C67.4221 297.887 67.468 298.073 67.4485 298.258C67.429 298.442 67.3454 298.614 67.2128 298.742C66.2553 299.588 65.3085 300.488 64.383 301.41C64.2738 301.525 64.1248 301.591 63.9681 301.594C63.8775 301.593 63.7885 301.57 63.7075 301.529C63.6265 301.488 63.5556 301.429 63.5 301.356H63.5532ZM71.383 294.49C71.2957 294.329 71.267 294.142 71.302 293.961C71.3371 293.781 71.4336 293.618 71.5745 293.503C72.6383 292.722 73.7021 291.996 74.7659 291.334C74.8388 291.29 74.92 291.262 75.0042 291.253C75.0883 291.243 75.1735 291.252 75.254 291.279C75.3346 291.305 75.4086 291.349 75.4712 291.408C75.5338 291.466 75.5835 291.537 75.617 291.616C75.6997 291.779 75.7204 291.968 75.6753 292.146C75.6302 292.324 75.5223 292.479 75.3723 292.581C74.3085 293.232 73.2447 293.948 72.1808 294.751C72.0812 294.822 71.9622 294.86 71.8404 294.859C71.7317 294.846 71.6279 294.806 71.5386 294.742C71.4493 294.677 71.3775 294.591 71.3298 294.49H71.383Z" fill="#455A64"/>
<path d="M80.7447 289.805H80.9362C81.4981 289.588 82.0786 289.424 82.6702 289.317C82.8448 289.278 82.9978 289.171 83.0969 289.019C83.1961 288.868 83.2338 288.683 83.2021 288.503C83.1955 288.415 83.1716 288.33 83.132 288.251C83.0923 288.173 83.0377 288.103 82.9713 288.046C82.9049 287.99 82.828 287.947 82.7452 287.922C82.6625 287.896 82.5755 287.887 82.4894 287.896C81.8303 288.022 81.1827 288.203 80.5532 288.438C80.3847 288.506 80.2481 288.637 80.171 288.805C80.0939 288.972 80.0822 289.163 80.1383 289.338C80.1785 289.471 80.2587 289.588 80.3676 289.672C80.4764 289.755 80.6084 289.802 80.7447 289.805Z" fill="#455A64"/>
<path d="M379.468 40.2928L314.043 19.8482L364.447 55.1518L379.468 40.2928Z" fill="#126378"/>
<path opacity="0.15" d="M379.468 40.2928L314.043 19.8482L364.447 55.1518L379.468 40.2928Z" fill="#62F0FE"/>
<path d="M314.043 19.8482L384.457 31.3991L399.479 16.5401L314.043 19.8482Z" fill="#126378"/>
<path opacity="0.15" d="M314.043 19.8482L384.457 31.3991L399.479 16.5401L314.043 19.8482Z" fill="#62F0FE"/>
<path d="M384.457 31.3991L384.521 49.1432L379.468 40.2928L314.043 19.8482L384.457 31.3991Z" fill="#126378"/>
<path opacity="0.2" d="M384.457 31.3991L384.521 49.1432L379.468 40.2928L314.043 19.8482L384.457 31.3991Z" fill="#010F14"/>
<path d="M384.521 49.1432L374.457 45.2495L379.468 40.2928L384.521 49.1432Z" fill="#126378"/>
<path opacity="0.2" d="M379.468 40.2928L374.457 45.2495L376.064 45.8677L379.468 40.2928Z" fill="#010F14"/>
<path d="M397.723 37.1692C397.662 37.2155 397.611 37.274 397.572 37.3411C397.534 37.4082 397.509 37.4826 397.5 37.5597C397.478 37.7448 397.522 37.9318 397.623 38.087C397.725 38.2422 397.877 38.3552 398.053 38.4056L399.989 38.9371C400.071 38.9632 400.156 38.9708 400.241 38.9596C400.325 38.9483 400.406 38.9184 400.478 38.8719C400.55 38.8254 400.611 38.7635 400.657 38.6905C400.703 38.6174 400.733 38.535 400.745 38.449C400.77 38.2664 400.73 38.0806 400.633 37.9254C400.535 37.7701 400.386 37.6558 400.213 37.603L398.255 37.0716C398.165 37.0448 398.07 37.0397 397.978 37.0566C397.886 37.0736 397.799 37.1121 397.723 37.1692Z" fill="#455A64"/>
<path d="M406.585 39.5879C407.851 40.0217 409.117 40.4772 410.362 40.9436C410.532 41.0094 410.674 41.1352 410.762 41.2982C410.85 41.4613 410.878 41.6509 410.84 41.833C410.818 41.9169 410.779 41.995 410.725 42.062C410.67 42.129 410.602 42.1834 410.526 42.2215C410.449 42.2595 410.365 42.2803 410.28 42.2825C410.195 42.2847 410.11 42.2683 410.032 42.2343C408.798 41.7679 407.543 41.3232 406.287 40.8894C406.116 40.8298 405.972 40.709 405.882 40.5494C405.792 40.3898 405.762 40.2022 405.798 40.0217C405.823 39.8825 405.899 39.7583 406.011 39.6746C406.092 39.6123 406.187 39.5717 406.287 39.5566C406.387 39.5414 406.49 39.5522 406.585 39.5879ZM416.596 43.5141C417.84 44.0781 419.064 44.5987 420.277 45.2603C420.441 45.3386 420.571 45.4761 420.642 45.6464C420.712 45.8166 420.719 46.0075 420.66 46.1822C420.628 46.2631 420.58 46.3363 420.518 46.3969C420.457 46.4575 420.384 46.5042 420.303 46.5339C420.223 46.5636 420.137 46.5757 420.052 46.5693C419.967 46.5629 419.884 46.5381 419.808 46.4968C418.617 45.9002 417.404 45.3254 416.181 44.7831C416.016 44.707 415.884 44.5732 415.808 44.406C415.732 44.2388 415.717 44.0494 415.766 43.872C415.801 43.755 415.872 43.6524 415.968 43.5792C416.057 43.5118 416.163 43.4701 416.273 43.4587C416.384 43.4472 416.495 43.4664 416.596 43.5141ZM426.277 48.4924C427.468 49.1866 428.638 49.9132 429.787 50.6616C429.94 50.7584 430.054 50.9085 430.106 51.0839C430.159 51.2594 430.148 51.4484 430.074 51.616C430.032 51.6928 429.975 51.7597 429.905 51.8123C429.836 51.865 429.757 51.9022 429.673 51.9216C429.588 51.941 429.501 51.9422 429.416 51.9251C429.332 51.9079 429.251 51.8729 429.181 51.8221C428.053 51.0954 426.894 50.3905 425.723 49.6529C425.566 49.5632 425.446 49.4174 425.387 49.2433C425.328 49.0692 425.334 48.8791 425.404 48.7093C425.439 48.619 425.498 48.5402 425.574 48.4816C425.68 48.4132 425.802 48.3778 425.927 48.3797C426.052 48.3816 426.173 48.4208 426.277 48.4924ZM435.447 54.577C436.564 55.4121 437.66 56.2798 438.713 57.1475C438.855 57.2596 438.951 57.4225 438.981 57.6036C439.01 57.7847 438.972 57.9705 438.872 58.1236C438.82 58.1939 438.754 58.2521 438.678 58.2944C438.602 58.3368 438.518 58.3624 438.431 58.3695C438.345 58.3767 438.258 58.3653 438.177 58.336C438.095 58.3067 438.02 58.2602 437.957 58.1996C436.894 57.3427 435.83 56.4967 434.766 55.6725C434.617 55.5667 434.512 55.4076 434.473 55.2268C434.433 55.0459 434.462 54.8565 434.553 54.6963C434.584 54.6395 434.628 54.5911 434.681 54.5553C434.795 54.4772 434.93 54.4372 435.067 54.4411C435.205 54.445 435.337 54.4925 435.447 54.577ZM443.904 61.8221C444.904 62.7874 445.894 63.7852 446.851 64.8048C446.975 64.936 447.044 65.1109 447.044 65.2928C447.044 65.4748 446.975 65.6496 446.851 65.7809C446.79 65.8439 446.717 65.8938 446.636 65.9279C446.556 65.962 446.47 65.9796 446.383 65.9796C446.296 65.9796 446.21 65.962 446.129 65.9279C446.049 65.8938 445.976 65.8439 445.915 65.7809C444.979 64.7831 444 63.7961 443.021 62.8525C442.888 62.7313 442.805 62.5629 442.789 62.3816C442.773 62.2003 442.826 62.0196 442.936 61.8764L443.021 61.7896C443.146 61.6827 443.306 61.6268 443.469 61.6328C443.632 61.6389 443.787 61.7063 443.904 61.8221ZM451.447 70.0868C452.138 70.9436 452.808 71.8113 453.479 72.7006L454.011 73.4273C454.122 73.566 454.176 73.7438 454.16 73.9223C454.144 74.1009 454.06 74.2659 453.926 74.3818C453.853 74.4326 453.772 74.4682 453.686 74.4864C453.6 74.5047 453.511 74.5053 453.425 74.4881C453.338 74.4709 453.257 74.4363 453.184 74.3864C453.111 74.3365 453.048 74.2722 453 74.1974L452.468 73.4816C451.819 72.6139 451.16 71.757 450.479 70.9111C450.356 70.7816 450.287 70.6085 450.287 70.4284C450.287 70.2483 450.356 70.0752 450.479 69.9458C450.547 69.8835 450.627 69.8364 450.714 69.8074C450.801 69.7784 450.893 69.7682 450.984 69.7774C451.075 69.7865 451.163 69.8149 451.243 69.8607C451.322 69.9065 451.392 69.9687 451.447 70.0434V70.0868ZM457.032 78.9805C457.188 78.8965 457.37 78.8767 457.54 78.9251C457.71 78.9735 457.856 79.0865 457.947 79.2408C458.681 80.4338 459.404 81.6486 460.074 82.8742C460.121 82.9487 460.152 83.0318 460.167 83.1188C460.181 83.2059 460.178 83.2949 460.159 83.3808C460.139 83.4668 460.102 83.5478 460.051 83.6191C460 83.6904 459.936 83.7506 459.862 83.7961C459.7 83.8697 459.517 83.8781 459.349 83.8198C459.181 83.7615 459.041 83.6407 458.957 83.4816C458.277 82.2777 457.564 81.0738 456.83 79.9132C456.735 79.7754 456.695 79.6066 456.717 79.4399C456.738 79.2733 456.82 79.121 456.947 79.013L457.032 78.9805ZM462.426 88.7419C462.595 88.6795 462.782 88.6852 462.948 88.7577C463.114 88.8301 463.246 88.964 463.319 89.1323C463.904 90.4013 464.479 91.692 465 92.9826C465.037 93.0621 465.058 93.1483 465.061 93.2362C465.064 93.324 465.05 93.4117 465.019 93.4938C464.988 93.5759 464.942 93.6507 464.882 93.7139C464.822 93.777 464.75 93.8271 464.67 93.8612C464.497 93.9113 464.311 93.8935 464.149 93.8112C463.988 93.729 463.863 93.5882 463.798 93.4165C463.287 92.1475 462.734 90.8785 462.149 89.6421C462.076 89.5076 462.052 89.3511 462.081 89.2002C462.11 89.0493 462.191 88.9138 462.308 88.8178C462.336 88.759 462.376 88.7072 462.426 88.6659V88.7419ZM466.521 99.0456C466.698 99.0114 466.882 99.0458 467.035 99.1421C467.189 99.2384 467.301 99.3896 467.351 99.5662C467.755 100.889 468.138 102.245 468.468 103.59C468.494 103.673 468.501 103.761 468.491 103.848C468.481 103.935 468.453 104.018 468.408 104.093C468.364 104.168 468.305 104.232 468.235 104.282C468.164 104.332 468.084 104.366 468 104.382C467.822 104.405 467.642 104.361 467.494 104.257C467.347 104.152 467.243 103.996 467.202 103.818C466.872 102.495 466.5 101.161 466.138 99.8698C466.093 99.745 466.088 99.609 466.122 99.4807C466.156 99.3525 466.229 99.2383 466.33 99.154C466.378 99.0774 466.444 99.0141 466.521 98.9696V99.0456ZM469.074 109.729C469.257 109.724 469.434 109.788 469.573 109.908C469.713 110.028 469.804 110.196 469.83 110.38C470.043 111.735 470.213 113.113 470.351 114.479C470.362 114.564 470.354 114.651 470.33 114.733C470.305 114.815 470.264 114.89 470.209 114.955C470.153 115.019 470.085 115.071 470.009 115.107C469.933 115.143 469.85 115.162 469.766 115.163C469.584 115.161 469.409 115.09 469.275 114.963C469.141 114.837 469.058 114.665 469.043 114.479C468.904 113.145 468.745 111.8 468.532 110.466C468.513 110.354 468.523 110.238 468.563 110.132C468.602 110.025 468.668 109.931 468.755 109.859C468.837 109.757 468.949 109.684 469.074 109.653V109.729Z" fill="#455A64"/>
<path d="M480.723 282.896C477.872 281.16 473.851 281.399 469.383 283.98L388.362 331.703C379.713 336.79 372.691 348.894 372.691 358.731C372.691 363.536 374.372 366.898 377.096 368.492L385.787 373.601C388.628 375.249 392.596 374.989 397 372.397L478.032 324.675C486.681 319.588 493.691 307.484 493.691 297.646C493.691 292.874 492.032 289.501 489.33 287.885C487.851 287.061 482.149 283.764 480.723 282.896Z" fill="#9EF85E"/>
<path d="M389.809 374.187C384.915 374.187 381.872 370.239 381.872 363.894C381.872 354.252 388.777 342.332 397.266 337.343L478.298 289.62C480.384 288.301 482.77 287.554 485.223 287.451C490.117 287.451 493.16 291.399 493.16 297.744C493.16 307.397 486.255 319.306 477.766 324.306L396.734 372.028C394.649 373.349 392.262 374.093 389.809 374.187Z" fill="#FAFAFA"/>
<path d="M485.223 287.95C489.787 287.95 492.67 291.692 492.67 297.711C492.67 307.191 485.883 318.894 477.543 323.742L396.511 371.464C394.506 372.74 392.212 373.465 389.851 373.568C388.84 373.603 387.836 373.401 386.914 372.978C385.991 372.555 385.177 371.922 384.532 371.128C383.021 369.012 382.269 366.431 382.404 363.818C382.404 354.349 389.191 342.646 397.532 337.787L478.564 290.065C480.568 288.79 482.863 288.065 485.223 287.961M485.223 286.876C482.674 286.975 480.195 287.752 478.032 289.132L397 336.855C388.351 341.952 381.34 354.046 381.34 363.883C381.34 370.77 384.777 374.729 389.851 374.729C392.399 374.628 394.877 373.855 397.043 372.484L478.074 324.761C486.723 319.675 493.734 307.57 493.734 297.733C493.734 290.846 490.298 286.887 485.223 286.887V286.876Z" fill="#EBEBEB"/>
<path d="M409.702 347.462C410.032 346.833 409.979 346.182 409.702 346.009L406.989 344.414C406.932 344.384 406.868 344.368 406.803 344.368C406.738 344.368 406.675 344.384 406.617 344.414L404.128 345.39L403.308 343.612C403.268 343.524 403.201 343.452 403.117 343.406L400.404 341.8C400.064 341.605 399.5 342.05 399.277 342.787L397.585 348.438C397.493 348.779 397.3 349.082 397.032 349.306L393.255 352.288C392.649 352.755 392.415 353.905 392.851 354.219L395.585 356.236C395.679 356.335 395.748 356.456 395.785 356.589C395.822 356.721 395.827 356.861 395.798 356.996L395.149 362.495C395.096 362.896 395.213 363.167 395.394 363.265L398.106 364.87C398.319 364.989 398.638 364.87 398.926 364.512L402.309 360.108C402.379 359.988 402.479 359.888 402.598 359.818C402.717 359.748 402.852 359.709 402.989 359.707L406.383 360.087C406.915 360.163 407.543 359.165 407.447 358.416L406.798 353.677C406.768 353.326 406.842 352.975 407.011 352.668L409.702 347.462Z" fill="#126378"/>
<path opacity="0.15" d="M409.67 345.987C409.612 345.96 409.548 345.946 409.484 345.946C409.42 345.946 409.356 345.96 409.298 345.987L405.511 347.462C405.461 347.487 405.408 347.501 405.353 347.503C405.298 347.506 405.243 347.496 405.192 347.476C405.141 347.456 405.095 347.424 405.056 347.385C405.018 347.345 404.988 347.297 404.968 347.245L404.096 345.358L406.585 344.393C406.643 344.363 406.707 344.348 406.771 344.348C406.836 344.348 406.9 344.363 406.957 344.393L409.67 345.987Z" fill="#62F0FE"/>
<path opacity="0.15" d="M400.266 350.022C400.171 350.361 399.978 350.663 399.713 350.889L395.936 353.861C395.762 353.999 395.624 354.178 395.532 354.382L392.819 352.777C392.917 352.576 393.054 352.399 393.223 352.256L397 349.284C397.265 349.062 397.458 348.764 397.553 348.427L400.266 350.022Z" fill="#62F0FE"/>
<path opacity="0.1" d="M403.106 343.395C402.766 343.167 402.191 343.612 401.957 344.371L400.266 350.022L397.553 348.416L399.245 342.766C399.468 342.028 400.032 341.584 400.372 341.779C400.447 341.779 402.745 343.189 403.096 343.384L403.106 343.395Z" fill="#010F14"/>
<path opacity="0.25" d="M398.266 357.82L395.574 356.236L392.84 354.219C392.521 353.98 392.564 353.33 392.84 352.798L395.553 354.403C395.277 354.924 395.234 355.586 395.553 355.824L398.266 357.82Z" fill="#010F14"/>
<path opacity="0.15" d="M397.872 364.078C397.872 364.479 397.936 364.751 398.138 364.859L395.415 363.254C395.308 363.162 395.229 363.04 395.187 362.904C395.146 362.767 395.144 362.621 395.181 362.484L395.83 356.985C395.857 356.855 395.853 356.721 395.82 356.593C395.787 356.465 395.725 356.346 395.638 356.247L398.33 357.831C398.417 357.927 398.48 358.044 398.513 358.17C398.546 358.297 398.549 358.43 398.521 358.557L397.872 364.078Z" fill="#010F14"/>
<path d="M403.277 343.59L404.968 347.256C404.988 347.308 405.018 347.356 405.056 347.396C405.095 347.435 405.141 347.466 405.192 347.487C405.243 347.507 405.298 347.517 405.353 347.514C405.408 347.512 405.461 347.498 405.511 347.473L409.298 345.998C409.894 345.759 410.138 346.627 409.702 347.462L406.968 352.69C406.8 352.997 406.726 353.348 406.755 353.698L407.404 358.438C407.5 359.187 406.872 360.184 406.34 360.108L402.957 359.685C402.82 359.688 402.685 359.726 402.566 359.796C402.447 359.866 402.347 359.966 402.277 360.087L398.936 364.49C398.394 365.195 397.766 364.946 397.872 364.067L398.521 358.568C398.552 358.434 398.549 358.293 398.511 358.161C398.474 358.028 398.404 357.907 398.309 357.809L395.574 355.803C395.138 355.477 395.383 354.338 395.979 353.861L399.755 350.889C400.023 350.665 400.216 350.362 400.309 350.022L402 344.371C402.223 343.471 403 343.015 403.277 343.59Z" fill="#126378"/>
<path opacity="0.5" d="M403.277 343.59L404.968 347.256C404.988 347.308 405.018 347.356 405.056 347.396C405.095 347.435 405.141 347.466 405.192 347.487C405.243 347.507 405.298 347.517 405.353 347.514C405.408 347.512 405.461 347.498 405.511 347.473L409.298 345.998C409.894 345.759 410.138 346.627 409.702 347.462L406.968 352.69C406.8 352.997 406.726 353.348 406.755 353.698L407.404 358.438C407.5 359.187 406.872 360.184 406.34 360.108L402.957 359.685C402.82 359.688 402.685 359.726 402.566 359.796C402.447 359.866 402.347 359.966 402.277 360.087L398.936 364.49C398.394 365.195 397.766 364.946 397.872 364.067L398.521 358.568C398.552 358.434 398.549 358.293 398.511 358.161C398.474 358.028 398.404 357.907 398.309 357.809L395.574 355.803C395.138 355.477 395.383 354.338 395.979 353.861L399.755 350.889C400.023 350.665 400.216 350.362 400.309 350.022L402 344.371C402.223 343.471 403 343.015 403.277 343.59Z" fill="#62F0FE"/>
<path d="M428.723 336.291C429.053 335.662 428.989 335.022 428.723 334.848L426.021 333.254C425.962 333.223 425.896 333.207 425.83 333.207C425.763 333.207 425.698 333.223 425.638 333.254L423.16 334.23L422.33 332.451C422.296 332.362 422.232 332.289 422.149 332.245L419.436 330.64C419.096 330.445 418.532 330.889 418.308 331.627L416.543 337.31C416.446 337.649 416.254 337.95 415.989 338.178L412.213 341.15C411.606 341.627 411.372 342.777 411.798 343.091L414.543 345.108C414.636 345.207 414.704 345.329 414.74 345.461C414.775 345.594 414.777 345.734 414.745 345.868L414.106 351.367C414.053 351.768 414.16 352.039 414.34 352.137L417.021 353.688C417.234 353.807 417.543 353.688 417.84 353.33L421.223 348.926C421.294 348.806 421.394 348.706 421.513 348.636C421.632 348.565 421.767 348.527 421.904 348.525L425.287 348.948C425.819 349.013 426.447 348.026 426.351 347.278L425.713 342.538C425.678 342.187 425.753 341.834 425.926 341.529L428.723 336.291Z" fill="#126378"/>
<path opacity="0.15" d="M428.66 334.837C428.601 334.811 428.538 334.797 428.473 334.797C428.409 334.797 428.346 334.811 428.287 334.837L424.468 336.312C424.418 336.337 424.364 336.351 424.308 336.354C424.252 336.357 424.197 336.347 424.145 336.327C424.093 336.307 424.046 336.276 424.006 336.236C423.967 336.196 423.936 336.148 423.915 336.095L423.053 334.208L425.532 333.243C425.592 333.213 425.657 333.198 425.723 333.198C425.79 333.198 425.855 333.213 425.915 333.243L428.66 334.837Z" fill="#62F0FE"/>
<path opacity="0.15" d="M419.255 338.861C419.161 339.2 418.968 339.503 418.702 339.729L414.894 342.733C414.72 342.871 414.581 343.05 414.489 343.254L411.798 341.649C411.903 341.45 412.044 341.273 412.213 341.128L415.989 338.156C416.254 337.929 416.446 337.627 416.543 337.288L419.255 338.861Z" fill="#62F0FE"/>
<path opacity="0.1" d="M422.096 332.234C421.755 332.007 421.181 332.451 420.947 333.21L419.255 338.861L416.543 337.31L418.234 331.659C418.457 330.922 419.021 330.477 419.362 330.672C419.436 330.672 421.734 332.082 422.074 332.267L422.096 332.234Z" fill="#010F14"/>
<path opacity="0.25" d="M417.255 346.649L414.564 345.076L411.83 343.059C411.521 342.82 411.564 342.169 411.83 341.638L414.553 343.243C414.277 343.764 414.234 344.425 414.553 344.653L417.255 346.649Z" fill="#010F14"/>
<path opacity="0.15" d="M416.819 352.907C416.766 353.319 416.883 353.59 417.074 353.698L414.362 352.093C414.181 351.985 414.074 351.725 414.128 351.323L414.777 345.824C414.801 345.695 414.797 345.561 414.763 345.433C414.73 345.306 414.669 345.187 414.585 345.087L417.277 346.659C417.364 346.756 417.426 346.872 417.46 346.999C417.493 347.125 417.496 347.258 417.468 347.386L416.819 352.907Z" fill="#010F14"/>
<path d="M422.255 332.429L423.947 336.095C423.968 336.148 423.999 336.196 424.038 336.236C424.078 336.276 424.125 336.307 424.177 336.327C424.229 336.347 424.284 336.357 424.34 336.354C424.396 336.351 424.45 336.337 424.5 336.312L428.287 334.837C428.883 334.599 429.128 335.466 428.692 336.291L425.957 341.529C425.785 341.834 425.71 342.187 425.745 342.538L426.383 347.278C426.489 348.026 425.862 349.013 425.319 348.948L421.936 348.525C421.799 348.527 421.664 348.565 421.545 348.636C421.426 348.706 421.326 348.806 421.255 348.926L417.872 353.33C417.33 354.035 416.702 353.785 416.809 352.907L417.457 347.408C417.486 347.273 417.482 347.133 417.445 347.001C417.408 346.868 417.339 346.747 417.245 346.649L414.511 344.642C414.074 344.317 414.309 343.178 414.915 342.701L418.692 339.729C418.959 339.505 419.152 339.202 419.245 338.861L420.936 333.21C421.213 332.31 421.989 331.887 422.255 332.429Z" fill="#126378"/>
<path opacity="0.5" d="M422.255 332.429L423.947 336.095C423.968 336.148 423.999 336.196 424.038 336.236C424.078 336.276 424.125 336.307 424.177 336.327C424.229 336.347 424.284 336.357 424.34 336.354C424.396 336.351 424.45 336.337 424.5 336.312L428.287 334.837C428.883 334.599 429.128 335.466 428.692 336.291L425.957 341.529C425.785 341.834 425.71 342.187 425.745 342.538L426.383 347.278C426.489 348.026 425.862 349.013 425.319 348.948L421.936 348.525C421.799 348.527 421.664 348.565 421.545 348.636C421.426 348.706 421.326 348.806 421.255 348.926L417.872 353.33C417.33 354.035 416.702 353.785 416.809 352.907L417.457 347.408C417.486 347.273 417.482 347.133 417.445 347.001C417.408 346.868 417.339 346.747 417.245 346.649L414.511 344.642C414.074 344.317 414.309 343.178 414.915 342.701L418.692 339.729C418.959 339.505 419.152 339.202 419.245 338.861L420.936 333.21C421.213 332.31 421.989 331.887 422.255 332.429Z" fill="#62F0FE"/>
<path d="M447.681 325.13C448 324.501 447.947 323.861 447.681 323.688L444.936 322.126C444.876 322.098 444.811 322.084 444.745 322.084C444.679 322.084 444.613 322.098 444.553 322.126L442.064 323.102L441.245 321.323C441.211 321.234 441.147 321.161 441.064 321.117L438.351 319.512C438.011 319.317 437.436 319.761 437.223 320.499L435.532 326.15C435.435 326.488 435.243 326.79 434.979 327.017L431.192 329.989C430.596 330.466 430.351 331.605 430.787 331.931L433.521 333.948C433.62 334.044 433.691 334.165 433.729 334.298C433.766 334.432 433.768 334.573 433.734 334.707L433.085 340.206C433.085 340.607 433.149 340.868 433.33 340.976L436.043 342.581C436.266 342.701 436.574 342.581 436.872 342.223L440.245 337.82C440.316 337.698 440.417 337.597 440.539 337.527C440.66 337.456 440.797 337.419 440.936 337.419L444.309 337.842C444.851 337.907 445.479 336.92 445.372 336.171L444.734 331.432C444.7 331.082 444.771 330.731 444.936 330.423L447.681 325.13Z" fill="#126378"/>
<path opacity="0.15" d="M447.649 323.677C447.589 323.65 447.523 323.636 447.457 323.636C447.392 323.636 447.326 323.65 447.266 323.677L443.489 325.152C443.439 325.177 443.385 325.191 443.329 325.193C443.274 325.196 443.218 325.187 443.166 325.166C443.114 325.146 443.067 325.115 443.028 325.075C442.988 325.035 442.957 324.988 442.936 324.935L442.064 323.048L444.553 322.082C444.611 322.053 444.675 322.037 444.739 322.037C444.804 322.037 444.868 322.053 444.926 322.082L447.649 323.677Z" fill="#62F0FE"/>
<path opacity="0.15" d="M438.298 327.69C438.201 328.031 438.009 328.337 437.745 328.568L433.968 331.54C433.794 331.68 433.652 331.858 433.553 332.061L430.84 330.456C430.945 330.257 431.086 330.08 431.255 329.935L435.032 326.963C435.296 326.736 435.489 326.434 435.585 326.095L438.298 327.69Z" fill="#62F0FE"/>
<path opacity="0.1" d="M441.085 321.041C440.745 320.813 440.16 321.258 439.936 322.007L438.298 327.69L435.585 326.095L437.277 320.445C437.5 319.707 438.064 319.262 438.404 319.458C438.479 319.458 440.766 320.868 441.117 321.052L441.085 321.041Z" fill="#010F14"/>
<path opacity="0.25" d="M436.234 335.488L433.553 333.915L430.787 331.887C430.479 331.649 430.511 330.998 430.787 330.466L433.5 332.072C433.234 332.592 433.191 333.254 433.5 333.482L436.234 335.488Z" fill="#010F14"/>
<path opacity="0.15" d="M435.809 341.746C435.755 342.158 435.872 342.429 436.064 342.538L433.351 340.933C433.17 340.824 433.064 340.564 433.106 340.163L433.755 334.653C433.783 334.526 433.781 334.394 433.749 334.268C433.718 334.142 433.658 334.025 433.574 333.926L436.255 335.499C436.339 335.598 436.399 335.714 436.432 335.84C436.465 335.966 436.47 336.098 436.447 336.226L435.809 341.746Z" fill="#010F14"/>
<path d="M441.245 321.269L442.936 324.935C442.957 324.988 442.988 325.035 443.028 325.075C443.067 325.115 443.114 325.146 443.166 325.166C443.218 325.187 443.274 325.196 443.329 325.193C443.385 325.191 443.439 325.177 443.489 325.152L447.266 323.677C447.872 323.438 448.106 324.306 447.681 325.13L444.936 330.369C444.771 330.677 444.7 331.028 444.734 331.377L445.372 336.117C445.479 336.865 444.851 337.852 444.308 337.787L440.936 337.364C440.797 337.365 440.66 337.402 440.539 337.472C440.417 337.543 440.316 337.644 440.245 337.766L436.872 342.169C436.33 342.874 435.702 342.625 435.809 341.746L436.447 336.247C436.479 336.114 436.477 335.974 436.442 335.841C436.406 335.708 436.339 335.587 436.245 335.488L433.5 333.471C433.074 333.156 433.309 332.006 433.915 331.54L437.691 328.568C437.956 328.341 438.148 328.039 438.245 327.701L439.936 322.05C440.202 321.15 440.979 320.694 441.245 321.269Z" fill="#126378"/>
<path opacity="0.5" d="M441.245 321.269L442.936 324.935C442.957 324.988 442.988 325.035 443.028 325.075C443.067 325.115 443.114 325.146 443.166 325.166C443.218 325.187 443.274 325.196 443.329 325.193C443.385 325.191 443.439 325.177 443.489 325.152L447.266 323.677C447.872 323.438 448.106 324.306 447.681 325.13L444.936 330.369C444.771 330.677 444.7 331.028 444.734 331.377L445.372 336.117C445.479 336.865 444.851 337.852 444.308 337.787L440.936 337.364C440.797 337.365 440.66 337.402 440.539 337.472C440.417 337.543 440.316 337.644 440.245 337.766L436.872 342.169C436.33 342.874 435.702 342.625 435.809 341.746L436.447 336.247C436.479 336.114 436.477 335.974 436.442 335.841C436.406 335.708 436.339 335.587 436.245 335.488L433.5 333.471C433.074 333.156 433.309 332.006 433.915 331.54L437.691 328.568C437.956 328.341 438.148 328.039 438.245 327.701L439.936 322.05C440.202 321.15 440.979 320.694 441.245 321.269Z" fill="#62F0FE"/>
<path d="M466.66 313.97C466.989 313.341 466.936 312.701 466.66 312.527L463.957 310.922C463.897 310.894 463.832 310.88 463.766 310.88C463.7 310.88 463.635 310.894 463.574 310.922L461.085 311.898L460.266 310.119C460.23 310.029 460.167 309.953 460.085 309.902C459.745 309.718 457.447 308.351 457.372 308.308C457.032 308.113 456.457 308.557 456.234 309.295L454.543 314.946C454.45 315.283 454.261 315.585 454 315.813L450.213 318.785C449.617 319.262 449.372 320.401 449.809 320.727L452.543 322.744C452.639 322.839 452.71 322.958 452.747 323.089C452.784 323.221 452.787 323.36 452.755 323.492L452.106 328.991C452.106 329.393 452.17 329.664 452.351 329.772L455.064 331.377C455.277 331.497 455.596 331.377 455.883 331.02L459.266 326.616C459.337 326.496 459.436 326.396 459.555 326.325C459.674 326.255 459.809 326.217 459.947 326.215L463.33 326.638C463.872 326.703 464.5 325.716 464.394 324.967L463.745 320.228C463.719 319.878 463.793 319.528 463.957 319.219L466.66 313.97Z" fill="#126378"/>
<path opacity="0.15" d="M466.628 312.516C466.569 312.489 466.506 312.475 466.441 312.475C466.377 312.475 466.314 312.489 466.255 312.516L462.468 313.991C462.419 314.016 462.365 314.03 462.31 314.033C462.256 314.035 462.201 314.026 462.15 314.005C462.099 313.985 462.052 313.954 462.014 313.914C461.975 313.874 461.945 313.827 461.926 313.774L461.053 311.887L463.543 310.922C463.6 310.89 463.664 310.873 463.729 310.873C463.794 310.873 463.858 310.89 463.915 310.922L466.628 312.516Z" fill="#62F0FE"/>
<path opacity="0.15" d="M457.234 316.529C457.138 316.871 456.945 317.176 456.681 317.408L452.904 320.38C452.73 320.52 452.588 320.698 452.489 320.9L449.777 319.295C449.877 319.097 450.015 318.92 450.181 318.774L453.957 315.803C454.229 315.579 454.425 315.276 454.521 314.935L457.234 316.529Z" fill="#62F0FE"/>
<path opacity="0.1" d="M460.074 309.913C459.734 309.685 459.149 310.13 458.926 310.879L457.234 316.529L454.521 314.935L456.213 309.284C456.426 308.547 457 308.102 457.34 308.297C457.415 308.297 459.702 309.707 460.053 309.892L460.074 309.913Z" fill="#010F14"/>
<path opacity="0.25" d="M455.223 324.295L452.543 322.722L449.809 320.705C449.489 320.466 449.532 319.816 449.809 319.284L452.521 320.889C452.245 321.41 452.213 322.072 452.521 322.299L455.223 324.295Z" fill="#010F14"/>
<path opacity="0.15" d="M454.787 330.586C454.787 330.998 454.862 331.269 455.053 331.377L452.319 329.718C452.138 329.61 452.032 329.349 452.074 328.948L452.723 323.438C452.748 323.311 452.745 323.18 452.714 323.054C452.683 322.928 452.624 322.811 452.543 322.711L455.223 324.284C455.307 324.383 455.367 324.499 455.398 324.626C455.43 324.752 455.432 324.884 455.404 325.011L454.787 330.586Z" fill="#010F14"/>
<path d="M460.234 310.108L461.926 313.774C461.946 313.827 461.977 313.875 462.017 313.915C462.057 313.954 462.104 313.985 462.156 314.006C462.208 314.026 462.263 314.035 462.319 314.033C462.374 314.03 462.429 314.016 462.479 313.991L466.255 312.516C466.862 312.278 467.096 313.145 466.66 313.97L463.926 319.208C463.761 319.517 463.688 319.867 463.713 320.217L464.362 324.957C464.468 325.705 463.84 326.692 463.298 326.627L459.915 326.204C459.777 326.206 459.643 326.244 459.523 326.314C459.404 326.385 459.305 326.485 459.234 326.605L455.851 331.009C455.319 331.714 454.691 331.464 454.787 330.586L455.436 325.087C455.47 324.952 455.468 324.811 455.431 324.678C455.393 324.544 455.322 324.423 455.223 324.328L452.489 322.31C452.053 321.996 452.298 320.846 452.894 320.38L456.681 317.408C456.943 317.179 457.135 316.878 457.234 316.54L458.926 310.879C459.192 309.989 459.968 309.534 460.234 310.108Z" fill="#126378"/>
<path opacity="0.5" d="M460.234 310.108L461.926 313.774C461.946 313.827 461.977 313.875 462.017 313.915C462.057 313.954 462.104 313.985 462.156 314.006C462.208 314.026 462.263 314.035 462.319 314.033C462.374 314.03 462.429 314.016 462.479 313.991L466.255 312.516C466.862 312.278 467.096 313.145 466.66 313.97L463.926 319.208C463.761 319.517 463.688 319.867 463.713 320.217L464.362 324.957C464.468 325.705 463.84 326.692 463.298 326.627L459.915 326.204C459.777 326.206 459.643 326.244 459.523 326.314C459.404 326.385 459.305 326.485 459.234 326.605L455.851 331.009C455.319 331.714 454.691 331.464 454.787 330.586L455.436 325.087C455.47 324.952 455.468 324.811 455.431 324.678C455.393 324.544 455.322 324.423 455.223 324.328L452.489 322.31C452.053 321.996 452.298 320.846 452.894 320.38L456.681 317.408C456.943 317.179 457.135 316.878 457.234 316.54L458.926 310.879C459.192 309.989 459.968 309.534 460.234 310.108Z" fill="#62F0FE"/>
<path d="M485.649 302.809C485.979 302.18 485.926 301.54 485.649 301.356L482.936 299.761C482.878 299.734 482.814 299.72 482.75 299.72C482.686 299.72 482.622 299.734 482.564 299.761L480.074 300.737L479.255 298.959C479.212 298.873 479.15 298.799 479.074 298.742C478.723 298.557 476.426 297.191 476.362 297.147C476.011 296.952 475.447 297.386 475.223 298.134L473.532 303.785C473.44 304.126 473.246 304.429 472.979 304.653L469.149 307.614C468.543 308.091 468.308 309.23 468.745 309.555L471.479 311.573C471.575 311.667 471.646 311.787 471.683 311.918C471.721 312.049 471.723 312.188 471.691 312.321L471.064 317.787C471.064 318.189 471.128 318.46 471.308 318.568L474.021 320.174C474.234 320.293 474.553 320.173 474.84 319.816L478.223 315.412C478.294 315.292 478.394 315.192 478.513 315.121C478.632 315.051 478.767 315.013 478.904 315.011L482.287 315.434C482.819 315.499 483.447 314.512 483.351 313.764L482.702 309.024C482.672 308.673 482.746 308.322 482.915 308.015L485.649 302.809Z" fill="#126378"/>
<path opacity="0.15" d="M485.617 301.356C485.559 301.326 485.495 301.311 485.431 301.311C485.366 301.311 485.302 301.326 485.245 301.356L481.457 302.831C481.408 302.856 481.355 302.87 481.3 302.872C481.245 302.874 481.19 302.865 481.139 302.845C481.088 302.824 481.042 302.793 481.003 302.753C480.964 302.714 480.934 302.666 480.915 302.614L480.043 300.727L482.532 299.751C482.589 299.72 482.653 299.704 482.718 299.704C482.783 299.704 482.847 299.72 482.904 299.751L485.617 301.356Z" fill="#62F0FE"/>
<path opacity="0.15" d="M476.223 305.369C476.123 305.711 475.928 306.017 475.66 306.247L471.883 309.219C471.712 309.36 471.574 309.538 471.479 309.74L468.766 308.134C468.863 307.934 469.001 307.757 469.17 307.614L472.947 304.642C473.215 304.418 473.408 304.115 473.5 303.774L476.223 305.369Z" fill="#62F0FE"/>
<path opacity="0.1" d="M479.064 298.742C478.723 298.525 478.138 298.97 477.915 299.718L476.223 305.369L473.5 303.774L475.191 298.124C475.415 297.386 475.989 296.941 476.33 297.137C476.404 297.137 478.691 298.547 479.043 298.731L479.064 298.742Z" fill="#010F14"/>
<path opacity="0.25" d="M474.213 313.167L471.521 311.594L468.787 309.577C468.468 309.338 468.511 308.688 468.787 308.156L471.5 309.761C471.223 310.282 471.181 310.944 471.5 311.171L474.213 313.167Z" fill="#010F14"/>
<path opacity="0.15" d="M473.777 319.425C473.777 319.837 473.84 320.108 474.043 320.206L471.277 318.601C471.096 318.492 470.989 318.232 471.032 317.82L471.681 312.321C471.707 312.193 471.703 312.061 471.67 311.934C471.637 311.808 471.575 311.692 471.489 311.594L474.181 313.167C474.265 313.265 474.326 313.382 474.357 313.508C474.388 313.635 474.39 313.767 474.362 313.894L473.777 319.425Z" fill="#010F14"/>
<path d="M479.223 298.948L480.915 302.614C480.936 302.667 480.967 302.714 481.006 302.754C481.046 302.794 481.093 302.825 481.145 302.845C481.197 302.866 481.253 302.875 481.308 302.872C481.364 302.87 481.418 302.856 481.468 302.831L485.245 301.356C485.84 301.117 486.085 301.985 485.649 302.809L482.915 308.026C482.746 308.333 482.672 308.684 482.702 309.035L483.351 313.774C483.447 314.523 482.819 315.51 482.287 315.445L478.904 315.022C478.767 315.024 478.632 315.062 478.513 315.132C478.394 315.202 478.294 315.303 478.223 315.423L474.84 319.826C474.309 320.531 473.681 320.271 473.777 319.403L474.426 313.905C474.456 313.77 474.453 313.63 474.416 313.497C474.378 313.364 474.309 313.243 474.213 313.145L471.479 311.128C471.043 310.813 471.287 309.664 471.883 309.197L475.67 306.226C475.927 305.994 476.115 305.693 476.213 305.358L477.904 299.696C478.181 298.829 478.957 298.362 479.223 298.948Z" fill="#126378"/>
<path opacity="0.5" d="M479.223 298.948L480.915 302.614C480.936 302.667 480.967 302.714 481.006 302.754C481.046 302.794 481.093 302.825 481.145 302.845C481.197 302.866 481.253 302.875 481.308 302.872C481.364 302.87 481.418 302.856 481.468 302.831L485.245 301.356C485.84 301.117 486.085 301.985 485.649 302.809L482.915 308.026C482.746 308.333 482.672 308.684 482.702 309.035L483.351 313.774C483.447 314.523 482.819 315.51 482.287 315.445L478.904 315.022C478.767 315.024 478.632 315.062 478.513 315.132C478.394 315.202 478.294 315.303 478.223 315.423L474.84 319.826C474.309 320.531 473.681 320.271 473.777 319.403L474.426 313.905C474.456 313.77 474.453 313.63 474.416 313.497C474.378 313.364 474.309 313.243 474.213 313.145L471.479 311.128C471.043 310.813 471.287 309.664 471.883 309.197L475.67 306.226C475.927 305.994 476.115 305.693 476.213 305.358L477.904 299.696C478.181 298.829 478.957 298.362 479.223 298.948Z" fill="#62F0FE"/>
<path d="M492.894 34.7072L484.383 38.4273L482.564 47.6789C482.512 47.9331 482.391 48.1675 482.216 48.3559C482.041 48.5443 481.818 48.6793 481.571 48.7457C481.325 48.8121 481.066 48.8073 480.822 48.732C480.578 48.6566 480.36 48.5135 480.191 48.3189L474.096 41.2147L464.894 42.2993C464.63 42.34 464.361 42.301 464.119 42.187C463.877 42.0731 463.673 41.8892 463.532 41.6582C463.392 41.4273 463.321 41.1594 463.329 40.8878C463.336 40.6161 463.422 40.3527 463.574 40.1301L468.308 32.0282L464.457 23.449C464.364 23.2187 464.333 22.9668 464.367 22.7199C464.402 22.4731 464.501 22.2403 464.655 22.0461C464.808 21.8519 465.01 21.7034 465.24 21.6163C465.469 21.5292 465.717 21.5066 465.957 21.551L474.979 23.6442L481.787 17.256C481.974 17.0777 482.207 16.9568 482.458 16.9071C482.709 16.8574 482.969 16.8808 483.208 16.9748C483.446 17.0688 483.654 17.2294 483.808 17.4384C483.961 17.6473 484.053 17.8961 484.074 18.1562L484.915 27.5488L492.979 32.1692C493.216 32.2863 493.415 32.4713 493.552 32.7016C493.688 32.9319 493.756 33.1976 493.747 33.4664C493.738 33.7353 493.652 33.9957 493.501 34.2159C493.349 34.4362 493.138 34.6068 492.894 34.7072Z" fill="#E0E0E0"/>
<path d="M445.989 18.6334C445.914 18.7335 445.825 18.8213 445.723 18.8937C445.543 19.0261 445.33 19.1045 445.108 19.1198C444.886 19.1351 444.664 19.0869 444.468 18.9805L439.734 16.4425L434.989 18.9805C434.793 19.0869 434.571 19.1351 434.35 19.1198C434.128 19.1045 433.914 19.0261 433.734 18.8937C433.551 18.762 433.41 18.5793 433.327 18.3677C433.244 18.156 433.223 17.9244 433.266 17.7006L434.17 12.2777L430.33 8.47071C430.17 8.31264 430.057 8.11163 430.004 7.89092C429.951 7.67021 429.961 7.4388 430.032 7.22342C430.098 7.00762 430.224 6.81555 430.393 6.6696C430.563 6.52365 430.77 6.42985 430.989 6.39913L436.309 5.61822L438.681 0.715831C438.779 0.513368 438.93 0.342971 439.118 0.224074C439.306 0.105177 439.523 0.0425669 439.745 0.0433809C439.965 0.0450505 440.182 0.108685 440.369 0.227306C440.557 0.345926 440.709 0.514948 440.808 0.715831L443.181 5.61822L448.5 6.39913C448.72 6.4319 448.926 6.5267 449.096 6.67283C449.266 6.81895 449.392 7.01057 449.461 7.22605C449.53 7.44153 449.538 7.67227 449.484 7.89221C449.431 8.11215 449.319 8.31253 449.16 8.47071L445.319 12.2777L446.234 17.7006C446.275 18.0322 446.187 18.367 445.989 18.6334ZM430.851 7.36442L430.787 7.50542C430.761 7.58641 430.758 7.67345 430.779 7.75615C430.799 7.83885 430.843 7.91371 430.904 7.97179L435.011 12.0607L434.043 17.8308C434.029 17.9157 434.04 18.0027 434.072 18.0821C434.104 18.1615 434.157 18.2303 434.226 18.2808C434.294 18.3313 434.375 18.3616 434.459 18.3683C434.543 18.375 434.627 18.3579 434.702 18.3189L439.787 15.5965L444.862 18.3189C444.934 18.3617 445.017 18.3843 445.101 18.3843C445.185 18.3843 445.268 18.3617 445.34 18.3189C445.411 18.2695 445.466 18.1999 445.498 18.1189C445.53 18.0379 445.538 17.949 445.521 17.8633L444.553 12.0933L448.66 8.00434C448.719 7.9448 448.761 7.86991 448.782 7.78773C448.802 7.70555 448.801 7.6192 448.777 7.53796C448.753 7.45548 448.706 7.38186 448.641 7.32603C448.577 7.2702 448.499 7.23456 448.415 7.22342L442.723 6.37744L440.128 1.08459C440.092 1.00579 440.035 0.939178 439.964 0.892937C439.892 0.846696 439.808 0.822838 439.723 0.824291C439.646 0.832921 439.573 0.86133 439.51 0.906857C439.446 0.952385 439.395 1.01354 439.362 1.08459L436.83 6.33405L431.138 7.18004C431.024 7.20367 430.922 7.26926 430.851 7.36442Z" fill="#E0E0E0"/>
<path d="M386.745 91.1063C378.734 86.3774 367.723 87.0174 355.553 94.1757C331.085 108.601 311.202 143.926 311.202 173.091C311.202 187.766 316.245 198.037 324.362 202.842C326.245 203.926 333.606 208.265 333.606 208.265C333.262 211.565 332.143 214.733 330.345 217.5C328.547 220.268 326.123 222.553 323.277 224.165C322.809 224.436 323.096 224.902 323.511 225.141L334.755 231.768C334.907 231.86 335.079 231.912 335.255 231.92C346.33 231.92 359.149 224.328 362.723 208.557C364.064 207.907 365.415 207.202 366.787 206.388C391.255 191.974 411.138 156.638 411.138 127.484C411.138 112.798 406.106 102.538 397.989 97.7007L386.745 91.1063Z" fill="#37474F"/>
<path d="M366.787 100.792C342.319 115.206 322.436 150.542 322.436 179.696C322.436 199.49 331.574 211.334 345.106 212.419C344.596 218.709 342.798 225.781 334.468 230.781C333.809 231.182 334.67 231.931 335.223 231.931C346.298 231.931 359.117 224.338 362.691 208.568C364.032 207.918 365.383 207.213 366.755 206.399C391.223 191.985 411.106 156.649 411.106 127.495C411.106 98.3406 391.277 86.3774 366.787 100.792Z" fill="#455A64"/>
<path d="M334.5 230.781C334.096 231.041 334.277 231.421 334.617 231.681L323.511 225.174C323.096 224.913 322.809 224.469 323.277 224.187C326.129 222.572 328.557 220.279 330.356 217.504C332.154 214.728 333.269 211.551 333.606 208.243L334.83 208.98L335.957 209.653C338.775 211.233 341.898 212.165 345.106 212.386C344.606 218.709 342.798 225.781 334.5 230.781Z" fill="#263238"/>
<path d="M362.106 184.262C360.926 183.406 360.33 181.866 360.33 179.642C360.355 177.326 360.956 175.053 362.074 173.037C363.091 171.021 364.638 169.335 366.543 168.167C368.351 167.104 369.837 166.978 371 167.787C372.16 168.59 372.745 170.108 372.745 172.332C372.71 174.689 372.1 177 370.968 179.056C369.977 181.092 368.443 182.803 366.543 183.991C364.777 185.022 363.298 185.119 362.106 184.262ZM360.521 125.304L372.553 118.221L370.543 159.566L362.532 164.284L360.521 125.304Z" fill="#FAFAFA"/>
<path opacity="0.2" d="M372.702 202.44C385.766 192.679 397.032 177.202 403.926 160.586C390.862 170.358 379.596 185.824 372.702 202.44Z" fill="#010F14"/>
<path d="M456.234 258.948C451.702 259.002 448.33 255.77 446.213 251.703C459.787 234.685 468.968 212.017 468.968 192.191C468.968 177.495 463.915 167.169 455.777 162.397L444.553 155.803C436.543 151.085 425.543 151.735 413.383 158.883C388.915 173.308 369.032 208.633 369.032 237.798C369.032 252.473 374.064 262.744 382.181 267.571C384.074 268.655 391.532 273.059 393.372 274.154C401.394 278.915 412.426 278.286 424.617 271.106C427.882 269.169 430.981 266.956 433.883 264.49C442.117 271.139 452.16 263.894 456.138 260.423C456.67 259.967 456.734 258.948 456.234 258.948Z" fill="#9EF85E"/>
<path d="M404.989 276.573C390.16 276.573 380.957 264.262 380.957 244.458C380.957 215.564 400.702 180.466 424.957 166.161C431.745 162.169 438.234 160.141 444.245 160.141C459.064 160.141 468.277 172.44 468.277 192.256C468.277 211.204 459.617 233.839 445.681 251.312L445.394 251.681L445.606 252.093C448.106 256.898 451.734 259.588 455.84 259.685C455.811 259.777 455.76 259.859 455.691 259.924C452.862 262.397 447.245 266.529 441.426 266.529C438.834 266.541 436.319 265.636 434.309 263.97L433.872 263.623L433.436 263.98C430.561 266.405 427.494 268.581 424.266 270.488C417.489 274.49 411 276.573 404.989 276.573Z" fill="#FAFAFA"/>
<path d="M444.245 159.436V160.846C458.638 160.846 467.585 172.885 467.585 192.245C467.585 211.052 458.989 233.514 445.149 250.868L444.564 251.594L445 252.419C447.298 256.844 450.532 259.566 454.245 260.249C451.298 262.646 446.415 265.846 441.426 265.846C438.989 265.858 436.624 265.007 434.734 263.438L433.862 262.733L433 263.46C430.156 265.88 427.121 268.056 423.926 269.967C417.245 273.894 410.872 275.889 404.989 275.889C390.596 275.889 381.649 263.85 381.649 244.436C381.649 215.77 401.234 180.922 425.266 166.746C431.947 162.82 438.319 160.824 444.202 160.824V159.436M444.202 159.436C438.287 159.436 431.628 161.399 424.574 165.553C400.106 179.967 380.223 215.293 380.223 244.458C380.223 265.228 390.298 277.278 404.947 277.278C410.862 277.278 417.521 275.315 424.574 271.161C427.839 269.223 430.939 267.01 433.84 264.544C435.968 266.316 438.636 267.275 441.383 267.256C447.468 267.256 453.287 262.918 456.096 260.477C456.628 260.022 456.691 259.002 456.191 259.002H456.085C451.617 259.002 448.277 255.803 446.17 251.757C459.745 234.74 468.926 212.072 468.926 192.245C468.926 171.475 458.851 159.436 444.202 159.436Z" fill="#9EF85E"/>
<path d="M422.34 223.265C423.631 220.108 425.112 217.036 426.777 214.067C427.923 212.029 428.967 209.933 429.904 207.787C430.55 206.316 430.894 204.725 430.915 203.113C430.915 200.944 430.277 199.61 429 199.089C427.723 198.568 426.043 198.948 423.926 200.174C421.832 201.426 420 203.084 418.532 205.054C416.892 207.237 415.554 209.638 414.553 212.191L406.734 210.553C408.483 205.843 410.961 201.449 414.074 197.538C417.121 193.7 420.835 190.468 425.032 188.004C429.996 185.112 433.972 184.208 436.957 185.293C439.943 186.377 441.44 189.479 441.447 194.599C441.461 196.91 441.167 199.212 440.574 201.443C440.05 203.463 439.337 205.428 438.447 207.31C437.606 209.067 436.511 211.161 435.181 213.59C433.892 215.832 432.727 218.146 431.691 220.521C430.978 222.235 430.616 224.081 430.628 225.944L420.872 231.692C420.833 228.813 421.331 225.953 422.34 223.265ZM421.277 251.171C420.096 250.315 419.5 248.774 419.5 246.54C419.526 244.224 420.126 241.951 421.245 239.935C422.26 237.923 423.803 236.237 425.702 235.065C427.521 233.98 429 233.872 430.17 234.685C431.34 235.499 431.915 237.017 431.915 239.241C431.879 241.594 431.268 243.902 430.138 245.954C429.146 247.994 427.608 249.705 425.702 250.889C423.989 251.931 422.521 252.017 421.33 251.171H421.277Z" fill="#455A64"/>
<path d="M197.638 173.861L148.702 202.755L168.138 236.443C168.513 237.352 169.166 238.113 170 238.612C172.319 239.946 186.053 248.059 186.809 248.503C187.398 248.85 188.056 249.056 188.734 249.106C189.413 249.156 190.093 249.048 190.725 248.792C191.357 248.535 191.923 248.135 192.382 247.623C192.84 247.111 193.179 246.5 193.372 245.835L214.479 183.818L197.638 173.861Z" fill="#126378"/>
<path opacity="0.2" d="M197.638 173.861L148.702 202.755L168.138 236.443C168.513 237.352 169.166 238.113 170 238.612C172.319 239.946 186.053 248.059 186.809 248.503C187.398 248.85 188.056 249.056 188.734 249.106C189.413 249.156 190.093 249.048 190.725 248.792C191.357 248.535 191.923 248.135 192.382 247.623C192.84 247.111 193.179 246.5 193.372 245.835L214.479 183.818L197.638 173.861Z" fill="#010F14"/>
<path d="M165.543 212.668L184.979 246.356C185.35 247.211 185.97 247.93 186.756 248.414C187.541 248.899 188.453 249.126 189.369 249.064C190.285 249.003 191.16 248.656 191.876 248.07C192.592 247.485 193.114 246.69 193.372 245.792L214.479 183.774L165.543 212.668Z" fill="#126378"/>
<path d="M252.234 1.0846L67.6915 109.685C66.4543 110.503 65.424 111.607 64.6845 112.908C63.945 114.208 63.5173 115.668 63.4362 117.169V247.744C63.5145 249.24 63.9414 250.695 64.6815 251.989C65.4215 253.283 66.4533 254.378 67.6915 255.184L82.8723 263.861C84.1925 264.538 85.6498 264.891 87.1277 264.891C88.6055 264.891 90.0628 264.538 91.383 263.861L275.936 155.195C277.172 154.376 278.201 153.271 278.94 151.971C279.679 150.671 280.108 149.212 280.191 147.711V17.1367C280.112 15.6412 279.685 14.1864 278.945 12.8926C278.205 11.5988 277.174 10.5032 275.936 9.69631L260.766 1.01952C259.438 0.350556 257.974 0.00800568 256.492 0.0193061C255.011 0.0306065 253.552 0.395443 252.234 1.0846Z" fill="#126378"/>
<path opacity="0.3" d="M280.117 16.3449C279.777 14.1757 278.043 13.3948 275.926 14.6312L91.3936 123.265C90.1362 124.065 89.1057 125.187 88.4042 126.518L64.7766 112.798C65.4857 111.546 66.4869 110.492 67.6915 109.729L252.245 1.0846C253.566 0.409917 255.023 0.0586166 256.5 0.0586166C257.977 0.0586166 259.434 0.409917 260.755 1.0846L275.926 9.76139C277.042 10.4926 277.994 11.4579 278.717 12.593C279.439 13.7281 279.917 15.0071 280.117 16.3449Z" fill="#62F0FE"/>
<path d="M87.1489 261.822V131.236C87.23 129.737 87.6578 128.278 88.3974 126.98C89.1369 125.681 90.1672 124.579 91.4042 123.764L275.936 15.1844C278.266 13.8069 280.191 14.9241 280.191 17.679V148.21C280.108 149.711 279.679 151.17 278.94 152.47C278.201 153.77 277.172 154.875 275.936 155.694L91.383 264.317C89.0425 265.727 87.1489 264.577 87.1489 261.822Z" fill="#126378"/>
<path opacity="0.2" d="M91.383 263.818C90.0579 264.478 88.6025 264.821 87.1277 264.821C85.6528 264.821 84.1974 264.478 82.8723 263.818L67.7021 255.141C66.465 254.339 65.4335 253.247 64.6934 251.957C63.9533 250.667 63.5259 249.215 63.4468 247.722V117.137C63.5223 115.596 63.9878 114.101 64.7979 112.798L88.4043 126.497C87.6261 127.773 87.193 129.236 87.1489 130.738V261.312C87.1489 263.839 88.8936 265.293 91.383 263.818Z" fill="#010F14"/>
<path d="M138.926 157.267L137.085 156.182C136.381 155.771 135.583 155.555 134.771 155.555C133.96 155.555 133.162 155.771 132.457 156.182L121.213 162.798V147.137L142.032 134.892C143.007 134.305 143.814 133.469 144.374 132.467C144.934 131.464 145.226 130.329 145.223 129.176V120.39C145.226 119.237 144.934 118.102 144.374 117.1C143.814 116.097 143.007 115.261 142.032 114.675C141.047 114.094 139.93 113.788 138.793 113.788C137.655 113.788 136.538 114.094 135.553 114.675L106.681 131.67C104.972 132.675 103.552 134.122 102.566 135.864C101.58 137.606 101.062 139.583 101.064 141.594V223.145C101.059 224.301 101.351 225.438 101.911 226.442C102.471 227.447 103.279 228.285 104.255 228.872C105.241 229.451 106.358 229.755 107.495 229.755C108.632 229.755 109.749 229.451 110.734 228.872L117.936 224.642C118.912 224.055 119.721 223.217 120.281 222.212C120.841 221.208 121.133 220.071 121.128 218.915V186.92L138.851 176.486C139.553 176.07 140.136 175.473 140.541 174.756C140.946 174.038 141.16 173.225 141.16 172.397V161.377C141.174 160.553 140.975 159.738 140.583 159.017C140.191 158.295 139.619 157.692 138.926 157.267Z" fill="#E0E0E0"/>
<path opacity="0.1" d="M111.394 228.482L110.777 228.85C109.791 229.428 108.675 229.731 107.538 229.73C106.402 229.73 105.286 229.425 104.301 228.846C103.317 228.267 102.498 227.435 101.928 226.433C101.358 225.43 101.057 224.293 101.053 223.134V141.584C101.056 139.69 101.52 137.826 102.404 136.161L108.883 139.967C107.995 141.632 107.531 143.496 107.532 145.39V226.182C107.534 226.643 107.653 227.095 107.879 227.493C108.105 227.892 108.429 228.224 108.819 228.456C109.209 228.689 109.651 228.813 110.103 228.818C110.554 228.822 110.999 228.706 111.394 228.482Z" fill="#010F14"/>
<path d="M121.213 147.137V170.434L138.904 160.033C139.141 159.891 139.411 159.815 139.685 159.814C139.96 159.813 140.23 159.886 140.468 160.026C140.706 160.166 140.903 160.368 141.04 160.611C141.176 160.854 141.247 161.13 141.245 161.41V172.451C141.244 173.275 141.032 174.084 140.628 174.798C140.225 175.511 139.645 176.105 138.947 176.518L121.213 186.952V218.937C121.217 220.09 120.925 221.223 120.365 222.224C119.805 223.225 118.997 224.059 118.021 224.642L111.468 228.503C111.075 228.736 110.628 228.859 110.173 228.86C109.718 228.86 109.27 228.738 108.876 228.506C108.482 228.273 108.156 227.939 107.929 227.537C107.702 227.135 107.584 226.679 107.585 226.215V145.39C107.585 143.379 108.104 141.404 109.09 139.662C110.076 137.92 111.494 136.473 113.202 135.466L141.798 118.633C142.154 118.424 142.558 118.313 142.969 118.314C143.381 118.314 143.785 118.425 144.14 118.635C144.496 118.845 144.792 119.147 144.997 119.51C145.202 119.874 145.309 120.286 145.309 120.705V129.197C145.311 130.347 145.018 131.477 144.458 132.474C143.898 133.471 143.091 134.301 142.117 134.881L121.213 147.137Z" fill="#FAFAFA"/>
<path d="M182.979 97.8742C182.651 96.7419 182.075 95.7001 181.296 94.8272C180.516 93.9543 179.552 93.273 178.477 92.8346C177.402 92.3961 176.243 92.2119 175.088 92.2958C173.933 92.3797 172.812 92.7295 171.808 93.3189L164.649 97.538C163.727 98.0798 162.926 98.8122 162.297 99.6882C161.669 100.564 161.227 101.564 161 102.625L139.649 201.735C139.482 202.571 139.575 203.438 139.917 204.217C140.259 204.995 140.831 205.644 141.553 206.074L143.511 207.223C144.117 207.58 144.805 207.768 145.505 207.768C146.206 207.768 146.894 207.58 147.5 207.223L156.128 202.148C157.328 201.398 158.306 200.329 158.957 199.056C159.685 197.771 160.219 196.382 160.543 194.935L164.011 176.866L181.457 166.594L183.266 173.937C183.522 174.895 184.107 175.726 184.915 176.28C185.638 176.714 190.67 179.653 191.394 180.098C191.861 180.302 192.373 180.373 192.877 180.304C193.381 180.235 193.857 180.029 194.255 179.707L204.787 173.503L182.979 97.8742ZM168.798 151.92L172.532 132.321L172.755 131.236L176.713 147.256L168.798 151.92Z" fill="#E0E0E0"/>
<path opacity="0.1" d="M191.309 180.043C190.362 179.469 185.617 176.703 184.926 176.28C184.118 175.726 183.532 174.895 183.277 173.937L181.468 166.594L186.298 163.753L189.755 177.744C190.01 178.664 190.556 179.472 191.309 180.043Z" fill="#010F14"/>
<path opacity="0.1" d="M183.191 151.063L176.713 147.245L172.755 131.236C172.755 131.236 172.755 131.236 172.755 131.171C173.096 129.61 173.436 127.831 173.819 125.857C174.277 123.395 174.702 120.77 175.106 117.961C175.567 120.217 176.025 122.296 176.479 124.197C176.936 126.095 177.362 127.722 177.766 129.089L183.191 151.063Z" fill="#010F14"/>
<path opacity="0.1" d="M146.245 204.989C146.187 205.249 146.197 205.521 146.273 205.776C146.349 206.031 146.488 206.262 146.678 206.446C146.868 206.63 147.101 206.76 147.356 206.824C147.61 206.888 147.876 206.884 148.128 206.811V206.898L147.521 207.245C146.915 207.602 146.227 207.79 145.527 207.79C144.826 207.79 144.138 207.602 143.532 207.245L141.553 206.074C140.831 205.644 140.259 204.995 139.917 204.217C139.575 203.438 139.482 202.571 139.649 201.735L160.989 102.668C161.185 101.752 161.546 100.88 162.053 100.098L168.532 103.915C168.019 104.691 167.657 105.56 167.468 106.475L146.245 204.989Z" fill="#010F14"/>
<path d="M204.798 173.536L194.255 179.74C193.074 180.434 192.128 180.564 191.404 180.13C190.598 179.575 190.013 178.744 189.755 177.787L186.298 163.774L163.957 176.887L160.5 194.957C160.167 196.405 159.629 197.797 158.904 199.089C158.257 200.361 157.277 201.427 156.074 202.169L148.447 206.67C148.19 206.819 147.897 206.889 147.602 206.871C147.308 206.854 147.024 206.751 146.786 206.573C146.548 206.395 146.365 206.151 146.26 205.871C146.154 205.59 146.13 205.283 146.191 204.989L167.415 106.443C167.643 105.384 168.086 104.386 168.714 103.512C169.342 102.638 170.143 101.907 171.064 101.367L177.947 97.3102C178.436 97.0226 178.983 96.852 179.547 96.8111C180.11 96.7703 180.675 96.8603 181.199 97.0743C181.724 97.2883 182.194 97.6209 182.574 98.0469C182.954 98.4729 183.234 98.9812 183.394 99.5336L204.798 173.536ZM183.191 151.085L177.766 129.067C177.362 127.711 176.936 126.074 176.479 124.176C176.021 122.278 175.564 120.195 175.106 117.939C174.713 120.748 174.277 123.362 173.83 125.835C173.383 128.308 172.936 130.434 172.532 132.278L167.149 160.477L183.191 151.085Z" fill="#FAFAFA"/>
<path d="M255.223 135.575C257.081 132.319 258.713 128.934 260.106 125.445C261.545 121.848 262.754 118.16 263.723 114.403C264.702 110.608 265.448 106.754 265.957 102.863C266.479 98.9342 266.742 94.9737 266.745 91.0087C266.858 85.1792 266.127 79.3645 264.574 73.7527C263.467 69.5356 261.347 65.6663 258.404 62.4946C257.477 61.5895 256.441 60.8095 255.319 60.1735L248.936 56.3991C246.915 55.2048 244.642 54.524 242.308 54.4143C238.564 54.1974 234.415 55.4302 229.862 58.1128C225.096 60.9657 220.873 64.6688 217.394 69.0456C213.556 73.7947 210.325 79.0207 207.777 84.5987C202.293 96.6289 199.433 109.728 199.394 122.993C199.283 128.831 200.022 134.654 201.585 140.271C202.689 144.501 204.818 148.38 207.777 151.551C208.699 152.484 209.741 153.286 210.872 153.937C211.936 154.544 216.138 157.039 217.181 157.657C219.227 158.865 221.531 159.546 223.894 159.642C227.638 159.83 231.794 158.583 236.362 155.9C238.305 154.757 240.152 153.451 241.883 151.996L244.521 155.087C244.881 155.463 245.289 155.788 245.734 156.052C246.479 156.497 251.777 159.599 252.181 159.848C252.891 160.293 253.722 160.498 254.553 160.434C256.094 160.246 257.573 159.709 258.883 158.861L270.064 152.289L255.223 135.575ZM245.245 108.351C244.567 112.178 243.479 115.917 242 119.501C240.703 122.677 238.966 125.647 236.84 128.319C234.899 130.757 232.542 132.819 229.883 134.403C227.934 135.691 225.69 136.438 223.372 136.573C222.206 134.646 221.375 132.529 220.915 130.315C220.097 126.482 219.718 122.566 219.787 118.644C219.767 114.301 220.145 109.966 220.915 105.694C221.575 101.87 222.646 98.1308 224.106 94.5445C225.415 91.3544 227.163 88.3707 229.298 85.6833C231.252 83.2122 233.631 81.1246 236.319 79.5228C238.233 78.275 240.433 77.5573 242.702 77.4404C243.881 79.3834 244.723 81.5186 245.191 83.7527C246.026 87.5906 246.422 91.514 246.372 95.4447C246.385 99.7874 246.008 104.122 245.245 108.395V108.351Z" fill="#E0E0E0"/>
<path opacity="0.1" d="M216.915 157.538C215.564 156.746 211.851 154.544 210.872 153.98C209.741 153.33 208.699 152.527 207.777 151.594C204.818 148.423 202.689 144.544 201.585 140.315C200.022 134.697 199.283 128.875 199.394 123.037C199.393 116.358 200.128 109.7 201.585 103.189C202.883 97.2586 204.765 91.4773 207.202 85.9328L213.681 89.7505C208.564 101.442 205.904 114.096 205.872 126.898C205.761 132.732 206.5 138.551 208.064 144.165C209.166 148.399 211.295 152.281 214.255 155.456C215.064 156.247 215.956 156.945 216.915 157.538Z" fill="#010F14"/>
<path opacity="0.1" d="M248.479 80.2603C247.853 79.4606 247.071 78.802 246.183 78.3259C245.295 77.8499 244.32 77.5668 243.319 77.4946C243.138 77.4946 242.947 77.4946 242.766 77.4946C243.939 79.4353 244.778 81.5667 245.245 83.7961C246.058 87.6219 246.436 91.5306 246.372 95.4447C246.389 99.8092 246.012 104.166 245.245 108.46C244.567 112.286 243.479 116.025 242 119.61C240.703 122.786 238.966 125.755 236.84 128.427C234.899 130.866 232.542 132.927 229.883 134.512C227.934 135.799 225.69 136.547 223.372 136.681C223.604 137.062 223.864 137.424 224.149 137.766C224.773 138.572 225.559 139.232 226.455 139.701C227.351 140.171 228.334 140.439 229.34 140.488C231.838 140.475 234.277 139.722 236.362 138.319C239.021 136.734 241.378 134.673 243.319 132.234C245.44 129.559 247.177 126.59 248.479 123.416C249.959 119.829 251.047 116.086 251.723 112.256C252.491 107.962 252.868 103.605 252.851 99.2408C252.913 95.3375 252.534 91.44 251.723 87.6247C251.216 84.9467 250.106 82.4255 248.479 80.2603Z" fill="#010F14"/>
<path opacity="0.1" d="M243.723 150.412C243.117 150.976 242.511 151.497 241.883 152.039L244.521 155.13C244.881 155.506 245.289 155.831 245.734 156.095C246.457 156.529 251.447 159.447 252.117 159.859C251.705 159.601 251.326 159.291 250.989 158.937L243.723 150.412Z" fill="#010F14"/>
<path d="M270.064 152.332L258.883 158.915C257.574 159.754 256.099 160.287 254.564 160.477C253.894 160.511 253.226 160.39 252.609 160.123C251.992 159.857 251.442 159.451 251 158.937L243.723 150.412C241.474 152.523 239.005 154.378 236.362 155.944C231.794 158.626 227.638 159.873 223.894 159.685C220.268 159.55 216.825 158.023 214.255 155.412C211.298 152.235 209.17 148.353 208.064 144.121C206.509 138.521 205.771 132.718 205.872 126.898C205.912 113.633 208.772 100.533 214.255 88.5032C216.808 82.9128 220.046 77.6756 223.894 72.9176C227.376 68.5433 231.598 64.8405 236.362 61.9848C240.915 59.295 245.064 58.0622 248.808 58.2863C252.42 58.4621 255.835 60.0098 258.383 62.6247C261.331 65.7962 263.453 69.6706 264.553 73.8937C266.115 79.4855 266.853 85.2826 266.745 91.0954C266.746 95.0602 266.486 99.0207 265.968 102.95C265.448 106.858 264.695 110.73 263.713 114.544C262.739 118.298 261.528 121.982 260.085 125.575C258.696 129.066 257.064 132.451 255.202 135.705L270.064 152.332ZM219.787 118.709C219.718 122.634 220.097 126.554 220.915 130.39C221.416 133.054 222.508 135.565 224.106 137.733C224.735 138.534 225.522 139.191 226.417 139.66C227.311 140.129 228.293 140.4 229.298 140.456C231.795 140.442 234.234 139.688 236.319 138.286C238.979 136.701 241.335 134.64 243.277 132.202C245.401 129.527 247.142 126.558 248.447 123.384C249.909 119.794 250.979 116.052 251.638 112.223C252.411 107.93 252.789 103.573 252.766 99.2082C252.833 95.3048 252.454 91.4066 251.638 87.5922C251.14 84.9279 250.048 82.4158 248.447 80.2495C247.819 79.4495 247.036 78.7907 246.146 78.3147C245.256 77.8387 244.279 77.5558 243.277 77.4837C240.807 77.4631 238.386 78.1876 236.319 79.5662C233.629 81.1606 231.249 83.245 229.298 85.7158C227.167 88.4059 225.419 91.389 224.106 94.577C222.65 98.165 221.58 101.903 220.915 105.727C220.146 109.995 219.768 114.327 219.787 118.666V118.709Z" fill="#FAFAFA"/>
</svg>
