<svg width="826" height="511" viewBox="0 0 826 511" fill="none" xmlns="http://www.w3.org/2000/svg">
<path d="M344.693 96.3489C317.73 -1.46593 196.221 -32.975 126.588 40.1269C125.588 41.176 124.589 42.2443 123.589 43.3285C23.7571 151.85 70.9181 419.281 279.267 487.063C487.615 554.844 704.324 431.069 716.499 320.421C728.674 209.774 632.552 175.007 483.384 205.946C399.103 223.426 361.479 157.241 344.693 96.3489Z" fill="#E1FEC9"/>
<path d="M423.901 147.46C404.494 150.62 399.115 167.814 414.1 180.011C419.053 184.043 426.127 187.393 436.203 189.064C474.588 195.432 494.956 178.449 479.57 156.43C470.075 142.84 443.135 144.329 423.901 147.46Z" fill="#E1FEC9"/>
<path d="M99.5435 350.725C90.0134 333.526 72.0133 334.273 65.5952 352.496C63.4737 358.52 62.7104 366.308 64.5412 376.357C71.5138 414.637 94.3796 428.071 109.907 406.152C119.49 392.623 108.988 367.77 99.5435 350.725Z" fill="#E1FEC9"/>
<path d="M773.24 354.768C771.452 364.127 779.181 370.757 787.938 367.15C790.832 365.958 793.751 363.66 796.349 359.619C806.243 344.228 801.232 331.025 787.456 332.381C778.952 333.218 775.011 345.493 773.24 354.768Z" fill="#E1FEC9"/>
<path d="M724.177 256.005C733.505 257.952 740.265 250.338 736.807 241.522C735.664 238.607 733.417 235.649 729.422 232.983C714.202 222.829 700.916 227.614 702.036 241.41C702.727 249.927 714.934 254.077 724.177 256.005Z" fill="#E1FEC9"/>
<path d="M497.472 155.853C504.857 161.874 514.363 158.225 515.351 148.806C515.678 145.693 515.043 142.031 512.723 137.826C503.883 121.806 489.885 119.941 484.531 132.705C481.226 140.585 490.154 149.887 497.472 155.853Z" fill="#E1FEC9"/>
<path d="M794.93 484.883C797.929 485.384 801.058 484.545 803.147 482.335C804.509 480.896 805.434 479.117 805.433 477.413C805.433 477.389 805.433 477.364 805.433 477.34C805.393 465.117 820.412 465.93 825.233 450.985C830.054 436.04 811.001 434.781 800.118 444.008C792.294 450.643 782.903 441.374 771.529 449.113C761.654 455.829 767.154 472.366 750.956 467.196C745.784 465.543 741.153 467.136 737.244 470.07C732.744 473.446 729.814 478.18 728.594 483.32L729.884 484.231C761.833 503.812 776.229 481.76 794.93 484.883Z" fill="#00C1DB"/>
<path d="M763.274 484.23L805.628 457.043C806.195 456.679 806.358 455.924 805.995 455.357C805.631 454.79 804.875 454.627 804.309 454.99L758.758 484.23H763.274Z" fill="#029AB8"/>
<path d="M760.993 403.347C759.205 376.698 758.91 348.754 760.894 330.226C763.486 306.021 769.346 289.17 778.315 280.146C778.91 279.547 779.876 279.544 780.475 280.139C781.074 280.733 781.077 281.701 780.482 282.299C764.803 298.076 759.165 340.442 764.145 404.9L760.993 403.347Z" fill="#126378"/>
<path d="M765.002 308.842C765.002 308.842 752.235 308.821 753.148 286.376C753.148 286.376 772.681 291.949 765.002 308.842Z" fill="#029AB8"/>
<path d="M763.932 320.388C763.932 320.388 763.242 307.64 785.704 307.303C785.704 307.303 781.225 327.116 763.932 320.388Z" fill="#029AB8"/>
<path d="M773.696 288.905C773.696 288.905 768.794 277.116 789.857 269.309C789.857 269.309 792.243 289.483 773.696 288.905Z" fill="#029AB8"/>
<path d="M761.066 343.554C761.066 343.554 749.045 347.853 742.312 326.422C742.312 326.422 762.579 325.059 761.066 343.554Z" fill="#029AB8"/>
<path d="M761.757 355.482C761.757 355.482 758.873 343.044 780.937 338.828C780.937 338.828 779.952 359.117 761.757 355.482Z" fill="#029AB8"/>
<path d="M761.082 371.908C761.082 371.908 749.144 376.434 742.006 355.135C742.006 355.135 762.244 353.389 761.082 371.908Z" fill="#029AB8"/>
<path d="M176.148 494.821L171.424 496.576L168.917 497.505L161.817 500.138C161.817 500.138 51.5839 417.482 77.1184 364.891C84.9792 348.7 110.543 348.746 126.815 401.309C141.9 450.034 176.148 494.821 176.148 494.821Z" fill="#00C1DB"/>
<path d="M171.424 496.576L168.917 497.506C146.579 475.657 128.999 449.51 117.829 430.67C104.565 408.298 97.2116 391.105 97.1418 390.933C96.8788 390.319 97.1658 389.609 97.7799 389.351C98.394 389.088 99.1042 389.375 99.3637 389.986C99.4369 390.159 106.737 407.234 119.928 429.471C131.157 448.402 148.895 474.757 171.424 496.576Z" fill="#029AB8"/>
<path d="M776.988 483.842C776.934 481.937 776.71 480.012 776.293 478.103C772.329 459.961 783.111 456.539 797.326 450.809C811.537 445.079 813.228 428.06 803.164 413.917C793.097 399.771 811.184 388.403 804.525 367.116C797.865 345.829 774.735 359.988 769.675 379.613C766.04 393.723 747.547 390.67 740.7 408.969C734.751 424.854 754.687 439.526 731.662 446.808C724.308 449.131 720.242 454.775 718.113 461.382C715.662 468.987 716.144 476.88 718.942 483.841L776.988 483.842Z" fill="#029AB8"/>
<path d="M748.825 483.842L786.751 390.216C787.11 389.329 786.682 388.319 785.794 387.959C784.908 387.6 783.897 388.029 783.538 388.917L745.086 483.842H748.825Z" fill="#126378"/>
<path d="M236.255 197.783C236.255 197.783 237.107 179.781 226.157 176.323C209.108 170.938 204.361 179.781 201.731 185.624C198.359 193.112 199.796 207.799 209.969 209.217C225.155 211.335 235.317 202.814 236.255 197.783Z" fill="#063646"/>
<path d="M247.246 257.984C256.107 257.984 263.761 251.775 265.576 243.101C266.883 236.854 268.159 231.324 268.159 228.217V228.136C268.238 227.154 268.282 226.172 268.29 225.205C268.406 210.999 259.649 185.055 228.844 189.178C228.844 189.178 203.284 192.094 200.375 217.072C200.375 217.072 199.163 228.595 198.358 236.939C198.344 237.087 198.329 237.234 198.314 237.379C197.191 248.408 205.863 257.982 216.948 257.982H247.246V257.984Z" fill="#063646"/>
<path d="M283.817 287.674C283.817 287.674 289.264 330.825 295.485 352.977C295.485 352.977 304.325 348.86 315.895 343.27C328.441 337.21 346.476 326.152 346.476 326.152L351.034 337.132C351.034 337.132 304.446 381.101 289.015 383.592C273.583 386.081 264.125 330.825 264.125 330.825L283.817 287.674Z" fill="#029AB8"/>
<path d="M345.521 327.439C345.521 327.439 344.241 321.308 346.984 317.159C349.727 313.011 353.904 305.243 358.808 303.621C362.912 302.264 356.857 309.19 356.677 313.585C356.677 313.585 362.78 312.819 367.181 311.389C371.053 310.131 378.714 308.561 382.267 307.863C383.241 307.671 383.866 308.898 383.116 309.548C381.905 310.598 379.373 311.919 374.137 313.18C374.137 313.18 386.899 310.765 388.223 312.719C389.546 314.673 373.536 317.401 373.536 317.401C373.536 317.401 385.958 316.666 386.282 318.615C386.478 319.801 373.609 322.519 373.609 322.519C373.609 322.519 385.354 322.834 382.513 324.688C381.686 325.228 358.95 327.786 351.034 337.132C351.034 337.132 345.709 331.629 345.521 327.439Z" fill="#FFA681"/>
<path d="M205.259 279.175C205.259 279.175 179.196 286.862 156.75 291.925C156.75 291.925 156.167 282.191 155.58 269.355C154.942 255.437 156.089 234.312 156.089 234.312L144.263 235.526C144.263 235.526 127.749 297.423 132.9 312.18C138.051 326.939 203.464 306.265 203.464 306.265L205.259 279.175Z" fill="#029AB8"/>
<path d="M155.411 235.766C155.411 235.766 161.413 233.975 163.757 229.588C166.102 225.201 172.578 216.367 168.581 213.097C167.121 211.902 166.07 217.112 162.29 219.362C162.29 219.362 160.061 213.63 159.224 209.077C158.488 205.072 156.225 197.588 155.15 194.13C154.856 193.184 153.478 193.217 153.264 194.185C152.917 195.751 152.96 198.607 154.341 203.812C154.341 203.812 150.396 191.437 148.047 191.203C145.698 190.968 150.914 206.349 150.914 206.349C150.914 206.349 145.652 195.072 143.784 195.716C142.647 196.107 146.378 208.719 146.378 208.719C146.378 208.719 140.515 198.538 140.235 201.919C140.153 202.903 148.718 224.119 144.263 235.528C144.263 235.528 151.637 237.593 155.411 235.766Z" fill="#FFA681"/>
<path d="M282.842 454.862L283.05 455.785C262.755 469.526 186.839 460.143 186.839 460.143C186.97 458.551 187.138 456.885 187.36 455.163C187.597 453.242 187.892 451.253 188.229 449.198C189.146 443.671 190.376 437.697 191.757 431.547C192.202 429.611 192.645 427.647 193.113 425.674C194.483 419.805 195.941 413.854 197.322 408.057C197.799 406.064 198.268 404.099 198.721 402.145C199.354 399.432 199.952 396.763 200.526 394.177C201.274 390.735 201.941 387.429 202.5 384.316C202.876 382.221 203.205 380.213 203.455 378.307C203.745 376.289 203.942 374.382 204.063 372.616C202.857 368.157 201.732 363.789 200.685 359.552C200.164 357.395 199.652 355.286 199.15 353.2C197.59 346.525 196.22 340.173 195.023 334.222C194.598 332.061 194.178 329.956 193.797 327.904C192.469 320.887 191.398 314.536 190.535 308.995C190.201 306.784 189.887 304.723 189.613 302.778C189.308 300.649 189.048 298.68 188.821 296.895C187.803 289.037 187.451 284.582 187.451 284.582C187.629 284.438 187.817 284.308 188.01 284.167C190.312 282.531 193.913 280.992 197.914 279.625C202.137 278.177 206.809 276.917 210.926 275.923C211.549 275.774 212.162 275.629 212.761 275.488C218.171 274.224 222.216 273.49 222.216 273.49C240.624 277.347 245.876 274.865 245.876 274.865L255.235 277.626L256.335 278.012L263.155 280.405L263.43 280.507L275.661 284.812L283.817 287.674L280.651 302.273L279.271 308.649L275.101 327.868L273.731 334.22L269.58 353.372L268.214 359.66L264.777 375.529L265.462 378.561L266.805 384.444L268.933 393.798L270.869 402.258L272.202 408.122L276.208 425.763L277.545 431.594L281.517 449.032L282.842 454.862Z" fill="#00C1DB"/>
<path d="M256.334 278.012C254.375 289.518 248.796 301.094 237.198 302.343C223.187 303.859 215.923 286.284 212.762 275.487C218.172 274.223 223.779 272.987 223.779 272.987C242.187 276.843 245.739 274.494 245.739 274.494L255.234 277.626L256.334 278.012Z" fill="#FFA681"/>
<path d="M235.774 292.677C221.09 292.677 217.579 274.542 217.545 274.355C217.473 273.962 217.733 273.584 218.125 273.512C218.519 273.441 218.896 273.699 218.969 274.092C219.103 274.82 222.434 291.934 236.628 291.208C249.05 290.58 249.781 276.794 249.806 276.206C249.823 275.807 250.156 275.494 250.56 275.514C250.959 275.531 251.269 275.868 251.252 276.266C251.246 276.423 250.449 291.958 236.701 292.653C236.387 292.67 236.078 292.677 235.774 292.677Z" fill="#FAFEFE"/>
<path d="M209.432 287.677C209.432 289.657 207.828 291.262 205.848 291.262C203.868 291.262 202.263 289.657 202.263 287.677C202.263 285.698 203.868 284.093 205.848 284.093C207.828 284.093 209.432 285.698 209.432 287.677Z" fill="#029AB8"/>
<path d="M202.253 305.166C202.253 307.145 200.648 308.75 198.669 308.75C196.689 308.75 195.084 307.145 195.084 305.166C195.084 303.186 196.689 301.581 198.669 301.581C200.647 301.582 202.253 303.187 202.253 305.166Z" fill="#029AB8"/>
<path d="M225.138 313.434C225.138 315.414 223.534 317.019 221.554 317.019C219.574 317.019 217.969 315.414 217.969 313.434C217.969 311.454 219.574 309.85 221.554 309.85C223.535 309.85 225.138 311.456 225.138 313.434Z" fill="#029AB8"/>
<path d="M209.176 323.212C209.91 325.05 209.016 327.136 207.176 327.871C205.338 328.605 203.252 327.709 202.518 325.871C201.784 324.033 202.679 321.947 204.518 321.213C206.356 320.479 208.442 321.374 209.176 323.212Z" fill="#029AB8"/>
<path d="M240.248 329.832C240.248 331.811 238.643 333.416 236.663 333.416C234.683 333.416 233.079 331.811 233.079 329.832C233.079 327.852 234.683 326.247 236.663 326.247C238.643 326.247 240.248 327.852 240.248 329.832Z" fill="#029AB8"/>
<path d="M263.109 337.218C263.109 339.198 261.504 340.803 259.525 340.803C257.545 340.803 255.94 339.198 255.94 337.218C255.94 335.239 257.545 333.634 259.525 333.634C261.504 333.634 263.109 335.239 263.109 337.218Z" fill="#029AB8"/>
<path d="M267.709 291.261C267.709 293.241 266.104 294.846 264.124 294.846C262.144 294.846 260.54 293.241 260.54 291.261C260.54 289.281 262.144 287.676 264.124 287.676C266.104 287.677 267.709 289.281 267.709 291.261Z" fill="#029AB8"/>
<path d="M241.698 352.721C241.698 354.701 240.093 356.305 238.113 356.305C236.133 356.305 234.528 354.701 234.528 352.721C234.528 350.741 236.133 349.136 238.113 349.136C240.093 349.137 241.698 350.742 241.698 352.721Z" fill="#029AB8"/>
<path d="M219.616 363.835C219.616 365.815 218.011 367.42 216.031 367.42C214.051 367.42 212.446 365.815 212.446 363.835C212.446 361.855 214.051 360.25 216.031 360.25C218.011 360.252 219.616 361.857 219.616 363.835Z" fill="#029AB8"/>
<path d="M217.044 343.595C217.044 345.575 215.439 347.179 213.459 347.179C211.479 347.179 209.875 345.575 209.875 343.595C209.875 341.615 211.479 340.01 213.459 340.01C215.439 340.01 217.044 341.615 217.044 343.595Z" fill="#029AB8"/>
<path d="M252.356 314.372C252.356 316.352 250.751 317.957 248.772 317.957C246.792 317.957 245.187 316.352 245.187 314.372C245.187 312.392 246.792 310.788 248.772 310.788C250.751 310.788 252.356 312.392 252.356 314.372Z" fill="#029AB8"/>
<path d="M272.174 309.85C272.174 311.83 270.569 313.434 268.589 313.434C266.609 313.434 265.004 311.83 265.004 309.85C265.004 307.87 266.609 306.265 268.589 306.265C270.569 306.265 272.174 307.871 272.174 309.85Z" fill="#029AB8"/>
<path d="M259.524 358.652C259.524 360.632 257.919 362.237 255.94 362.237C253.96 362.237 252.355 360.632 252.355 358.652C252.355 356.672 253.96 355.067 255.94 355.067C257.919 355.067 259.524 356.672 259.524 358.652Z" fill="#029AB8"/>
<path d="M260.486 387.011C260.486 388.991 258.881 390.596 256.901 390.596C254.921 390.596 253.316 388.991 253.316 387.011C253.316 385.032 254.921 383.427 256.901 383.427C258.882 383.427 260.486 385.032 260.486 387.011Z" fill="#029AB8"/>
<path d="M242.242 375.179C242.976 377.017 242.082 379.103 240.242 379.837C238.404 380.571 236.318 379.676 235.584 377.838C234.85 375.999 235.745 373.913 237.583 373.179C239.423 372.445 241.508 373.341 242.242 375.179Z" fill="#029AB8"/>
<path d="M217.84 385.682C218.574 387.52 217.679 389.606 215.841 390.34C214.003 391.074 211.917 390.179 211.183 388.341C210.449 386.503 211.344 384.417 213.182 383.683C215.02 382.949 217.106 383.843 217.84 385.682Z" fill="#029AB8"/>
<path d="M290.436 500.067L289.694 495.6L286.801 478.277L285.81 472.342L283.048 455.785L278.029 456.011L211.477 459.029L186.84 460.141L185.256 473.019L184.515 479.018L182.327 496.808L181.925 500.067H290.436Z" fill="#00C1DB"/>
<path d="M290.433 500.067L289.754 496.03L289.698 495.607L289.218 492.755L288.738 489.931L286.79 478.27L286.226 474.826L285.802 472.341L285.746 471.974L283.232 456.867L283.062 455.793L282.836 454.862L282.638 454.042L281.509 449.044L279.279 439.275L278.629 436.479L277.527 431.594L276.2 425.749L275.296 421.739L274.646 418.943L272.19 408.128L271.286 404.175L270.862 402.255L270.664 401.379L268.942 393.784C241.892 401.775 213.232 397.031 200.526 394.179C199.961 396.749 199.34 399.431 198.718 402.143C198.576 402.736 198.436 403.328 198.294 403.921C198.068 404.853 197.842 405.785 197.616 406.716C197.532 407.168 197.418 407.592 197.306 408.044C196.262 412.477 195.16 416.995 194.087 421.485C193.861 422.417 193.663 423.349 193.437 424.252C193.323 424.732 193.211 425.184 193.099 425.664C192.647 427.64 192.195 429.618 191.743 431.538C191.179 434.107 190.641 436.62 190.133 439.105C189.935 440.037 189.737 440.941 189.569 441.845C189.061 444.358 188.609 446.814 188.213 449.186C187.874 451.248 187.592 453.224 187.366 455.172C187.281 455.764 187.224 456.358 187.14 456.922C187.055 457.882 186.942 458.814 186.858 459.746C186.858 459.887 186.829 460 186.829 460.141L185.248 473.017L184.994 475.021L184.655 477.817L184.514 479.002L182.764 493.092L182.424 495.916L182.312 496.819L181.921 500.064H290.433V500.067Z" fill="#063646"/>
<path d="M257.699 229.856C257.699 229.856 262.099 224.281 265.371 228.891C268.643 233.5 264.017 247.115 256.007 243.792L257.699 229.856Z" fill="#F97853"/>
<path d="M257.755 239.584C258.05 239.584 258.323 239.399 258.406 239.114C259.647 234.912 264.23 233.207 264.277 233.191C264.625 233.064 264.801 232.692 264.669 232.361C264.537 232.029 264.146 231.862 263.797 231.988C263.583 232.065 258.532 233.927 257.103 238.767C257.001 239.109 257.211 239.463 257.572 239.56C257.633 239.577 257.695 239.584 257.755 239.584Z" fill="#EA5143"/>
<path d="M262.381 237.467C262.507 237.467 262.634 237.434 262.747 237.364C263.061 237.171 263.152 236.774 262.95 236.475C262.917 236.425 262.106 235.25 260.41 234.528C260.07 234.383 259.668 234.528 259.516 234.853C259.363 235.177 259.516 235.558 259.858 235.703C261.169 236.261 261.807 237.162 261.813 237.171C261.941 237.363 262.159 237.467 262.381 237.467Z" fill="#EA5143"/>
<path d="M255.718 243.704C254.96 244.547 254.495 245.657 254.495 246.875C254.495 249.504 256.635 251.644 259.264 251.644C261.894 251.644 264.034 249.504 264.034 246.875C264.034 245.359 263.324 244.01 262.219 243.138C261.664 242.699 261.012 242.382 260.299 242.223C260.179 241.9 260.238 241.599 260.47 241.32C261.382 241.519 262.212 241.936 262.904 242.515C264.156 243.555 264.952 245.126 264.952 246.877C264.952 250.015 262.402 252.565 259.264 252.565C256.129 252.565 253.577 250.015 253.577 246.877C253.577 245.525 254.057 244.289 254.848 243.315C255.138 243.443 255.427 243.574 255.718 243.704Z" fill="#FAFEFE"/>
<path d="M223.78 258.336V275.038C223.78 275.038 231.543 281.028 237.599 281.548C243.65 282.076 245.741 274.936 245.741 274.936V259.392L223.78 258.336Z" fill="#FFA681"/>
<path d="M223.78 259.973V266.635C227.843 271.144 235.058 272.743 245.738 271.166L245.741 261.028L223.78 259.973Z" fill="#F97853"/>
<path d="M260.343 236.205C260.15 237.817 259.921 239.459 259.632 241.093C257.713 251.954 250.843 263.685 242.168 265.654C223.436 269.906 215.658 255.193 212.663 244.339C212.332 243.134 212.952 241.753 212.691 240.325C212.071 236.943 210.704 233.101 210.394 229.311C210.18 226.685 210.028 224.095 209.917 221.754C209.613 215.154 213.436 209.088 219.412 206.72C228.022 203.295 241.098 200.583 253.484 207.847C258.059 210.53 260.929 215.496 261.033 220.934C261.108 225.087 261.005 230.518 260.343 236.205Z" fill="#FFA681"/>
<path d="M236.588 244.609C236.238 244.609 235.931 244.358 235.871 244.002C235.805 243.606 236.071 243.231 236.468 243.165L238.967 242.744L235.524 233.576C235.382 233.2 235.573 232.781 235.949 232.639C236.325 232.5 236.745 232.688 236.886 233.064L240.949 243.886L236.709 244.598C236.668 244.606 236.628 244.609 236.588 244.609Z" fill="#F97853"/>
<path d="M245.551 232.478C245.551 234.08 246.377 235.38 247.397 235.38C248.415 235.38 249.242 234.08 249.242 232.478C249.242 230.876 248.417 229.576 247.397 229.576C246.377 229.576 245.551 230.876 245.551 232.478Z" fill="#063646"/>
<path d="M225.156 232.478C225.156 234.08 225.981 235.38 227.001 235.38C228.021 235.38 228.847 234.08 228.847 232.478C228.847 230.876 228.021 229.576 227.001 229.576C225.981 229.576 225.156 230.876 225.156 232.478Z" fill="#063646"/>
<path d="M252.82 224.866C251.337 224.577 248.337 224.099 245.142 224.213C244.302 224.242 243.627 224.876 243.744 225.545L243.746 225.563C243.839 226.096 244.412 226.457 245.083 226.405C247.261 226.242 252.957 226.277 255.609 227.066C255.682 226.682 255.426 226.275 255.052 225.918C254.484 225.376 253.688 225.035 252.82 224.866Z" fill="#063646"/>
<path d="M223.157 225.216C224.636 224.907 227.63 224.388 230.826 224.456C231.667 224.475 232.349 225.099 232.243 225.769L232.24 225.786C232.155 226.323 231.588 226.689 230.915 226.647C228.735 226.513 223.041 226.627 220.4 227.452C220.321 227.069 220.573 226.658 220.943 226.296C221.5 225.749 222.292 225.397 223.157 225.216Z" fill="#063646"/>
<path d="M245.551 248.94C245.012 251.492 243.219 256.184 237.181 256.184C231.128 256.184 229.43 251.896 228.847 248.94H245.551Z" fill="#FAFEFE"/>
<path d="M237.267 260.569C239.01 260.569 240.547 259.631 240.613 259.59C240.948 259.383 241.052 258.944 240.845 258.609C240.639 258.274 240.2 258.17 239.864 258.375C239.852 258.383 238.597 259.142 237.268 259.142C235.829 259.142 234.541 258.38 234.528 258.373C234.19 258.17 233.753 258.279 233.55 258.616C233.347 258.953 233.455 259.39 233.791 259.594C233.856 259.634 235.42 260.569 237.267 260.569Z" fill="#F97853"/>
<path d="M261.1 234.5C260.925 234.647 260.757 234.596 260.599 234.31C258.125 229.948 260.45 221.246 253.128 217.91C247.552 215.366 245.55 210.147 245.55 210.147C244.275 212.329 240.953 214.331 240.953 214.331C240.953 214.331 232.531 219.322 223.778 222.694C221.177 223.696 219.324 224.714 218.027 225.587C218.129 225.615 218.182 225.631 218.182 225.631C218.182 225.631 215.759 229.567 217.531 235.688C219.305 241.804 217.023 251.897 213.087 254.226C213.156 254.055 216.11 247.075 214.441 241.381C213.48 238.117 213.489 232.924 212.578 229.81C211.569 229.116 209.236 227.944 208.446 227.474C208.221 224.797 208.059 222.158 207.945 219.772C207.625 213.044 211.653 206.862 217.954 204.445C227.03 200.955 240.814 198.192 253.87 205.596C258.692 208.331 261.718 213.393 261.829 218.936C261.91 223.166 261.799 228.701 261.1 234.5Z" fill="#063646"/>
<path d="M212.578 229.811C212.578 229.811 207.462 223.603 204.443 228.079C201.424 232.555 205.882 246.278 213.273 243.051L212.578 229.811Z" fill="#FFA681"/>
<path d="M212.785 243.273C213.314 244.274 213.497 245.464 213.201 246.645C212.564 249.196 209.969 250.752 207.417 250.115C204.866 249.476 203.31 246.882 203.947 244.33C204.315 242.86 205.331 241.723 206.616 241.145C207.26 240.854 207.969 240.704 208.7 240.723C208.827 240.45 208.891 240.155 208.752 239.805C207.819 239.777 206.913 239.98 206.102 240.373C204.635 241.079 203.481 242.409 203.057 244.108C202.296 247.152 204.15 250.245 207.195 251.006C210.236 251.767 213.332 249.913 214.093 246.868C214.421 245.557 214.255 244.241 213.724 243.103C213.41 243.16 213.098 243.218 212.785 243.273Z" fill="#FAFEFE"/>
<path d="M211.47 238.463C211.196 238.463 210.946 238.282 210.869 238.006C209.723 233.925 205.495 232.27 205.452 232.254C205.131 232.131 204.968 231.77 205.09 231.448C205.213 231.125 205.573 230.963 205.895 231.085C206.093 231.16 210.754 232.968 212.073 237.669C212.166 238.002 211.973 238.346 211.64 238.44C211.583 238.456 211.526 238.463 211.47 238.463Z" fill="#F97853"/>
<path d="M207.201 236.407C207.085 236.407 206.968 236.376 206.864 236.308C206.573 236.121 206.49 235.736 206.677 235.445C206.709 235.397 207.456 234.255 209.022 233.555C209.335 233.414 209.706 233.555 209.848 233.871C209.988 234.186 209.848 234.555 209.532 234.696C208.322 235.237 207.733 236.114 207.728 236.121C207.608 236.306 207.406 236.407 207.201 236.407Z" fill="#F97853"/>
<path d="M653.395 355.361C641.489 363.908 622.862 369.77 622.862 369.77L619.048 356.052L616.073 345.35L613.973 337.807L592.625 337.792C593.781 341.793 594.976 345.88 596.176 349.905C597.716 355.097 599.253 360.182 600.713 364.869C602.774 371.465 604.674 377.267 606.206 381.412C606.564 382.379 606.98 383.432 607.445 384.556C610.298 392.264 612.603 400.624 623.494 395.379C633.081 390.761 646.084 384.36 652.581 380.11L653.395 355.361Z" fill="#FFA681"/>
<path d="M596.174 349.905C597.714 355.096 599.249 360.181 600.711 364.868C609.425 363.944 615.459 359.626 619.048 356.052L616.073 345.351L596.174 349.905Z" fill="#F97853"/>
<path d="M591.642 275.033C591.642 275.033 613.913 328.148 623.492 345.357C623.492 345.357 610.068 356.77 596.992 357.081C596.992 357.081 589.457 298.766 591.642 275.033Z" fill="#126378"/>
<path d="M539.497 490.858C539.72 487.141 539.932 483.604 540.125 480.323C540.912 466.915 541.421 457.764 541.421 457.764L536.17 457.528L533.209 457.395L497.511 455.81C497.511 455.81 496.861 466.044 496.095 481.074C495.939 484.149 495.777 487.428 495.614 490.857H539.497V490.858Z" fill="#00C1DB"/>
<path d="M536.169 457.529L541.419 457.765C541.419 457.765 540.912 466.917 540.123 480.324C526.408 481.468 511.433 481.933 496.094 481.076C496.86 466.046 497.51 455.811 497.51 455.811L533.208 457.396L536.169 457.529Z" fill="#029AB8"/>
<path d="M534.294 490.858C535.122 476.536 535.803 464.267 536.171 457.531L533.211 457.397C532.841 464.164 532.158 476.488 531.328 490.858H534.294Z" fill="#029AB8"/>
<path d="M551.001 490.858H594.884C594.722 487.428 594.56 484.151 594.403 481.076C593.637 466.046 592.987 455.811 592.987 455.811L557.289 457.396L554.33 457.529L549.079 457.765C549.079 457.765 549.586 466.917 550.374 480.324C550.567 483.604 550.778 487.142 551.001 490.858Z" fill="#00C1DB"/>
<path d="M554.33 457.529L549.078 457.765C549.078 457.765 549.585 466.917 550.374 480.324C564.09 481.468 579.064 481.933 594.403 481.076C593.637 466.046 592.988 455.811 592.988 455.811L557.289 457.396L554.33 457.529Z" fill="#029AB8"/>
<path d="M559.17 490.859C558.339 476.489 557.658 464.164 557.286 457.398L554.326 457.531C554.695 464.268 555.374 476.536 556.203 490.859H559.17Z" fill="#029AB8"/>
<path d="M489.762 430.357C489.758 431.092 489.762 431.818 489.762 432.532C489.778 445.588 489.843 455.706 489.908 460.673C502.518 464.089 515.127 466.296 527.742 467.316C528.318 467.359 528.881 467.401 529.456 467.444C529.762 467.466 530.068 467.487 530.374 467.503C531.051 467.552 531.732 467.594 532.404 467.626C533.157 467.675 533.903 467.712 534.66 467.75C543.242 468.146 551.823 467.991 560.412 467.288C562.146 467.143 563.871 466.976 565.605 466.788C565.717 466.777 565.825 466.766 565.938 466.757C566.379 466.708 566.819 466.654 567.265 466.6C567.533 466.568 567.802 466.535 568.065 466.504C578.048 465.312 588.032 463.362 598.022 460.672C598.049 458.416 598.06 455.071 598.06 450.855C598.06 450.071 598.06 449.266 598.055 448.422V448.417C598.05 442.386 598.012 434.878 597.947 426.393C597.942 425.667 597.936 424.937 597.931 424.195C597.882 418.546 597.824 412.494 597.748 406.183C597.737 405.453 597.732 404.722 597.721 403.987C597.641 397.515 597.544 390.792 597.432 383.966C597.362 379.799 597.286 375.594 597.201 371.382C597.115 367.119 597.024 362.849 596.921 358.606C596.899 357.683 596.879 356.758 596.852 355.835C595.875 315.711 594.183 278.833 591.385 274.72C589.447 271.873 585.005 268.527 579.774 265.155C579.135 264.747 578.485 264.333 577.824 263.921C575.596 262.53 557.417 256.353 555.108 254.995L535.892 253.653C535.774 253.722 517.401 259.921 517.284 259.984C516.495 260.435 515.694 260.892 514.905 261.348C508.101 265.274 501.387 269.409 497.52 272.971C496.956 273.486 496.452 273.991 496.022 274.485C495.679 274.877 495.372 275.258 495.125 275.634C494.894 275.973 494.669 276.542 494.454 277.321C492.128 285.769 490.909 318.969 490.302 355.091C490.259 357.68 490.222 360.284 490.184 362.894C490.168 364.038 490.152 365.188 490.135 366.337C490.119 367.126 490.108 367.921 490.103 368.711C490.098 369.108 490.092 369.5 490.087 369.898C490.06 371.864 490.038 373.824 490.023 375.774C490.007 377.219 489.991 378.658 489.974 380.098C489.8 398.29 489.747 415.959 489.762 430.357Z" fill="#029AB8"/>
<path d="M455.401 481.947C454.929 487.076 461.175 484.295 459.407 473.902C457.646 463.511 462.651 454.102 464.811 454.402C466.975 454.709 463.023 465.75 464.945 469.73C466.862 473.709 469.343 465.976 471.814 461.287C474.376 456.416 474.225 445.788 473.06 438.205C471.894 430.617 485.643 384.543 485.713 371.193L487.388 365.533L493.522 344.808L503.124 312.355C503.124 312.355 497.371 287.79 487.673 289.901C487.673 289.901 482.538 307.01 477.051 326.307C476.121 329.583 475.182 332.923 474.253 336.254C470.343 350.244 466.67 364.056 464.962 372.252C460.45 393.889 460.102 438.867 460.102 438.867C460.102 438.867 452.143 455.392 451.955 462.744C451.755 470.584 455.868 476.819 455.401 481.947Z" fill="#FFA681"/>
<path d="M474.251 336.251L487.388 365.532L493.522 344.807L477.051 326.306C476.12 329.582 475.181 332.922 474.251 336.251Z" fill="#F97853"/>
<path d="M473.601 327.53C479.363 337.412 485.223 347.24 491.06 357.084C492.982 350.645 494.975 344.464 496.844 338.781C496.849 338.765 496.855 338.754 496.86 338.738C497.606 336.466 498.336 334.275 499.035 332.181C499.046 332.143 499.057 332.105 499.073 332.073C499.315 331.338 499.55 330.612 499.792 329.904V329.899C502.579 321.473 504.739 314.775 505.355 310.872C507.02 300.362 502.483 279.772 496.092 275.711C495.925 276.081 495.421 274.938 495.121 275.636C493.998 278.231 489.014 284.638 486.548 290.877C486.232 291.673 485.909 292.499 485.576 293.342C482.005 302.519 477.638 314.458 473.601 327.53Z" fill="#029AB8"/>
<path d="M544.648 272.867C552.969 272.867 558.835 265.275 559.08 264.952C559.431 264.491 559.365 263.815 558.935 263.441C558.505 263.067 557.872 263.137 557.522 263.596C557.446 263.695 551.984 270.719 544.648 270.719C537.398 270.719 532.975 262.77 532.933 262.69C532.653 262.178 532.037 262.005 531.56 262.303C531.081 262.601 530.917 263.256 531.196 263.769C531.397 264.141 536.228 272.867 544.648 272.867Z" fill="#126378"/>
<path d="M579.83 345.61C579.983 345.61 580.139 345.572 580.286 345.492C580.785 345.223 580.985 344.57 580.732 344.037L577.104 336.368C576.852 335.834 576.242 335.62 575.743 335.892C575.243 336.161 575.044 336.814 575.297 337.347L578.926 345.016C579.103 345.394 579.459 345.61 579.83 345.61Z" fill="#126378"/>
<path d="M587.393 339.328C587.523 339.415 587.673 339.471 587.838 339.487C588.395 339.54 588.887 339.1 588.936 338.504L589.647 329.942C589.697 329.348 589.286 328.82 588.728 328.767C588.171 328.715 587.678 329.155 587.629 329.751L586.919 338.312C586.883 338.734 587.079 339.118 587.393 339.328Z" fill="#126378"/>
<path d="M567.896 326.054C568.383 326.054 568.812 325.678 568.894 325.148L570.204 316.668C570.295 316.078 569.922 315.52 569.37 315.422C568.817 315.326 568.297 315.724 568.206 316.315L566.896 324.795C566.805 325.385 567.178 325.943 567.73 326.04C567.786 326.049 567.842 326.054 567.896 326.054Z" fill="#126378"/>
<path d="M535.296 329.209C535.472 329.209 535.649 329.161 535.812 329.058C536.293 328.754 536.453 328.089 536.167 327.574L532.073 320.179C531.789 319.665 531.167 319.494 530.686 319.799C530.205 320.104 530.045 320.767 530.33 321.283L534.424 328.679C534.612 329.02 534.951 329.209 535.296 329.209Z" fill="#126378"/>
<path d="M575.345 296.062C575.533 296.062 575.723 296.006 575.893 295.888L582.641 291.22C583.111 290.895 583.246 290.225 582.942 289.723C582.637 289.221 582.011 289.077 581.541 289.402L574.793 294.07C574.323 294.395 574.188 295.065 574.492 295.567C574.688 295.887 575.013 296.062 575.345 296.062Z" fill="#126378"/>
<path d="M545.285 364.963C545.439 364.963 545.594 364.925 545.742 364.846C546.24 364.576 546.441 363.924 546.188 363.39L542.559 355.721C542.307 355.188 541.698 354.974 541.199 355.244C540.7 355.514 540.5 356.166 540.753 356.7L544.382 364.368C544.559 364.746 544.915 364.963 545.285 364.963Z" fill="#126378"/>
<path d="M561.229 301.831C561.566 301.831 561.896 301.651 562.089 301.323C562.386 300.816 562.241 300.147 561.768 299.83L554.956 295.27C554.482 294.954 553.857 295.105 553.56 295.613C553.263 296.12 553.407 296.789 553.881 297.106L560.693 301.666C560.86 301.777 561.046 301.831 561.229 301.831Z" fill="#126378"/>
<path d="M577.43 269.943C577.415 270.152 577.455 270.357 577.546 270.528C577.701 270.845 578.007 271.07 578.369 271.097C578.926 271.14 579.408 270.689 579.449 270.093L579.77 265.158C579.132 264.75 578.484 264.336 577.822 263.923L577.43 269.943Z" fill="#126378"/>
<path d="M586.51 316.996C586.847 316.996 587.177 316.817 587.37 316.488C587.667 315.981 587.523 315.312 587.049 314.996L580.237 310.435C579.763 310.119 579.138 310.27 578.841 310.778C578.545 311.285 578.689 311.953 579.163 312.271L585.974 316.831C586.14 316.942 586.326 316.996 586.51 316.996Z" fill="#126378"/>
<path d="M532.189 279.575C532.38 279.575 532.574 279.517 532.745 279.396C533.212 279.067 533.341 278.396 533.033 277.896L529.149 271.592C528.843 271.092 528.214 270.953 527.747 271.283C527.281 271.613 527.151 272.283 527.459 272.784L531.343 279.089C531.537 279.402 531.86 279.575 532.189 279.575Z" fill="#126378"/>
<path d="M528.707 388.478C528.973 388.478 529.238 388.366 529.437 388.144L535.003 381.943C535.39 381.512 535.377 380.827 534.974 380.413C534.571 379.998 533.929 380.012 533.542 380.445L527.977 386.644C527.588 387.075 527.603 387.761 528.006 388.176C528.203 388.377 528.455 388.478 528.707 388.478Z" fill="#126378"/>
<path d="M549.158 387.188C549.424 387.188 549.69 387.076 549.889 386.854L555.454 380.653C555.843 380.222 555.828 379.537 555.425 379.123C555.021 378.708 554.381 378.723 553.994 379.154L548.428 385.354C548.041 385.786 548.054 386.471 548.457 386.886C548.654 387.087 548.907 387.188 549.158 387.188Z" fill="#126378"/>
<path d="M563.862 429.098C563.954 428.832 563.951 428.526 563.826 428.249L560.352 420.498C560.11 419.959 559.505 419.731 559.001 419.99C558.496 420.249 558.284 420.895 558.526 421.435L562 429.186C562.242 429.726 562.847 429.953 563.351 429.694C563.598 429.568 563.774 429.349 563.862 429.098Z" fill="#126378"/>
<path d="M505.172 454.67C505.266 454.404 505.261 454.098 505.137 453.821L501.662 446.071C501.42 445.531 500.816 445.304 500.311 445.563C499.807 445.821 499.594 446.468 499.836 447.007L503.311 454.758C503.553 455.298 504.157 455.525 504.662 455.266C504.908 455.14 505.084 454.923 505.172 454.67Z" fill="#126378"/>
<path d="M530.374 467.507C531.052 467.554 531.73 467.598 532.403 467.63L533.111 462.802C533.197 462.211 532.819 461.658 532.267 461.567C531.715 461.476 531.197 461.879 531.112 462.47L530.374 467.507Z" fill="#126378"/>
<path d="M522.292 452.915C522.51 452.753 522.668 452.499 522.712 452.195L523.955 443.703C524.042 443.112 523.664 442.558 523.111 442.465C522.558 442.373 522.041 442.777 521.954 443.368L520.711 451.86C520.624 452.451 521.002 453.004 521.555 453.097C521.824 453.144 522.085 453.07 522.292 452.915Z" fill="#126378"/>
<path d="M571.156 381.916C571.328 381.916 571.503 381.868 571.663 381.77C572.146 381.47 572.311 380.807 572.032 380.289L568.006 372.851C567.726 372.333 567.107 372.158 566.622 372.457C566.139 372.756 565.973 373.419 566.253 373.937L570.279 381.376C570.466 381.722 570.805 381.916 571.156 381.916Z" fill="#126378"/>
<path d="M559.334 363.323C559.701 363.323 560.055 363.109 560.236 362.737L563.919 355.099C564.176 354.567 563.98 353.914 563.483 353.639C562.987 353.363 562.377 353.573 562.119 354.106L558.434 361.744C558.178 362.275 558.373 362.929 558.87 363.202C559.019 363.284 559.178 363.323 559.334 363.323Z" fill="#126378"/>
<path d="M591.348 362.203C591.453 362.337 591.589 362.438 591.729 362.503C592.071 362.653 592.472 362.6 592.773 362.331L596.916 358.61C596.895 357.686 596.876 356.762 596.851 355.838L591.469 360.671C591.043 361.058 590.987 361.74 591.348 362.203Z" fill="#126378"/>
<path d="M559.387 282.286C559.755 282.286 560.108 282.072 560.288 281.7L563.973 274.062C564.23 273.53 564.034 272.877 563.537 272.602C563.041 272.327 562.431 272.536 562.173 273.069L558.489 280.707C558.233 281.238 558.428 281.892 558.925 282.166C559.072 282.248 559.231 282.286 559.387 282.286Z" fill="#126378"/>
<path d="M535.772 310.269C535.836 310.269 535.9 310.263 535.965 310.25C536.515 310.136 536.874 309.568 536.768 308.981L535.243 300.543C535.137 299.954 534.606 299.572 534.057 299.684C533.508 299.798 533.149 300.366 533.255 300.953L534.779 309.391C534.872 309.91 535.296 310.269 535.772 310.269Z" fill="#126378"/>
<path d="M548.92 317.679C548.984 317.679 549.048 317.673 549.113 317.659C549.663 317.546 550.022 316.978 549.915 316.39L548.391 307.952C548.285 307.363 547.754 306.982 547.205 307.093C546.656 307.207 546.297 307.775 546.403 308.362L547.927 316.802C548.02 317.32 548.444 317.679 548.92 317.679Z" fill="#126378"/>
<path d="M539.501 289.836C539.837 289.836 540.164 289.659 540.357 289.334L544.663 282.078C544.963 281.574 544.823 280.903 544.351 280.583C543.877 280.263 543.253 280.414 542.952 280.917L538.646 288.173C538.347 288.677 538.486 289.348 538.959 289.668C539.127 289.782 539.315 289.836 539.501 289.836Z" fill="#126378"/>
<path d="M579.006 364.664C579.284 364.348 579.367 363.871 579.181 363.456L575.72 355.7C575.479 355.16 574.875 354.931 574.37 355.189C573.863 355.447 573.651 356.093 573.893 356.633L577.354 364.389C577.595 364.929 578.199 365.158 578.704 364.9C578.822 364.841 578.923 364.761 579.006 364.664Z" fill="#126378"/>
<path d="M552.954 342.159C553.358 342.159 553.74 341.898 553.897 341.471L556.825 333.467C557.029 332.91 556.773 332.283 556.251 332.064C555.73 331.845 555.142 332.12 554.94 332.678L552.011 340.682C551.807 341.239 552.063 341.866 552.585 342.085C552.706 342.135 552.83 342.159 552.954 342.159Z" fill="#126378"/>
<path d="M520.777 391.595C520.931 391.595 521.086 391.557 521.234 391.477C521.732 391.207 521.932 390.555 521.68 390.021L518.051 382.353C517.799 381.819 517.19 381.605 516.69 381.875C516.192 382.145 515.992 382.797 516.245 383.331L519.873 391C520.05 391.377 520.407 391.595 520.777 391.595Z" fill="#126378"/>
<path d="M574.106 446.711C574.108 446.874 574.144 447.042 574.22 447.198C574.477 447.729 575.088 447.937 575.586 447.661L582.721 443.708C583.216 443.434 583.412 442.779 583.154 442.248C582.898 441.717 582.286 441.51 581.789 441.785L574.654 445.739C574.302 445.932 574.103 446.315 574.106 446.711Z" fill="#126378"/>
<path d="M593.477 451.627C593.477 451.793 593.512 451.96 593.588 452.115C593.844 452.647 594.456 452.851 594.953 452.577L598.057 450.859C598.057 450.075 598.057 449.269 598.052 448.426L594.025 450.655C593.673 450.848 593.472 451.234 593.477 451.627Z" fill="#126378"/>
<path d="M563.496 461.185L565.936 466.759C566.378 466.711 566.82 466.658 567.266 466.603C567.532 466.571 567.799 466.538 568.065 466.506L565.328 460.265C565.092 459.723 564.49 459.486 563.982 459.743C563.476 459.999 563.255 460.642 563.496 461.185Z" fill="#126378"/>
<path d="M507.609 372.037C508.096 372.037 508.525 371.661 508.606 371.131L509.917 362.651C510.008 362.061 509.635 361.503 509.083 361.405C508.529 361.309 508.01 361.707 507.919 362.298L506.608 370.778C506.518 371.367 506.89 371.926 507.442 372.023C507.497 372.032 507.554 372.037 507.609 372.037Z" fill="#126378"/>
<path d="M506.772 309.468C506.948 309.468 507.125 309.419 507.286 309.317C507.767 309.013 507.927 308.348 507.641 307.833L503.548 300.438C503.263 299.923 502.641 299.752 502.161 300.058C501.68 300.363 501.52 301.026 501.806 301.542L505.9 308.937C506.089 309.279 506.426 309.468 506.772 309.468Z" fill="#126378"/>
<path d="M519.934 339.528C520.123 339.528 520.313 339.472 520.483 339.355L527.231 334.687C527.701 334.362 527.835 333.692 527.531 333.19C527.227 332.688 526.6 332.544 526.132 332.869L519.384 337.536C518.913 337.861 518.779 338.532 519.083 339.034C519.277 339.354 519.602 339.528 519.934 339.528Z" fill="#126378"/>
<path d="M591.381 389.946C591.535 389.946 591.69 389.908 591.838 389.828C592.336 389.558 592.537 388.906 592.284 388.373L588.655 380.704C588.402 380.17 587.794 379.956 587.295 380.227C586.795 380.497 586.596 381.15 586.849 381.682L590.478 389.351C590.656 389.729 591.011 389.946 591.381 389.946Z" fill="#126378"/>
<path d="M508.438 351.178C508.775 351.178 509.105 350.998 509.298 350.67C509.594 350.163 509.45 349.493 508.976 349.177L502.165 344.617C501.691 344.3 501.066 344.452 500.769 344.96C500.472 345.467 500.616 346.135 501.09 346.452L507.902 351.013C508.068 351.124 508.255 351.178 508.438 351.178Z" fill="#126378"/>
<path d="M524.767 362.026C525.015 362.27 525.371 362.378 525.721 362.276C526.261 362.119 526.579 361.524 526.433 360.947L524.324 352.653C524.176 352.077 523.621 351.735 523.08 351.892C522.54 352.05 522.222 352.645 522.368 353.221L524.477 361.515C524.53 361.718 524.633 361.893 524.767 362.026Z" fill="#126378"/>
<path d="M496.019 274.487L497.781 277.343C497.977 277.655 498.298 277.827 498.63 277.827C498.821 277.827 499.011 277.773 499.182 277.65C499.649 277.323 499.78 276.651 499.473 276.151L497.515 272.972C496.953 273.488 496.45 273.992 496.019 274.487Z" fill="#126378"/>
<path d="M488.316 293.343L490.189 296.382C490.385 296.699 490.706 296.871 491.038 296.871C491.229 296.871 491.421 296.812 491.595 296.694C492.062 296.361 492.188 295.69 491.881 295.19L489.225 290.878C488.929 291.672 488.627 292.499 488.316 293.343Z" fill="#126378"/>
<path d="M575.904 416.722C576.17 416.722 576.435 416.611 576.634 416.389L582.2 410.189C582.587 409.758 582.574 409.073 582.171 408.658C581.767 408.242 581.126 408.257 580.739 408.689L575.173 414.889C574.786 415.32 574.8 416.005 575.203 416.42C575.398 416.622 575.651 416.722 575.904 416.722Z" fill="#126378"/>
<path d="M538.872 438.397C539.138 438.397 539.403 438.286 539.602 438.064L545.168 431.863C545.555 431.432 545.542 430.747 545.139 430.332C544.736 429.916 544.095 429.931 543.707 430.363L538.142 436.563C537.755 436.994 537.768 437.679 538.171 438.094C538.368 438.297 538.621 438.397 538.872 438.397Z" fill="#126378"/>
<path d="M528.58 429.788C528.747 429.567 528.834 429.276 528.797 428.971L527.793 420.443C527.724 419.85 527.217 419.43 526.662 419.504C526.107 419.579 525.713 420.12 525.784 420.715L526.788 429.242C526.858 429.835 527.365 430.256 527.919 430.181C528.19 430.144 528.421 429.997 528.58 429.788Z" fill="#126378"/>
<path d="M549.673 453.822C549.939 453.822 550.204 453.711 550.403 453.489L555.969 447.29C556.356 446.858 556.343 446.173 555.94 445.759C555.537 445.344 554.895 445.359 554.508 445.791L548.943 451.992C548.554 452.423 548.569 453.108 548.972 453.522C549.168 453.722 549.421 453.822 549.673 453.822Z" fill="#126378"/>
<path d="M489.762 430.359C489.758 431.095 489.762 431.82 489.762 432.535L496.044 433.099C496.601 433.153 497.093 432.707 497.138 432.111C497.188 431.515 496.772 430.993 496.214 430.94L489.762 430.359Z" fill="#126378"/>
<path d="M563.333 403.684C563.599 403.684 563.864 403.572 564.063 403.351L569.629 397.15C570.016 396.719 570.003 396.034 569.6 395.619C569.195 395.203 568.555 395.218 568.168 395.65L562.603 401.85C562.216 402.281 562.229 402.967 562.632 403.381C562.829 403.584 563.08 403.684 563.333 403.684Z" fill="#126378"/>
<path d="M536.556 400.99C536.573 401.274 536.695 401.55 536.915 401.747L543.066 407.279C543.493 407.664 544.132 407.605 544.492 407.147C544.853 406.688 544.798 406.006 544.369 405.621L538.218 400.09C537.791 399.705 537.152 399.764 536.792 400.222C536.616 400.444 536.539 400.72 536.556 400.99Z" fill="#126378"/>
<path d="M507.251 431.416C507.423 431.416 507.598 431.37 507.756 431.271C508.24 430.972 508.406 430.308 508.125 429.79L504.1 422.351C503.82 421.833 503.201 421.658 502.716 421.957C502.232 422.256 502.066 422.919 502.347 423.437L506.373 430.876C506.561 431.223 506.902 431.416 507.251 431.416Z" fill="#126378"/>
<path d="M500.281 409.306C500.649 409.306 501.002 409.093 501.183 408.72L504.867 401.082C505.124 400.551 504.929 399.897 504.431 399.624C503.936 399.348 503.325 399.558 503.067 400.089L499.382 407.727C499.126 408.258 499.321 408.912 499.818 409.187C499.966 409.267 500.125 409.306 500.281 409.306Z" fill="#126378"/>
<path d="M511.271 322.581C511.637 322.581 511.992 322.368 512.172 321.995L515.856 314.357C516.112 313.826 515.917 313.172 515.42 312.897C514.924 312.623 514.313 312.831 514.056 313.364L510.372 321.002C510.116 321.533 510.311 322.187 510.808 322.462C510.956 322.542 511.115 322.581 511.271 322.581Z" fill="#126378"/>
<path d="M507.248 290.527C507.311 290.527 507.376 290.521 507.441 290.508C507.99 290.394 508.349 289.826 508.243 289.239L506.719 280.8C506.613 280.213 506.081 279.83 505.533 279.942C504.983 280.055 504.624 280.623 504.731 281.211L506.255 289.649C506.349 290.168 506.773 290.527 507.248 290.527Z" fill="#126378"/>
<path d="M488.742 319.648C488.806 319.648 488.871 319.642 488.935 319.628C489.485 319.515 489.844 318.947 489.738 318.359L488.214 309.921C488.107 309.334 487.576 308.95 487.028 309.063C486.478 309.176 486.119 309.744 486.225 310.331L487.749 318.77C487.843 319.289 488.267 319.648 488.742 319.648Z" fill="#126378"/>
<path d="M520.396 297.937C520.459 297.937 520.524 297.931 520.589 297.918C521.138 297.804 521.497 297.236 521.391 296.649L519.867 288.21C519.761 287.622 519.229 287.241 518.681 287.352C518.131 287.465 517.772 288.033 517.878 288.621L519.403 297.059C519.496 297.577 519.921 297.937 520.396 297.937Z" fill="#126378"/>
<path d="M514.362 268.541C514.558 268.589 514.749 268.573 514.924 268.509C515.24 268.391 515.497 268.106 515.578 267.736L517.28 259.987C516.492 260.437 515.694 260.894 514.9 261.351L513.609 267.237C513.478 267.822 513.814 268.402 514.362 268.541Z" fill="#126378"/>
<path d="M491.195 332.695C491.53 332.695 491.858 332.518 492.051 332.193L496.358 324.937C496.657 324.431 496.518 323.762 496.046 323.442C495.572 323.122 494.948 323.272 494.648 323.776L490.341 331.032C490.042 331.537 490.181 332.206 490.653 332.526C490.821 332.64 491.009 332.695 491.195 332.695Z" fill="#126378"/>
<path d="M519.955 410.648C520.232 410.332 520.314 409.856 520.13 409.441L516.67 401.684C516.429 401.144 515.824 400.916 515.32 401.173C514.813 401.431 514.601 402.078 514.842 402.617L518.303 410.374C518.543 410.914 519.148 411.143 519.652 410.884C519.769 410.824 519.871 410.744 519.955 410.648Z" fill="#126378"/>
<path d="M591.183 425.225L597.947 426.396C597.942 425.671 597.937 424.941 597.926 424.2L591.509 423.083C590.957 422.991 590.434 423.389 590.349 423.979C590.259 424.569 590.63 425.129 591.183 425.225Z" fill="#126378"/>
<path d="M593.241 405.408L597.745 406.187C597.735 405.457 597.731 404.726 597.72 403.991L593.567 403.272C593.015 403.175 592.497 403.578 592.407 404.168C592.318 404.758 592.689 405.311 593.241 405.408Z" fill="#126378"/>
<path d="M493.901 388.143C494.307 388.143 494.689 387.881 494.844 387.454L497.773 379.451C497.977 378.894 497.721 378.266 497.199 378.047C496.678 377.829 496.09 378.103 495.887 378.662L492.959 386.665C492.755 387.222 493.012 387.85 493.533 388.068C493.655 388.118 493.779 388.143 493.901 388.143Z" fill="#126378"/>
<path d="M490.181 362.893C492.083 355.036 494.472 346.303 496.84 338.78C496.845 338.764 496.851 338.753 496.856 338.737C497.586 336.412 498.316 334.205 499.031 332.18C499.042 332.142 499.053 332.105 499.069 332.072C499.289 331.433 499.515 330.815 499.734 330.215C499.766 330.107 499.788 330.004 499.788 329.903V329.898C499.788 329.538 499.562 329.2 499.203 329.065C498.735 328.899 498.22 329.135 498.054 329.603C495.626 336.219 492.758 345.746 490.298 355.091C490.257 357.678 490.219 360.283 490.181 362.893Z" fill="#126378"/>
<path d="M519.218 211.201C519.218 211.201 512.166 203.43 514.827 194.389C517.488 185.348 524.769 185.447 524.769 185.447C524.769 185.447 529.017 175.832 536.251 175.514C543.485 175.196 550.305 162.349 556.886 165.839C563.469 169.328 556.173 176.942 556.173 176.942C556.173 176.942 567.451 165.046 571.17 168.535C574.889 172.025 566.006 181.383 566.006 181.383C566.006 181.383 575.482 174.721 578.596 177.258C581.709 179.796 571.17 190.74 571.17 190.74C571.17 190.74 577.989 203.033 571.126 208.545L519.218 211.201Z" fill="#063646"/>
<path d="M568.485 213.803C568.485 213.803 572.994 207.79 576.347 212.762C579.7 217.733 574.96 232.417 566.751 228.833L568.485 213.803Z" fill="#F97853"/>
<path d="M568.544 224.296C568.847 224.296 569.125 224.096 569.212 223.789C570.485 219.255 575.181 217.417 575.228 217.4C575.586 217.263 575.766 216.863 575.63 216.506C575.495 216.148 575.094 215.968 574.737 216.103C574.518 216.186 569.343 218.195 567.877 223.415C567.773 223.784 567.989 224.166 568.358 224.27C568.419 224.287 568.482 224.296 568.544 224.296Z" fill="#EA5143"/>
<path d="M573.284 222.012C573.414 222.012 573.543 221.976 573.659 221.902C573.981 221.694 574.074 221.266 573.867 220.943C573.832 220.889 573.001 219.622 571.263 218.845C570.915 218.687 570.503 218.845 570.347 219.194C570.19 219.543 570.347 219.954 570.696 220.11C572.041 220.711 572.693 221.684 572.7 221.694C572.833 221.901 573.057 222.012 573.284 222.012Z" fill="#EA5143"/>
<path d="M522.016 213.803C522.016 213.803 517.506 207.79 514.154 212.762C510.801 217.733 515.541 232.417 523.75 228.833L522.016 213.803Z" fill="#F97853"/>
<path d="M521.958 224.296C521.655 224.296 521.377 224.096 521.29 223.789C520.019 219.255 515.321 217.417 515.274 217.4C514.916 217.263 514.736 216.863 514.872 216.506C515.007 216.148 515.408 215.968 515.765 216.103C515.985 216.186 521.161 218.195 522.625 223.415C522.729 223.784 522.514 224.166 522.144 224.27C522.083 224.287 522.02 224.296 521.958 224.296Z" fill="#EA5143"/>
<path d="M517.217 222.012C517.087 222.012 516.958 221.976 516.842 221.902C516.519 221.694 516.427 221.266 516.634 220.943C516.668 220.889 517.499 219.622 519.238 218.845C519.586 218.687 519.998 218.845 520.154 219.194C520.31 219.543 520.154 219.954 519.805 220.11C518.46 220.711 517.807 221.684 517.801 221.694C517.669 221.901 517.445 222.012 517.217 222.012Z" fill="#EA5143"/>
<path d="M534.151 241.288V255.89C534.151 255.89 538.507 263.327 544.395 263.833C550.278 264.346 555.506 257.43 555.506 257.43V242.314L534.151 241.288Z" fill="#FFA681"/>
<path d="M534.151 241.288V247.767C538.102 252.152 545.121 253.247 555.506 251.715V242.315L534.151 241.288Z" fill="#F97853"/>
<path d="M518.759 203.788C519.026 209.462 519.566 216.561 520.65 222.23V222.246C520.65 222.262 520.655 222.279 520.661 222.301C520.661 222.307 520.666 222.307 520.666 222.312C520.934 223.697 521.233 225 521.56 226.171C521.757 226.858 521.969 227.577 522.209 228.314C525.67 239.172 533.689 254.889 553.843 247.699C562.33 244.673 566.751 235.908 569.003 226.401C569.134 225.834 569.26 225.272 569.368 224.733C569.444 224.372 569.516 224.024 569.581 223.68L569.679 223.173C569.694 223.086 569.705 223.026 569.712 222.987C569.718 222.965 569.718 222.954 569.718 222.954C571.048 215.645 571.249 208.252 571.151 202.97C571.048 197.584 568.104 192.655 563.417 190.001C550.721 182.8 537.316 185.487 528.49 188.879C522.361 191.229 518.442 197.242 518.759 203.788Z" fill="#FFA681"/>
<path d="M520.645 222.23C520.645 222.23 520.645 222.235 520.649 222.246C520.649 222.262 520.654 222.279 520.66 222.301C520.66 222.307 520.665 222.307 520.665 222.312C520.796 222.786 521.504 225.386 522.208 228.314C525.669 239.173 533.688 254.889 553.842 247.699C562.329 244.674 566.75 235.908 569.002 226.401C569.133 225.834 569.259 225.273 569.367 224.733C569.443 224.373 569.515 224.024 569.58 223.68L569.678 223.173C569.693 223.087 569.704 223.027 569.711 222.988C569.717 222.966 569.717 222.955 569.717 222.955L566.751 222.355C566.185 225.163 564.93 227.806 563.393 230.156C560.885 224.148 548.161 228.139 548.161 228.139L548.101 228.161C547.327 228.401 546.532 228.526 545.73 228.526C544.906 228.526 544.088 228.396 543.293 228.139C543.293 228.139 530.722 223.974 528.117 229.704C525.512 225.67 523.744 222.012 523.744 222.012L520.648 222.23H520.645ZM545.699 230.86C560.085 228.92 557.823 236.665 557.823 236.665C556.226 238.121 554.765 239.184 553.784 239.735C550.644 241.485 547.553 242.149 545.313 242.04C543.105 241.948 542.5 242.401 536.918 239.38C535.931 238.852 534.933 238.066 533.957 237.134C533.957 237.134 533.957 237.134 533.952 237.134V237.129C533.712 235.614 531.275 228.38 545.699 230.86Z" fill="#063646"/>
<path d="M532.663 214.347C532.663 215.906 533.467 217.17 534.457 217.17C535.448 217.17 536.251 215.906 536.251 214.347C536.251 212.789 535.448 211.525 534.457 211.525C533.465 211.525 532.663 212.789 532.663 214.347Z" fill="#063646"/>
<path d="M555.093 214.347C555.093 215.906 555.897 217.17 556.887 217.17C557.879 217.17 558.682 215.906 558.682 214.347C558.682 212.789 557.878 211.525 556.887 211.525C555.897 211.525 555.093 212.789 555.093 214.347Z" fill="#063646"/>
<path d="M528.068 204.831C528.068 204.831 535.483 201.901 541.192 204.367L540.621 207.542C540.621 207.542 532.242 206.834 528.021 208.544C527.642 207.322 527.586 206.086 528.068 204.831Z" fill="#063646"/>
<path d="M563.323 204.846C563.323 204.846 555.854 201.894 550.104 204.378L550.679 207.577C550.679 207.577 559.119 206.862 563.372 208.587C563.753 207.356 563.808 206.111 563.323 204.846Z" fill="#063646"/>
<path d="M545.01 226.962C543.84 226.962 542.679 226.506 542.499 226.433C542.145 226.289 541.975 225.883 542.119 225.529C542.263 225.175 542.669 225.004 543.023 225.148C543.65 225.402 545.154 225.802 545.805 225.411C545.931 225.335 546.103 225.186 546.146 224.765C546.396 222.342 545.733 214.222 545.727 214.14C545.695 213.758 545.98 213.423 546.362 213.392C546.746 213.36 547.079 213.644 547.111 214.025C547.139 214.365 547.791 222.356 547.527 224.906C547.428 225.866 546.924 226.357 546.518 226.6C546.075 226.869 545.541 226.962 545.01 226.962Z" fill="#F97853"/>
<path d="M553.854 232.246C553.327 234.896 551.576 239.771 545.679 239.771C539.768 239.771 538.111 235.317 537.542 232.246H553.854Z" fill="#FAFEFE"/>
<path d="M518.756 203.785C519.027 209.46 519.568 216.557 520.65 222.231L523.751 222.011C523.751 222.011 523 217.22 522.653 214.098C522.306 210.977 521.717 205.141 524.381 204.413C527.038 203.693 525.479 197.035 529.176 194.149C532.873 191.257 541.144 190.463 546.597 193.821C552.049 197.171 558.194 193.567 560.706 194.149C563.225 194.726 566.637 198.193 565.715 201.433C564.785 204.666 567.56 206.636 568.233 209.986C568.906 213.336 566.755 222.355 566.755 222.355L569.717 222.952C571.05 215.64 571.25 208.252 571.154 202.973C571.05 197.584 568.109 192.658 563.419 190.001C550.717 182.8 537.315 185.485 528.491 188.878C522.364 191.23 518.443 197.244 518.756 203.785Z" fill="#063646"/>
<path d="M646.41 360.042C644.524 377.241 633.295 415.665 625.52 423.19C615.398 432.989 582.086 453.619 564.734 464.196C561.604 466.103 576.308 478.81 576.308 478.81C576.308 478.81 622.379 459.109 639.973 443.576C644.95 439.181 655.057 425.323 666.465 398.924C669.924 390.919 678.306 374.777 677.871 364.251C677.371 352.137 658.125 354.13 646.41 360.042Z" fill="#029AB8"/>
<path d="M610.46 458.837C610.46 458.837 597.929 463.596 593.488 468.83C589.047 474.065 583.179 478.506 584.605 480.567C586.033 482.629 592.536 476.602 592.536 476.602C592.536 476.602 594.319 483.227 600.624 483.942C606.931 484.656 618.865 472.319 618.865 472.319L610.46 458.837Z" fill="#FFA681"/>
<path d="M734.149 408.063C734.153 409.151 734.143 410.438 734.124 411.898C734.104 413.351 734.072 414.972 734.028 416.745C733.993 417.961 733.955 419.245 733.911 420.594C733.87 421.73 733.826 422.906 733.778 424.127C733.724 425.374 733.667 426.659 733.603 427.984C732.731 445.996 730.622 470.866 725.983 490.805H628.498C631.749 476.314 636.723 453.458 640.669 423.804C640.834 422.557 640.999 421.297 641.162 420.025C641.324 418.752 641.482 417.468 641.64 416.174C641.726 415.485 641.809 414.79 641.891 414.096C641.958 413.522 642.024 412.951 642.087 412.386C642.268 410.788 642.433 409.215 642.58 407.672C642.703 406.384 642.818 405.118 642.925 403.869C644.597 383.932 644.007 368.99 646.408 360.041C649.207 349.623 681.83 337.68 681.83 337.68L702.269 338.748C702.269 338.748 721.756 345.112 732.173 354.257C742.594 363.406 733.879 390.703 734.133 406.203C734.143 406.737 734.146 407.358 734.149 408.063Z" fill="#00C1DB"/>
<path d="M734.123 411.898C725.26 412.974 716.013 413.399 706.94 413.399C677.226 413.399 649.332 408.857 642.578 407.673C642.701 406.385 642.816 405.12 642.924 403.87C650.772 405.26 696.189 412.771 734.148 408.064C734.152 409.151 734.143 410.438 734.123 411.898Z" fill="#E1FEC9"/>
<path d="M734.029 416.745C733.993 417.961 733.956 419.245 733.912 420.594C725.112 421.65 715.941 422.066 706.941 422.066C675.549 422.066 646.189 416.996 641.64 416.175C641.725 415.486 641.808 414.791 641.89 414.098C641.957 413.524 642.023 412.952 642.087 412.388C646.606 413.211 694.36 421.637 734.029 416.745Z" fill="#E1FEC9"/>
<path d="M733.778 424.127C733.724 425.374 733.667 426.659 733.603 427.984C724.448 429.148 714.862 429.603 705.463 429.603C675.07 429.603 646.586 424.854 640.669 423.804C640.834 422.557 640.999 421.298 641.162 420.025C648.197 421.279 695.112 429.187 733.778 424.127Z" fill="#E1FEC9"/>
<path d="M687.725 357.288C697.888 357.288 707.263 346.486 707.67 346.012C707.927 345.711 707.892 345.258 707.591 345.001C707.292 344.743 706.839 344.777 706.58 345.077C706.482 345.191 696.663 356.504 686.849 355.823C686.457 355.795 686.112 356.094 686.085 356.488C686.057 356.883 686.355 357.226 686.75 357.253C687.075 357.277 687.401 357.288 687.725 357.288Z" fill="#029AB8"/>
<path d="M696.536 478.771C696.895 478.771 697.205 478.501 697.247 478.136C697.292 477.743 697.01 477.387 696.617 477.341C670.365 474.319 659.491 428.878 659.383 428.42C659.294 428.034 658.908 427.795 658.522 427.884C658.136 427.974 657.897 428.359 657.986 428.745C658.432 430.658 669.206 475.63 696.452 478.766C696.481 478.77 696.509 478.771 696.536 478.771Z" fill="#029AB8"/>
<path d="M686.083 465.021C686.323 465.021 686.558 464.9 686.693 464.68C686.901 464.343 686.797 463.901 686.46 463.693C672.498 455.084 670.422 442.396 670.402 442.269C670.342 441.878 669.981 441.604 669.586 441.668C669.195 441.726 668.925 442.092 668.984 442.482C669.066 443.028 671.152 455.94 685.708 464.915C685.824 464.987 685.955 465.021 686.083 465.021Z" fill="#029AB8"/>
<path d="M694.235 319.203C710.118 319.203 722.994 306.327 722.994 290.444C722.994 274.561 710.118 261.686 694.235 261.686C678.352 261.686 665.476 274.561 665.476 290.444C665.476 306.327 678.352 319.203 694.235 319.203Z" fill="#063646"/>
<path d="M665.946 285.288C665.946 285.288 657.802 283.039 658.876 275.135C659.789 268.408 667.693 272.769 666.998 267.511C666.303 262.253 664.759 257.473 671.561 256.159C677.51 255.01 677.61 259.087 685.423 253.172C694.652 246.184 701.742 262.365 709.98 262.851C722.13 263.568 723.663 270.439 724.859 275.936C726.053 281.433 721.377 285.288 721.377 285.288H665.946Z" fill="#063646"/>
<path d="M670.308 298.492C670.308 298.492 665.752 292.418 662.366 297.44C658.979 302.462 663.768 317.297 672.06 313.676L670.308 298.492Z" fill="#F97853"/>
<path d="M670.249 309.092C669.943 309.092 669.662 308.889 669.575 308.58C668.289 304 663.545 302.144 663.498 302.126C663.136 301.988 662.954 301.583 663.092 301.222C663.229 300.86 663.633 300.678 663.995 300.815C664.217 300.899 669.445 302.928 670.926 308.202C671.03 308.574 670.813 308.961 670.44 309.066C670.375 309.084 670.311 309.092 670.249 309.092Z" fill="#EA5143"/>
<path d="M665.459 306.785C665.329 306.785 665.198 306.75 665.081 306.674C664.755 306.464 664.662 306.03 664.871 305.705C664.906 305.652 665.745 304.37 667.501 303.585C667.853 303.426 668.27 303.585 668.427 303.938C668.585 304.291 668.427 304.706 668.074 304.864C666.716 305.472 666.057 306.454 666.051 306.464C665.916 306.673 665.69 306.785 665.459 306.785Z" fill="#EA5143"/>
<path d="M703.347 326.259V341.011C703.347 341.011 697.281 347.512 691.332 348.024C685.389 348.542 681.773 341.482 681.773 341.482V327.296L703.347 326.259Z" fill="#FFA681"/>
<path d="M703.347 326.259V332.804C699.354 337.234 692.264 338.34 681.772 336.792V327.296L703.347 326.259Z" fill="#F97853"/>
<path d="M718.901 288.372C718.627 294.105 718.08 301.274 716.987 307.007C716.713 308.437 716.406 309.783 716.061 310.987C712.957 321.857 705.191 340.499 683.453 332.735C673.852 329.307 669.401 318.612 667.418 307.736C666.072 300.35 665.869 292.886 665.967 287.552C666.072 282.108 669.043 277.132 673.781 274.447C686.614 267.173 700.153 269.885 709.068 273.312C715.256 275.687 719.216 281.763 718.901 288.372Z" fill="#FFA681"/>
<path d="M692.819 298.791V299.955C692.819 302.299 693.732 304.499 695.396 306.15C697.034 307.779 699.199 308.672 701.501 308.672H701.785C703.782 308.629 705.596 307.826 707.188 306.282C708.783 304.725 709.698 302.499 709.698 300.168V298.793C709.698 298.412 709.626 298.048 709.495 297.709C709.342 297.299 709.105 296.935 708.801 296.631C708.247 296.076 707.486 295.734 706.639 295.734H695.879C694.662 295.734 693.611 296.445 693.12 297.477C692.939 297.853 692.832 298.272 692.824 298.712C692.819 298.736 692.819 298.767 692.819 298.791ZM694.088 298.791C694.088 297.802 694.891 297.002 695.877 297.002H706.637C707.628 297.002 708.428 297.802 708.428 298.791V300.167C708.428 302.155 707.653 304.055 706.299 305.371C704.949 306.682 703.421 307.364 701.759 307.402H701.5C699.537 307.402 697.688 306.64 696.287 305.249C694.871 303.839 694.088 301.961 694.088 299.955V298.791Z" fill="#063646"/>
<path d="M671.275 298.791V299.955C671.275 302.299 672.193 304.499 673.852 306.15C675.49 307.779 677.655 308.672 679.957 308.672H680.244C682.238 308.629 684.056 307.826 685.644 306.282C687.239 304.725 688.157 302.499 688.157 300.168V298.793C688.157 298.772 688.157 298.755 688.153 298.734C688.148 298.32 688.055 297.922 687.895 297.561C687.421 296.483 686.346 295.734 685.098 295.734H674.334C673.391 295.734 672.545 296.166 671.982 296.838C671.711 297.168 671.505 297.554 671.393 297.972C671.313 298.233 671.275 298.508 671.275 298.791ZM672.545 298.791C672.545 297.802 673.349 297.002 674.334 297.002H685.098C686.084 297.002 686.887 297.802 686.887 298.791V300.167C686.887 302.155 686.109 304.055 684.76 305.371C683.41 306.682 681.882 307.364 680.22 307.402H679.957C677.993 307.402 676.146 306.64 674.748 305.249C673.327 303.839 672.544 301.961 672.544 299.955V298.791H672.545Z" fill="#063646"/>
<path d="M717.365 295.22C713.711 295.062 711.101 296.116 710.069 296.631C709.781 296.77 709.011 297.271 708.979 297.291L709.583 298.369C709.592 298.364 710.433 297.862 710.763 297.709C711.775 297.236 714.023 296.289 717.365 296.485V295.22Z" fill="#063646"/>
<path d="M693.672 298.839L694.088 297.639C694.014 297.614 692.232 297 690.274 297C688.19 297 686.849 297.64 686.792 297.667L687.346 298.809C687.356 298.804 688.501 298.269 690.274 298.269C692.011 298.271 693.656 298.834 693.672 298.839Z" fill="#063646"/>
<path d="M666.83 295.525V296.798C669.458 297.015 671.886 298.189 671.922 298.204L672.48 297.065C672.337 296.993 669.731 295.737 666.83 295.525Z" fill="#063646"/>
<path d="M681.236 300.418C681.236 301.992 680.425 303.27 679.424 303.27C678.422 303.27 677.611 301.993 677.611 300.418C677.611 298.843 678.423 297.566 679.424 297.566C680.424 297.566 681.236 298.842 681.236 300.418Z" fill="#063646"/>
<path d="M702.463 300.418C702.463 301.992 701.651 303.27 700.65 303.27C699.649 303.27 698.838 301.993 698.838 300.418C698.838 298.843 699.65 297.566 700.65 297.566C701.652 297.566 702.463 298.842 702.463 300.418Z" fill="#063646"/>
<path d="M673.527 291.661C673.527 291.661 681.073 288.678 686.882 291.189L686.398 293.886C686.398 293.886 680.105 292.481 673.944 294.779C673.559 293.535 673.036 292.939 673.527 291.661Z" fill="#063646"/>
<path d="M708.056 291.661C708.056 291.661 700.511 288.678 694.7 291.189L695.185 293.886C695.185 293.886 701.477 292.481 707.639 294.779C708.023 293.535 708.547 292.939 708.056 291.661Z" fill="#063646"/>
<path d="M691.149 312.368C692.332 312.368 693.504 311.907 693.686 311.834C694.044 311.687 694.215 311.279 694.07 310.92C693.924 310.562 693.514 310.39 693.156 310.536C692.523 310.792 691.004 311.195 690.345 310.801C690.218 310.724 690.044 310.573 690 310.148C689.747 307.701 690.417 299.498 690.424 299.415C690.456 299.029 690.169 298.691 689.784 298.659C689.397 298.626 689.06 298.915 689.028 299.301C689 299.644 688.34 307.717 688.607 310.293C688.707 311.262 689.216 311.758 689.625 312.004C690.075 312.272 690.613 312.368 691.149 312.368Z" fill="#F97853"/>
<path d="M682.462 315.925C683.035 318.806 684.938 324.108 691.353 324.108C697.782 324.108 699.584 319.263 700.204 315.925H682.462Z" fill="#FAFEFE"/>
<path d="M691.265 327.767C693.079 327.767 694.617 326.849 694.681 326.81C695.012 326.609 695.119 326.178 694.917 325.847C694.717 325.515 694.286 325.41 693.955 325.61C693.944 325.618 692.677 326.365 691.264 326.365C689.967 326.365 688.726 325.621 688.714 325.613C688.386 325.41 687.953 325.511 687.75 325.841C687.546 326.17 687.649 326.602 687.979 326.805C688.041 326.845 689.553 327.767 691.265 327.767Z" fill="#F97853"/>
<path d="M669.587 303.167C669.058 300.277 668.534 296.546 668.915 294.635C669.598 291.25 672.4 289.261 671.466 285.999C670.531 282.723 673.98 279.216 676.523 278.635C679.059 278.046 684.993 279.31 690.835 276.537C696.41 273.887 706.101 275.782 707.682 279.361C709.593 283.693 706.992 284.102 712.208 288.787C714.284 290.654 711.82 295.504 711.468 298.658C711.31 300.109 711.287 300.817 711.345 302.375L711.365 303.167H717.608C718.295 298.275 718.689 292.882 718.904 288.369C719.22 281.759 715.254 275.689 709.068 273.311C700.152 269.884 686.618 267.169 673.779 274.446C669.045 277.133 666.07 282.104 665.97 287.55C665.89 291.779 666.003 297.352 666.726 303.166H669.587V303.167Z" fill="#063646"/>
<path d="M714.84 305.864C714.82 304.231 714.936 302.598 715.221 300.991C715.61 298.792 716.248 296.796 718.499 295.88C720.309 295.143 722.242 295.128 723.617 297.169C727.004 302.191 723.231 317.821 714.938 314.199L714.84 305.864Z" fill="#FFA681"/>
<path d="M716.542 309.648C716.843 309.588 717.078 309.334 717.104 309.014C717.468 304.272 721.757 301.523 721.8 301.495C722.127 301.288 722.226 300.856 722.021 300.529C721.816 300.201 721.384 300.101 721.056 300.306C720.855 300.432 716.125 303.445 715.706 308.907C715.676 309.293 715.965 309.63 716.352 309.659C716.417 309.664 716.481 309.659 716.542 309.648Z" fill="#F97853"/>
<path d="M720.788 306.448C720.916 306.422 721.037 306.361 721.137 306.264C721.415 305.996 721.421 305.551 721.153 305.274C721.108 305.227 720.034 304.136 718.158 303.709C717.783 303.623 717.406 303.86 717.32 304.237C717.233 304.614 717.47 304.989 717.848 305.076C719.299 305.406 720.138 306.241 720.146 306.248C720.319 306.427 720.562 306.493 720.788 306.448Z" fill="#F97853"/>
<path d="M728.028 351.058C717.786 366.583 678.586 420.255 669.741 426.49C658.228 434.607 626.841 446.149 608.82 458.182C602.697 462.271 617.163 473.84 617.163 473.84C617.163 473.84 661.089 461.491 680.873 448.863C686.469 445.29 709.745 421.974 724.585 401.293C729.67 394.208 737.94 384.368 739.136 373.902C740.513 361.856 736.729 355.411 728.028 351.058Z" fill="#029AB8"/>
<path d="M650.335 490.805H528.221C526.66 490.805 525.395 489.539 525.395 487.978V478.248C525.395 476.687 526.66 475.422 528.221 475.422H650.335C651.896 475.422 653.162 476.687 653.162 478.248V487.978C653.16 489.539 651.896 490.805 650.335 490.805Z" fill="#063646"/>
<path d="M525.422 490.805L501.407 400.867C500.058 395.815 503.865 390.858 509.094 390.858H561.939C565.504 390.858 568.634 393.23 569.599 396.663L596.043 490.805H525.422Z" fill="#063646"/>
<path d="M569.602 396.664L595.826 490.03H601.864L575.64 396.664C574.669 393.23 571.544 390.855 567.977 390.855H561.939C565.505 390.854 568.631 393.23 569.602 396.664Z" fill="#063646"/>
<path d="M556.015 444.858C557.388 450.79 553.692 455.6 547.76 455.6C541.828 455.6 535.906 450.791 534.533 444.858C533.16 438.926 536.856 434.116 542.788 434.116C548.72 434.116 554.642 438.926 556.015 444.858Z" fill="#126378"/>
<path d="M643.821 132.68C639.374 132.68 635.757 129.062 635.757 124.615C635.757 120.168 639.374 116.551 643.821 116.551C648.268 116.551 651.886 120.168 651.886 124.615C651.886 129.062 648.268 132.68 643.821 132.68ZM643.821 119.079C640.769 119.079 638.286 121.562 638.286 124.614C638.286 127.666 640.769 130.149 643.821 130.149C646.873 130.149 649.356 127.666 649.356 124.614C649.355 121.562 646.872 119.079 643.821 119.079Z" fill="#029AB8"/>
<path d="M672.854 160.973C668.407 160.973 664.789 157.356 664.789 152.909C664.789 148.462 668.407 144.844 672.854 144.844C677.3 144.844 680.918 148.462 680.918 152.909C680.918 157.356 677.3 160.973 672.854 160.973ZM672.854 147.374C669.801 147.374 667.318 149.857 667.318 152.909C667.318 155.961 669.801 158.444 672.854 158.444C675.906 158.444 678.389 155.961 678.389 152.909C678.389 149.857 675.906 147.374 672.854 147.374Z" fill="#00C1DB"/>
<path d="M682.819 187.181C682.12 187.181 681.553 186.614 681.553 185.916V180.337C681.553 179.638 682.12 179.071 682.819 179.071C683.517 179.071 684.084 179.638 684.084 180.337V185.916C684.083 186.614 683.517 187.181 682.819 187.181Z" fill="#029AB8"/>
<path d="M682.819 196.943C682.12 196.943 681.553 196.376 681.553 195.678V190.099C681.553 189.4 682.12 188.833 682.819 188.833C683.517 188.833 684.084 189.4 684.084 190.099V195.678C684.083 196.378 683.517 196.943 682.819 196.943Z" fill="#029AB8"/>
<path d="M690.649 189.273H685.637C684.939 189.273 684.372 188.707 684.372 188.008C684.372 187.309 684.939 186.743 685.637 186.743H690.649C691.347 186.743 691.914 187.309 691.914 188.008C691.914 188.707 691.347 189.273 690.649 189.273Z" fill="#029AB8"/>
<path d="M679.998 189.273H674.987C674.288 189.273 673.722 188.707 673.722 188.008C673.722 187.309 674.288 186.743 674.987 186.743H679.998C680.697 186.743 681.263 187.309 681.263 188.008C681.263 188.707 680.697 189.273 679.998 189.273Z" fill="#029AB8"/>
<path d="M638.286 155.919C637.588 155.919 637.021 155.353 637.021 154.654V149.075C637.021 148.376 637.588 147.81 638.286 147.81C638.985 147.81 639.552 148.376 639.552 149.075V154.654C639.552 155.353 638.985 155.919 638.286 155.919Z" fill="#126378"/>
<path d="M638.286 165.682C637.588 165.682 637.021 165.116 637.021 164.417V158.838C637.021 158.139 637.588 157.573 638.286 157.573C638.985 157.573 639.552 158.139 639.552 158.838V164.417C639.552 165.116 638.985 165.682 638.286 165.682Z" fill="#126378"/>
<path d="M646.117 158.012H641.106C640.407 158.012 639.841 157.445 639.841 156.746C639.841 156.048 640.407 155.481 641.106 155.481H646.117C646.816 155.481 647.383 156.048 647.383 156.746C647.381 157.445 646.816 158.012 646.117 158.012Z" fill="#126378"/>
<path d="M635.467 158.012H630.456C629.758 158.012 629.191 157.445 629.191 156.746C629.191 156.048 629.758 155.481 630.456 155.481H635.467C636.166 155.481 636.733 156.048 636.733 156.746C636.731 157.445 636.166 158.012 635.467 158.012Z" fill="#126378"/>
<path d="M269.541 95.6514C269.541 91.2045 273.159 87.5869 277.606 87.5869C282.052 87.5869 285.67 91.2045 285.67 95.6514C285.67 100.098 282.052 103.716 277.606 103.716C273.159 103.717 269.541 100.098 269.541 95.6514ZM272.072 95.6514C272.072 98.7035 274.555 101.186 277.607 101.186C280.659 101.186 283.142 98.7035 283.142 95.6514C283.142 92.5993 280.659 90.1163 277.607 90.1163C274.555 90.1163 272.072 92.5993 272.072 95.6514Z" fill="#029AB8"/>
<path d="M237.153 126.392C237.153 121.945 240.771 118.327 245.218 118.327C249.665 118.327 253.282 121.944 253.282 126.392C253.282 130.84 249.665 134.457 245.218 134.457C240.771 134.457 237.153 130.839 237.153 126.392ZM239.683 126.392C239.683 129.444 242.166 131.927 245.218 131.927C248.27 131.927 250.753 129.444 250.753 126.392C250.753 123.34 248.27 120.857 245.218 120.857C242.166 120.857 239.683 123.34 239.683 126.392Z" fill="#00C1DB"/>
<path d="M220.386 137.709C221.085 137.709 221.652 137.143 221.652 136.444V130.865C221.652 130.166 221.085 129.6 220.386 129.6C219.688 129.6 219.121 130.166 219.121 130.865V136.444C219.121 137.143 219.688 137.709 220.386 137.709Z" fill="#029AB8"/>
<path d="M220.386 147.472C221.085 147.472 221.652 146.906 221.652 146.207V140.628C221.652 139.93 221.085 139.363 220.386 139.363C219.688 139.363 219.121 139.93 219.121 140.628V146.207C219.121 146.906 219.688 147.472 220.386 147.472Z" fill="#029AB8"/>
<path d="M212.556 139.801H217.567C218.266 139.801 218.833 139.234 218.833 138.536C218.833 137.837 218.266 137.271 217.567 137.271H212.556C211.858 137.271 211.291 137.837 211.291 138.536C211.291 139.234 211.858 139.801 212.556 139.801Z" fill="#029AB8"/>
<path d="M223.206 139.801H228.217C228.916 139.801 229.483 139.234 229.483 138.536C229.483 137.837 228.916 137.271 228.217 137.271H223.206C222.508 137.271 221.941 137.837 221.941 138.536C221.941 139.234 222.508 139.801 223.206 139.801Z" fill="#029AB8"/>
<path d="M249.536 94.8245C250.235 94.8245 250.802 94.2578 250.802 93.5592V87.9802C250.802 87.2815 250.235 86.7148 249.536 86.7148C248.838 86.7148 248.271 87.2815 248.271 87.9802V93.5592C248.272 94.2578 248.839 94.8245 249.536 94.8245Z" fill="#126378"/>
<path d="M249.536 104.588C250.235 104.588 250.802 104.021 250.802 103.322V97.7433C250.802 97.0447 250.235 96.478 249.536 96.478C248.838 96.478 248.271 97.0447 248.271 97.7433V103.322C248.272 104.021 248.839 104.588 249.536 104.588Z" fill="#126378"/>
<path d="M241.706 96.9168H246.717C247.415 96.9168 247.982 96.3501 247.982 95.6515C247.982 94.9529 247.415 94.3862 246.717 94.3862H241.706C241.007 94.3862 240.44 94.9529 240.44 95.6515C240.44 96.3501 241.007 96.9168 241.706 96.9168Z" fill="#126378"/>
<path d="M252.356 96.9168H257.367C258.066 96.9168 258.633 96.3501 258.633 95.6515C258.633 94.9529 258.066 94.3862 257.367 94.3862H252.356C251.658 94.3862 251.091 94.9529 251.091 95.6515C251.091 96.3501 251.658 96.9168 252.356 96.9168Z" fill="#126378"/>
<path d="M580.657 104.214V128.772C580.657 132.018 578.024 134.651 574.778 134.651H530.188L516.726 139.48C515.344 139.977 514.021 138.618 514.551 137.25L519.643 124.1V104.213C519.643 100.967 522.276 98.3335 525.525 98.3335H574.777C578.023 98.3335 580.657 100.968 580.657 104.214Z" fill="#00C1DB"/>
<g opacity="0.5">
<path d="M571.257 111.161H530.351C529.454 111.161 528.728 110.434 528.728 109.538C528.728 108.641 529.454 107.916 530.351 107.916H571.257C572.153 107.916 572.88 108.643 572.88 109.538C572.88 110.436 572.153 111.161 571.257 111.161Z" fill="#E1FEC9"/>
<path d="M571.257 117.697H530.351C529.454 117.697 528.728 116.97 528.728 116.074C528.728 115.177 529.454 114.452 530.351 114.452H571.257C572.153 114.452 572.88 115.178 572.88 116.074C572.88 116.97 572.153 117.697 571.257 117.697Z" fill="#E1FEC9"/>
<path d="M571.257 124.23H530.351C529.454 124.23 528.728 123.504 528.728 122.609C528.728 121.712 529.454 120.985 530.351 120.985H571.257C572.153 120.985 572.88 121.712 572.88 122.609C572.88 123.504 572.153 124.23 571.257 124.23Z" fill="#E1FEC9"/>
</g>
<path d="M788.132 499.99V500.868C788.132 505.93 781.583 510.035 773.5 510.035H14.6269C6.54578 510.035 0.000244141 505.93 0.000244141 500.868V499.99C0.000244141 494.927 6.54578 490.822 14.6269 490.822H773.5C781.583 490.822 788.132 494.927 788.132 499.99Z" fill="#126378"/>
<path d="M788.132 499.99V500.428H0.000244141V499.99C0.000244141 494.927 6.54578 490.822 14.6269 490.822H773.5C781.583 490.822 788.132 494.927 788.132 499.99Z" fill="#029AB8"/>
<path d="M309.669 440.875C309.499 441.569 309.136 442.201 308.623 442.698C308.11 443.196 307.468 443.539 306.769 443.688C306.07 443.838 305.343 443.788 304.672 443.543C304 443.299 303.411 442.871 302.972 442.308C302.532 441.744 302.26 441.069 302.186 440.358C302.113 439.647 302.241 438.93 302.556 438.289C302.87 437.647 303.359 437.107 303.967 436.731C304.574 436.354 305.275 436.156 305.99 436.159C306.541 436.227 307.073 436.403 307.557 436.677C308.04 436.951 308.464 437.317 308.806 437.755C309.148 438.193 309.4 438.694 309.548 439.229C309.696 439.765 309.737 440.324 309.669 440.875Z" fill="#455A64"/>
<path d="M307.153 420.001C307.869 422.229 308.295 424.539 308.422 426.875C308.442 429.379 307.884 431.854 306.793 434.107C306.162 435.424 305.343 436.642 304.361 437.724C303.744 438.292 303.171 438.907 302.648 439.564C302.362 439.971 302.16 440.432 302.054 440.918C301.949 441.405 301.942 441.908 302.035 442.398C302.54 443.989 303.169 445.537 303.917 447.029C304.304 448.405 304.489 449.83 304.467 451.259C304.414 453.761 303.777 456.216 302.606 458.428C301.436 460.434 300.015 462.281 298.376 463.927C298.376 463.927 299.032 463.694 300.026 462.89C301.396 461.763 302.556 460.403 303.452 458.872C304.834 456.572 305.612 453.961 305.715 451.28C305.784 449.682 305.599 448.082 305.165 446.543C304.477 445.104 303.869 443.629 303.346 442.123C303.008 440.706 304.171 439.712 305.334 438.527C306.389 437.34 307.259 435.999 307.914 434.552C309.034 432.125 309.536 429.458 309.374 426.79C309.283 425.009 308.89 423.257 308.21 421.609C307.974 421.005 307.613 420.458 307.153 420.001Z" fill="#455A64"/>
<path d="M317.264 434.763C317.052 434.763 317.264 435.884 316.735 437.449C316.103 439.49 314.799 441.257 313.034 442.461C311.196 443.599 309.132 444.321 306.986 444.576C305.294 444.83 304.215 444.851 304.215 445.041C304.215 445.232 305.273 445.486 307.049 445.464C309.426 445.443 311.749 444.754 313.753 443.477C314.753 442.804 315.609 441.939 316.273 440.934C316.937 439.929 317.396 438.802 317.623 437.618C317.898 435.8 317.39 434.721 317.264 434.763Z" fill="#455A64"/>
<g opacity="0.2">
<path d="M309.672 440.874C309.501 441.568 309.139 442.199 308.626 442.697C308.113 443.194 307.47 443.538 306.771 443.687C306.073 443.836 305.346 443.786 304.674 443.542C304.003 443.298 303.414 442.87 302.974 442.306C302.535 441.743 302.262 441.067 302.189 440.356C302.115 439.646 302.243 438.929 302.558 438.287C302.873 437.646 303.362 437.106 303.969 436.729C304.576 436.353 305.277 436.155 305.992 436.158C306.543 436.226 307.076 436.402 307.559 436.676C308.042 436.949 308.467 437.316 308.809 437.754C309.15 438.192 309.402 438.693 309.551 439.228C309.699 439.763 309.74 440.323 309.672 440.874Z" fill="black"/>
<path d="M307.153 420.001C307.869 422.228 308.296 424.538 308.422 426.874C308.442 429.378 307.885 431.853 306.794 434.107C306.163 435.424 305.343 436.642 304.362 437.723C303.744 438.292 303.172 438.907 302.649 439.563C302.362 439.971 302.16 440.431 302.055 440.918C301.95 441.405 301.943 441.908 302.036 442.397C302.54 443.988 303.169 445.537 303.918 447.029C304.304 448.405 304.489 449.829 304.468 451.258C304.415 453.76 303.777 456.216 302.606 458.428C301.437 460.433 300.015 462.281 298.377 463.926C298.377 463.926 299.032 463.694 300.026 462.89C301.396 461.763 302.556 460.402 303.452 458.872C304.834 456.572 305.613 453.96 305.715 451.279C305.785 449.681 305.599 448.082 305.165 446.542C304.477 445.104 303.87 443.628 303.347 442.122C303.008 440.705 304.171 439.711 305.335 438.527C306.39 437.339 307.26 435.999 307.915 434.551C309.035 432.124 309.536 429.458 309.374 426.79C309.283 425.009 308.89 423.257 308.211 421.608C307.974 421.005 307.614 420.457 307.153 420.001Z" fill="black"/>
<path d="M317.263 434.763C317.051 434.763 317.263 435.884 316.734 437.449C316.102 439.49 314.798 441.256 313.033 442.461C311.195 443.599 309.131 444.321 306.985 444.576C305.293 444.83 304.214 444.851 304.214 445.041C304.214 445.231 305.272 445.485 307.048 445.464C309.425 445.442 311.748 444.753 313.752 443.476C314.752 442.803 315.608 441.939 316.272 440.934C316.936 439.928 317.395 438.801 317.622 437.618C317.897 435.799 317.39 434.721 317.263 434.763Z" fill="black"/>
</g>
<path d="M360.806 242.779C361.377 242.567 362.118 242.335 363.091 242.081C366.391 241.206 369.817 240.899 373.221 241.172C378.36 241.536 383.216 243.666 386.967 247.199C389.184 249.298 390.885 251.882 391.937 254.749C392.475 256.274 392.789 257.87 392.867 259.486C392.867 261.136 392.741 262.743 392.867 264.308C392.859 265.045 393.001 265.775 393.284 266.455C393.568 267.135 393.987 267.75 394.517 268.263C395.686 269.192 397.011 269.908 398.429 270.378C399.896 270.923 401.261 271.709 402.469 272.704C404.112 274.113 405.32 275.962 405.949 278.034C406.578 280.105 406.604 282.313 406.022 284.399C405.278 286.63 404.262 288.761 402.997 290.743C402.49 291.547 402.067 292.33 401.665 293.091C401.591 293.751 401.591 294.418 401.665 295.079C402.139 297.976 403.542 300.641 405.662 302.671C407.787 304.673 409.636 306.949 411.161 309.439C411.908 310.7 412.272 312.151 412.208 313.616C412.144 315.081 411.655 316.495 410.801 317.686C408.686 320.14 404.943 320.14 401.686 320.055C390.379 319.989 379.079 320.618 367.849 321.937L358.713 243.308C359.347 243.153 360.045 242.976 360.806 242.779ZM389.293 256.695C389.801 259.803 389.293 263.166 390.837 265.936C392.381 268.707 395.744 270.378 398.26 272.577C400.212 274.334 401.685 276.558 402.543 279.04C403.401 281.521 403.616 284.18 403.167 286.768C402.934 288.079 402.511 289.369 402.152 290.68L402.278 290.468C403.473 288.477 404.418 286.346 405.091 284.124C405.779 281.631 405.492 278.969 404.288 276.68C403.671 275.446 402.807 274.351 401.75 273.465C400.616 272.552 399.336 271.837 397.964 271.35C396.428 270.821 394.996 270.027 393.734 269.003C393.104 268.394 392.604 267.665 392.262 266.858C391.92 266.051 391.745 265.184 391.747 264.308C391.747 262.595 391.895 260.988 391.747 259.465C391.682 257.958 391.397 256.469 390.901 255.045C389.916 252.326 388.325 249.867 386.248 247.855C382.667 244.444 378.039 242.343 373.115 241.891C372.04 241.774 370.96 241.717 369.879 241.721C372.374 241.806 374.841 242.27 377.196 243.096C380.226 244.106 382.938 245.894 385.061 248.28C387.184 250.666 388.643 253.568 389.293 256.695Z" fill="#263238"/>
<path d="M373.771 335.789C373.116 332.173 374.279 316.904 374.279 316.904C374.279 316.904 387.814 315.191 388.406 301.36C388.998 287.529 387.602 255.7 387.602 255.7L362.689 243.73L340.928 268.537L340.526 335.578L373.771 335.789Z" fill="#FFA681"/>
<path d="M384.113 278.964C384.113 279.306 384.012 279.64 383.822 279.925C383.632 280.21 383.363 280.432 383.047 280.564C382.731 280.696 382.384 280.731 382.048 280.666C381.712 280.601 381.403 280.438 381.16 280.197C380.917 279.957 380.75 279.65 380.68 279.315C380.611 278.98 380.642 278.632 380.771 278.315C380.899 277.997 381.118 277.725 381.4 277.532C381.682 277.339 382.015 277.234 382.357 277.229C382.819 277.229 383.263 277.412 383.591 277.736C383.92 278.061 384.107 278.502 384.113 278.964Z" fill="#263238"/>
<path d="M386.947 277.018C386.735 277.251 385.445 276.151 383.584 276.088C381.723 276.024 380.348 276.955 380.158 276.701C379.968 276.447 380.285 276.173 380.877 275.728C381.679 275.164 382.648 274.888 383.626 274.946C384.612 274.982 385.558 275.347 386.312 275.982C386.862 276.384 387.052 276.913 386.947 277.018Z" fill="#263238"/>
<path d="M363.938 278.964C363.938 279.306 363.837 279.64 363.647 279.925C363.457 280.21 363.188 280.432 362.872 280.564C362.557 280.696 362.209 280.731 361.873 280.666C361.537 280.601 361.228 280.438 360.985 280.197C360.742 279.957 360.575 279.65 360.506 279.315C360.436 278.98 360.468 278.632 360.596 278.315C360.724 277.997 360.943 277.725 361.225 277.532C361.507 277.339 361.841 277.234 362.183 277.229C362.645 277.229 363.088 277.412 363.416 277.736C363.745 278.061 363.932 278.502 363.938 278.964Z" fill="#263238"/>
<path d="M366.39 277.378C366.179 277.611 364.888 276.511 363.027 276.448C361.166 276.384 359.792 277.315 359.601 277.061C359.411 276.807 359.728 276.532 360.32 276.088C361.124 275.527 362.09 275.245 363.07 275.284C364.054 275.33 364.996 275.694 365.756 276.321C366.305 276.828 366.496 277.272 366.39 277.378Z" fill="#263238"/>
<path d="M373.369 293.302C374.353 293.018 375.369 292.862 376.393 292.837C376.858 292.837 377.302 292.837 377.387 292.393C377.445 291.869 377.35 291.34 377.112 290.87C376.668 289.622 376.224 288.311 375.758 286.937C374.502 283.607 373.505 280.184 372.776 276.701C374.269 279.931 375.521 283.267 376.52 286.683C376.964 288.057 377.387 289.369 377.81 290.616C378.097 291.245 378.172 291.951 378.021 292.625C377.951 292.799 377.842 292.953 377.703 293.078C377.563 293.203 377.398 293.294 377.218 293.344C376.95 293.373 376.681 293.373 376.414 293.344C375.401 293.46 374.378 293.446 373.369 293.302Z" fill="#263238"/>
<path d="M374.278 316.904C367.856 316.73 361.623 314.686 356.344 311.024C356.344 311.024 360.574 321.091 374.046 320.287L374.278 316.904Z" fill="#EB996E"/>
<path d="M307.025 286.958C307.894 287.1 308.779 287.1 309.648 286.958C311.213 284.504 314.026 282.728 316.119 280.465C316.524 278.448 316.348 276.358 315.612 274.438C315.219 273.367 314.894 272.272 314.639 271.16C314.343 269.927 314.409 268.634 314.829 267.438C315.938 265.146 317.883 263.367 320.264 262.468C322.125 259.866 325.53 258.661 327.899 256.44C328.386 255.242 328.74 253.994 328.956 252.718C329.245 250.636 329.793 248.597 330.585 246.649C331.397 244.977 332.602 243.526 334.095 242.419C335.822 241.069 337.884 240.214 340.059 239.945C341.584 239.152 343.226 238.609 344.923 238.337C347.495 237.963 350.119 238.186 352.591 238.989C355.063 239.792 357.317 241.154 359.177 242.969C362.962 242.012 366.901 241.826 370.759 242.422C374.618 243.018 378.317 244.383 381.637 246.437C384.683 248.054 387.162 250.563 388.743 253.628C389.802 256.5 390.256 259.56 390.075 262.616C390.075 264.731 390.075 266.993 390.075 269.172C390.134 269.734 390.024 270.301 389.758 270.8C389.45 271.122 389.073 271.37 388.655 271.524C388.237 271.678 387.79 271.734 387.347 271.688L377.217 272.069C376.531 272.158 375.833 272.048 375.208 271.752C374.679 271.408 374.253 270.928 373.973 270.362C373.694 269.797 373.573 269.166 373.622 268.537C373.622 267.586 373.622 265.64 373.622 265.09C373.289 266.415 372.887 267.721 372.416 269.003C372.325 269.705 372.09 270.381 371.726 270.989C371.362 271.596 370.877 272.122 370.301 272.534C369.382 272.931 368.381 273.098 367.383 273.021C365.924 273.021 364.464 273.021 363.005 273.021C362.262 273.068 361.524 272.883 360.89 272.492C360.49 272.063 360.208 271.537 360.071 270.967C359.934 270.396 359.947 269.799 360.108 269.235C360.494 267.754 360.728 266.238 360.806 264.709C359.494 267.29 358.86 270.504 357.253 270.927C355.618 271.172 353.949 271.049 352.368 270.568C350.739 270.06 349.597 269.658 348.413 269.278C348.512 269.954 348.675 270.62 348.899 271.265C350.126 274.586 352.896 277.779 351.945 281.184C350.993 284.589 347.567 285.773 345.79 288.459C344.967 290.009 344.504 291.726 344.438 293.48C344.372 295.235 344.705 296.981 345.41 298.589C346.844 301.779 348.093 305.048 349.153 308.381C349.935 311.786 349.386 315.867 346.594 317.961C344.268 319.359 341.555 319.974 338.854 319.716L314.279 319.928C312.697 320.037 311.107 319.865 309.584 319.42C308.821 319.197 308.129 318.777 307.579 318.201C307.03 317.626 306.642 316.916 306.454 316.142C306.404 315.207 306.582 314.274 306.972 313.423C307.363 312.572 307.954 311.828 308.696 311.257C310.193 310.089 311.462 308.655 312.439 307.027C313.729 304.257 312.439 301.021 311.044 298.335C309.648 295.65 307.956 292.731 308.485 289.728C308.606 288.988 308.849 288.273 309.204 287.613C308.404 287.654 307.604 287.561 306.835 287.338C306.122 287.157 305.453 286.833 304.868 286.387C304.488 286.09 304.318 285.9 304.34 285.858C305.177 286.353 306.081 286.724 307.025 286.958ZM338.431 240.896C337.028 241.357 335.723 242.074 334.582 243.011C333.214 244.09 332.125 245.483 331.409 247.072C330.69 248.966 330.2 250.94 329.95 252.951C329.95 253.374 329.781 253.818 329.696 254.262C330.881 252.147 331.473 249.758 332.509 247.579C333.846 244.865 335.892 242.563 338.431 240.918V240.896ZM319.397 264.16C317.84 264.934 316.594 266.218 315.865 267.797C315.389 269.933 315.643 272.167 316.584 274.142C317.19 275.731 317.422 277.439 317.261 279.133C317.694 278.546 318.05 277.907 318.319 277.229C319.926 273.211 317.917 268.262 319.376 264.265L319.397 264.16Z" fill="#263238"/>
<path d="M372.693 298.187C372.583 297.608 372.333 297.064 371.964 296.603C371.595 296.142 371.12 295.778 370.578 295.544C370.203 295.371 369.796 295.282 369.383 295.282C368.971 295.282 368.563 295.371 368.188 295.544C367.814 295.745 367.508 296.054 367.312 296.432C367.116 296.809 367.038 297.236 367.089 297.659C367.197 298.112 367.437 298.524 367.78 298.84C368.123 299.157 368.552 299.364 369.013 299.435C369.931 299.581 370.869 299.523 371.762 299.266C372.017 299.219 372.261 299.126 372.481 298.991C372.591 298.925 372.678 298.826 372.731 298.709C372.784 298.592 372.8 298.462 372.778 298.335" fill="#EB996E"/>
<path d="M368.103 293.302C367.955 293.302 367.723 293.81 367.786 294.698C367.899 295.897 368.439 297.016 369.309 297.849C370.189 298.672 371.34 299.146 372.544 299.181C373.454 299.181 373.961 298.928 373.94 298.801C373.919 298.674 371.825 298.653 370.07 297.046C368.315 295.438 368.399 293.302 368.103 293.302Z" fill="#263238"/>
<path d="M400.292 342.43C400.292 342.43 441.256 378.044 442.313 373.666C448.087 350.086 446.543 319.992 445.528 308.487C444.894 307.493 444.153 306.372 443.286 305.188C442.229 303.853 440.965 302.697 439.543 301.762C437.84 300.475 435.969 299.429 433.981 298.653C432.099 298.103 431.866 295.586 433.431 294.994C434.996 294.402 440.304 295.734 445.168 299.795C450.033 303.855 448.045 294.212 447.389 290.68C446.733 287.148 445.274 276.151 446.141 275.115C447.495 273.613 449.419 274.819 450.011 278.35C450.604 281.882 453.057 292.393 454.897 292.012C456.737 291.632 453.141 273.698 453.141 273.698C453.141 273.698 451.746 269.976 453.86 269.468C457.709 268.516 460.099 287.825 460.205 289.665C460.332 290.934 462.32 290.595 462.151 289.221C461.981 287.846 458.154 271.414 462.151 270.42C465.133 269.658 464.265 286.281 466.951 289.305C469.637 292.33 466.317 276.616 469.193 275.982C470.272 275.77 471.118 275.749 471.71 285.012C471.858 292.473 471.59 299.935 470.906 307.366C473.444 332.744 478.414 410.676 443.244 407.99C401.73 404.839 392.171 372.038 392.171 372.038L400.292 342.43Z" fill="#FFA681"/>
<path d="M285.539 399.044L292.645 363.43C297.869 334.266 338.749 332.257 338.749 332.257L370.831 331.728C370.831 331.728 392.191 331.052 409.3 345.073C426.409 359.094 437.871 369.901 437.871 369.901L411.034 400.947L395.13 390.373C395.13 390.373 400.861 400.693 399.91 409.406C399 417.866 390.118 424.337 390.118 424.337L396.801 495.967L292.032 491.737L305.525 399.044H285.539Z" fill="#029AB8"/>
<path d="M290.53 371.212C290.869 372.118 291.279 372.994 291.756 373.835C295.388 380.137 301.228 384.869 308.146 387.116C313.775 388.883 319.8 388.949 325.467 387.306C328.776 386.367 331.852 384.746 334.497 382.548C337.467 380.151 339.368 376.677 339.784 372.883C339.927 370.834 339.493 368.785 338.533 366.969C337.572 365.153 336.123 363.641 334.349 362.605C333.38 362.096 332.314 361.795 331.222 361.722C330.129 361.649 329.033 361.806 328.005 362.182C325.919 362.95 324.128 364.356 322.887 366.2C321.588 368.069 320.854 370.271 320.772 372.545C320.741 374.832 321.233 377.096 322.21 379.164C324.265 383.354 327.396 386.923 331.283 389.506C335.28 392.276 339.785 394.23 344.54 395.253C349.294 396.277 354.204 396.35 358.987 395.47C363.866 394.575 368.479 392.586 372.48 389.654C376.425 386.829 379.425 382.878 381.087 378.318C382.628 373.851 382.47 368.972 380.643 364.614C379.778 362.506 378.397 360.65 376.627 359.216C374.857 357.782 372.754 356.817 370.513 356.409C368.323 356.067 366.085 356.533 364.213 357.72C362.342 358.907 360.965 360.733 360.34 362.859C359.9 364.943 360.279 367.116 361.398 368.928C362.419 370.68 363.876 372.137 365.628 373.158C369.02 374.836 372.878 375.327 376.582 374.554C379.928 373.959 383.213 373.06 386.395 371.868C391.987 370.031 396.997 366.756 400.924 362.372C403.802 358.955 405.461 354.677 405.64 350.212C405.781 347.404 405.152 344.61 403.822 342.133C403.355 341.281 402.771 340.498 402.087 339.807C402.087 339.807 402.722 340.59 403.631 342.239C404.839 344.707 405.379 347.449 405.196 350.191C404.952 354.531 403.287 358.67 400.459 361.971C396.566 366.229 391.621 369.387 386.12 371.128C382.983 372.276 379.748 373.139 376.456 373.708C372.949 374.434 369.301 373.965 366.093 372.376C364.48 371.456 363.138 370.129 362.202 368.527C361.208 366.9 360.882 364.953 361.292 363.092C361.87 361.21 363.109 359.602 364.781 358.564C366.453 357.526 368.444 357.128 370.386 357.445C372.451 357.833 374.385 358.734 376.01 360.064C377.636 361.394 378.902 363.111 379.691 365.058C381.413 369.177 381.549 373.788 380.072 378.001C378.487 382.353 375.618 386.121 371.845 388.808C367.974 391.623 363.524 393.538 358.818 394.412C349.44 396.131 339.764 394.054 331.917 388.639C328.186 386.174 325.173 382.767 323.183 378.762C322.27 376.833 321.807 374.721 321.829 372.587C321.91 370.522 322.586 368.525 323.775 366.835C324.882 365.158 326.487 363.871 328.364 363.155C329.265 362.825 330.223 362.685 331.181 362.743C332.138 362.801 333.072 363.057 333.926 363.493C335.539 364.448 336.857 365.831 337.734 367.488C338.611 369.145 339.013 371.012 338.896 372.883C338.71 374.644 338.176 376.35 337.327 377.904C336.478 379.458 335.329 380.827 333.947 381.935C331.416 384.089 328.452 385.675 325.255 386.587C319.739 388.253 313.853 388.253 308.337 386.587C304.183 385.305 300.373 383.1 297.191 380.137C295.174 378.266 293.417 376.132 291.968 373.793L290.91 371.932L290.53 371.212Z" fill="white"/>
<path d="M294.908 480.042L295.479 480.296C295.86 480.423 296.431 480.677 297.192 480.888C299.435 481.557 301.75 481.955 304.087 482.072C307.798 482.281 311.518 481.852 315.084 480.803C319.833 479.424 324.183 476.929 327.773 473.528C331.14 470.28 333.765 466.341 335.466 461.982C337.167 457.623 337.905 452.948 337.628 448.277C337.502 444.699 336.5 441.206 334.71 438.105C333.721 436.481 332.357 435.118 330.734 434.129C329.041 433.129 327.093 432.644 325.129 432.733C324.109 432.755 323.104 432.986 322.177 433.412C321.249 433.837 320.419 434.448 319.736 435.208C318.352 436.777 317.599 438.804 317.622 440.896C317.617 442.979 318.228 445.017 319.377 446.755C320.538 448.473 322.025 449.946 323.755 451.09C327.247 453.364 331.183 454.871 335.302 455.51C343.461 456.756 351.798 455.078 358.84 450.773C362.177 448.757 365.098 446.122 367.447 443.011C369.792 440.051 371.323 436.53 371.888 432.797C372.143 430.998 372.019 429.165 371.524 427.417C371.029 425.669 370.173 424.043 369.012 422.645C367.903 421.287 366.439 420.262 364.782 419.685C363.147 419.147 361.389 419.103 359.728 419.558C358.105 419.947 356.633 420.808 355.498 422.032C354.401 423.223 353.77 424.77 353.722 426.389C353.754 427.871 354.113 429.329 354.775 430.656C355.437 431.984 356.385 433.148 357.55 434.066C359.549 435.781 361.882 437.063 364.402 437.83C366.605 438.564 368.894 439.012 371.212 439.162C374.934 439.393 378.662 438.823 382.145 437.492C384.321 436.626 386.364 435.458 388.215 434.023C388.704 433.658 389.17 433.262 389.611 432.839C389.907 432.564 390.055 432.416 390.034 432.395C390.013 432.374 389.378 432.924 388.088 433.833C383.201 437.393 377.193 439.067 371.169 438.549C368.905 438.373 366.673 437.904 364.529 437.153C362.108 436.402 359.874 435.148 357.973 433.473C356.908 432.629 356.043 431.56 355.44 430.343C354.837 429.125 354.51 427.789 354.483 426.431C354.604 424.984 355.194 423.617 356.164 422.536C357.134 421.456 358.43 420.722 359.855 420.446C361.336 420.043 362.903 420.087 364.36 420.573C365.865 421.098 367.196 422.027 368.209 423.259C369.269 424.563 370.05 426.072 370.501 427.691C370.952 429.31 371.064 431.005 370.831 432.67C370.289 436.218 368.831 439.564 366.601 442.377C364.325 445.38 361.497 447.921 358.269 449.863C351.446 454.007 343.385 455.624 335.492 454.431C331.529 453.815 327.739 452.374 324.368 450.202C322.724 449.249 321.345 447.901 320.355 446.279C319.365 444.658 318.796 442.815 318.7 440.918C318.662 439.1 319.277 437.329 320.434 435.927C321.027 435.284 321.742 434.766 322.537 434.403C323.332 434.04 324.192 433.839 325.066 433.812C326.828 433.739 328.575 434.172 330.099 435.059C331.586 435.961 332.839 437.2 333.758 438.676C335.459 441.639 336.417 444.969 336.549 448.383C336.747 451.623 336.455 454.874 335.682 458.027C334.259 463.711 331.295 468.892 327.117 473C323.643 476.357 319.426 478.85 314.809 480.275C309.073 482.027 302.967 482.181 297.15 480.719C295.733 480.275 294.929 480 294.908 480.042Z" fill="white"/>
<path d="M330.374 361.188C330.086 361.914 329.894 362.675 329.803 363.451C329.464 365.164 329.063 367.258 328.576 369.795C327.498 375.336 326.102 382.484 324.579 390.415C323.056 398.346 321.724 405.811 320.878 411.119C320.476 413.784 320.159 415.941 319.99 417.464C319.849 418.238 319.807 419.027 319.863 419.811C320.134 419.074 320.319 418.307 320.413 417.527C320.751 415.814 321.174 413.742 321.661 411.288C322.739 405.748 324.114 398.599 325.658 390.648C327.201 382.696 328.513 375.273 329.338 369.943C329.76 367.279 330.057 365.122 330.226 363.599C330.386 362.806 330.435 361.995 330.374 361.188Z" fill="#263238"/>
<path d="M284.883 399.34C291.316 399.927 297.777 400.132 304.234 399.953C310.688 400.157 317.148 400.001 323.585 399.488C317.153 398.899 310.691 398.687 304.234 398.853C297.78 398.662 291.32 398.825 284.883 399.34Z" fill="#263238"/>
<path d="M411.034 400.883C415.744 395.976 420.192 390.823 424.357 385.445C428.806 380.309 432.964 374.929 436.813 369.33C432.099 374.226 427.652 379.373 423.49 384.747C419.054 389.9 414.896 395.287 411.034 400.883Z" fill="#263238"/>
<path d="M341.604 332.363C343.19 332.746 344.816 332.931 346.447 332.913C349.45 333.082 353.595 333.188 358.185 333.125C362.774 333.061 366.898 332.829 369.901 332.554C371.531 332.523 373.151 332.289 374.723 331.856C373.106 331.69 371.476 331.69 369.858 331.856L358.163 332.11L346.468 332.215C344.846 332.107 343.217 332.156 341.604 332.363Z" fill="#263238"/>
<path d="M399.655 399.573C399.218 398.093 398.6 396.672 397.815 395.343L395.531 390.817C394.388 389.212 393.828 387.265 393.945 385.298C394.728 381.068 395.489 377.05 395.933 374.216C396.281 372.682 396.451 371.114 396.441 369.542C395.839 370.995 395.413 372.514 395.172 374.068C394.516 376.902 393.649 380.751 392.867 385.15C392.639 386.297 392.772 387.486 393.247 388.554C393.661 389.489 394.127 390.4 394.643 391.283C395.531 392.847 396.356 394.328 397.117 395.724C397.817 397.097 398.668 398.389 399.655 399.573Z" fill="#263238"/>
<path d="M281.162 427.552C283.277 410.443 285.54 399.403 285.54 399.403L322.782 399.974C322.782 399.974 319.441 418.775 320.477 423.808C321.365 428.207 393.248 431.105 411.986 431.401C413.086 430.576 414.714 431.972 416.216 430.724C417.494 429.602 418.574 428.272 419.409 426.79C420.526 424.979 421.387 423.022 421.968 420.975C421.997 420.567 422.157 420.18 422.423 419.871C422.689 419.561 423.048 419.345 423.446 419.255C423.845 419.165 424.261 419.206 424.635 419.371C425.008 419.535 425.319 419.816 425.521 420.171C426.282 421.778 425.521 427.108 421.883 432.268C418.246 437.428 427.636 434.742 431.062 433.833C434.488 432.923 445.168 430.597 446.289 431.464C447.896 432.712 446.881 434.721 443.455 435.567C440.029 436.413 429.899 439.627 430.448 441.446C430.998 443.265 448.319 438.359 448.319 438.359C448.319 438.359 451.872 436.688 452.548 438.782C453.838 442.546 435.038 446.374 433.24 446.691C431.992 446.903 432.521 448.912 433.853 448.616C435.186 448.319 451.026 443.307 452.379 447.135C453.394 450.075 436.941 450.413 434.213 453.332C431.485 456.25 446.669 451.745 447.536 454.601C447.853 455.658 441.551 456.144 432.479 457.413C423.153 458.319 413.781 458.658 404.415 458.428C383.266 459.57 308.93 461.114 293.026 459.993C274.458 458.682 280.464 433.431 281.162 427.552Z" fill="#FFA681"/>
<path d="M506.032 357.149L475.494 446.353H337.268L338.304 441.743L394.2 440.03L419.937 357.107L506.032 357.149Z" fill="#263238"/>
<path d="M444.766 399.044C443.856 402.703 445.421 406.277 448.276 407.038C451.131 407.799 454.156 405.452 455.065 401.793C455.974 398.135 454.409 394.56 451.576 393.799C448.742 393.038 445.675 395.385 444.766 399.044Z" fill="white"/>
</svg>
