<svg width="472" height="472" viewBox="0 0 472 472" fill="none" xmlns="http://www.w3.org/2000/svg">
<path d="M261.059 470.172C258.67 470.28 256.282 470.389 253.15 470.494C251.285 470.705 250.165 470.92 249.044 471.135C240.66 471.11 232.276 471.086 223.145 470.887C221.246 470.751 220.095 470.79 218.944 470.828C212.98 470.454 207.016 470.08 200.352 469.351C196.152 468.414 192.629 467.939 189.155 467.225C182.755 465.91 176.383 464.455 170 463.058C168.932 462.668 167.864 462.277 166.261 461.51C154.205 456.558 142.417 452.547 131.243 447.242C121.182 442.466 111.794 436.271 102.11 430.703C101.594 430.171 101.079 429.639 100.02 428.87C98.7274 427.984 98.0266 427.266 97.2201 426.698C81.5623 415.661 67.9695 402.398 55.605 387.85C50.2908 381.598 45.298 375.072 40.1591 368.67C40.0573 368.158 39.9554 367.645 39.475 366.673C34.3954 357.995 29.5226 349.868 25.0508 341.526C21.7885 335.441 19.0544 329.072 16.0848 322.829C15.7968 321.77 15.5087 320.71 15.0732 318.961C12.7291 312.129 10.5323 305.986 8.33551 299.842C7.96143 298.454 7.58734 297.065 7.11877 294.931C5.49634 284.807 3.96844 275.428 2.54309 265.739C2.41217 264.63 2.17883 263.831 1.97803 262.606C1.86749 260.767 1.72436 259.354 1.67297 257.547C1.48328 255.115 1.20172 253.077 0.920166 251.04C0.884155 248.979 0.848145 246.919 0.772644 244.06C0.660645 242.503 0.588135 241.745 0.515625 240.986C0.69043 234.294 0.865173 227.602 1.16443 220.19C1.25317 218.307 1.21741 217.144 1.15985 215.529C1.63092 209.864 1.85687 204.608 2.67993 199.447C3.87878 191.929 5.50738 184.479 6.95276 177C7.35522 175.673 7.75769 174.346 8.48322 172.441C9.49493 169.515 10.0447 167.115 10.8965 164.827C14.5964 154.888 18.3843 144.983 22.1404 135.066C22.8005 133.965 23.4606 132.864 24.4667 131.251C26.6587 126.87 28.5047 122.998 30.3507 119.127C30.9473 118.329 31.5439 117.53 32.4817 116.252C37.3325 108.891 41.8422 102.01 46.3518 95.1283C46.9739 94.3437 47.5958 93.5593 48.5947 92.3491C56.531 83.5916 63.7872 74.9556 71.7407 67.0183C78.8105 59.9628 86.6534 53.682 94.1552 47.0594C94.7842 46.6079 95.4133 46.1564 96.5154 45.3982C103.009 41.1134 109.029 37.1351 115.049 33.1569C116.658 32.3467 118.267 31.5364 120.392 30.4196C124.621 28.1118 128.334 26.1108 132.047 24.1097C133.294 23.6268 134.542 23.1439 136.321 22.3463C148.28 17.805 159.708 13.5782 171.136 9.35132C172.86 8.93829 174.584 8.52527 177.043 7.96765C190.852 5.56952 203.926 3.31604 217.001 1.0625C220.369 0.980042 223.737 0.897583 228.01 0.78772C234.279 0.725586 239.641 0.690796 245.004 0.656006C248.346 0.860413 251.689 1.06482 255.828 1.42285C269.418 3.64514 282.211 5.71374 295.004 7.78235C296.412 8.23437 297.819 8.68634 299.869 9.36542C307.008 11.661 313.505 13.7296 320.003 15.798C321.079 16.2604 322.155 16.7227 323.82 17.4501C326.682 18.7167 329.031 19.5769 331.216 20.7434C342.775 26.9144 354.293 33.1624 365.825 39.3837C366.628 39.9944 367.431 40.6051 368.71 41.5588C372.474 44.3436 375.88 46.6423 379.025 49.2552C386.89 55.7897 395.32 61.8267 402.267 69.2406C412.016 79.6454 420.627 91.1166 429.725 102.132C429.787 102.46 429.947 102.732 430.509 103.388C443.592 122.892 453.101 143.545 460.675 165.14C460.996 166.555 461.317 167.97 461.803 170.077C464.181 180.564 466.393 190.358 468.606 200.152C468.76 202.172 468.914 204.193 469.21 206.97C469.631 208.798 469.911 209.869 470.191 210.939C470.187 211.712 470.184 212.484 470.237 214.038C470.47 216.196 470.647 217.571 470.676 219.272C470.729 220.714 470.931 221.831 471.096 223.418C471.087 232.274 471.113 240.66 470.94 249.332C470.755 250.762 470.77 251.906 470.66 253.37C470.6 254.136 470.664 254.582 470.729 255.029C470.51 256.747 470.292 258.464 469.938 260.824C469.845 261.996 469.886 262.525 469.927 263.054C469.581 265.073 469.236 267.091 468.827 269.936C468.511 271.55 468.137 272.321 468.024 273.128C465.196 293.336 459.35 312.63 451 331.245C441.367 352.718 429.063 372.35 413.492 390.087C398.156 407.556 380.983 422.676 361.373 435.151C342.287 447.293 321.989 456.675 300.163 462.547C290.562 465.131 280.727 466.842 270.814 468.821C270.108 468.854 269.586 469.014 269.064 469.174C267.659 469.27 266.254 469.365 264.16 469.469C262.667 469.708 261.863 469.94 261.059 470.172ZM95.3312 385.981C95.4348 390.125 98.7716 389.428 101.176 389.634C138.96 392.873 175.974 389.231 212.012 377.038C253.513 362.996 288.903 339.628 317.386 306.391C357.074 260.08 375.952 205.431 378.89 145.138C380.121 119.883 379.211 94.5245 379.259 69.2131C379.26 68.6326 379.073 68.0519 378.869 66.8523C373.231 72.4375 368.231 77.709 362.891 82.6115C353.594 91.1476 344.804 100.489 334.511 107.633C315.999 120.483 294.331 125.946 272.487 130.113C250.259 134.354 227.739 137.205 205.672 142.124C158.436 152.654 125.694 180.569 108.59 226.22C97.3501 256.221 92.6876 287.482 92.4525 319.269C92.2902 341.209 94.2234 363.164 95.3312 385.981Z" fill="#7AC144"/>
<path d="M470.413 210.745C469.911 209.869 469.631 208.798 469.357 207.38C469.787 208.206 470.211 209.378 470.413 210.745Z" fill="#E7E9EB"/>
<path d="M470.125 262.95C469.887 262.525 469.846 261.996 469.988 261.26C470.221 261.651 470.271 262.248 470.125 262.95Z" fill="#E7E9EB"/>
<path d="M95.2761 385.547C94.2238 363.164 92.2906 341.209 92.453 319.269C92.6881 287.482 97.3506 256.221 108.591 226.22C125.695 180.569 158.436 152.654 205.672 142.124C227.739 137.205 250.259 134.354 272.488 130.113C294.332 125.946 315.999 120.483 334.512 107.633C344.805 100.489 353.594 91.1476 362.892 82.6115C368.231 77.709 373.232 72.4375 378.87 66.8523C379.074 68.0519 379.26 68.6326 379.259 69.2131C379.211 94.5245 380.122 119.883 378.891 145.138C375.952 205.431 357.075 260.08 317.387 306.391C288.903 339.628 253.513 362.996 212.013 377.038C175.975 389.231 138.96 392.873 101.176 389.634C98.7721 389.428 95.4353 390.125 95.2761 385.547ZM187.611 185.014C165.942 195.381 150.596 211.813 143.128 234.54C138.321 249.168 135.17 264.399 132.134 279.532C130.027 290.035 129.378 300.83 128.037 311.834C153.171 315.456 175.686 309.448 197.148 298.488C218.626 287.52 236.02 271.668 250.614 252.519C241.612 279.406 222.479 298.371 201.329 315.613C180.117 332.906 156.327 345.856 130.683 355.48C267.431 354.201 351.964 235.365 347.292 138.507C338.908 142.688 330.635 147.327 321.965 151.037C298.918 160.902 274.267 164.209 249.749 168.006C228.649 171.274 207.793 175.516 187.611 185.014Z" fill="#FDFEFC"/>
<path d="M470.939 249.332C471.19 250.287 471.241 251.528 471.038 252.91C470.77 251.906 470.755 250.762 470.939 249.332Z" fill="#E7E9EB"/>
<path d="M470.676 219.272C471.08 220.148 471.336 221.348 471.362 222.748C470.931 221.831 470.73 220.714 470.676 219.272Z" fill="#E7E9EB"/>
<path d="M187.952 184.86C207.793 175.516 228.65 171.274 249.75 168.006C274.267 164.209 298.918 160.902 321.965 151.037C330.635 147.327 338.908 142.688 347.292 138.507C351.964 235.365 267.431 354.201 130.683 355.48C156.327 345.856 180.117 332.906 201.329 315.613C222.48 298.371 241.613 279.406 250.614 252.519C236.02 271.668 218.627 287.52 197.149 298.488C175.687 309.448 153.171 315.456 128.037 311.834C129.379 300.83 130.027 290.035 132.135 279.532C135.17 264.399 138.321 249.168 143.128 234.54C150.596 211.813 165.942 195.381 187.952 184.86Z" fill="#7AC144"/>
</svg>
